/* XPM */
static char *d_w[] = {
/* columns rows colors chars-per-pixel */
"64 128 54 1",
"  c #4E2710",
". c #4F2A14",
"X c #502E1A",
"o c #51311D",
"O c #543522",
"+ c #563926",
"@ c #573C2B",
"# c #583723",
"$ c #583824",
"% c #593E2D",
"& c #5B412E",
"* c #564233",
"= c #5A4334",
"- c #594739",
"; c #5C4A3C",
": c #604734",
"> c #614836",
", c #644C3A",
"< c #5E4E42",
"1 c #5C5146",
"2 c #5D5349",
"3 c #634F40",
"4 c #605246",
"5 c #61564C",
"6 c #64594E",
"7 c #695B4C",
"8 c #655D55",
"9 c #665F58",
"0 c #685E54",
"q c #676057",
"w c #676159",
"e c #6B6154",
"r c #6A655C",
"t c #6D685F",
"y c #726455",
"u c #70675C",
"i c #716B5E",
"p c #6D6960",
"a c #746F63",
"s c #767469",
"d c #7A7264",
"f c #7A756A",
"g c #7A786D",
"h c #7E7B72",
"j c #807A6F",
"k c #827C71",
"l c #828077",
"z c #868579",
"x c #88867D",
"c c #8A897E",
"v c #8A8780",
"b c #8C8A82",
"n c #918F87",
"m c #94938A",
/* pixels */
"$$$$$$$$+++$$$$$$$$$$$$$$$o$$$$:,,&++$$$$$$$####$$##$$$$$$$$$$$$",
",,,,,,,,,,,,,,,,,,,,,,,,,,,,,,,,,,,,,,,,,,,,,,,,,,,,,,,,,,,,,,,,",
"ddddddddddddddddddddddddddddjjjy>>yddddddddddddddddddddddddddddd",
"zzzxzzzzxzzzzzzzzzzzzzzzzzzclzzj>>dzzczzzzczzzzzzzzczzzzzzzzzzzz",
"zzzzzzzzzzzzzzzvzzzzzzzzzzzzlzcj,,dczzzzzzzzzzzzzzzzzzzzzzzzzzzz",
"zzzzzzzzzzzzzzzkzzzzzzzlzzzzlzlj,,dzzzzzzzzzzzzzzzzzzzzzzzzzzzzz",
"zzzzzzzzzzzlzzkvzzzzzzzzzzzzzzzj7,fczzzzzzzzzzzzzzzzzzzzzzzzzzzz",
"czcczccxxxxxxvvvcczczcccczccczzjy7lccccccccczcccczccccccccxcxzcx",
"nmnnnnnnbbnbbbnbbbbbbnbnccmmmmmcyyzcmmmmmmnnmmmccmmmnnnnnnnnnnnn",
"ccbcvvvvvvvvvlvvbvvxxxccccbbbncl77gcmcncncccccczccccvvvvvvvbvvvb",
"ssssssssaaasssaassssssssljdsfffi33isgssssssssssssdsdsssdssssssss",
"rtttppurpprppppprrrtrrrtyiytrtue;;6tiitttttrtttqrrttrrrtrrrrtrrt",
"rtttrtprprrprpprtprttttttrttttt0;;7ttrtrtrrtrtttrprtrtrrrrrprrrt",
"ttttttrpppprrprptttttttrttttttt0,;eittttttrttttttttttrtrrprprptt",
"ttrttupppprppppptprttrttttttrtr0;;qttttrrttrtttirtrttrttpprrtttt",
"ttttttprrpppprrptrprtrtttrprttr7;-8ttttrttrttttrtttrrtrtrrprrprp",
"ttrttttirttttttttttttrttrttrttt0,;etttrttrtrrrtttrtttttttrtrrttt",
"rrtttttrttrttrttrtrtttrttrrttrr0-,7itrtrrtrttrrrrtrrrrrrttrtrrrt",
"ttttttrtrttrrtttrttttrtrrrrrttt0;-7tttrtrtrtrrrrrtrtrtrrrrrrrtrt",
"rrrtrrtttrtrtrrttrtrtrrtrtrtrrr0;-8trrrrrrrrrtrrrrrrrrrrrrrtrrtr",
"trrtrrrrrtrrrrtrrrrrtrrrrrtrrrt6,-ertrrrrtrrrrrrrrrrrrrrrtrrrrrr",
"rrrrrrrrrrrrrrrrtrrrrrrrtrrrrtt7--7irrtrrrtrrrrrrrrrrrwrrrrrrrrr",
"rrrrrrrrrrrrrrrrrrrrrrrrrrrrrrt7->8trrrrrrrrrrqrrrrrrrrrrrrrrrrr",
"rrrrrrrrrrrrrwrrrrrrrrrrrrrrrrr6**6rrrrrrrqrrrrrwrrrrwrrrrrrrrrr",
"rrrrrrrrrrqrrrrrrrwrrrrrrrrrrrr2&&1rrrrqwrrrrrwrrrwrrwrwrrwwrrrr",
"rrrrqrrrrrrrrrrrrrrrrwrrrrwrrrt2+&2trrqrrrqwqwrrrwrwwrwrrwrrrwwr",
"qrqrrrqrrrrrqrqrwrrrwrrrrrrrrrr6+&2rqqrrwrrrrwrwrrrrrrrrrrrrwwrr",
"rrrqrrrqwrwrrrrwrwwrrwrrrrrrrrr2&&2rrrqrrwwrwrwrwrwrwwrwwrwwrrwr",
"wrwrqqrrrwrwqrrwwrrwrrqwwrrwwrr2*+2rrwqrqwrqwrwwwwwrrwwrwrwrwrwr",
"wrwrrrrwwrwrwrwrrwwrwrwrwrqrwrr2++2twrwwrwwrwrwrrrwwwrwwwrwwrwrw",
"wwwwwwqqrqwwwwrwwwwrwwwwrwrwqrr5+*2wrqwrrwwrwwwwwwrwwrwrwwwrwwwr",
"wwwwwwwwqwwwwwwwwwwwwrqrwwqwrqr5**2rwwwwwwwqwrwrwwwwwwwwrwwwrwww",
"wwwwqqrwwwwwwwwwwwwwwwwwwwwwwwr2**1wwwwwwwwwwwwwwwwwwwwwwwwwwwww",
"wwwwrqwwwwwwqrwwwwwwwwwwwwwwwwr2*+1wwwwwrwwwrwwwwwwwwwwwwwwwwwww",
"qrrwrqrrwrrrqtwrwwwwwwwwrwrwwww1o+1rrrwrwrrrrrwr9w99wwwwwwwrwwww",
"2211211111111111211122222222111**+112111121111112221222222222222",
"++OOOO+o+o+++OOO*ooooo*o*ooo*oo****oo++o+o+++o+ooo*oOOOO*OOOOOOO",
"ooooooooooooooooooooooooooooooo*1-+oooooooooooXXooXooooooooooooo",
"----------------------1--1------11-**--------*oo*---------------",
"111111111111111111111111111111111111111111111-++1211112212222222",
"111111111111111111111111111111111111111111111-*o-111112222121222",
"1111111111111111111111111111111111111111111111*o-111112111221111",
"111111111111111111111111111111111111111111111-o*1111221212112112",
"1111111111111111111111111111111111111111111111oo-111112111211121",
"111111111111111111111111111111111111111111111-*o-111112111121212",
"111111111111111111111111111111111111111111111-o*1211111211112121",
"111111111111111111111111111111111111111111111-o*-211112112211111",
"1111111111111111111111111111111111111111111111oo-111111121121111",
"1111111111111111111111112211111111111221111221o+-111112121122212",
"2122222221222222222122222222222121222222212211+*1121222222222222",
"888888wwq88qwq88ww8888ww8888ww882wwww2ww888w82-*18888www8888w888",
"wwwwwwwwqqqrwwwwwwwwwwwwwwwwwwwwwwwwwwwwwwwrw21-8wwwwwwwwwwwrrww",
"wwwwwwwwqqqqqqqqwwwwwwwwwwwwwwwwwwwwwwwwqwwww2--2wrrwwwwwwwwwwwr",
"wwww82wwqeq6q6qq8qqw88888888q8qqw2wwwww2q88221--2q228888qw88888w",
"12222222121111111222221222262222222w2222211-1-**1--1221222211212",
"222282221711;11122228228866228822822w2w21111-111---1828228686682",
"wwrwwwwwwwww11qqrqrqwwwwwwrqwwwwwwwwwrwrrwwwwwwwqqqqqwwwwwwrwwww",
"rrtrrrttttrw11qrttrrtttttrrrrrttrrrrrrrrrrrrrrwrttrrtttrtrrttttr",
"rwrwwwwwwwww11wrrwrwwwwwrwrwwwwwwwrwwwwwrwwwwwwwwrqwrwwwrwwwwwwq",
"wwwwwwwwwww8118wwwwwwwwwwwwwwwwwwwwwwwwwwwwwwwwwwqwwwwwwwwwwwwqw",
"wwwwwwwwwwww112wwwwwwqqqwwwwwwwwwwwwwwwwwwwwwwwwwwwwqwwqwwwwww8w",
"wwwwwwwwwww2118wwqwqwwwwqwwwwww8wwwwwwwwwwwwwwwwwwwwwwqwwwwwwwww",
"wwwwwwwwwww8118wwwwwwwwqwwwwwwwwwwwwwwwwwwwwwwwwqwwqqwqwwwwwwwww",
"wwwwwwwwwww8118wwwwwwqqwwwqwwwwwwwwwwwwwwwwwwwwwwwwwqwwqwwwwwwww",
"9wwwwwww9996<289wwww99r9www9www9wqwwwwwwwww99rw9wwww9rw9wwwwwwww",
"ww9wwww9r9982<89wwwwp999wwwwwwwww9www9wwwwww99www9w999wwww9www9w",
"www99www99992489www999r9w9www99wwwwwwwwww99w9wwwwwr999wwwwwwwwww",
"w9wwwwww9r98<<9ww9ww9999wwwwww99www9wwwwww99r9wwww999rww9www9www",
"w99w9www9r96<;89wwwwr999wwww9999ww9www9wwwww9r9w9www9w99wwwwwww9",
"r99pwwwwr998-;59wwww99r9wwww999pwwwwwwqwwwww9r9wwwww9rr9wwww99ww",
"99999wr9r9w6--8wwwww999999ww9999w9wwww9999ww9999w9ww999999ww9999",
"886866665651%%<5668088989999999980888888868866998688669899999999",
"<<<<<;%;%%%-@@%-=;25555555555555252268213<<<<<<<<<<<<<5555555555",
"<<<<<<<%<%%%@@%%%;455556655555555666628544<<<<<<<<4<<<5666555555",
"88888886856688588889999999999999wrwwqrqq9999864<880090909p999999",
"9wwwwrwwrrwrwwrwrr9rwwpwr9rrr9rrrrrpprrrrrrpr8448tpwrrrp9ppppppp",
"w99999ww99wwwwwww9999www99999999wwwwwwww99ww98<19wr99r9r99999999",
"9999999999999999999999999999999999999999999998<<6999999999999998",
"9999999999999999999999999999998999999999999998<<6999999999999999",
"9999999999999999999999999999999999999999999995<16998999999999999",
"9999999998999999998999999999999999999999999996116999999999999999",
"9999999999999998999999999899999999999989999998445999999999999999",
"9999999999999999999999999999999999999999999996426999999999999999",
"9999999999999999999999999999999999999999999999246999999999999999",
"9999909999999999999999999999999999999999999998126999999999999999",
"9999999999999999999999999999989998999999999998<<8999999999999999",
"9999999999999999999999999999999999999999999ww5%%5999999999999999",
"99999999999999999999999999999999999999999999w5%%5999999999999999",
"99999999998999999999999999999999999999999w99r5@@5999999999899998",
"888969655885868668866886668968696869688655555<@@<555698668686686",
"2225224<1<<<<4<1<52522225<<<<22<<52<<2<<-@@%@@@O%%%%<<<211112111",
"55666244431<<;<125265252555425552244255<-@%%=%=@-%%%<22222442452",
"wwwr99999996<<699999999999999999999999998868886686689999999990w0",
"prrrpruprrp9<49prppuprpp9ppuppurrururppurrrprrrprpurrpuprrpurppr",
"wwww9rr9999931699r9r99r99999r999r99999r9999rr999r9999r99r9999ww9",
"999999999996<<89999999999999999999999999999999999999999999999998",
"999999999995<<69999999999999999999999999998999899999999989999999",
"999999999998<169999999999999999999999989999999999999989999999999",
"9999999999962289999999999999999999999999999999989899999999999899",
"9999999999985289999999999999999999999999999999999999999999999999",
"9999999999985299999999999999899999999999999999999989899999999999",
"9999999999994169999999999999999999999999899998999999999999999999",
"999999999996<<88999999999989999999999999999999999999999999999999",
"999999999992<%59999999999999999999999999999999999999999999999999",
"999999999996--699999999999999999qq9899998wwq8qqq9999999999999999",
"999999999r95;%69w999999999999999wqw99w99w8wwwwqq999999w99w99999w",
"999999999998%;69w999r99999999999wwqqw9www8wwwweq999w9wqq99w9wwqq",
"44424444444<@@<444444444<<2222252q21111<22112;114412<44441454444",
"OOOOOOOOoOOOXXOOOOOOOOOOOOOOOOO@,2&oooooOOOOOOOOOOOOOOOOOOOOOOoo",
"+O$$+$$++++++$$+@$++$$+$$$$$$$$@-*&++&&$+++++++$++++$$$@++$$$$@+",
"09e000000000000000000000000ee0e4&&4yeyeeeeeeeeee00000ee0000000ee",
"fffffffffffffffffsffffffsffsffju&&ysssfsssssgsssffffffssfffffsgf",
"ssssssssssssssssfssfssssssssssst13igssssssssssssssssssssssssssss",
"sssssssssssssssssssssssssssssssi77isssssssssssssssssssssssssssss",
"sssssssssssssssssssssssssssssssi77isssssssssssssssssssssssssssss",
"sssssssssssssssssssssssssssssssi77isssssssssssasssssssssssssssss",
"sssssssssssssssssssssssssssssssi67isssssssssssssssssssssssssssss",
"sggsgsggsggsgssgfsgggsggggggggga77agggggssggggggsggsggggsggsgggg",
"llzzzllzlzzzzzlzlllllllllllllzzf77szllzlzzzzlzlzlzzzlllllzzlllll",
"glgghhghghhghhgghhhhhhhhhhhhhhhdq6slhghghhggghghghgghhhhghhghhhh",
"ttttttttttttttrttrtrpritrppppppr74eititttrttttttppttpttptttttptt",
"ww88q88w88wq8qqqwww8qqq88q888888757qq888qqqqq8qqqw88w88w88q88q8w",
"wqq8w8q8q8qqq8qqww8wq8q8q8888qw875qqqqq8qq8q88qqq888w8w8q8qqq888",
"wqqqwwwwwqqqwqwq8w8r8qq08wwwwqw6;,6qqqqqqqqqqqrqqwwqwwwwqqqw8www",
"wqqwwqqqqrqeqqqrwrwwwwqrqrwwwqw2&+2qwqqwqqqqqqqqqqrqwwwwqwwwqqqq",
"1111111141111111;2111112,22;122-oo;11111111141141111;21144441414",
"OOOOO+OOOOOO#OOOOOOOOOOO&o#Oo##o..oo++OO+O+OOOOO#OOOOOOO+oo+o+++",
"                            .   . .                 .           "
};
