/* XPM */
static char *result[] = {
/* columns rows colors chars-per-pixel */
"32 64 78 1 ",
"  c #4F2913",
". c #4F311E",
"X c #53321E",
"o c #563621",
"O c #543523",
"+ c #543624",
"@ c #553726",
"# c #583824",
"$ c #5A3B27",
"% c #573C2D",
"& c #573D2D",
"* c #573E2E",
"= c #593D2A",
"- c #573F30",
"; c #584031",
": c #5B4231",
"> c #584132",
", c #594233",
"< c #584234",
"1 c #594334",
"2 c #594335",
"3 c #5A4739",
"4 c #5B473A",
"5 c #5B483B",
"6 c #5B493C",
"7 c #5C493D",
"8 c #5C4B3E",
"9 c #5C4B3F",
"0 c #5C4B40",
"q c #5C4D41",
"w c #5D4D41",
"e c #5D4D42",
"r c #5D4E42",
"t c #5D4E43",
"y c #5D4F43",
"u c #5E4F44",
"i c #5E4F45",
"p c #5D5044",
"a c #5C5147",
"s c #5E5146",
"d c #5C5247",
"f c #5D5248",
"g c #5F5349",
"h c #655444",
"j c #665444",
"k c #61564B",
"l c #655C55",
"z c #655D56",
"x c #665F58",
"c c #666057",
"v c #676159",
"b c #676259",
"n c #68625A",
"m c #68635A",
"M c #69635B",
"N c #69645B",
"B c #69645C",
"V c #6A645C",
"C c #6A655C",
"Z c #6B655D",
"A c #6A665C",
"S c #6B665D",
"D c #6B675D",
"F c #6C665E",
"G c #6C675E",
"H c #6C675F",
"J c #6C685E",
"K c #6C685F",
"L c #6D685F",
"P c #6D695F",
"I c #767469",
"U c #868579",
"Y c #86847B",
"T c #88877B",
"R c #918F88",
"E c #929088",
"W c #94928B",
"Q c #99978F",
/* pixels */
"$$$$$$$$$$$$$$$$j$$$$$$$$$$$$$$$",
"UUUUUUUUUUUUUUTToUUUUUUUUUUUUUUU",
"UUUUUUUUUUUUUUUT#UUUUUUUUUUUUUUU",
"UUUUUUUUUUUUUUUUjUUUUUUUUUUUUUUU",
"WWWWRRRRRRREWQQQjWQQQWWWWWWWWWWW",
"PPPLLLLLLLPPPPPL:LLLJLLLLLGJJJJP",
"LLLLLLLLLLLLLPLL:LLJJJLLLJGGGGGL",
"LLLLLLLLJJJJJJGG:LJJGGJJJGGGGGGL",
"JJJJJJJJJJJGGGGG:GGGGGDDGGGGGFSL",
"GGGGGGGGGGGDDDDD:SSSSSSSSSSSSSSG",
"SSSSSSSSSSSSSSSS:SSSSSZZCCCCAAAD",
"CCCCCCCCCCCCZZZZ=ZZCVVVVVVVVCCCC",
"CCCCCCCCCCCCCCVCXNNNNNNNNNNNNNNC",
"NNVNNNNNNNNNNNNNXMMMMMMNNNNNNNNN",
"MMMMMMMMMMMMMMmmXmmmmmmmmmmmmmMM",
"bbbbbbbnbnnnmmmnXnnnnnnnnnmmnmmb",
"vvvvvvvvvvvvvvvvXvvvvvvvvvvvvvvv",
"vvvvvvvvvvvvvvvv vvvvvvvvvvvvvvv",
"                d               ",
"ddddddddddddddddddddddd.aadfffff",
"ddddddddddddddddddddddd.ddffffff",
"ddddddddddddddddddddddd.ddffffff",
"ddddddddddddddddddddddd.dddfffff",
"ddddddddddddddddddddddd.dddfffff",
"ddddddddddddddddddddddd.aadfffff",
"vvvvvvvvvvvvvvvvvvvvvvv>vvvvvvvv",
"vvvvvvvvvvvvvvvvvvvvvvv;vvvvvvvv",
"ssssswwwsssgggggggggg22,<1gggggg",
"LLLLLLwHHHHHHHHHHHHHHHHHHHHHHHHH",
"vvvvvvwvvvvvvvvvvvvvvvvvvvvvvvvv",
"vvvvvvwvvvvvvvvvvvvvvvvvvvvvvvvv",
"vvvvvvwvvvvvvvvvvvvvvvvvvvvvvvvv",
"vvvvvvwvvvvvvvvvvvvvvvvvvvvvvvvv",
"vvvvvvwvvvvvvvvvvvvvvvvvvvvvvvvv",
"vvvvvv>vvvvvvvvvvvvvvvvvvvvvvvvv",
"vvvvvv-vvvvvvvvvvvvvvvvvvvvvvvvv",
"555%%+O@%ggggggggggg356e664ggggg",
"BBBBBBBBBBBBBBBBKKKKKHG0HHHHHHHH",
"xxxxxxxxxxxxxxxxxxxxxxx9xxxxxxxx",
"xxxxxxxxxxxxxxxxxxxxxxx7xxxxxxxx",
"xxxxxxxxxxxxxxxxxxxxxxxilxxxxxxx",
"xxxxxxxxxxxxxxxxxxxxxxxizxxxxxxx",
"xxxxxxxxxxxxxxxxxxxxxxxuxxxxxxxx",
"xxxxxxxxxxxxxxxxxxxxxxxOxxxxxxxx",
"xxxzxxxxxxxxxxxxxxxxxxxOxxxxxxxx",
"ggg88688ppppytrrrrreOOOOOOqqqqqq",
"HHHHHH8HHHHHHHHHHHHHHHHHHHHHHHHH",
"xxxxxx8xxxxxxxxxxxxxxxxxxxxxxxxx",
"xxxxxx8xxxxxxxxxxxxxxxxxxxxxxxxx",
"xxxxxxsxxxxxxxxxxxxxxxxxxxxxxxxx",
"xxxxxxgxxxxxxxxxxxxxxxxxxxxxxxxx",
"xxxxxx>xxxxxxxxxxxxxxxxxxxxxxxxx",
"xxxxxx&xxxxxxxxxxxxxxxxxxxxxxxxx",
"xxxxxx*xxxxxxxxxxxxxxxxxxxxxxxxx",
"                k               ",
"IIIIIIIIIIIIIIII IIIIIIIIIIIIIII",
"IIIIIIIIIIIIIIIIhIIIIIIIIIIIIIII",
"IIIIIIIIIIIIIIIIhIIIIIIIIIIIIIII",
"IIIIIIIIIIIIIIIIhIIIIIIIIIIIIIII",
"YYYYYYYYYYYYYYYYhYYYYYYYYYYYYYYY",
"cccccccccccccccchccccccccccccccc",
"cccccccccccccccchccccccccccccccc",
"cccccccccccccccc ccccccccccccccc",
"                                "
};
