/* XPM */
static char *d_w[] = {
/* columns rows colors chars-per-pixel */
"64 128 87 1 ",
"  c black",
". c #4F2913",
"X c #4F311E",
"o c #53321E",
"O c #56321C",
"+ c #4F3625",
"@ c #543523",
"# c #543624",
"$ c #553726",
"% c #553827",
"& c #5A3B27",
"* c #5E3B25",
"= c #563B2A",
"- c #563D2C",
"; c #573C2D",
": c #573D2D",
"> c #573E2E",
", c #593D2A",
"< c #573F30",
"1 c #5B4231",
"2 c #584132",
"3 c #594133",
"4 c #5E4532",
"5 c #5A4335",
"6 c #5A4336",
"7 c #5A4739",
"8 c #5B473A",
"9 c #5B483B",
"0 c #5B493C",
"q c #5C493D",
"w c #5C4B3E",
"e c #5C4B3F",
"r c #624937",
"t c #5C4B40",
"y c #5C4D41",
"u c #5D4D41",
"i c #5D4D42",
"p c #5D4E42",
"a c #5D4E43",
"s c #5D4F43",
"d c #5E4F44",
"f c #5E4F45",
"g c #5A5046",
"h c #5D5044",
"j c #5E5146",
"k c #5A5046",
"l c #5F5349",
"z c #655444",
"x c #665444",
"c c #675544",
"v c #676159",
"b c #655C55",
"n c #655D56",
"m c #665F58",
"M c #666057",
"N c #676159",
"B c #676259",
"V c #68625A",
"C c #68635A",
"Z c #69635B",
"A c #69645B",
"S c #69645C",
"D c #6A645C",
"F c #6A655C",
"G c #6B655D",
"H c #6A665C",
"J c #6B665D",
"K c #6B675D",
"L c #6B665E",
"P c #6C665E",
"I c #6C675E",
"U c #665F58",
"Y c #6C685E",
"T c #6C685F",
"R c #6D685F",
"E c #6D695F",
"W c #6D6860",
"Q c #6F6B62",
"! c #746F67",
"~ c #767469",
"^ c #868579",
"/ c #86847B",
"( c #88877B",
") c #918F88",
"_ c #929088",
"` c #94928B",
"' c #99978F",
/* pixels */
"&&&&&&&&&&&&&&&&&&&&&&&&&&&&&&&&&&&&&&&&&&&&&&&&&&&&&&&&&&&&&&&&",
"&&&&&&&&&&&&&&&&&&&&&&&&&&&&&&&&&&&&&&&&&&&&&&&&&&&&&&&&&&&&&&&&",
"^^^^^^^^^^^^^^^^^^^^^^^^^^^^((^^44^^^^^^^^^^^^^^^^^^^^^^^^^^^^^^",
"^^^^^^^^^^^^^^^^^^^^^^^^^^^^((^^44^^^^^^^^^^^^^^^^^^^^^^^^^^^^^^",
"^^^^^^^^^^^^^^^^^^^^^^^^^^^^^^^^rr^^^^^^^^^^^^^^^^^^^^^^^^^^^^^^",
"^^^^^^^^^^^^^^^^^^^^^^^^^^^^^^^^rr^^^^^^^^^^^^^^^^^^^^^^^^^^^^^^",
"^^^^^^^^^^^^^^^^^^^^^^^^^^^^^^^^cc^^^^^^^^^^^^^^^^^^^^^^^^^^^^^^",
"^^^^^^^^^^^^^^^^^^^^^^^^^^^^^^^^cc^^^^^^^^^^^^^^^^^^^^^^^^^^^^^^",
"))))))))))))))))))))))__``''''''xx``''''''``````````````````````",
"))))))))))))))))))))))__``''''''xx``''''''``````````````````````",
"EEEEEERRRRRRRRRRRRRREEEEEEEEEERR11RRRRRRYYRRRRRRRRRRIIYYYYYYYYYY",
"EEEEEERRRRRRRRRRRRRREEEEEEEEEERR11RRRRRRYYRRRRRRRRRRIIYYYYYYYYYY",
"RRRRRRRRRRRRRRRRRRRRRRRRRREERRRR11RRRRYYYYYYRRRRRRYYIIIIIIIIIIII",
"RRRRRRRRRRRRRRRRRRRRRRRRRREERRRR11RRRRYYYYYYRRRRRRYYIIIIIIIIIIII",
"RRRRRRRRRRRRRRRRYYYYYYYYYYYYIIII11RRYYYYIIIIYYYYYYIIIIIIIIIIIIII",
"RRRRRRRRRRRRRRRRYYYYYYYYYYYYIIII11RRYYYYIIIIYYYYYYIIIIIIIIIIIIII",
"RRYYYYYYYYYYYYYYYYYYYYIIIIIIIIII11IIIIIIIIIIKKKKIIIIIIIIIIPPJJJJ",
"RRYYYYYYYYYYYYYYYYYYYYIIIIIIIIII11IIIIIIIIIIKKKKIIIIIIIIIIPPJJJJ",
"IIIIIIIIIIIIIIIIIIIIIIKKKKKKKKKK11JJJJJJJJJJJJJJJJJJJJJJJJJJJJJJ",
"IIIIIIIIIIIIIIIIIIIIIIKKKKKKKKKK11JJJJJJJJJJJJJJJJJJJJJJJJJJJJJJ",
"KKJJJJJJJJJJJJJJJJJJJJJJJJJJJJJJ11JJJJJJJJJJGGGGFFFFFFFFHHHHHHHH",
"KKJJJJJJJJJJJJJJJJJJJJJJJJJJJJJJ11JJJJJJJJJJGGGGFFFFFFFFHHHHHHHH",
"FFFFFFFFFFFFFFFFFFFFFFFFGGGGGGGG,,GGGGFFDDDDDDDDDDDDDDDDFFFFFFFF",
"FFFFFFFFFFFFFFFFFFFFFFFFGGGGGGGG,,GGGGFFDDDDDDDDDDDDDDDDFFFFFFFF",
"FFFFFFFFFFFFFFFFFFFFFFFFFFFFDDFFooAAAAAAAAAAAAAAAAAAAAAAAAAAAAAA",
"FFFFFFFFFFFFFFFFFFFFFFFFFFFFDDFFooAAAAAAAAAAAAAAAAAAAAAAAAAAAAAA",
"AAAADDAAAAAAAAAAAAAAAAAAAAAAAAAAooZZZZZZZZZZZZAAAAAAAAAAAAAAAAAA",
"AAAADDAAAAAAAAAAAAAAAAAAAAAAAAAAooZZZZZZZZZZZZAAAAAAAAAAAAAAAAAA",
"ZZZZZZZZZZZZZZZZZZZZZZZZZZZZCCCCooCCCCCCCCCCCCCCCCCCCCCCCCCCZZZZ",
"ZZZZZZZZZZZZZZZZZZZZZZZZZZZZCCCCooCCCCCCCCCCCCCCCCCCCCCCCCCCZZZZ",
"BBBBBBBBBBBBBBVVBBVVVVVVCCCCCCVVooVVVVVVVVVVVVVVVVVVCCCCVVCCCCCC",
"BBBBBBBBBBBBBBVVBBVVVVVVCCCCCCVVooVVVVVVVVVVVVVVVVVVCCCCVVCCCCCC",
"NNNNNNNNNNNNNNNNNNNNNNNNNNNNNNNNooNNNNNNNNNNNNNNNNNNNNNNNNNNNNNN",
"NNNNNNNNNNNNNNNNNNNNNNNNNNNNNNNNooNNNNNNNNNNNNNNNNNNNNNNNNNNNNNN",
"NNNNNNNNNNNNNNNNNNNNNNNNNNNNNNNN..NNNNNNNNNNNNNNNNNNNNNNNNNNNNNN",
"NNNNNNNNNNNNNNNNNNNNNNNNNNNNNNNN..NNNNNNNNNNNNNNNNNNNNNNNNNNNNNN",
"................................kk..............................",
"................................kk..............................",
"kkkkkkkkkkkkkkkkkkkkkkkkkkkkkkkkkkkkkkkkkkkkkkXXgggggggggggggggg",
"kkkkkkkkkkkkkkkkkkkkkkkkkkkkkkkkkkkkkkkkkkkkkkXXgggggggggggggggg",
"kkkkkkkkkkkkkkkkkkkkkkkkkkkkkkkkkkkkkkkkkkkkkkXXgggggggggggggggg",
"kkkkkkkkkkkkkkkkkkkkkkkkkkkkkkkkkkkkkkkkkkkkkkXXgggggggggggggggg",
"kkkkkkkkkkkkkkkkkkkkkkkkkkkkkkkkkkkkkkkkkkkkkk++gggggggggggggggg",
"kkkkkkkkkkkkkkkkkkkkkkkkkkkkkkkkkkkkkkkkkkkkkk++gggggggggggggggg",
"kkkkkkkkkkkkkkkkkkkkkkkkkkkkkkkkkkkkkkkkkkkkkk++gggggggggggggggg",
"kkkkkkkkkkkkkkkkkkkkkkkkkkkkkkkkkkkkkkkkkkkkkk++gggggggggggggggg",
"kkkkkkkkkkkkkkkkkkkkkkkkkkkkkkkkkkkkkkkkkkkkkk++gggggggggggggggg",
"kkkkkkkkkkkkkkkkkkkkkkkkkkkkkkkkkkkkkkkkkkkkkk++gggggggggggggggg",
"kkkkkkkkkkkkkkkkkkkkkkkkkkkkkkkkkkkkkkkkkkkkkk++gggggggggggggggg",
"kkkkkkkkkkkkkkkkkkkkkkkkkkkkkkkkkkkkkkkkkkkkkk++gggggggggggggggg",
"NNNNNNNNNNNNNNNNNNNNNNNNNNNNNNNNNNNNNNNNNNNNNN22vvvvvvvvvvvvvvvv",
"NNNNNNNNNNNNNNNNNNNNNNNNNNNNNNNNNNNNNNNNNNNNNN22vvvvvvvvvvvvvvvv",
"NNNNNNNNNNNNNNNNNNNNNNNNNNNNNNNNNNNNNNNNNNNNNN##vvvvvvvvvvvvvvvv",
"NNNNNNNNNNNNNNNNNNNNNNNNNNNNNNNNNNNNNNNNNNNNNN##vvvvvvvvvvvvvvvv",
"jjjjjjjjjjuuuuuujjjjjjllllllllllllllll2222--==$$%%%%%%3333665566",
"jjjjjjjjjjuuuuuujjjjjjllllllllllllllll2222--==$$%%%%%%3333665566",
"RRRRRRRRRRRRuuUUUUUUUUUUUUUUUUUUUUUUUUUUUUUUUUUUUUUUUUUUUUUUWWQQ",
"RRRRRRRRRRRRuuUUUUUUUUUUUUUUUUUUUUUUUUUUUUUUUUUUUUUUUUUUUUUUWWQQ",
"NNNNNNNNNNNNuuNNNNNNNNNNNNNNNNNNNNNNNNNNNNNNNNNNNNNNNNNNNNNNNNNN",
"NNNNNNNNNNNNuuNNNNNNNNNNNNNNNNNNNNNNNNNNNNNNNNNNNNNNNNNNNNNNNNNN",
"NNNNNNNNNNNNuuNNNNNNNNNNNNNNNNNNNNNNNNNNNNNNNNNNNNNNNNNNNNNNNNNN",
"NNNNNNNNNNNNuuNNNNNNNNNNNNNNNNNNNNNNNNNNNNNNNNNNNNNNNNNNNNNNNNNN",
"NNNNNNNNNNNNuuNNNNNNNNNNNNNNNNNNNNNNNNNNNNNNNNNNNNNNNNNNNNNNNNNN",
"NNNNNNNNNNNNuuNNNNNNNNNNNNNNNNNNNNNNNNNNNNNNNNNNNNNNNNNNNNNNNNNN",
"NNNNNNNNNNNNuuNNNNNNNNNNNNNNNNNNNNNNNNNNNNNNNNNNNNNNNNNNNNNNNNNN",
"NNNNNNNNNNNNuuNNNNNNNNNNNNNNNNNNNNNNNNNNNNNNNNNNNNNNNNNNNNNNNNNN",
"NNNNNNNNNNNNuuNNNNNNNNNNNNNNNNNNNNNNNNNNNNNNNNNNNNNNNNNNNNNNNNNN",
"NNNNNNNNNNNNuuNNNNNNNNNNNNNNNNNNNNNNNNNNNNNNNNNNNNNNNNNNNNNNNNNN",
"NNNNNNNNNNNN22NNNNNNNNNNNNNNNNNNNNNNNNNNNNNNNNNNNNNNNNNNNNNNNNNN",
"NNNNNNNNNNNN22NNNNNNNNNNNNNNNNNNNNNNNNNNNNNNNNNNNNNNNNNNNNNNNNNN",
"NNNNNNNNNNNN<<NNNNNNNNNNNNNNNNNNNNNNNNNNNNNNNNNNNNNNNNNNNNNNNNNN",
"NNNNNNNNNNNN<<NNNNNNNNNNNNNNNNNNNNNNNNNNNNNNNNNNNNNNNNNNNNNNNNNN",
"999999;;;;##@@$$;;llllllllllllllllllllll779900ii000088llllllllll",
"999999;;;;##@@$$;;llllllllllllllllllllll779900ii000088llllllllll",
"SSSSSSSSSSSSSSSSSSSSSSSSSSSSSSSSTTTTTTTTTTUUIIttUUUUUUUUUUUUUUUU",
"SSSSSSSSSSSSSSSSSSSSSSSSSSSSSSSSTTTTTTTTTTUUIIttUUUUUUUUUUUUUUUU",
"mmmmmmmmmmmmmmmmmmmmmmmmmmmmmmmmmmmmmmmmmmmmmmeemmmmmmmmmmmmmmmm",
"mmmmmmmmmmmmmmmmmmmmmmmmmmmmmmmmmmmmmmmmmmmmmmeemmmmmmmmmmmmmmmm",
"mmmmmmmmmmmmmmmmmmmmmmmmmmmmmmmmmmmmmmmmmmmmmmqqmmmmmmmmmmmmmmmm",
"mmmmmmmmmmmmmmmmmmmmmmmmmmmmmmmmmmmmmmmmmmmmmmqqmmmmmmmmmmmmmmmm",
"mmmmmmmmmmmmmmmmmmmmmmmmmmmmmmmmmmmmmmmmmmmmmmffbbmmmmmmmmmmmmmm",
"mmmmmmmmmmmmmmmmmmmmmmmmmmmmmmmmmmmmmmmmmmmmmmffbbmmmmmmmmmmmmmm",
"mmmmmmmmmmmmmmmmmmmmmmmmmmmmmmmmmmmmmmmmmmmmmmffnnmmmmmmmmmmmmmm",
"mmmmmmmmmmmmmmmmmmmmmmmmmmmmmmmmmmmmmmmmmmmmmmffnnmmmmmmmmmmmmmm",
"mmmmmmmmmmmmmmmmmmmmmmmmmmmmmmmmmmmmmmmmmmmmmmddmmmmmmmmmmmmmmmm",
"mmmmmmmmmmmmmmmmmmmmmmmmmmmmmmmmmmmmmmmmmmmmmmddmmmmmmmmmmmmmmmm",
"mmmmmmmmmmmmmmmmmmmmmmmmmmmmmmmmmmmmmmmmmmmmmm@@mmmmmmmmmmmmmmmm",
"mmmmmmmmmmmmmmmmmmmmmmmmmmmmmmmmmmmmmmmmmmmmmm@@mmmmmmmmmmmmmmmm",
"mmmmmmnnmmmmmmmmmmmmmmmmmmmmmmmmmmmmmmmmmmmmmm@@mmmmmmmmmmmmmmmm",
"mmmmmmnnmmmmmmmmmmmmmmmmmmmmmmmmmmmmmmmmmmmmmm@@mmmmmmmmmmmmmmmm",
"llllllwwww00wwwwhhhhhhhhssaappppppppppii@@@@@@@@@@@@yyyyyyyyyyyy",
"llllllwwww00wwwwhhhhhhhhssaappppppppppii@@@@@@@@@@@@yyyyyyyyyyyy",
"UUUUUUUUUUUUww!!!!!!!!!!!!!!!!!!!!!!!!!!!!!!!!!!!!!!!!!!!!!!!!!!",
"UUUUUUUUUUUUww!!!!!!!!!!!!!!!!!!!!!!!!!!!!!!!!!!!!!!!!!!!!!!!!!!",
"mmmmmmmmmmmmwwUUUUUUUUUUUUUUUUUUUUUUUUUUUUUUUUUUUUUUUUUUUUUUUUUU",
"mmmmmmmmmmmmwwUUUUUUUUUUUUUUUUUUUUUUUUUUUUUUUUUUUUUUUUUUUUUUUUUU",
"mmmmmmmmmmmmwwUUUUUUUUUUUUUUUUUUUUUUUUUUUUUUUUUUUUUUUUUUUUUUUUUU",
"mmmmmmmmmmmmwwUUUUUUUUUUUUUUUUUUUUUUUUUUUUUUUUUUUUUUUUUUUUUUUUUU",
"mmmmmmmmmmmmjjUUUUUUUUUUUUUUUUUUUUUUUUUUUUUUUUUUUUUUUUUUUUUUUUUU",
"mmmmmmmmmmmmjjUUUUUUUUUUUUUUUUUUUUUUUUUUUUUUUUUUUUUUUUUUUUUUUUUU",
"mmmmmmmmmmmmllUUUUUUUUUUUUUUUUUUUUUUUUUUUUUUUUUUUUUUUUUUUUUUUUUU",
"mmmmmmmmmmmmllUUUUUUUUUUUUUUUUUUUUUUUUUUUUUUUUUUUUUUUUUUUUUUUUUU",
"mmmmmmmmmmmm22UUUUUUUUUUUUUUUUUUUUUUUUUUUUUUUUUUUUUUUUUUUUUUUUUU",
"mmmmmmmmmmmm22UUUUUUUUUUUUUUUUUUUUUUUUUUUUUUUUUUUUUUUUUUUUUUUUUU",
"mmmmmmmmmmmm::UUUUUUUUUUUUUUUUUUUUUUUUUUUUUUUUUUUUUUUUUUUUUUUUUU",
"mmmmmmmmmmmm::UUUUUUUUUUUUUUUUUUUUUUUUUUUUUUUUUUUUUUUUUUUUUUUUUU",
"mmmmmmmmmmmm>>UUUUUUUUUUUUUUUUUUUUUUUUUUUUUUUUUUUUUUUUUUUUUUUUUU",
"mmmmmmmmmmmm>>UUUUUUUUUUUUUUUUUUUUUUUUUUUUUUUUUUUUUUUUUUUUUUUUUU",
"OOOOOOOOOOOOOOOOOOOOOOOOOOOOOOOOLLOOOOOOOOOOOOOOOOOOOOOOOOOOOOOO",
"OOOOOOOOOOOOOOOOOOOOOOOOOOOOOOOOLLOOOOOOOOOOOOOOOOOOOOOOOOOOOOOO",
"~~~~~~~~~~~~~~~~~~~~~~~~~~~~~~~~**~~~~~~~~~~~~~~~~~~~~~~~~~~~~~~",
"~~~~~~~~~~~~~~~~~~~~~~~~~~~~~~~~**~~~~~~~~~~~~~~~~~~~~~~~~~~~~~~",
"~~~~~~~~~~~~~~~~~~~~~~~~~~~~~~~~zz~~~~~~~~~~~~~~~~~~~~~~~~~~~~~~",
"~~~~~~~~~~~~~~~~~~~~~~~~~~~~~~~~zz~~~~~~~~~~~~~~~~~~~~~~~~~~~~~~",
"~~~~~~~~~~~~~~~~~~~~~~~~~~~~~~~~zz~~~~~~~~~~~~~~~~~~~~~~~~~~~~~~",
"~~~~~~~~~~~~~~~~~~~~~~~~~~~~~~~~zz~~~~~~~~~~~~~~~~~~~~~~~~~~~~~~",
"~~~~~~~~~~~~~~~~~~~~~~~~~~~~~~~~zz~~~~~~~~~~~~~~~~~~~~~~~~~~~~~~",
"~~~~~~~~~~~~~~~~~~~~~~~~~~~~~~~~zz~~~~~~~~~~~~~~~~~~~~~~~~~~~~~~",
"////////////////////////////////zz//////////////////////////////",
"////////////////////////////////zz//////////////////////////////",
"MMMMMMMMMMMMMMMMMMMMMMMMMMMMMMMMzzMMMMMMMMMMMMMMMMMMMMMMMMMMMMMM",
"MMMMMMMMMMMMMMMMMMMMMMMMMMMMMMMMzzMMMMMMMMMMMMMMMMMMMMMMMMMMMMMM",
"MMMMMMMMMMMMMMMMMMMMMMMMMMMMMMMMzzMMMMMMMMMMMMMMMMMMMMMMMMMMMMMM",
"MMMMMMMMMMMMMMMMMMMMMMMMMMMMMMMMzzMMMMMMMMMMMMMMMMMMMMMMMMMMMMMM",
"MMMMMMMMMMMMMMMMMMMMMMMMMMMMMMMM..MMMMMMMMMMMMMMMMMMMMMMMMMMMMMM",
"MMMMMMMMMMMMMMMMMMMMMMMMMMMMMMMM..MMMMMMMMMMMMMMMMMMMMMMMMMMMMMM",
"................................................................",
"................................................................"
};
