/* XPM */
static char *dl_c[] = {
/* columns rows colors chars-per-pixel */
"64 128 71 1",
"  c black",
". c #4B240E",
"X c #4D2611",
"o c #4F2914",
"O c #4F2E1C",
"+ c #502C16",
"@ c #522E19",
"# c #53311C",
"$ c #543522",
"% c #563826",
"& c #553B2A",
"* c #583925",
"= c #593C2A",
"- c #553F30",
"; c #583F30",
": c #5C412D",
"> c #574233",
", c #5B4434",
"< c #594739",
"1 c #5E4837",
"2 c #5B4A3D",
"3 c #614735",
"4 c #624836",
"5 c #634C3A",
"6 c #64503F",
"7 c #5D4E42",
"8 c #5D5146",
"9 c #5E544A",
"0 c #604F42",
"q c #615246",
"w c #61554A",
"e c #64594D",
"r c #695746",
"t c #695B4D",
"y c #655E56",
"u c #665F58",
"i c #695E53",
"p c #666057",
"a c #676159",
"s c #6C6255",
"d c #6A655C",
"f c #6D695E",
"g c #706456",
"h c #71665A",
"j c #726A5D",
"k c #786D5F",
"l c #6B6760",
"z c #6E6A61",
"x c #726E62",
"c c #736F68",
"v c #786E62",
"b c #747165",
"n c #767469",
"m c #7A7164",
"M c #79766B",
"N c #7B786D",
"B c #7E7B72",
"V c #81776C",
"C c #83796E",
"Z c #817E74",
"A c #897E74",
"S c #838176",
"D c #868579",
"F c #87887C",
"G c #89867D",
"H c #8A897E",
"J c #8A8780",
"K c #8C8A82",
"L c #918F86",
"P c #95948B",
"I c None",
/* pixels */
"#4CLHDDDDDDDDm4@++###****#******$$*#**#:#**##***********#*****#*",
"#4APHDDDDDDDDV6:3:444444545445545565555565564:445544455554555554",
"@4APHDDDDDDDDSVkkVVkVkVVmmmmmmmmmmmmmmmmVkrrgVVVSVkkgSSVmmmmmmmm",
"#5APHDDDDDDDDDSDDDDDDDSDFFFFDFFFDDHDHFFFDCttSDDDDDDDDDSSFDFFFFFF",
"@5DPHDDDDDDDDDDDDDDDFDDDDDDFDDDDDDDDDDDJDVgrSDDDDDDDDDDDDDDDDDDD",
"@5APHDDDDDDDDDDDDDDDDDDDDDDDDDDDDDDDDDSDDVrgSDDDDDDDSDDDDDDDDDDG",
"#5APHDDDDDDDDDDDDDDDDDDDDDDDDDDDDSDDDDDDDVrrVDDDDDDDDDDDDDDDDDSS",
"+4APHHHHHHHHHHHHDFFFFHFHFFFFFFFFHGHHGJJJHSggSDDHHHHFFFDDHDHDHHGG",
"o:VHPPPPPPPPPPLLLLLLLLLLHHPLLLLLLLLLLLPPPAggAPPPHHHPLKLKLKKKKKLK",
"X*VHKLLLPLLPLLKJJKJJJKJJHHHHHHHFJKJJJKLLPArtALLLHHHHJFFFFDJJGGJJ",
".*VVBMMMMMMMNMMnMMMMNMNNDNMNNNMMMnnNMMNNMv00zMMMVSHFNnnNnnnnnnnn",
".*kCmlllhlzldldllzfzflzzkkjfzzzfzzfzzzzzzi44sxxxgkgSzzzzfzlljlxl",
".=vZclldllxddldxfzfzlxdfxllzzzzfzzzffffjli55sxllghxfffzzzfdxdxxd",
".=vZxllhhldljldxzzzldxjflxlzzzfffzzzxfxlxi40ixzljjfffxzzzflldldd",
".*VCcdllldhldldddllllddxlxzzzffffxzzfflxxi04ilxlfffxffffflfzxlxx",
".:kCxdllllldflxddddljlddldzzllffzzzzfxxlxy74ilxxxffffffzffzzdddx",
"X=jBxdddffdffdfdddlllddjllxdllxjxdldxxlxfi12illllzzzzzffffffllff",
"X=jBxdddddddddddjllddddldlllllxlxllxllxlzu1<izllldzzzzlfffflaflf",
"X=jBzdddsadddfdflddldldddldldjddlllldlxxxi2<tzxzzlzzllfffffffffd",
"X%fNzaaadasdddddddldddlldjdddddddjlldldlzi1<yzzzzlzzdffffllllffd",
"X&hBzaadadaddddddldlddlddllllldldllllddlli0<ylllfdlldffffffldldf",
".%hBzddaaaaaaddadddddddddddlddddddddddlllt;;thlhfdffdfdflaaldddd",
".=zNzaasdaaddadaddddddddduhududddddddldflt;;ellddzddddfffaflllff",
".%hNzaadaadaaaaaaaaadddddduddddududdddddlw;;elddddddldlalllaalla",
".%hcluuusaadaadaaaadadaduhuddduuddaafaddae&:edfaddddddddafadffaf",
".%scduuuaaaaadaadadadddaudddldddaddddaddde=&wdddaddddddafaddfafa",
".%scjuuuppaaaasdaaaaadadluuddduddaadaaddde:&waaaddddddaafafapaff",
".%scduuuppppaaaadasaaddaulduududaadaaaadde&*edfpdddaadadapaaaapa",
"X%icdyyyaayaaaaaaaaaaaadadaaaaadaaddaaaadw&%9fpfdaadaaaappaaadda",
".%scdyyuyaayyyaaaaaaaaaadaaaaaaaaaaaaaadaw&%9daaadaaadadfafpaapa",
".%icsuyuayuuyuaaaaaaaaaasaaaaaaaaaaaaaaaa9$%9aaaaaadaaaadadaaapp",
"X%scdyyuyyiuyuyaaaaaaaaaaaaaaaaaaaaaaaaaa9$$9aapaaaaaaaaaapapdpp",
".%ucaayuuyypyyyypppppppppfppppaaaapaapaaa9$$8dppppppaaaaaaaapaaa",
".%ruuaayyapappaappfpppppfpppapafapaaaaaaa9O$9dappppaaaaaaaaapaad",
"X@*,eyuuaaaaaayappppppfppfpappaaapaaaaaad8$O8faapppyaaaaaaaapppp",
"I.X$<8q72q82777q88888889888999999999889892>$29999999999999999888",
"I..@$$#$OOO##O$O#$#OO#$$$#$O$$OO$OO$O$$$O>>>:$$$O-O-OO-O&OO&O&&&",
"III.XX$*&$$#$$O$$$$$$OooOOOOOOOOOOOOOOOOO>22>o+oOOOOOOOOOOOOOOOO",
"III..$0ie9wrweew9re998#O><<2<<28222<<2<2>2882>$O-<<<8--88<><<<<<",
"III..=gNxffffdfffffffr&#299999999999999999999<$><999999889999998",
"III.X:gnxfffffsffpfff9&O299e999999999999998992>O<988898888888888",
"IIIXX*gnfdaffffffffffr$#29e9999999899989998992O>8988888898888888",
"IIIXX:gnxfffsfpffppffr$#299999999999989999989<>>-988888888888888",
"IIIXX*gnfffaffsffffff9$O299998899889998998899<-O8998888898988888",
"IIIXX:snfffpffffffpff9>O2999999999999989999992--<988888888888888",
"IIIXX&sbfffffppffafff9$O299y999998989899999992&-<988888888888888",
"III.X*gbffffpffffffffeOO8999y9998998999899999<&&<988888888888888",
"III.X*sbffffffpffffffe>O8999999989989899999998O-8988888888888888",
"IIIXX:ibffffpffpfffffe*#29e9999999999999999997&&7898888888898888",
"IIIXo:snfffffffffffffq%$2ey99y9999999999999997->8999999998999999",
"IIIXX:gnxffsfffffffffe$$9fppppyypyyy9yppyyyyy9229yyyyyyyyyyyyyyy",
"IIIoX:gnffffsfffsffffe$*tfspppppppyyapppyuyuu922yaaapaaaaaauaauu",
"IIIoo:gnfffffffffffffr%%txfpppppaapppaaaaayuay22ydaapppaaauuuuaa",
"IIIo+:gnxfffffffffffft:-qe8899e9999999y9eeeee9229eppyyyyyyyyyyyy",
"IIIo+:gnfffaffffffffffs6:$&&&><288<<<<8<2222<<11128999988w988899",
"IIIo+:gnffffffffffffffp6&$%:&:188<8<88<872727222269999999ewe9eee",
"IIIoo:sMfdffffffffffft1-6tttpppp9yyyppppyyppaapappaaaaauaaauaaas",
"IIIoo:gMbffffffffffffe**tbbffffflldlllllafffllddfffddddxdjjddldl",
"IIIo+:gnxfdfjffffffffe**pffpafafaaaaaaaaaapaaaaddaaaadaaddaddsaa",
"III++:gMxfffffjffffffe**effpppppdaaaaappapppaaaaaaaaaaauaaaaaaau",
"III++:gMxdffjfffffffjr*:tfppppppaaaaappaaappaaapaaaaaaaaauaaaaaa",
"III++:gMbffffffffffxft*&pffpppppaaaaaaaaaaapaapaaaaaayaauaaauaaa",
"III++:gMzfffjfffjfffft&*tffppfppaappppaappppaaaaaaaaaaaaaaaaaaaa",
"III++:gMbdfffxfxffffbr&*tffpppppaaapppaappdpapaaaaaaaayaaauuaauu",
"III++:gnbfjffxxxxfxfle%%ifaaaayyuuaauuaauuaauuuudauuauuuduuuuuuu",
"III++:gNbfjffffxzfffxe%$txdaaaaauaaaaaaaaaaddduuaaauaduuuduuuuud",
"III++:gnfffffffxffjfle%*eldaaaaaaauaaauaaaauuuuuuuduuauduuuddulu",
"III++:gNbffffffffffxxr%%izayaaaaaaauaaaaaauuaaduuaaaauduauuuduuu",
"III++:jnffffjfffxfxfle$$ezluaaaaauaaauaauuduuuldaaaauuuudauauuuu",
"III++:gNbfjxfxfxfffxxr$$tzldaaaaaaaauuaaaaaauuuuaaaaduuduaauuuuu",
"III++:gnbffbffxffjfxxe%%izduaaaauuaayuuuauaauuuuauaduduuuuaauuuu",
"III++:gnbffffxfffffxxu,>qewwwwwweyyyyyyyyyeyeeyee9ee99yyyeyuwuwu",
"III+@:gMbffffbffxfxxffs6,%%%%&&>7q08w78wqq777<<,<<;2;20700807007",
"III++:gNbbbbbbbbxxxnbfsq,%&&=&=>7wqqqw0www9q022;&%;;;07q00080800",
"III+@:gNNNnnnmnnMnMNMh1:8eeyeeeyusuusauauuuuuuyq;;qyyiuuuuuuuuuu",
"III+@:tjjjffjjjhjjggf6#:ylddfldlddddldlllldldlde;;yllllllluluuuu",
"III@@*6r6665566111:::*+*ezdaaaaauduuuduuuuuluduw;;eduuduuuuuuuuu",
"III@#*6t66555611:,::::+:ezduuuuuuuuuuuuuuuuuuuuw;;9uuuuuuuuuuuuu",
"III@#:hmfsssasssiiiss6#:tzauuuuyuuuuuuuuuuuuuuuw77eyuuuuuuuuuuuu",
"III#$1bSbxxxbbbfbbbbbt*$ezauuuuuuuuuuuuuuuuuuuuyq0iuuuuuuuuuuuwu",
"III##4mZnxxxxxxxxxxbbt*>qffpuuuuuuuuuuuuuuyuuuuy9wuuuuuuuuuuuuuu",
"III##3vZnxxxxxxxxxxxbt**tfpyyuuuuuuuuuuuuuuuuuuew9uuuuuuuuuuuuuu",
"III##3vSnxzxfxfxxxxxxe*$izapuuuuuuuuuuuuyuuuuuuewwuuuuuuuuuuuuuu",
"III##1mSnzcxbxxxxxxxbe$*tfapuuuuuuuuuuuuuuuuuuuy99wuuuuuuuuuuuuu",
"III##5mZMxxxbbxbbxxxxi$$tfdpppuuuuuuuuuuuuuuuuuy9wuuuuuuuuuuuuuu",
"III##3kZnxxxbkbfbxxxxi*$ezapypuuuuuuuuuuuuuyuuyy99uuuuuuuuuuuuuu",
"III##3kZnbxxxxbbbxxxbt*%tfdpuuuuuuuuuuuuuyuuuyuy99yuuuuuuuuuuuuu",
"III##5kZnxbxbbxbxbbbnt%$tfdauuuuuuuuuuuuuuuuuyyy99yuuuuuuuuuuuuu",
"III##1mBnbxbbbbbccxxni$$wcduuuuuuuuuuuuuuuuuuuuy9wyuuuuuuuuuuuuu",
"III##1kSnbbbbbbbccxnbs,>0wwwwwwwewweuwuuyyyyyyy999eyyyyueyyuyeyu",
"III##4mBnbbbbbbbcmccnbsr;%$%%;;,<<2799ww9999w99999ww9ww999999999",
"III##4kBNbbbbbbbcmmcxcgw;$%=%;;,<2779wew9ey9u9e9ee9iwweeee9y9eee",
"III##4kSNbbbbbbbcVvcVh,;0weeeeiuuyiyuuddddduuuuduuduudduaaaduhuh",
"III#@3kSMbbbbnbbcccMcu%$eclllddllldduddlddlluddlddllldldladddlll",
"III##1kBNnbnbnnbcvcccu%$elluulduduuuuduuudududuuduuuududduuuuuuu",
"III##1mSMbnbnbnnVcccVi%%tcuuuuuuuuuuuuuuuuuuuuuuuuuuuuuuuuuuuuuu",
"III##4VSNnnnbnbnnnnnns*:efdppyppuuuuuuyuuuuyuuuuuyuyuuuuuuuuuuuu",
"III##5kSNnnnnnnnbnnnMi:#tfayypyyyuuuuyuuuyuuuuuuuuuuuuuuuuuuuuuu",
"III##3kSNnnnnnnnbnnnni:%efdpyypyuuuuuuuuuuuuuyuuuuuuuuuyuuuuuuuu",
"III##3mSNnnnnnnnnnnnnt$%tfdpypyyuuuuuuuyyuuyuuuuuuuuuuuuuuuuuuuu",
"III##4VSNnnnnnnnnnnNnp%$elaypyuuuuuyuuuuuuuuuuuuyuuyuuuyuuuuuuuu",
"III@#4mSBnnnnMnnnnnnni%$elluyyuuuuuuuuuuuuuuuuuuuuuuuuuuuuuuuuuu",
"III##3mSNnnnnnnnnnnnns:*tzauyuuyuuuuuuuuuuuuuuuuuuuuuuuuuuuuuiuu",
"III##3mSNnnnnnnnnnnNns*$izdyuuuuuuyuuuuuuuyuuuyuuuuyuuyuuuuuuuuu",
"III##4vSNMnnnnnnnnnnMs*$efuuuuuuuuuuuuuuyyypppppuuuuuuuuuuuuuuuu",
"III##4mSNMnMnnnnMnMnMi%$efduuuuuuuuuauuuaayappppuuuuuuuuuduuuuuu",
"III@#4vSNMMMMMnnnMMMMs=$waduuuuuuaaauduuuaaypappuuuuuuuuuuuuuuuu",
"III#$4mANMMMMMMnmMMMNs1=7wwqqwwwqqqqqqww8epp9986wqw9qqqqwwwwwqwq",
"III@#4VGZMMMMMMnMMMMncjt3==========*====&1ee,:%:=====**=%=====**",
"III@#4VGZMMMMNMMMMMMnNNj5:=,;:::::::::::=3771::::;:==::::::=::::",
"III@#4CHNMMMMMMNMMMMnnMnjgjgssggssssgsssdr==rdggssssgssssssussss",
"III@*4VHZMMMMMMMNMMnnnnnnNMMMnnMnMMMnMnMMd=;sMnnMMMMMMMMMMMMmMMM",
"III#$5mDBnnNnNNMMNMnnnNnnnMMMnnnnnMnnnnnnf86fnnnnnnnnnnnnnnnnnnn",
"III##5NHZNnnNnMMMMMMnnnNNnMMMnnnMnnnnnbnnxttxnnnnbnnnnnncnnnnnnn",
"III##5VKZnnNnNMMNMMMnNNnnnMnnnnMnnnnnnnnnjttxnbnnnnnnbnbnnnbcnbn",
"III@#5CKZnNnNnMMMMMMNnnnNnnnnnnnnnnnnnbnnfttfnnnbnbnnnnnnbnnnbnn",
"III##5CKZnnnMMMMMMMMMMNnMnnnnnnnMMnnnnnnnfttjnnnnnnnncnbnnbnMnnn",
"III##5CKDNZZBBBBBBNNNNBNBBNBNNNNNNNNMMMNNbttbNNNnnnNNNNNMNNNNNMM",
"III##4BLKJJJJJFFDDDDDSSSSSDSSSSSSSSSSSSSDmttMDDDSSDSSSSSSSSSDSSS",
"III@O1nJFSSDSDDSSNNZNZZBBBBBBBBBBBBBBBBBBnttmNZNBBBBBBBBBBBNNZNN",
"III.X=iMxzzfzzfffffffffflllzddzzfffdfffffsreadffzzlflfflfffdffff",
"III.X%elppppppyypyyypyyyuaypppppyyppppyypyrrppayaayyppyyyypyaayy",
"III..*ejapyyppyppyypyyppuuupyyppyppyppyypywrtaayuuuypyppyyyyyyyy",
"III.X$exppppppppppayaapauuuappppppppppppa956eaaauaaappppaaaaaaya",
"III.X%ixdpppppaaaaaapppaasaapappaaapasaaa9:%9aaaaaaappppaaayayap",
"IIIXX*7ew88r88r898888r8888888888888r888891OO188q888888888qqq8qqq",
"IIIXo@$*#%%##%#%%##%#%%##%#%%#$$#%$$#$#%$#oo#$$$%$$$$$$$$%$$#$**",
"IIIII..XXoo.Xoo.oo.X.oXoXoXoXoXXXoooXXXXooooXXoXoo..ooXXXo+oX.o+"
};
