/* XPM */
static char *_04a2317f5eb4183fca059b71fa74442Y8leE4zboTmFCZ1K[] = {
/* columns rows colors chars-per-pixel */
"64 128 142 2 ",
"   c None",
".  c #4E2812",
"X  c #4F2913",
"o  c #502C16",
"O  c #512D18",
"+  c #53321E",
"@  c #56321C",
"#  c #543623",
"$  c #543624",
"%  c #543725",
"&  c #553725",
"*  c #553826",
"=  c #573A27",
"-  c #5A3B27",
";  c #573B28",
":  c #573B29",
">  c #563B2A",
",  c #563B2B",
"<  c #563C2C",
"1  c #573D2D",
"2  c #5B3C29",
"3  c #583F2D",
"4  c #5B4231",
"5  c #584132",
"6  c #604734",
"7  c #634D3C",
"8  c #5C4D41",
"9  c #5D4D42",
"0  c #5D5248",
"q  c #5D5348",
"w  c #5E5348",
"e  c #5E5349",
"r  c #5F5349",
"t  c #5D5449",
"y  c #5E5449",
"u  c #5E544A",
"i  c #5F544A",
"p  c #5E554A",
"a  c #5F554A",
"s  c #655444",
"d  c #675544",
"f  c #675545",
"g  c #61574A",
"h  c #61574B",
"j  c #62574B",
"k  c #61584B",
"l  c #62584B",
"z  c #62584C",
"x  c #63584C",
"c  c #63594C",
"v  c #63594D",
"b  c #645A4D",
"n  c #655C4F",
"m  c #655C50",
"M  c #655C51",
"N  c #655D51",
"B  c #665D51",
"V  c #665E51",
"C  c #675E51",
"Z  c #665D52",
"A  c #665E52",
"S  c #675E52",
"D  c #675F52",
"F  c #675E53",
"G  c #675F53",
"H  c #655E55",
"J  c #655F55",
"K  c #665F56",
"L  c #665F57",
"P  c #685F54",
"I  c #665F58",
"U  c #666057",
"Y  c #676057",
"T  c #676157",
"R  c #686054",
"E  c #686155",
"W  c #696155",
"Q  c #696156",
"!  c #696256",
"~  c #696257",
"^  c #696357",
"/  c #6A6257",
"(  c #666058",
")  c #676058",
"_  c #676158",
"`  c #676159",
"'  c #676258",
"]  c #676259",
"[  c #686158",
"{  c #686159",
"}  c #696358",
"|  c #686259",
" . c #686359",
".. c #6A6358",
"X. c #6B6358",
"o. c #6B6359",
"O. c #68625A",
"+. c #69625A",
"@. c #68635A",
"#. c #69635A",
"$. c #69635B",
"%. c #6A635B",
"&. c #69645A",
"*. c #69645B",
"=. c #6A645B",
"-. c #6A655B",
";. c #6D665A",
":. c #6D665B",
">. c #6E675B",
",. c #6B645C",
"<. c #6A655C",
"1. c #6B655D",
"2. c #6A665C",
"3. c #6B665C",
"4. c #6B665D",
"5. c #6B675D",
"6. c #6C665E",
"7. c #6C675E",
"8. c #6C675F",
"9. c #6E685B",
"0. c #6C685E",
"q. c #6D685F",
"w. c #6F6A61",
"e. c #706B63",
"r. c #706C63",
"t. c #726F67",
"y. c #76736B",
"u. c #767469",
"i. c #79766E",
"p. c #7A776F",
"a. c #7E7B73",
"s. c #828076",
"d. c #828077",
"f. c #848278",
"g. c #86837B",
"h. c #868579",
"j. c #86847B",
"k. c #8B8A7F",
"l. c #8C8A81",
"z. c #908E86",
"x. c #94928B",
"c. c #99978F",
/* pixels */
"- - - - - - - - - - - - - - - - - - - -     - - - - - - - - - - ; - - - - - - - - - - - . o . o . o h.h.h.h.h.h.h.h.h.h.x.x.2 2 ",
"- - - - - - - - - - - - - - - - - - - -     - - - - - - - - - - 2 : - - - - - - - - - - . . o . . . h.h.h.h.h.h.h.h.h.h.x.x.2 2 ",
"h.h.h.h.h.h.h.h.h.h.h.h.h.h.h.h.h.h.k.k.6 6 k.k.h.h.h.h.h.h.h.h.h.h.h.h.h.h.h.h.h.h.h.h.h.h.h.h.h.h.h.h.h.h.h.h.h.h.h.h.x.x.2 2 ",
"h.h.h.h.h.h.h.h.h.h.h.h.h.h.h.h.h.h.k.k.6 6 k.k.h.h.h.h.h.h.h.h.h.h.h.h.h.h.h.h.h.h.h.h.h.h.h.h.h.h.h.h.h.h.h.h.h.h.h.h.x.x.2 2 ",
"h.h.h.h.h.h.h.h.h.h.h.h.h.h.h.h.h.h.k.k.7 7 k.k.h.h.h.h.h.h.h.h.h.h.h.h.h.h.h.h.h.h.h.h.h.h.h.h.h.h.h.h.h.h.h.h.h.h.h.h.c.c.2 2 ",
"h.h.h.h.h.h.h.h.h.h.h.h.h.h.h.h.h.h.k.k.7 7 k.k.h.h.h.h.h.h.h.h.h.h.h.h.h.h.h.h.h.h.h.h.h.h.h.h.h.h.h.h.h.h.h.h.h.h.h.h.c.c.2 2 ",
"h.h.h.h.h.h.h.h.h.h.h.h.h.h.h.h.h.h.k.k.f f k.k.h.h.h.h.h.h.h.h.h.h.h.h.h.h.h.h.h.h.h.h.h.h.h.h.h.h.h.h.h.h.h.h.h.h.h.h.c.c.2 2 ",
"h.h.h.h.h.h.h.h.h.h.h.h.h.h.h.h.h.h.k.k.f f k.k.h.h.h.h.h.h.h.h.h.h.h.h.h.h.h.h.h.h.h.h.h.h.h.h.h.h.h.h.h.h.h.h.h.h.h.g.c.c.2 2 ",
"x.x.x.x.x.x.x.x.x.x.x.x.x.x.c.c.c.c.c.c.d f c.c.c.c.c.c.x.x.x.x.x.x.x.x.x.x.x.x.x.x.x.x.x.x.x.x.x.x.x.x.c.c.c.c.c.c.c.c.g.g.X X ",
"x.x.x.x.x.x.x.x.x.x.x.x.x.x.c.c.c.c.c.c.d f c.c.c.c.c.c.x.x.x.x.x.x.x.x.x.x.x.x.x.x.x.x.x.x.x.x.x.x.x.x.c.c.c.c.c.c.c.c.g.g.X X ",
"0.0.0.0.0.0.0.0.0.0.0.w.w.7.7.7.7.w.w.7.4 4 7.7.0.7.w.w.7.7.5.7.w.5.*.w.5.5.5.*.w.$.w.$.w.$.w.$.5.5.;.o.,.5.5.5.$.5.$.5.g.g.X X ",
"0.0.0.0.0.0.0.0.0.0.7.7.7.7.w.w.7.7.7.7.4 4 w.7.w.7.7.7.7.7.0.0.5.5.w.*.5.w.5.w.$.w.$.w.$.w.$.w.,.5.5.5.5.5.5.' 5.$.5.$.g.g.X X ",
"0.0.0.0.0.0.0.0.0.0.0.0.0.0.0.0.7.0.0.0.4 4 7.7.7.7.7.7.7.7.7.7.*.w.*.w.5.5.w.*.$.*.w.$.*.w.*.*.5.5.5.,.,.5.,.5.$.5.5.5.f.g.o . ",
"0.0.0.0.0.0.0.0.0.0.0.0.0.0.0.0.0.0.0.0.4 4 7.7.7.7.7.7.7.7.7.7.w.*.w.*.5.5.*.*.w.$.w.*.$.w.*.w.5.,.5.5.,.,.5.5.5.$.o.5.g.g.. o ",
"7.7.7.7.7.7.7.7.7.7.7.7.7.7.7.7.5.5.7.7.4 4 7.7.7.7.7.7.7.7.7.7.*.w.*.*.*.w.*.w.*.w.$.*.$.*.w.,.5.5.,.5.5.,.,.o.$.,.,.O.a.a.. . ",
"7.7.7.7.7.7.7.7.7.7.7.7.7.7.7.7.5.5.5.7.4 4 7.7.7.7.7.7.7.7.7.7.w.*.w.w.*.*.*.w.*.*.*.w.w.*.$.5.,.5.5.o.5.5.5.O.,.] O.5.a.a.. . ",
"w.*.*.*.*.*.$.w.*.w.w.*.w.*.*.$.5.5.5.,.4 4 w.5.,.5.$.*.w.w.$.*.5.,.5.w.$.*.*.w.$.$.*.w.,.,.5.5.,.,.,.] O.5.,.] O.5.o.o.a.a.X X ",
"*.*.w.w.w.w.*.*.*.*.*.*.*.*.w.w.5.5.5.5.4 4 ,.5.,.5.w.$.$.*.*.w.5.5.5.,.$.w.$.w.*.w.$.$.5.5.,.,.,.,.,.,.o.O.,.5.5.o.5.o.a.a.X X ",
"*.w.*.*.*.*.w.$.w.*.*.w.*.w.$.*.,.5.,.5.4 4 5.5.,.,.,.$.$.$.*.w.,.,.$.5.$.5.*.5.$.5.*.5.o.5.5.O.] o.$.$.5.] $.$.] ,.O.O.a.a.X X ",
"*.*.w.*.*.w.$.$.w.*.*.w.*.*.w.$.5.5.,.5.5 3 5.5.w.,.,.w.w.w.$.$.5.,.5.$.*.*.5.*.5.$.5.$.5.o.O.,.5.' $.$.$.,.*.5.,.] O.O.a.a.X X ",
"*.5.*.5.*.5.w.w.$.$.$.w.,.5.,.$.,.,.w.$.3 5 ,.$.*.*.*.*.$.*.*.*.$.5.$.5.$.5.$.5.$.5.5.o.5.O.,.$.*.$.$.$.' *.' ' ] O.o.' p.p.o X ",
"5.*.5.*.5.*.$.$.*.w.$.$.5.5.,.w.,.5.,.5.4 5 5.,.*.w.*.*.$.$.$.w.5.$.5.$.5.$.5.$.5.$.o.5.5.O.] ,.$.$.$.$.*.*.' *.] ] ' ' p.p.X X ",
"*.5.*.*.*.*.*.*.*.*.$.$.*.*.*.*.,.,.5.$.4 4 7.,.*.*.w.*.*.$.*.*.$.5.$.5.$.5.$.5.$.5.O.O.O.O.,.O.$.$.] o.*.' ' ' O.] o.' p.p.X X ",
"5.*.*.*.*.*.*.*.*.*.*.$.*.*.*.*.5.,.$.5.4 4 ,.5.*.w.*.*.*.w.*.*.5.$.5.$.5.$.5.5.5.] O.,.O.,.O.,.$.5.] *.' o.' o.O.] *.' i.i.X X ",
"$.$.*.*.*.*.*.*.*.*.*.*.*.*.*.*.*.5.*.*.+ + *.*.*.*.*.*.*.*.$.*.$.*.*.*.*.*.] o.o.o.] 5.O.O.O.O.] ] X.I X.O.I X.] Y ] O.i.i.X X ",
"*.*.*.*.*.*.*.*.*.*.*.*.*.*.*.*.5.*.*.*.+ # *.*.*.*.*.w.*.w.*.*.$.$.*.*.*.*.5.o.*.O.O.o.O.O.O.] ] ] I O.I O.X.I Y ] Q ] i.i.X . ",
"*.*.*.*.*.*.$.$.*.*.*.*.*.*.*.*.$.$.$.$.+ + *.*.*.*.*.*.$.$.$.$.$.$.$.$.$.$.] O.] ,.O.O.O.O.] ] I I O.O.X.I I O.] Y Y Y u.y.. o ",
"*.*.*.*.*.*.$.$.*.*.*.*.*.*.*.*.*.*.$.$.+ + *.*.*.*.*.*.$.$.$.$.$.$.$.$.$.$.O.O.O.] O.O.O.O.o.' O.O.O.I I X.I O.' Y Y Y y.y.o . ",
"$.$.$.$.$.$.$.$.$.$.$.$.$.$.$.$.$.$.$.$.+ + $.$.$.$.$.$.$.$.$.$.$.$.$.$.,.X.O.O.] ] $.I ] ] O.Q O.O.Y Y O.Q ] L Y Y Y Y y.y.X X ",
"$.$.$.*.$.$.$.$.$.$.$.$.$.$.$.$.$.$.$.$.+ + $.$.$.$.$.$.$.$.$.$.$.$.$.$.O.O.O.O.,.] ] ,.] o.O.O.Q ] Y Y Q Q Y Y L L Y Y y.y.X X ",
"$.] *.] *.] $.$.] *.] *.] $.$.$.$.$.$.$.+ + $.$.$.$.$.$.$.$.$.$.,.$.5.o.O.O.O.O.] ] ] ] Y ' ] L Y Y Y Y Y Y Y L L A A L t.t.X X ",
"] *.] *.] $.] $.*.] *.] *.] $.$.$.$.$.$.+ + $.$.$.$.$.$.$.$.$.$.] ,.] o.O.O.] ] ] ] ] ] Y O.L ] Y Y Y Y Y Y L L L L L L t.t.X X ",
"] ] ] I ] ] ] ] ] ] ] ] ] ] ] ] $.] ] ] # O O.O.O.O.O.O.O.O.O.O.O.O.O.O.O.Q ] I O.O.] I ] ] L I Y Y Y Y Y U J J J L L L t.t.X X ",
"] ] ] ] ] ] ] ] ] ] ] ] ] ] ] ] ] ] ] ] O # O.O.O.O.O.O.O.O.O.O.O.O.O.O.O.O.O.O.O.L ] ] ] L P O.Y Y Y Y U U J U J J L L t.t.X X ",
"$.I I $.I ] I ,.] I ] $.] I I ] ] ] ' ' # + I O.] O.] I O.] I ] I ] I O.] Y I I L L I I Y Y I I L L L L N N U U J J N J o .     ",
"I ] ] I $.I ] I I $.] I ] $.I ] ] ] ] ' + + ] I I I ] O.I ] O.P O.O.I ] Q O.I P L ] ] L Y L L L L Y A A U U U N H J J J . o     ",
". . . . o . X X o . . . . . X X X X X X q q X X o . o . X X o . . o o . X X o . . o . o . . o . o . o . X X X X . . X X         ",
". . . . X X . . . o . . . o X X X X X X q q X X X X . o X X . o X . . o X X . o . . o . . . . o . . . o X X X o . . X X         ",
"u t 0 0 e 0 0 0 0 0 0 0 0 0 e e q q q q q q q q e g 0 e 0 0 e u e u u u e e u u . o h h k k l l l a l l h h l l h b o X         ",
"t t 0 0 e 0 0 0 0 0 0 0 0 t e e q q q q q q q q 0 0 e e 0 g u u e e u u e e u u . . h h h u l l l l l l l h l l k k . X         ",
"0 0 0 0 0 0 q q 0 0 0 0 w q q q q q q q q q q q w w u w e e u u u u u u u u u u . o j j x l l l h v h v h j l l j h X X         ",
"0 0 0 0 0 0 q q 0 0 0 0 w w q q q q q q q q q q w w w u e u u u u u u u u u u u . . j h l l l l v h v h j j l l x h X X         ",
"0 0 0 0 0 0 q q 0 w 0 0 q q q q q q q q q q q q w w u w u u u u u u u u u u u u . . f l x x x x v v m h v v j x l l X X         ",
"0 0 0 0 0 0 q q 0 0 0 0 q q q q q q q q q q q q w w u u u u u u u u u u u u u u o . x l x x x x v v h m v v j j l l X o         ",
"0 0 0 0 0 0 q q q q q q q q q q q q q q q q q q w w u w u u u u u u u u u u u u X X v v l k b b h b h h l l l l l l o .         ",
"0 0 0 0 0 0 q q q q q q q q q q q q q q q q q q w w w u u u u u u u u u u u u u X X v v l l h b h b h b l l l l l l . o         ",
"0 0 0 0 0 0 q q q q q q q q q q q q q q q q q q w w u w u u u u u u u u u u h 0 X X v v h h b b h h b b l l l l l h . .         ",
"0 0 0 0 0 0 q q q q q q q q q q q q q q q q q q w w w u t t u u u u u u u 0 0 h X X v b v h m h b k k k l l l l l f . o         ",
"0 0 0 0 0 0 0 0 t t t 0 0 0 t 0 t 0 0 0 0 t 0 t t 0 t t t t t u u u u u u u h u X X j g h h l l l l l l l l l l m m X X         ",
"0 0 0 e 0 0 0 0 t t 0 0 0 t t t 0 t 0 0 t 0 t 0 0 0 t t t t t t u u u u u u h u X X g g h h l l l a l l l l l l m m X X         ",
"] ] ] ] ] I I ] ( ( I w.( ( O.( ] ] ] ] ] ] ] ] w.I I I I I O.O.I ] I I I ] I ] X X j j j x x g l l l l l l l l m m X X         ",
"] ] I ] ] ] ] I ( ( I ( ( O.( O.] ] I ] I I ] ] I I I w.I $.I O.,.I O.] O.O.I ] X o j j j j g x l l l l l l l l m b X X         ",
",.I I I I I O.] I I I ( I I ( ( I O.I I ] ] ] I I I O.I O.( O.( O.I I ] ] ] I O.X X j x v j v v v v b b b k A A m m o X         ",
"I I ,.I O.] O.I I w.( ( ( I w.( O.I I w.] I ] ] I I I O.( O.( ( ] ] O.O.I O.I ] X X j j j v v v v v h b k b A n m m X X         ",
"e e r r u u 4 3 5 5 % % % % 5 5 5 5 5 5 5 3 t t u u u u u u 5 5 3 5 5 5 . . . . v j v j v h v v h v h k b b k A A m o .         ",
"e h 0 h u u 5 5 5 5 % % % % 1 1 5 5 5 5 5 3 e e u u u u u u 5 1 5 5 5 5 . . . . j v j v h v b h v h b k k k b A b b . o         ",
"w.,.w.w.$.w.w.w.O.w.I w.$ $ w.O.w.w.O.w.w.w.( ( w.w.w.O.8.8.8.8.w.w.$.w.w.O.w.w.. . p v b h b m h v v v m m m m m m . .         ",
",.w.w.$.w.w.O.w.w.w.( w.$ $ w.w.w.w.I w.w.w.w.w.w.( O.w.w.w.8.8.w.w.I w.w.w.w.( . . v v k k b k v h v v m m m m m m . o         ",
"I $.I I I $.$.I I I I I < < O.I O.I I I O.( O.( O.( I ( O.( O.( O.O.I I O.O.r.r.. o v v k b x x b j v v m m m m m m o .         ",
"$.I I I ] ] I ] I w.( I < < ( O.( O.O.I ( O.( O.( O.( O.( O.( O.I I $.I O.O.r.r.. o v v k l x x x v j v m m m m m b X X         ",
"I ] $.I ] ] I ] I ( w.I 1 5 I O.O.( O.( O.( O.( O.( O.( O.( O.( O.O.I O.] I r.r.. o M k b k b x x x n n A b m m m m X X         ",
"I ] I ] $.I $.I ( ( ( ( 5 5 O.O.( O.( O.( O.( O.( O.( O.( O.( O.O.I ] O.] O.r.r.. . k M b b h b x x A n b A m m m m X X         ",
"$.] I ] I I $.] ( I ( ( t t I I O.( O.( O.( O.( O.( O.( O.( O.( O.O.I I I I w.r.. . z a k k b b x x n n A m m m m m o X         ",
"I ] $.I ] ] I ] w.I ( ( t t O.O.( O.( O.( O.( O.( O.( O.( O.( O.I O.O.] O.] w.r.o . v v b b b k x b n A m m m m m m X X         ",
"I $.] I $.I I $.I I I I r r I $.( O.( O.( O.( O.O.I I w.I O.I O.I ] ] O.] ] r.r.o . b l b l b l m m m m m m m m A b X X         ",
"] I ] $.I ] ] I I I w.$.r i I I O.( O.( O.( O.( I I I I O.I O.I O.O.I I I ] r.r.. o l b l b l b m m m m m m m m m b X X         ",
"] I ] I ] ] ] ] I $.I I r r I $.( O.( O.( O.( O.O.O.I I I O.I O.] I O.] O.] r.r.X X b l b l b l m m m m m m m m m m o .         ",
"I $.] I $.I I $.$.I $.I r r $.I O.( O.( O.( O.( O.I I I w.I O.I ] O.I ] O.I r.r.X X l b l b l b m m m m m m m m m m . o         ",
"] $.I ] I $.I I I $.I $.r r I $.( O.( O.( O.( O.( O.( O.I 1.I O.I I O.] ] ] e.r.X X j x x x n n m m m m m m m m m m o X         ",
"] I I ] ] ] ] ] $.I $.I r r I I O.( O.( O.( O.( O.( O.( I $.I O.O.] O.I ] ] e.e.X X x x x x A n m m m m m m m m m m X X         ",
"I $.$.I $.I I $.] I I ] i i I I ( O.( O.( O.( O.( O.( O.I I $.$.] O.] I ] ] r.r.o . x x b x m m m m m m m m m m m m X X         ",
"] I ] ] I ] ] I ] $.I ] i i $.I O.( O.( O.( O.( O.( O.( $.I I 1.I I ] O.Y Q r.w.. o b x j b m m m m m m m m m m m b X X         ",
"e e 0 0 0 e e e 0 u 0 u 0 u r r t t 0 0 u e e e u u r r r r 5 5 4 5 5 5 . . . . m m b b m m m m m m m m m m m m n A o X         ",
"e e 0 0 0 e r e 0 0 u u r 0 u u t t 0 0 e e e e u u r r r r 1 1 5 5 1 1 . . . . m b k b m m A b m m m m m m m m n n X X         ",
"w.w.w.w.w.w.w.w.1.w.w.1.6.1.6.1.w.O.w.w.w.$.w.w.8.8.8.8.6.8.8.8.w.,.w.w.w.w.e.e.. o k N O./ / / X.X.;.;.;.;.;.>.;.9.. o         ",
"w.,.$.w.I w.I w.w.1.1.w.6.w.w.1.w.w.w.I 1.w.$.w.8.8.8.8.6.6.8.8.5.w.$.w.w.w.r.r.o . A N Q / / / X.X.;.;.;.7.>.>.;.;.o .         ",
"I I I I I I I I I I I I I I I I I I I I I I I I I I I I I I I I I I I I H I w.e.O O 2 : ; ; = = = = = = = = = = 3 3 o o         ",
"I I I I I I I I I I I I I I I I I I I I I I I I I I I I I I I I I I I I H I e.e.O O : : ; = = - = = = - = = = , 3 1 o o         ",
"I I I I I I I I I I I I I I I I I I I I I I I I I I I I I I I I I I I I I I e.e.. . N N A m A A A A A n A A P A m A X X         ",
"I I I I I I I I I I I I I I I I I I I I I I I I I I I I I I I I I I I I I I e.e.. . N N M A b A A n A n A A A m A m X o         ",
"I I I I I I I I I I I I I I I I I I I I I I I I I I I I I I I I I I I I I I r.r.. . N A N N N N N A n n A A B B g.s.X X         ",
"I I I I I I I I I I I I I I I I I I I I I I I I I I I I I I I I I I I I I I r.r.. . N N N N N N R b A A A A B B h.h.X X         ",
"I I I I I I I I I I I I I I I I I I I I I I I I I I I I I I I I I I I I I I r.r.. o H N A A A A R N N R A B B B g.s.X X         ",
"I I I I I I I I I I I I I I I I I I I I I I I I I I I I I I I I I I I I I I r.r.o . J J A A A A N N R b A A P P s.h.X X         ",
"I I I I I I I I I I I I I I I I I I I I I I I I I I I I I I I I I I I I I I r.r.X X L A A R A R A R A R R R u.u.h.s.X X         ",
"I I I I I I I I I I I I I I I I I I I I I I I I I I I I I I I I I I I I I I r.r.X o B A A A R A R A R A R n u.u.s.g.X X         ",
"I I I I I I I I I I I I I I I I I I I I I I I I I I I I I I I I I I I I I I e.r.X X A R A R A R A R A R A R u.u.s.d.X X         ",
"I I I I I I I I I I I I I I I I I I I I I I I I I I I I I I I I I I I I I I r.r.X X R A R A R A R A R A R A u.u.s.d.X X         ",
"I I I I I I I I I I I I I I I I I I I I I I I I I I I I I I I I I I I I I I w.w.X X B R R P Q B R R R R u.u.u.u.s.f.X X         ",
"I I I I I I I I I I I w.I I I I I $.I I I I I I I I I I I I I I I I I I I I t.t.X X Q B B Q R Q R R R R u.u.u.u.f.s.X X         ",
"8 8 8 8 9 9 u u 3 5 5 5 $ $ < < 5 5 u 0 u u u u r r e e 0 0 0 0 5 5 5 5 . . . . B R R R R R R R R R R R u.u.u.u.s.f.X X         ",
"8 8 8 9 9 9 0 0 1 1 5 5 $ $ < < 1 1 0 0 u u 0 u r r e e e u 0 0 5 5 5 5 . . . . R R R R R R R R R R R R u.u.u.u.f.a.X X         ",
"w.$.w.$.w.w.O.w.w.w.$.w.$ % w.w.1.w.1.w.w.1.w.w.w.$.w.$.w.$.w.w.w.,.w.$.5.w.w.e.o . R Q R R R R R R u.u.u.u.u.u.f.d.. .         ",
"$.w.w.w.$.w.w.$.O.$.w.w.% % w.w.1.w.w.$.1.w.O.O.w.w.w.w.w.$.w.O.5.w.w.w.w.7.w.w.. o ^ R R R R R R Y u.u.u.u.u.u.d.d.. .         ",
"I I I I I I I I I I I I < , H I I I I I I I I I I I H I I I I I I I I I I I r.r.. . R W R Q Q Q Q Q u.u.u.u.u.u.s.s.. X         ",
"I I I I I I I I I I I I < , I I I I I I I I I I I I I I I I I I I I I I Q Q r.q.. o / R Q Q Q Q Q Y u.u.u.u.u.u.s.f.X X         ",
"I I I I I I I I I I I I r r I I I I I I I I I I I I I I I I I I I I I I I I t.w.X X o.^ Q Q Q Q u.u.u.u.u.u.u.u.s.s.X X         ",
"I I I I I I I I I I I I r r I I I I I I I I I I I I I I I I I I I I I I I I w.w.X X ^ ^ Q Q Q Q u.u.u.u.u.u.u.u.s.s.X X         ",
"I I I I I I I I I I I I r r I I I I I I I I I I I I I I I I I I I I I I I I w.t.. . ^ ^ ^ Q ^ ^ u.u.u.u.u.u.u.u.s.s.X X         ",
"I I I I I I I I I I I I r r I I I I I I I I I I I I I I I I I I I I I I I I w.w.X . ^ ^ ^ Y ^ ^ u.u.u.u.u.u.u.u.s.s.X X         ",
"I I I I I I I I I I I I h u I I I I I I I I I I I I I I I I I I I I I I I ] t.w.X X o.^ o.^ u.u.u.u.u.u.u.u.u.u.s.s.X X         ",
"I I I I I I I I I I I I e u I I I I I I I I I I I I I I I I I I I I I I I ] w.w.X X ^ o.o.' u.u.u.u.u.u.u.u.u.u.s.s.X X         ",
"I I I I I I I I I I I I e r I I I I I I I I I I I I I I I I I I I I I I I I w.t.X X o.^ ^ o.u.u.u.u.u.u.u.u.u.u.s.s.X X         ",
"I I I I I I I I I I I I r r I I I I I I I I I I I I I I I I I I I I I I I I w.t.X X o.o.o.^ u.u.u.u.u.u.u.u.u.u.s.s.X X         ",
"I I I I I I I I I I I I 5 5 I I I I I I I I I I I I I I I I I I I I I I I I w.w.. . ^ o.u.u.u.u.u.u.u.u.u.u.u.u.s.s.. .         ",
"I I I I I I I I I I I I 5 3 I I I I I I I I I I I I I I I I I I I I I I I I t.w.. . o.o.u.u.u.u.u.u.u.u.u.u.u.u.s.s.X X         ",
"I I I I I I I I I I I I ; ; I I I I I I I I I I I I I I I I I I I I I ] I I w.w.X X o.o.u.u.u.u.u.u.u.u.u.u.u.u.s.s.X X         ",
"I I I I I I I I I I I I 3 = I I I I I I I I I I I I I I I I I I I I I ] I I w.t.X X o.O.u.u.u.u.u.u.u.u.u.u.u.u.s.s.X X         ",
"+ + + + @ @ @ @ @ @ @ @ @ @ @ @ @ @ @ @ I I @ @ @ @ @ @ O @ @ @ @ @ @ @ @ @ @ @ u.u.u.u.u.u.u.u.u.u.u.u.u.u.u.u.l.l.X X         ",
"+ + + O @ @ @ @ @ @ @ @ @ @ @ @ @ @ @ @ I I @ @ @ @ @ @ # @ @ @ @ @ @ @ @ @ @ @ u.u.u.u.u.u.u.u.u.u.u.u.u.u.u.u.l.l.X X         ",
"t.y.y.y.u.u.u.u.u.u.u.u.u.u.u.u.u.u.u.u.@ @ u.u.u.u.u.u.u.u.u.u.u.u.u.u.u.u.u.u.u.u.u.u.u.u.u.u.u.u.u.u.u.u.u.u.l.l.X X         ",
"y.y.y.y.u.u.u.u.u.u.u.u.u.u.u.u.u.u.u.u.@ @ u.u.u.u.u.u.u.u.u.u.u.u.u.u.u.u.u.u.u.u.u.u.u.u.u.u.u.u.u.u.u.u.u.u.l.l.X X         ",
"u.u.u.u.u.u.u.u.u.u.u.u.u.u.u.u.u.u.u.u.s s u.u.u.u.u.u.u.u.u.u.u.u.u.u.u.u.u.u.u.u.u.u.u.u.u.u.u.u.u.u.u.u.u.u.l.l.X X         ",
"u.u.u.u.u.u.u.u.u.u.u.u.u.u.u.u.u.u.u.u.s s u.u.u.u.u.u.u.u.u.u.u.u.u.u.u.u.u.u.u.u.u.u.u.u.u.u.u.u.u.u.u.u.u.u.l.k.X X         ",
"u.u.u.u.u.u.u.u.u.u.u.u.u.u.u.u.u.u.u.u.s s u.u.u.u.u.u.u.u.u.u.u.u.u.u.u.u.u.u.u.u.u.u.u.u.u.u.u.u.u.u.u.u.u.u.z.z.X X         ",
"u.u.u.u.u.u.u.u.u.u.u.u.u.u.u.u.u.u.u.u.s s u.u.u.u.u.u.u.u.u.u.u.u.u.u.u.u.u.u.u.u.u.u.u.u.u.u.u.u.u.u.u.u.u.u.z.z.X o         ",
"u.u.u.u.u.u.u.u.u.u.u.u.u.u.u.u.u.u.u.u.f f u.u.u.u.u.u.u.u.u.u.u.u.u.u.u.u.u.u.u.u.u.u.u.u.u.u.u.u.u.u.u.u.u.u.z.z.X X         ",
"u.u.u.u.u.u.u.u.u.u.u.u.u.u.u.u.u.u.u.u.d d u.u.u.u.u.u.u.u.u.u.u.u.u.u.u.u.u.u.u.u.u.u.u.u.u.u.u.u.u.u.u.u.u.u.z.z.X X         ",
"j.j.j.j.j.j.j.j.j.j.j.j.j.j.j.j.g.g.g.j.d s f.g.j.j.j.j.h.g.g.g.j.j.j.j.j.j.j.j.j.j.j.j.j.j.l.l.l.l.z.z.z.z.z.z.z.z.X X         ",
"j.j.j.j.j.j.j.j.j.j.j.j.j.j.j.h.g.g.g.j.d g g.g.j.j.j.j.g.h.g.g.j.j.j.j.j.j.j.h.j.j.j.j.j.j.l.l.l.l.z.z.z.z.z.z.z.z.X X         ",
"] U U U U U U U U U U U U U U U U U U Y s s U U ] L U U U U U U U U U U U U U U U U U U U U U U P I U U U U U U q.e.o X         ",
"U U U U U U U U U U U U U U U U U U U Y s g U U Y L U U U U U U U U U U U U U U U U U U U U U U Y I U U U U U U e.q.X X         ",
"U U U U U U U U U U U U U U U U U U Y Y s s U U Y Y Y U U U U U U U U U U U U U U U U U U U U U Y Y Y U U U U U q.e.X X         ",
"U U U U U U U U U U U U U U U U U U L L s s U U Y Y U U U U U U U U U U U U U U U U U U U U U U Y Y Y U U U U U e.q.X X         ",
"U U U Y U U U U U U U U U U Y Y U U U U X X ] Y U U Y ] U U U U Y Y U U U U Y ] U U U U Y Y Y U U Y ] ] U U U U e.e.X X         ",
"U U U ] U U U U U U U U U Y Y Y U U U U X X ] Y U Y Y ] U U U U ] ] U U U U Y ] U U U U ] ] U U U Y L ] U U U U e.e.X X         ",
". . X X X X . . X X X X X X X X X X . . X X X X . . X X X X . . X X X X . . X X X X . . X X X X . . X X X X . . o .             ",
"X X X X X X X . X X X X X X X X X . . . X X X X . . X X X . . . X X X X . . X X X X . . X X X . . . X X X . . . . o             "
};
