/* XPM */
static char *dr_c[] = {
/* columns rows colors chars-per-pixel */
"64 128 67 1",
"  c black",
". c #491E06",
"X c #4C250E",
"o c #4D2710",
"O c #4E2913",
"+ c #502A15",
"@ c #512F1A",
"# c #52321E",
"$ c #543522",
"% c #563926",
"& c #573B2A",
"* c #583925",
"= c #5A3D2A",
"- c #5C402E",
"; c #564030",
": c #5B4333",
"> c #5A4739",
", c #5D4837",
"< c #5C4A3C",
"1 c #604633",
"2 c #624836",
"3 c #644C3A",
"4 c #5E4F41",
"5 c #5D5247",
"6 c #5E5449",
"7 c #604F41",
"8 c #615246",
"9 c #61564B",
"0 c #63594D",
"q c #695242",
"w c #6A5B4D",
"e c #655E54",
"r c #665F58",
"t c #695E53",
"y c #676057",
"u c #676159",
"i c #6A6156",
"p c #6A645B",
"a c #6D685F",
"s c #716354",
"d c #71665A",
"f c #746A5D",
"g c #786D5E",
"h c #6E6961",
"j c #726D63",
"k c #786D61",
"l c #747066",
"z c #767369",
"x c #7B7264",
"c c #7A756C",
"v c #7A786E",
"b c #7E7B72",
"n c #807569",
"m c #817B6E",
"M c #817E74",
"N c #887F75",
"B c #828177",
"V c #868579",
"C c #8A8076",
"Z c #89867D",
"A c #8A897E",
"S c #8A8780",
"D c #8C8A81",
"F c #918F87",
"G c #918F88",
"H c #94938A",
"J c None",
/* pixels */
"********-$**********************%%%********#+XXXX#gAVVVVVVVAHmq*",
"33333333333333333333223333333333333333333332-----3xVVVVVVVVVFC3*",
"xxxxxxxxxxxxxxxxxxxgqqxxxxxxxxxxxxzjxxxxxxxxgggggxBVVVVVVVVAFN3*",
"VVVVVVVVVVVVVVVVVAABqqCAAVVAVVVVVVZZVVVVAVVVVAVVVVVVVVVVVVVAHmq=",
"VVVVVVVVVVVVVVVVVAABqwxAVVVVVVVVVVVVVVVVVVVVVVVVVVVVVVVVCVVAHNq*",
"VVVVVVVVVVVVVVVVVAVmwwCAVVVVVVVVVVVVVVVVVVVVVVVVVVVVVVVVVVVVHCq=",
"VVVVVVVVVVVVVVVVVVACswCVVVVVVVVVVVVBZBMVVVVVVVCVVVVVVVBVVVBAHCq*",
"AVAAAAAAAAVAAVAAAAAVssBAAAAAAAAASSSSSSZZAAAVAAAAAVAAAAAVAAAFHN3$",
"FFFFFFFFFFFFFFHHHHHVssAHAAHAHHHAFFFFFFGGGGGGFFFFAAHHHHHHHHHHFx-O",
"AAAAAAADDADSDDDFHAABwwBAHAAAAAHASASSSSSSSSSSSDAAAAAAAAAFAHFAAf=X",
"llzzzzzzzzzzzzzzvcza33fvVzzzzzvzzlllczzlzlllzzzzzzvxzzzzlzzvBg-X",
"aaaaapppppppaaapppay33tagfaappappppaphppupppahpppppdppyiupulmf-X",
"paaaapppapppaaapaaaw,<iaappppappapapapppppppapppppppppppppplMl-X",
"ppapaapaaaaaappapapy<3epaaaaapaapaaaappppapppappppapppappppjbf-X",
"apaapappapaapaaaapaw<,eapapaaapaaappppppaaapppppppapappppupjvf-X",
"paapapaapaapappppapy,,eaapappppaahpuaappaaappapppppppppiuuujva-X",
"pahhppphappaaphpppae<,ypapppaappappapppppappppappyppppppprphvd=X",
"ppphpphhpappppphaape,,epapppppappappappappppppppppipypupppujva*X",
"pppppppappaappppppa0,,eapaaappapppppppappppappppippppppuupuhvd=X",
"pppppppppapphppppape,,epppappppppapppppippppppuppppypyuuprphcd=X",
"ppppppppaapppppppapt,,waaipappppppppuapappapypppppipppuurpuhca*X",
"ppppppppaapuppppppp0<3yppaapppppapppiuapppppyppppppyupppuuuhzs*X",
"pppppppppppupuuuppai,<wpppppppppppupaappppppppypppypupuauurhcp-X",
"pppuupuuuupppppuppa0,,epppppppppppuuuppppypppppypppyiuuuurrhca%X",
"ppuppuuuuupppppphrh0==9hppppppppupuppaauuuuaaiuuyyuuuuuuyyyazd-X",
"pupppppuuupppppprhr9=&9hpppppppppppuuuauiuuiuauuyyuuuuuuyyppzi%X",
"pppuppupupppppppphh6&&9rppuppppuppuuuupiauuuuuuryuuuypuyyuypzi%X",
"upppppuppppuuuppprue=&6hpupuuuppppuuuuiaiiuuuuuupuuuuyuyyyypli%X",
"uppuppupppppdrrrrph6&&erpppuppupuauuppppapuruuuuuuuuyyiyyyypli*X",
"upupupupuprpprhhppr9&&9hppuppupuuuaauuupuupuuuurueuuyyytyyeplt-X",
"upppuuuupuprpprrrhh9&&6ppupuuppuuuppuuuupuyreuyyyyuuuuywyeypji%X",
"uuuppuuuuprprphrrrr9&&9pppuupuupauupuuuryuruuyyyyyeueeyueyypl0;O",
"uuuuuuuuuuuuuuuuuuu6;;6uuuuuuuuuuuuuuuyuyuuuuuuuyyyyy0yeyeepli;X",
"puuuuupupuuuuuupuuu6;;6uuuuuuuuuuupuuuuuuuuuuuuuyyyyyyyyyyyyy3#X",
"pppuuuuuuupuuupuuuu6;$6uppuuuuuuuuupuuuuuuupuyuyiyyyyyyyyyy0-$@X",
"6666666666666666666>;;556666666666665555666<666<55565645555,@XXJ",
"$$$$$$$$$$$$$$$$###;>;;#$%$$$$$$%$$$$$$$$$$$$$$$#$$$$$$$#$$#@XXJ",
"##@@@#@@###########;55$@#$#####$$$######OO@########$#####@OoXJJJ",
">>>>>>>>>>>>>>>>>>;>55>>><<>><><<<<<><<;#@;<<<<<<<<<<<,<<;#oXJJJ",
"556666666665656566666566666666666666666<##<00000000000000<#oXJJJ",
"565656655665666566555656666606606666666>##<0000000000800e<#ooJJJ",
">>5655555556656555556556666666666666666>##<000060660000803#ooJJJ",
"665566555555566556565655656666666666666<##<00000000008000<#OoJJJ",
"565666555555655656556556666666666666666<#$<00000080000000<#ooJJJ",
"555565555565565565656555666666666666666<#$<06600600060600<#OoJJJ",
"555555655656655555565565656666666666660<#$400000000600000<#OXJJJ",
"665566665566555655556655566666666666660<##<0000600080800e<#OXJJJ",
"565566555566556556565655556666666666666,#$,00600800000600<#OoJJJ",
"556666666666656665655665666666666666666<##<0000060080000e<$oXJJJ",
"6666666666666666666666666006e6660066e665$#<0000608000660y3%OoJJJ",
"6rrrrr6reeeyeeeeyrrrerrreerrreeeeeeeeue6$#<00060008800000<$OXJJJ",
"rrrrrruuuuuupuuuuuuuuuuurrrurrrruuuuuup6$#<00606800088000<$OoJJJ",
"uuuurruuuppruuuuppppuuuurrryrurruuypuup6##<0060606060000e<$+OJJJ",
"rrrurrr6e6996066666e00eueeeerr690000666<;;<0000006000000y<$OOJJJ",
"6666665>>>;;>>>:<<>>><56e66695>>>>:;;#$;,<8006006000000i0<$OXJJJ",
"r666665><,:;&&:,<<<<<56666ee69<,,,,:$##;,<08000000000000e3$oXJJJ",
"uuuuuuuurue6;;6yyyyyyippyyppaiyyyii00w07&&<60000000000y0y5#OXJJJ",
"hhhuhuhhuppe;;yahpaaaaappppaahaaaaaahhjt$#<6900000000y0y05$OXJJJ",
"uuuuuuuuuuu6;>0upupuauuprruppppppuupphhw%#<e0000000000y004$OoJJJ",
"uuuuuuuuuuue>>6rrryuuuurrrryrurryyyypph0$$3606066600000i04$OoJJJ",
"uuuuuuuuuuu6>>0rrruuupuprrrrrruuuuuuuuhw%$5060e0000i000005$OOJJJ",
"uuuuuuuuuuue<>0urrruuruprrrrruuuuuuuuua0%$<e060000000i0004$OXJJJ",
"uuuuuurruuue66uuurrryrrrrrrrppyruuuuuph0%#<00600000i0i0yi4#OXJJJ",
"uuuuuuuuuuu666uuuuurrrrrrrrurrrruuuuuphe$#<000060000i0i0i4$OXJJJ",
"upurrruuprrr66rrprrrpprrrrprrrrryyuuipl0%#,00000000e0i00e3$ooJJJ",
"purrruuprrrrr6rrrrrprrprrrrpprprpuuuypa0%#4i0000y0eeiwe0e8#ooJJJ",
"rruuurrurrrr66erprrrrrrrpprrrprruuuuypl0$#,006000000000t0<#OoJJJ",
"rruurprrrrrr66eerpprrrrrprrrprrryuupypai%#,0000000000ie0y<#ooJJJ",
"uuuuuurrpurr6rrrrprprrrrrrprrrrryyuuypl0%#,00000e0e0tteee<*OXJJJ",
"uuuurrupprrr66rrrrprrrrprrrprrrryuuuiaa0%#4000i0we0e0e0ee<#OXJJJ",
"uruurrurrrrrr6errrrrrrrrrrrprrrruuuuialw%#4000i00ei0e00ii5#+XJJJ",
"rreeeereeeee669rreerrrrrr9rrrr0900064004==40000000000000e<#OOJJJ",
"6066e66e9966666699996669666696>:<<,;&$$;,000000ii000w0y0i<$ooJJJ",
"006e6e660999r9r99e00e6e966e6967><<,,&$$&,60000i0iie0iiyii3%OXJJJ",
"pururrurrppprrrrrrhrrrrprappprrtyy000004-;50ii0iiiiiiaipa0#OXJJJ",
"hhpphhhhphhhappphhhrprhhaahhhhhhpapaaalw%#,4600000www00wy3#OoJJJ",
"rrrrrrrrrrprprrrprprrrprrrrprrrruuuupphw%#%,;,-,,,-1111,,-#O+JJJ",
"rrrrrrrrrrrrrrrrrrrrrrrrrrrrrrrryyueyph0%#&;,---;--11-;;:-#O+JJJ",
"rrrrrrrrrrrrrrrerrrrrrrrrrrrrrreyyyyeph0%#,040054004008852#OOJJJ",
"rrrrrrrrrrrrrrrrrrrrrrrrrrrrrrrruyyyypj0%#40i00i00i0000ip0$OXJJJ",
"rrrrrrrrrrrrrrrerrrrrrrrrrrrrerreeuuuphe%$<uyee00y0y000azf*oXJJJ",
"rrrrrrrrrrrrrrrrrrrrrrrerrrrrrrruueepph0$$<eye0e0yi00i0amx=oXJJJ",
"rrrrrrrrrrrrrrrrrrrrrrrrrrrrrrrrrrerpph0%$5yeee0ewi0i0iaMg=oXJJJ",
"rrrrrrrrrrrrrrrrrrrrrrrrrrrrerrrrrrrpph0$$5e00etwi0eyyilMg=oXJJJ",
"rrrrrrrrrrrrrrrrrrrrrrrrrrrrrrrrrrrrruh0%$80ieieei00wiazMf-XXJJJ",
"rrrrrrrrrrrrrrrrrrrrrrrrrrrrrrrrrrrrruh0%%<ii0eeyieewilvMf&oXJJJ",
"rrrrrrrrrerrrrrrrrrrrrrrrrrrrrrrrrrrruh0%#6iyee0ieyeyilzMf&XXJJJ",
"rrrrrrrrrrrrrrrrrrrrrrrrrrrrrrrrrrrrrphe%#<0yiiy0i0iialvMf-oXJJJ",
"rrrrrrrrrrrrrrrrrrrrrrrrrrrrrruuyyyyypjw$#4iiei0eeepalzvMf-ooJJJ",
"9r9re9ee996r9999990eeerreeereeer00000808--8eeiiii00slzzvBf*oXJJJ",
"5585559544==&>>>=456666666666666<>,;$$$&<0wyeieeiiiilzzzMf*oXJJJ",
"68586698>=4=&&=>>4806696666e6e06<<,,&$%&<0wiii0iyiiillzvMf-oXJJJ",
"rrrrrrrr9er8&&9rrtuippuuuuppppyyuye000w5-;0ieeiiyijlzzzvMf-XXJJJ",
"hdpphhdppppr>>rhhhaahppupphhhpppaappphl0$$4iiwiitplzzzzzMf-OXJJJ",
"rprrprrrrrpe=>0pppurrruuuuuuuuyuuuuuyplw$$4iyiyytplzzzzvMf-XXJJJ",
"rrrrrrrrrrr94>9rrrrrrrrrrryuruyyuyuuyia0$$4yiyiipplzzzzvMf%XXJJJ",
"rrrrrrrrrrrr556rrrrrerrrrrrrrrrrrrrreuh0%$5ipyiijllzzzzvMf-XXJJJ",
"rrrrrrrrrrr966rrrrrrrrrrrrrrrrrrrrrrruh0%$5apyyplzzzzzlvMf-XXJJJ",
"rrrrrrrrrrrr96rrrrrrrrrrrrrrrrrrrrrrruhe$$8aiyiplzzzzzzvMf-XXJJJ",
"rrrrrrrrrrrrr9rrrrrrrrrrrrerrrr9rreruuh6$$8upipalzzzzzzvMf%XXJJJ",
"rrrrrrrrrrr9r9rrrrrrrrrrrrrrrrrrrerryaaw$$5ipdjllzzzzzzzMf-XoJJJ",
"rrrrrrrrrrrr699rrrrrrrrrrrrrrrrrrrruppj0$$5upplzzzzzzzzvMf-XXJJJ",
"rrrrrrrrrrrr69rrrrrrrrrrrrrrrrrreruyypf0*$8applzzzzzzzzvMf-XXJJJ",
"rrrrrrrrrrrr66rrrrrrrrrrrrrrrrrruuuyypa0$$9apalxzzzzzzzvMf*XXJJJ",
"rrrrrrrrrrrr449rrrrrrrrrrrrrrrrryyyuyya0$$8ajllzzzzzzzzvmf=oXJJJ",
"rrrrrrrrrrr9>79rrrrrrrrrrrrrrrpryyuuypjw$#8alzzzzzzzzzzvVf=oXJJJ",
"rrrrrrrrrrr9==0rrrrrrrrrrrrrrrrryiiiypa0$$8alzzzzzzzzzzvMf=oXJJJ",
"688888888997==7q9989rr985566868688606008-10azzzzzzzzzzzvVg=oXJJJ",
"&&&&%&&&&&=*##**=**:90====&&%%=&&&&***-20sllzzzzzzzzzzzvVg=oXJJJ",
"--:;;--=---=-------1777==--====--1-----3pvzzzzzzzzzzzzzvVz-oXJJJ",
"rrprrrdrdrdtdrsrdrdq110rsssstesdississipzzzzzzlzzzzzzzzvVx1oXJJJ",
"ncncnnccclccncczcccd11dcczzlcccczzvzzzzzzzzzzzzzzzxzzllvVx-oXJJJ",
"vzzzzzzzzzzzzzzzzzchqqhczzzczzzczzzzzzzzzzzzzzzzlzzzzzlbZx-XXJJJ",
"zzzzzzzzzzzzzzzzzzzhwwhczzzzzzzzzzzzzzzzzzzzzzzzzzzzzzlbZn-XXJJJ",
"zzzzzzzzzzzzzzzzzzzjwwjczzzzlzzzzzzzzzzzzzzzzzzzzzzzzzzbSn-XXJJJ",
"zzzzzzlzzzzzzzzzzzzfwwhzzzzzzzzzzzzzzzzzzzzzzzzzzzzzzllbSn=XXJJJ",
"zzzzzzzzzzzzzzzzzzzhwwhzzzzzzzzzzzzzzzzzzzzzzlzzlllzzzlbSn1XXJJJ",
"vvvvvvvvvvvvvvvvcvckwwkbvcvcvvvvvvvvvvvvvvvvvvbvbbbbbbbMDn-X.JJJ",
"BVbBBBBVBBBBBBBBMMVcswcMVbMVVbbVBBBBBBBBBVBVbVVVZSZSSSZFFn-OXJJJ",
"bbbbbbbbbbbbbMvvMbbzwwxMbbbbbbbbbbbbbbbvvbbbbbBBBbVVVVVZZk=oXJJJ",
"aaaaaaaaaaaaaaaaapay0wiahhhhahhapaaaaaaaaaahahhhhhhjhhjjzt*o.JJJ",
"eeeyeeeueeyyueueyyye98euryeeeeeeyeyyyyuerueeeeyeeyyyyrruh9%oXJJJ",
"yyyyeeueyyyyeeeeyyueq0wuryyyeeueyyyyeeeereeeeuyyeyyyyytuhw%oXJJJ",
"yuyyuuuuyuyyuuuuyuue330urrrruuuuuuyyuuuuuuuuuuurrrruyyyphw%oXJJJ",
"uuuuuyuuppyypippupy6--5puupuuuuuppyiyyppuyuuruuuyyprryrphw%oXJJJ",
"6666555555585556555,##,558565555555555565555888888858589w7%oXJJJ",
"#$$$$$$$#*#####$$###++###*$$$##$#*#####$####$%$$$$$$$$$$**#oXJJJ",
"oXXOXXXXOOOooOXOOoXOOOOoXoXXOoXOoO+oo+OOOXOOXXOOXXXoXoXXoooJJJJJ"
};
