/* XPM */
static char *_d496c1e86e84c74b1fa4bf1afefd736ZfKmqEPZEwNF5nwR[] = {
/* columns rows colors chars-per-pixel */
"64 64 204 2 ",
"   c None",
".  c #523215",
"X  c #543315",
"o  c #533615",
"O  c #543415",
"+  c #563515",
"@  c #543715",
"#  c #563615",
"$  c #573715",
"%  c #583615",
"&  c #583715",
"*  c #553815",
"=  c #553816",
"-  c #593B15",
";  c #583A16",
":  c #593A16",
">  c #593B16",
",  c #593D16",
"<  c #5A3F17",
"1  c #55321C",
"2  c #55341E",
"3  c #56341E",
"4  c #56341F",
"5  c #56351F",
"6  c #573521",
"7  c #573722",
"8  c #583622",
"9  c #583724",
"0  c #583824",
"q  c #5B4017",
"w  c #5C4217",
"e  c #5C4317",
"r  c #5D4417",
"t  c #5D4218",
"y  c #5C4318",
"u  c #5D4318",
"i  c #5D4418",
"p  c #5E4419",
"a  c #5E4519",
"s  c #5F4519",
"d  c #565112",
"f  c #575112",
"g  c #575212",
"h  c #575213",
"j  c #535715",
"k  c #585213",
"l  c #535815",
"z  c #545815",
"x  c #555815",
"c  c #545915",
"v  c #555915",
"b  c #545816",
"n  c #555816",
"m  c #545916",
"M  c #555916",
"N  c #555917",
"B  c #565916",
"V  c #565917",
"C  c #555A17",
"Z  c #565A16",
"A  c #575B16",
"S  c #565A17",
"D  c #575A17",
"F  c #575B17",
"G  c #575C17",
"H  c #585B17",
"J  c #585C17",
"K  c #595C17",
"L  c #585D17",
"P  c #595D17",
"I  c #5A5E17",
"U  c #5B5E17",
"Y  c #5C5E17",
"T  c #595C18",
"R  c #5A5D18",
"E  c #595E18",
"W  c #5B5E18",
"Q  c #5C5F18",
"!  c #604519",
"~  c #604619",
"^  c #614719",
"/  c #624819",
"(  c #624919",
")  c #634919",
"_  c #63491A",
"`  c #644A1A",
"'  c #654B1A",
"]  c #664C1A",
"[  c #674C1A",
"{  c #674D1A",
"}  c #674D1B",
"|  c #695915",
" . c #625819",
".. c #635919",
"X. c #655B19",
"o. c #615E19",
"O. c #625E19",
"+. c #625F19",
"@. c #635F19",
"#. c #665C19",
"$. c #675D1A",
"%. c #685E1A",
"&. c #5D6018",
"*. c #656119",
"=. c #626519",
"-. c #636519",
";. c #636619",
":. c #67691A",
">. c #676A1A",
",. c #686B1A",
"<. c #696C1A",
"1. c #6A6C1A",
"2. c #6A6D1B",
"3. c #6B6D1B",
"4. c #6B6E1B",
"5. c #6C6E1B",
"6. c #6C6F1B",
"7. c #6D6F1B",
"8. c #6E6F1B",
"9. c #6C6D1D",
"0. c #6C6E1D",
"q. c #6D6F1D",
"w. c #776916",
"e. c #736C1F",
"r. c #746D1F",
"t. c #6D701B",
"y. c #6E701B",
"u. c #6E711B",
"i. c #6F711C",
"p. c #6F721C",
"a. c #70711B",
"s. c #70731C",
"d. c #72731D",
"f. c #73751E",
"g. c #74761D",
"h. c #75761D",
"j. c #75771D",
"k. c #74751E",
"l. c #75751E",
"z. c #76761E",
"x. c #77761E",
"c. c #76771E",
"v. c #77771E",
"b. c #7E731D",
"n. c #7F731D",
"m. c #7F731E",
"M. c #78771F",
"N. c #7F741E",
"B. c #77781E",
"V. c #654935",
"C. c #6C6623",
"Z. c #6D6623",
"A. c #6D6723",
"S. c #746D20",
"D. c #756D20",
"F. c #776F24",
"G. c #786F24",
"H. c #796F2B",
"J. c #767522",
"K. c #767622",
"L. c #777622",
"P. c #777722",
"I. c #787722",
"U. c #797027",
"Y. c #797822",
"T. c #7D7C22",
"R. c #7D7D22",
"E. c #7E7D22",
"W. c #7F7E22",
"Q. c #7F7E23",
"!. c #7F7F23",
"~. c #79702B",
"^. c #7A702B",
"/. c #7B712C",
"(. c #7C722C",
"). c #7D722C",
"_. c #7D732C",
"`. c #80741E",
"'. c #807F23",
"]. c #818023",
"[. c #828123",
"{. c #838123",
"}. c #838223",
"|. c #838224",
" X c #848224",
".X c #848324",
"XX c #89862C",
"oX c #89872C",
"OX c #89872D",
"+X c #8A862D",
"@X c #8A872D",
"#X c #8A872E",
"$X c #888331",
"%X c #888431",
"&X c #898432",
"*X c #8A8532",
"=X c #8B8632",
"-X c #8C8733",
";X c #8D8833",
":X c #8E8833",
">X c #8E8933",
",X c #8F8934",
"<X c #868579",
"1X c #94928B",
/* pixels */
"9 9 1X1X<X<X<X<X<X<X<X<X<X<X4 4                                                                                                 ",
"9 9 1X1X<X<X<X<X<X<X<X<X<X<X4 4                                                                                                 ",
"9 9 1X1X<X<X<X<X<X<X<X<X<X<X4 4                                                                                                 ",
"9 9 1X1X<X<X<X<X<X<X<X<X<X<X4 4                                                                                                 ",
"9 9 1X1X<X<X<X<X<X<X<X<X<X<X4 4                                                                                                 ",
"9 9 1X1X<X<X<X<X<X<X<X<X<X<X4 4                                                                                                 ",
"9 9 1X1X<X<X<X<X<X<X<X<X<X<X4 4                         ] ] ` ] ` `                                                             ",
"9 9 1X1X<X<X<X<X<X<X<X<X<X<X4 4                         ] ] ] ` ` `                                                             ",
"9 9 1X1X<X<X<X<X<X<X<X<X<X<X4 4                     ] ] -X-X-X-X=X-X` `                                                         ",
"9 9 1X1X<X<X<X<X<X<X<X<X<X<X4 4                     ] ] -X-X-X-X;X:X` `                                                         ",
"9 9 1X1X<X<X<X<X<X<X<X<X<X<X4 4     t t ] [ [ [     ] ] :X:X:X-X-X-X` `     ` ` ` `                                             ",
"9 9 1X1X<X<X<X<X<X<X<X<X<X<X4 4     t t [ [ [ [     ] ] :X-X:X;X-X;X` ]     ` ` ^ `                                             ",
"9 9 1X1X<X<X<X<X<X<X<X<X<X<X4 4 t t _._.>X>X,X;X} } .X[.,X>X=X=X[.[.}.}.` ` P.P.P.P.p `                                         ",
"9 9 1X1X<X<X<X<X<X<X<X<X<X<X4 4 t t _./.=X>X>X,X} } [..X=X=X,X>X[.[.!.}.` ` P.P.P.P.` `                                         ",
"9 9 1X1X<X<X<X<X<X<X<X<X<X<X4 4 p r _._.;X;X,X;X X X.X X'..X'..X[.}.}.}.Y.I.P.P.J.J.J.J.` ^                                     ",
"9 9 1X1X<X<X<X<X<X<X<X<X<X<X4 4 t t _._.>X,X;X;X X X X X.X.X.X.X[. X}.}.P.I.P.P.J.J.J.J.^ `                                     ",
"9 9 1X1X<X<X<X<X<X<X<X<X<X<X4 4 r.r.D.D. X X X.X.X.X.X.X X X.X.X'..X'.}.Y.Y.I.I.P.P.P.P.` `                                     ",
"9 9 1X1X<X<X<X<X<X<X<X<X<X<X4 4 r.r.D.D. X X.X.X.X.X.X.X X X.X.X.X.X.X}.Y.I.I.I.J.P.P.P.^ `                                     ",
"9 9 1X1X<X<X<X<X<X<X<X<X<X<X4 4 _._.U.U.oXoXg.g..X.X,X,X,X>X>X>X.X.X}.}.[.[.I.I.P.P.#.%.X.#.^ ^ p ^ p ^                         ",
"9 9 1X1X<X<X<X<X<X<X<X<X<X<X4 4 _._.U.U.oXoXg.g..X X,X,X,X,X>X>X X'..X X[.[.I.I.P.P.#.#.#.#.^ ^ ^ ^ p p                         ",
"9 9 1X1X1X1X1X1X1X1X1X1X1X1X4 4 _._.G.G.oXoXg.g.g.g.,X,X,X,X>X>X>X>X.X.X[.[.g.g.$.%.$.$.#.#.0.t.0.0.9.9.t p                     ",
"9 9 1X1X1X1X1X1X1X1X1X1X1X1X4 4 _._.G.G.oX=Xg.g.g.g.,X,X,X,X>X>X>X>X}.}.[.[.P.d.$.$.$.$.#.#.t.0.0.0.9.9.p p                     ",
"9 9 6 6 V.V.V.V.V.V.V.V.4 4 4 4 G.G.G.G.g.g.g.g.g.g.g.g.,X,X>X>X>X,X}.}.B.g.P.g.d.d.d.d.#.#.5.t.0.0.0.9.^ ^                     ",
"9 9 6 6 V.V.V.V.V.V.V.V.4 4 4 4 G.G.U.U.g.g.g.g.g.g.g.g.,X,X>X>X>X=X}.}.g.B.d.B.d.J.d.d.#.#.t.t.0.0.0.0.p p                     ",
"9 9 1X1X<X<X<X<X<X<X<X<X<X<X4 4 D.D.| | w.w.oX#X#X#Xj.j.B.M.>X>X=X,XB.B.B.x.j.g.'.[.Q.Q.!.!.X.X.0.0.^ p                         ",
"9 9 1X1X<X<X<X<X<X<X<X<X<X<X4 4 U.U.| | w.w.oXoX#X#Xj.j.g.B.>X>X:X,XB.B.x.B.g.M.[.'.Q.[.!.!.X.X.0.4.^ ^                         ",
"9 9 1X1X<X<X<X<X<X<X<X<X<X<X4 4 D.r.| | .X.XoXoXoXoXoXoXM.g.g.B.M.M.M.x.M.M.=X=X=X=X=X=X!.!.5.u.^ t                             ",
"9 9 1X1X<X<X<X<X<X<X<X<X<X<X4 4 S.r.| | .X.XoXXXoXoXoXoXB.g.B.g.M.M.M.x.M.M.=X>X=X=X$X$XT.'.5.e.^ ^                             ",
"9 9 1X1X<X<X<X<X<X<X<X<X<X<X4 4 r.r.S.S.[.[.XXXX=X+X+X+X`.`.N.N.`.`.M.M.g.B.=X=X=X=X=X=Xa.a.5.t.0.5.p ^ p p                     ",
"9 9 1X1X<X<X<X<X<X<X<X<X<X<X4 4 r.r.S.S. X X+X+X+X+X+X+X`.`.N.N.n.`.g.g.B.g.=X=X=X=X$X=Xa.a.a.t.0.5.p p p p                     ",
"9 9 1X1X<X<X<X<X<X<X<X<X<X<X4 4 r.e.r.r.;X;X;X,X X XN.N.N.m.m.m.n.n.:X-X=X>X=X=X=X=Xs.s.t.a.<.t.5.5.5.<.4.4.r p                 ",
"9 9 1X1X<X<X<X<X<X<X<X<X<X<X4 4 r.r.r.r.;X;X;X;X X[.N.N.N.m.m.m.n.n.:X;X=X=X=X=X=X=Xs.d.t.t.t.t.5.0.4.t.<.<.p p                 ",
"9 0 1X1X<X<X<X<X<X<X<X<X<X<X4 4 *.*./._.;X;X;X;X}..X}.}.}.}.m.m.$X=X-X-X=X=XQ.'.T.'.'.'.N.!.<.t.<.t.4.4.<.<.A x r r             ",
"9 8 1X1X<X<X<X<X<X<X<X<X<X<X4 4 *.*._./.;X;X;X;X}..X'.'.'.}.b.m.-X:X-X-X=X=X'.'.!.!.T.'.!.!.t.t.t.<.4.4.<.<.F x y r             ",
"9 9 1X1X<X<X<X<X<X<X<X<X<X<X4 4 *.*././.;X;X<.<.'.}.}.}.}.}.[.[.-X-X=X=X=X=XQ.Q.!.T.T.!.T.T.<.t.4.4.4.4.x x j j y y             ",
"9 9 1X1X<X<X<X<X<X<X<X<X<X<X4 4 *.*././.-X;X<.<.'.}.'.}.}.'.[.[.-X-X=X=X=X=X!.Q.!.!.T.!.T.T.t.<.4.4.4.4.x F j F p r             ",
"9 9 1X1X<X<X<X<X<X<X<X<X<X<X4 4 /.~.~.~.<.<.,.,.=X=X=X;X-X-XQ.[.'.'.'.'.!.!.!.!.$X=X$X%XT.T.4.4. .X. . .N l p r                 ",
"9 9 1X1X<X<X<X<X<X<X<X<X<X<X4 4 H.~.H._.<.,.,.,.=X>X:X:X-X-X[.!.'.'.'.'.!.!.!.!.$X=X$X%XT.T.4.4. . . . .l N r p                 ",
"9 9 1X1X<X<X<X<X<X<X<X<X<X<X4 4 H.H.H.H.:.,.:.:.=X=X=X=X=X=Xt.d.'.'.!.!.5.a.$X$X$X$X$X$X4.4.4.4.F N l l p r                     ",
"9 9 1X1X<X<X<X<X<X<X<X<X<X<X4 4 H.H.~.~.,.:.:.:.=X=X=X=X-X-Xd.t.'.'.!.'.a.5.=X$X$X$X$X$X5.0.4.4.F N l N p r                     ",
"9 9 1X1X<X<X<X<X<X<X<X<X<X<X4 4 H.H.@.@.:.:.:.:.=X%X=X-Xt.t.d.t.a.t.t.a.t.t.=X%X$X$X<.5.4.4.3.3.F l l F j j w w                 ",
"9 9 1X1X<X<X<X<X<X<X<X<X<X<X4 4 H.H.@.@.:.:.,.:.=X=X=X%Xd.t.t.d.t.a.t.t.t.t.$X$X$X$X5.5.4.4.3.3.j F l l j j w r                 ",
"9 9 1X1X<X<X<X<X<X<X<X<X<X<X4 4 @.@.@.@.t.t.t.t.t.t.t.t.#.#.t.t.t.t.t.5.5.t.F G F F 5.5.3.3.b b l x j j l l j j r w             ",
"9 9 1X1X<X<X<X<X<X<X<X<X<X<X4 4 @.@.@.@.a.t.t.t.t.t.t.t.#.#.t.t.t.a.5.t.t.0.F G F F t.<.3.3.F F x l F l l l j j w w             ",
"9 9 1X1X<X<X<X<X<X<X<X<X<X<X4 4 Q @.@.*.t.5.t.5.t.t.t.t.&.&.A &.5.t.<.t.0.5.k k g h b F b b b b &.Y U U U U U U w w             ",
"9 9 1X1X<X<X<X<X<X<X<X<X<X<X4 4  .@.Q #.5.t.5.t.t.t.t.t.G A &.&.t.5.t.5.5.5.k k h h b F b F F V U U U U U U U U w r             ",
"9 9 1X1X<X<X<X<X<X<X<X<X<X<X4 4 A.A.A.A.&.&.t.5.2.6.G &.A &.&.A 5.5.5.5.k h g g g f F N b b b b U U U U U U < <                 ",
"9 9 1X1X<X<X<X<X<X<X<X<X<X<X4 6 A.A.A.A.&.&.5.t.2.,.&.&.A G A A 5.5.5.5.g g g g f f F b F b b b U U U U U U w w                 ",
"9 9 1X1X<X<X<X<X<X<X<X<X<X<X6 2 C.C.A.A.&.Q  .X. . .H U H U F A  . .g g f f g g =.:.-.-.b b b b U U U U < <                     ",
"9 9 1X1X<X<X<X<X<X<X<X<X<X<X6 2 C.C.A.A.Q Q  .X. .X.H H H U F A  . .g g f g g g =.-.-.=.b b b b U U U U < <                     ",
"9 9 1X1X<X<X<X<X<X<X<X<X<X<X2 2 C.C.@ o Q R R R R V U F H H F F = = j F F F -.-.=.=.=.=.: : - : - - , ,                         ",
"9 9 1X1X<X<X<X<X<X<X<X<X<X<X2 6 C.C.@ $ R Q R R R F U F H H F F = = F F F j -.-.-.-.=.=.: : - - - - , ,                         ",
"9 9 1X1X1X1X1X1X1X1X1X1X1X1X2 3 o o     - < U R R F H H $ $ = *     X X F j =.=.=.=.$ $                                         ",
"9 9 1X1X1X1X1X1X1X1X1X1X1X1X3 3 o o     - = U R R G H H $ $ = =     X X j F =.=.=.=.$ $                                         ",
"9 9 6 6 V.V.V.V.V.V.V.V.3 3 3 3             & & $ & X X                 . . . . . .                                             ",
"9 9 6 6 V.V.V.V.V.V.V.V.3 3 3 3             & & $ & X &                 . . . . $ $                                             ",
"0 7 1X1X<X<X<X<X<X<X<X<X<X<X3 8                                                                                                 ",
"0 7 1X1X<X<X<X<X<X<X<X<X<X<X4 2                                                                                                 ",
"0 0 1X1X<X<X<X<X<X<X<X<X<X<X8 8                                                                                                 ",
"0 0 1X1X<X<X<X<X<X<X<X<X<X<X7 7                                                                                                 ",
"7 8 1X1X<X<X<X<X<X<X<X<X<X<X1 1                                                                                                 ",
"8 8 1X1X<X<X<X<X<X<X<X<X<X<X1 1                                                                                                 ",
"4 4 1X1X<X<X<X<X<X<X<X<X<X<X4 4                                                                                                 ",
"4 4 1X1X<X<X<X<X<X<X<X<X<X<X2 4                                                                                                 "
};
