/* XPM */
static char *l_w[] = {
/* columns rows colors chars-per-pixel */
"64 64 105 2",
"   c black",
".  c #522F14",
"X  c #532F19",
"o  c #553314",
"O  c #55331D",
"+  c #563B15",
"@  c #573C1A",
"#  c #583615",
"$  c #593C16",
"%  c #5B3E1B",
"&  c #563421",
"*  c #583723",
"=  c #593823",
"-  c #5B3C29",
";  c #564215",
":  c #564C16",
">  c #5B4216",
",  c #5D4219",
"<  c #594B16",
"1  c #5F4919",
"2  c #555314",
"3  c #565A16",
"4  c #595416",
"5  c #5E5318",
"6  c #5A5C16",
"7  c #5C5D18",
"8  c #5E4120",
"9  c #5D412D",
"0  c #5F4230",
"q  c #5D6017",
"w  c #5E6218",
"e  c #634717",
"r  c #624619",
"t  c #634A19",
"y  c #65531B",
"u  c #605E15",
"i  c #645D19",
"p  c #6A551C",
"a  c #6B5D16",
"s  c #6D5B1E",
"d  c #705B1F",
"f  c #60432F",
"g  c #614634",
"h  c #634936",
"j  c #664C3C",
"k  c #665920",
"l  c #6B5E21",
"z  c #69523F",
"x  c #705F23",
"c  c #616217",
"v  c #64641A",
"b  c #66691A",
"n  c #6D6016",
"m  c #6A641B",
"M  c #6B6D1B",
"N  c #6E701C",
"B  c #736717",
"V  c #71651C",
"C  c #756817",
"Z  c #736C1E",
"A  c #74741D",
"S  c #77781F",
"D  c #7C741D",
"F  c #7A791F",
"G  c #6B6522",
"H  c #6E6822",
"J  c #726225",
"K  c #746D22",
"L  c #766D28",
"P  c #7A6E29",
"I  c #767521",
"U  c #777822",
"Y  c #7A7424",
"T  c #7C732A",
"R  c #7C7B22",
"E  c #7E7C28",
"W  c #6C5543",
"Q  c #6F5948",
"!  c #705948",
"~  c #706050",
"^  c #79695C",
"/  c #7A7163",
"(  c #7F7669",
")  c #80761F",
"_  c #807620",
"`  c #80762C",
"'  c #817E24",
"]  c #837B2C",
"[  c #837A6F",
"{  c #857B71",
"}  c #887F75",
"|  c #838225",
" . c #85822B",
".. c #89852E",
"X. c #8A882C",
"o. c #878330",
"O. c #8B8632",
"+. c #8E8933",
"@. c #908935",
"#. c #868579",
"$. c #87887C",
"%. c #8A897E",
"&. c #8B8B81",
"*. c #929189",
"=. c None",
/* pixels */
"& j { *.$.#.#.( &.#.#.#.#./ 0 & X =.=.=.=.=.=.=.=.=.=.=.=.=.=.=.=.=.=.=.=.=.=.=.=.=.=.=.=.=.=.=.=.=.=.=.=.=.=.=.=.=.=.=.=.=.=.=.",
"& j { *.&.#.#.#.#.#.#.#.#./ 0 O X =.=.=.=.=.=.=.=.=.=.=.=.=.=.=.=.=.=.=.=.=.=.=.=.=.=.=.=.=.=.=.=.=.=.=.=.=.=.=.=.=.=.=.=.=.=.=.",
"O j { *.$.#.#.#.#.#.#.#.$./ 0 & X =.=.=.=.=.=.=.=.=.=.=.=.=.=.=.=.=.=.=.=.=.=.=.=.=.=.=.=.=.=.=.=.=.=.=.=.=.=.=.=.=.=.=.=.=.=.=.",
"O j { *.&.#.#.#.#.#.#.#.$./ 0 O O =.=.=.=.=.=.=.=.=.=.=.=.=.=.=.=.=.=.=.=.=.=.=.=.=.=.=.=.=.=.=.=.=.=.=.=.=.=.=.=.=.=.=.=.=.=.=.",
"& j { *.&.} #.#.#.#.#.#.#./ 0 O X =.=.=.=.=.=.=.=.=.=.=.=.=.=.=.=.=.=.=.=.=.=.=.=.=.=.=.=.=.=.=.=.=.=.=.=.=.=.=.=.=.=.=.=.=.=.=.",
"& j [ *.&.#.#.#.#.#.#.#.$./ 0 O X =.=.=.=.=.=.=.=.=.=.e e e e r e t e =.=.=.=.=.=.=.=.=.=.=.=.=.=.=.=.=.=.=.=.=.=.=.=.=.=.=.=.=.",
"& j [ *.&.$.#.#.#.#.#.#.$./ 0 & X =.=.=.=.=.=.=.=.=.=.e t r r e t t e =.=.=.=.=.=.=.=.=.=.=.=.=.=.=.=.=.=.=.=.=.=.=.=.=.=.=.=.=.",
"O W [ *.&.( #.#.#.#.#.#.$./ 0 O O =.=.=.=.=.=.=.=.t t p x x p x x x p e e =.=.=.=.=.=.=.=.=.=.=.=.=.=.=.=.=.=.=.=.=.=.=.=.=.=.=.",
"& j { *.#.#.#.#.#.#.#.#.#./ 0 O X =.=.=.=.=.=.=.=.e e d _ ` ` ` ` ` p r e =.=.=.=.=.=.=.=.=.=.=.=.=.=.=.=.=.=.=.=.=.=.=.=.=.=.=.",
"& W { *.$.#.#.#.#.#.#.#.#./ 0 O . > , , e t t e e e e d ` +.@.+.@.` p r e e t t t r r =.=.=.=.=.=.=.=.=.=.=.=.=.=.=.=.=.=.=.=.=.",
"O j { *.&.#.#.#.#.#.#.#.$./ 0 O X % % % e t t e e e e d ` @.@.+.@.] p e r e t t t r r =.=.=.=.=.=.=.=.=.=.=.=.=.=.=.=.=.=.=.=.=.",
"& j ( *.$.#.#.#.#.#.#.#.$./ 0 O # t t k p x d d p p p J ] @.O.O.O.] x p p t y y y y t r 8 =.=.=.=.=.=.=.=.=.=.=.=.=.=.=.=.=.=.=.",
"& j ( *.$.#.#.#.#.#.#.#.$./ 0 O $ t J P ` ` ` _ d d ) _ X.+.O...' ' ) D p y m K J J y r r =.=.=.=.=.=.=.=.=.=.=.=.=.=.=.=.=.=.=.",
"& j { *.$.#.#.#.#.#.#.$.$./ 0 @ % t J ] O.@.@.] d d _ ' X.X...X.| | | ' s s K R R Z s y t r r =.=.=.=.=.=.=.=.=.=.=.=.=.=.=.=.=.",
"& 0 { *.$.#.#.#.#.#.#.#.$./ 0 O $ t P ] O.@.@..._ ) ' | | | X.| | | | ) D Z I I I I K m y r r =.=.=.=.=.=.=.=.=.=.=.=.=.=.=.=.=.",
"& W { *.$.#.#.#.#.#.$.$.$./ 0 @ r p J ` ] O.O.X.X.| | | | | | | ' | | ) R I I I I U U Z y t r =.=.=.=.=.=.=.=.=.=.=.=.=.=.=.=.=.",
"& W { *.&.#.#.#.#.#.#.#.#./ 0 8 k H K Y ' | X.| | | | | | | | | | | | | R I U I I U U K y r r =.=.=.=.=.=.=.=.=.=.=.=.=.=.=.=.=.",
"& 0 { *.&.#.#.} #.#.#.#.#./ 0 8 l I K Y ' | ' ' | | | X.| | | X.| | | F R I R U U I A K p t t r r , , , , =.=.=.=.=.=.=.=.=.=.=.",
"& j ( *.&.#.#.( #.#.} $.#./ 0 8 J T L Y  .| ) F | | ....+.X.+.X.| | | | | R R I I K m i i y t r 1 1 , , , =.=.=.=.=.=.=.=.=.=.=.",
"& W { *.&.&.&.&.$.&.&.&.&./ 0 8 J T T Y  .| F S F  ...@.+.+.+.X.| | | | | | S S A Z a i i y y y t t t t t , > =.=.=.=.=.=.=.=.=.",
"& W #.*.*.*.*.*.&.*.*.*.*.( 0 8 J T T Y  . .U A A R ..@.@.+.+.+.X.X.| | | | S A m m i i i a i b b m G i 1 , , =.=.=.=.=.=.=.=.=.",
"& 0 ^ { #.} } { #.#.} } #./ 0 8 x T T Y | ' S A A S  ...+.+...+...X. .| ' F S N m m a a i m M H H N N v y , > =.=.=.=.=.=.=.=.=.",
"& - 0 W Q ! ! ! Q Q Q W j 0 * 8 J L Y Y S S S A A A U ' ..@.+.+.@.X.| | F S A A A M H M a i b A N M H v 1 , , =.=.=.=.=.=.=.=.=.",
"& - 0 0 W W W W W W W W 0 9 * 8 V K K Z A A S S R S S F ] ..+.+.@.X.| F S A A A S S S A M m m m N M M i 1 , , =.=.=.=.=.=.=.=.=.",
"& - ^ { ( ( / ( / ( ( / / ~ 0 8 s Z V a C D R  .| | F S S ' o.@.+...R S S D A S U R R R R Z m b M M p t 1 , % =.=.=.=.=.=.=.=.=.",
"& W } *.&.#.$.#.$.#.#.$.$./ 0 8 s Z a a C D | X.X. .' S S U ] .... .R A S S S R | | | | ' U m i i i t r , =.=.=.=.=.=.=.=.=.=.=.",
"X W { *.%.#.#.#.#.#.#.$.$./ 0 8 s Z a n D | | X.X.X. .' S S R ) R R I S S R ] ..o.o. ...| R N m y t t > > =.=.=.=.=.=.=.=.=.=.=.",
"& W { *.$.#.#.#.#.#.#.#.$.( 0 8 s Z n V ) | X.X.X.X.X. .S D A C S D S S S R ..o.O.O.O. .R S N b y t e % > $ , =.=.=.=.=.=.=.=.=.",
"& j } *.&.#.#.#.#.#.#.#.$./ 0 8 s Z V Z ' |  .X.X.X.X. .) D D D D D S A A R  .+.O.O.O. .F N N b b i t , , , , =.=.=.=.=.=.=.=.=.",
"& j ( *.&.#.#.#.#.#.#.#.#./ 0 = s A K I |  .....X.|  .| ) ) D D ) ) D E U E  .o.O.O.o.E A N M N N b i t 1 t 1 , , =.=.=.=.=.=.=.",
"& j ( *.%.#.#.#.#.#.#.#.#./ g = s A K I  .+.....| | | R ) ) ) D ) )  .o. . .O.O.O. .R A N N M M N M b m b i t > , =.=.=.=.=.=.=.",
"& j { *.%.#.} #.#.#.#.#.$./ g & s Z K Y  .+.+...| | | ' ) ) ) ) D _ o.O.O.+.+.o...| U A A N N N M M M M M b 5 > , , > =.=.=.=.=.",
"& h { *.&.#.( #.#.#.#.#.#./ 0 @ 7 H T T o.+.+.X.| | | | | ) ) F ] +.+.+.O.+. .' | R R S F S N N N b N b N v 6 4 > > > =.=.=.=.=.",
"& W { *.&.#.$.#.#.#.#.#.&.( 0 @ 5 G L T o.O.o.E | | | | | ' ) ' ..+.+.+.o. .| ' | R | R R S N M N N N b b c 6 3 < , $ =.=.=.=.=.",
"& j { *.&.#.#.#.#.#.#.#.#./ j @ 5 m L E o.o.U U F | | | | F ' | ..+.....o...' R R R R R R S N M b N N b q 3 3 2 > > $ =.=.=.=.=.",
"& j { &.$.#.#.#.#.#.#.#.#./ 0 ; 7 H L T ] E N H F | | | | | ' |  ... . ... .' | | E | E | S N M b b N w 6 3 2 4 < , , =.=.=.=.=.",
"& j [ *.$.#.#.#.#.#.#.#.#./ 0 , l P P P A N M A | o.O.O.O...E | | ' | | | | R |  .o.o.E E S N M b c i i 6 2 < 1 > > , =.=.=.=.=.",
"& j [ *.$.#.#.#.#.#.#.#.$./ 0 8 x T T L H b b A | O...O.O. .' R R ' ' R R R R | o.O.o.o.R A N M u u 5 4 4 4 > , $ =.=.=.=.=.=.=.",
"& h [ *.&.#.#.#.#.#.#.#.$./ h 8 x T P L M b b N  .+.+.+.O. .I S R | ' R A I ] o.o.o.o.o.U N N b 7 2 3 2 < < , $ $ =.=.=.=.=.=.=.",
"& W [ *.$.#.#.#.#.#.#.#.$./ h 9 x T L H H v b K E O.O.O...E I A S F R S N I  .O.o.o.o.U A M N w 6 3 3 2 : > > , , =.=.=.=.=.=.=.",
"& W { *.%.} #.#.#.#.#.#.#./ 0 8 x L G w v v M N E +.+.o.U A A N N N S A N A | X.X.o.U N M M M M 3 3 3 2 2 2 > > $ =.=.=.=.=.=.=.",
"& 0 { *.%.} #.#.#.#.#.#.#./ 0 , l J G w b M M K E  . .E N M N N N N Z M M N F ' E U H M M M b w 3 3 3 2 3 2 : > r , r =.=.=.=.=.",
"& W ( *.&.#.#.#.#.#.#.#.#./ 0 = k G w v b M M N A S S N G m M M N M M M M M B u v v M M M b q 3 3 3 3 3 2 3 2 : > $ > =.=.=.=.=.",
"& W ( *.#.#.#.#.#.#.#.#.#./ 0 ; 5 7 w v b N M M N M M M w c b M M N M N M b 6 2 3 6 v b G w 3 2 3 3 3 3 3 3 3 2 > r > =.=.=.=.=.",
"& j { *.&.&.#.#.#.#.#.#.$./ 0 @ 5 7 w c M M N M M M N M c 6 w c M N M N M b u 2 2 2 3 6 6 6 3 3 3 3 3 q 3 3 q 6 > r $ =.=.=.=.=.",
"& W { *.&.( #.#.#.#.#.#.$./ g @ 5 i v w b M M M M N M w w 6 6 w b M M M M c 4 2 2 2 2 3 3 3 2 3 3 q 3 q q q 4 2 1 > $ =.=.=.=.=.",
"& j { *.&.#.#.#.#.#.#.#.$./ g % k G G G c v M M N b w q 6 6 6 w b N N b q 4 2 2 2 2 2 3 3 3 3 3 3 q q 3 q 4 < 1 , , > =.=.=.=.=.",
"& j ( &.&.#.#.#.#.#.#.#.#./ g = k G G G v w b M G v q 3 6 3 3 w v b b c 2 2 2 2 2 2 6 3 6 3 3 3 3 q q 3 4 4 > $ $ =.=.=.=.=.=.=.",
"& j ( *.%.#.#.#.} } #.#.#./ g & k G G G w 7 v i i 7 7 4 6 3 6 6 u u 4 2 2 2 4 2 q w w w 3 3 3 3 q 6 q 4 < > ; $ $ =.=.=.=.=.=.=.",
"& j ( *.%.#.#.#.#.#.#.#.$./ 0 * k G G i w 7 7 k 7 7 7 3 6 3 3 3 t 5 2 2 2 2 2 6 c v c w 2 : 2 4 2 3 2 4 > $ $ =.=.=.=.=.=.=.=.=.",
"& j } *.%.#.#.#.#.#.#.#.$.( 0 - G k 1 < 3 7 7 7 7 3 3 3 6 3 3 6 < ; 2 2 2 4 w w c v v w < ; > ; ; > > > $ + # =.=.=.=.=.=.=.=.=.",
"& W } *.&.%.%.%.$.%.%.%.&.( 0 = 8 y > + < 3 6 6 6 7 7 4 2 2 4 : + + : 2 3 u w b v c w 1 > # # $ + $ + $ $ =.=.=.=.=.=.=.=.=.=.=.",
"& j { *.*.*.*.*.*.*.*.*.*.( 0 * $ $ $ + + : 6 6 6 6 3 4 ; @ ; ; + o + ; 2 3 w c b 7 < $ $ # # # # + $ $ $ =.=.=.=.=.=.=.=.=.=.=.",
"& - ^ ( } } } } } } } #.#.^ 0 O o o o # $ > < 4 2 : 2 : + # o o o o o + : 2 3 7 6 5 $ o . =.=.=.=.=.=.=.=.=.=.=.=.=.=.=.=.=.=.=.",
"- - 0 W Q Q Q Q Q Q ! W z 9 = O o o . # # + $ $ ; ; + + + o o o o o o + + + + + ; $ + o . =.=.=.=.=.=.=.=.=.=.=.=.=.=.=.=.=.=.=.",
"& - 0 W W W W W W z W z h 9 * O O =.=.=.=.# # # O # # o . =.=.=.=.=.=.. . . o . o o o =.=.=.=.=.=.=.=.=.=.=.=.=.=.=.=.=.=.=.=.=.",
"& g ^ { ( ( ( / ( ( / ( / ~ 9 O . =.=.=.=.o # # o # o o o =.=.=.=.=.=.. . . . . o o o =.=.=.=.=.=.=.=.=.=.=.=.=.=.=.=.=.=.=.=.=.",
"& j } *.%.#.#.#.#.#.$.$.$./ g O O =.=.=.=.=.=.=.=.=.=.=.=.=.=.=.=.=.=.=.=.=.=.=.=.=.=.=.=.=.=.=.=.=.=.=.=.=.=.=.=.=.=.=.=.=.=.=.",
"& j { *.%.#.#.#.#.#.#.$.$./ g O X =.=.=.=.=.=.=.=.=.=.=.=.=.=.=.=.=.=.=.=.=.=.=.=.=.=.=.=.=.=.=.=.=.=.=.=.=.=.=.=.=.=.=.=.=.=.=.",
"& j { *.%.#.#.#.#.#.#.#.#./ g O O =.=.=.=.=.=.=.=.=.=.=.=.=.=.=.=.=.=.=.=.=.=.=.=.=.=.=.=.=.=.=.=.=.=.=.=.=.=.=.=.=.=.=.=.=.=.=.",
"O W { *.%.#.#.#.#.#.#.$.$./ f O X =.=.=.=.=.=.=.=.=.=.=.=.=.=.=.=.=.=.=.=.=.=.=.=.=.=.=.=.=.=.=.=.=.=.=.=.=.=.=.=.=.=.=.=.=.=.=.",
"O 0 { *.%.#.#.#.#.#.#.#.$./ g o X =.=.=.=.=.=.=.=.=.=.=.=.=.=.=.=.=.=.=.=.=.=.=.=.=.=.=.=.=.=.=.=.=.=.=.=.=.=.=.=.=.=.=.=.=.=.=.",
"X j { &.%.#.#.#.#.#.#.#.#./ g O . =.=.=.=.=.=.=.=.=.=.=.=.=.=.=.=.=.=.=.=.=.=.=.=.=.=.=.=.=.=.=.=.=.=.=.=.=.=.=.=.=.=.=.=.=.=.=.",
"o j { *.#.#.#.#.#.#.#.#.$./ 0 o O =.=.=.=.=.=.=.=.=.=.=.=.=.=.=.=.=.=.=.=.=.=.=.=.=.=.=.=.=.=.=.=.=.=.=.=.=.=.=.=.=.=.=.=.=.=.=."
};
