/* XPM */
static char *r_w[] = {
/* columns rows colors chars-per-pixel */
"64 64 110 2",
"   c black",
".  c #491F0B",
"X  c #4C240E",
"o  c #4E2710",
"O  c #4F2912",
"+  c #4F3211",
"@  c #512D14",
"#  c #522D18",
"$  c #543414",
"%  c #553C15",
"&  c #583615",
"*  c #593B16",
"=  c #5E3F18",
"-  c #573622",
";  c #583724",
":  c #593926",
">  c #5B3D2A",
",  c #564415",
"<  c #544D13",
"1  c #5C4217",
"2  c #5E4418",
"3  c #5A4A17",
"4  c #5F4B19",
"5  c #565314",
"6  c #565B16",
"7  c #5B5415",
"8  c #5D5318",
"9  c #5A5C17",
"0  c #5C5C18",
"q  c #5E412F",
"w  c #5F4532",
"e  c #5D6117",
"r  c #5F6118",
"t  c #624517",
"y  c #614618",
"u  c #634A19",
"i  c #684F19",
"p  c #65531A",
"a  c #635B17",
"s  c #645C19",
"d  c #6B551D",
"f  c #6E591F",
"g  c #614735",
"h  c #624837",
"j  c #644938",
"k  c #6F5A20",
"l  c #705A20",
"z  c #616117",
"x  c #636519",
"c  c #666919",
"v  c #6B641C",
"b  c #6B6D1B",
"n  c #6E701C",
"m  c #71611D",
"M  c #766A16",
"N  c #746C1F",
"B  c #786C17",
"V  c #796D18",
"C  c #73741D",
"Z  c #77781E",
"A  c #7D741D",
"S  c #79791F",
"D  c #6C6320",
"F  c #6E6921",
"G  c #6F7020",
"H  c #746321",
"J  c #736D22",
"K  c #796C26",
"L  c #7C6F28",
"P  c #757521",
"I  c #777823",
"U  c #797622",
"Y  c #7F7629",
"T  c #7C7B22",
"R  c #7B7B28",
"E  c #675646",
"W  c #685040",
"Q  c #6C5D4D",
"!  c #6C5F50",
"~  c #6F6254",
"^  c #716255",
"/  c #776D5F",
"(  c #78675A",
")  c #786D5E",
"_  c #786E60",
"`  c #7A7163",
"'  c #7C7669",
"]  c #7D786B",
"[  c #80791F",
"{  c #807620",
"}  c #80762C",
"|  c #817E23",
" . c #837B2C",
".. c #81776C",
"X. c #82786D",
"o. c #867C72",
"O. c #838225",
"+. c #86822C",
"@. c #89852E",
"#. c #8B882E",
"$. c #878230",
"%. c #8B8632",
"&. c #8D8933",
"*. c #878077",
"=. c #868579",
"-. c #888279",
";. c #8A897E",
":. c #8B8B81",
">. c #929189",
",. c None",
/* pixels */
",.,.,.,.,.,.,.,.,.,.,.,.,.,.,.,.,.,.,.,.,.,.,.,.,.,.,.,.,.,.,.,.,.,.,.,.,.,.,.,.,.,.,.,.,.,.,.X X > / =.=.=.=.=.=.=.=.;.>.*.j > ",
",.,.,.,.,.,.,.,.,.,.,.,.,.,.,.,.,.,.,.,.,.,.,.,.,.,.,.,.,.,.,.,.,.,.,.,.,.,.,.,.,.,.,.,.,.,.,.X o > _ =.=.=.=.=.=.=.=.;.>.X.j : ",
",.,.,.,.,.,.,.,.,.,.,.,.,.,.,.,.,.,.,.,.,.,.,.,.,.,.,.,.,.,.,.,.,.,.,.,.,.,.,.,.,.,.,.,.,.,.,.X X q _ ;.=.=.=.=.=.=.=.;.>.*.E > ",
",.,.,.,.,.,.,.,.,.,.,.,.,.,.,.,.,.,.,.,.,.,.,.,.,.,.,.,.,.,.,.,.,.,.,.,.,.,.,.,.,.,.,.,.,.,.,.X X > / =.=.=.=.=.=.=.*.=.>.*.j - ",
",.,.,.,.,.,.,.,.,.,.,.,.,.,.,.,.,.,.,.,.,.,.,.,.,.,.,.,.,.,.,.,.,.,.,.,.,.,.,.,.,.,.,.,.,.,.,.X X q _ =.=.=.=.=.=.=.=.;.>.o.j > ",
",.,.,.,.,.,.,.,.,.,.,.,.,.,.,.,.,.,.,.,.,.,.,.,.,.,.,.i u u u t 2 u u ,.,.,.,.,.,.,.,.,.,.,.,.X X > _ =.=.=.=.=.=.=.=.;.>.X.j : ",
",.,.,.,.,.,.,.,.,.,.,.,.,.,.,.,.,.,.,.,.,.,.,.,.,.,.,.t i u u t u u 2 ,.,.,.,.,.,.,.,.,.,.,.,.X X > / =.=.=.=.=.=.=.=.;.>.o.E : ",
",.,.,.,.,.,.,.,.,.,.,.,.,.,.,.,.,.,.,.,.,.,.,.,.,.i t d l d l l k l k u t ,.,.,.,.,.,.,.,.,.,.X o q / =.;.=.=.=.=.=.=.;.>.o.W : ",
",.,.,.,.,.,.,.,.,.,.,.,.,.,.,.,.,.,.,.,.,.,.,.,.,.u u d Y  .} } } L l u y ,.,.,.,.,.,.,.,.,.,.X X q / ;.=.=.=.=.=.=.=.;.>.o.j q ",
",.,.,.,.,.,.,.,.,.,.,.,.,.,.,.,.,.i i u i i t u t u u l } &.&.&.&.} k u t 2 2 t 2 y y ,.,.,.,.X X q / =.=.=.=.=.=.=.=.;.>.X.j > ",
",.,.,.,.,.,.,.,.,.,.,.,.,.,.,.,.,.t u u t u u u u t u l } &.&.&.&.} k t 2 y y 2 y y y ,.,.,.,.X X q / =.=.=.=.=.*.=.*.;.>.o.W : ",
",.,.,.,.,.,.,.,.,.,.,.,.,.,.,.t t d l l l l l l i i d H  .&.%.&.%. .l d i u d p p p u 2 2 ,.,.X X q / =.=.=.=.=.=.=.=.=.>.=.j : ",
",.,.,.,.,.,.,.,.,.,.,.,.,.,.,.u t l { }  . . .} l l { { #.#.&.@.@.T [ N d p v N J v p t 2 ,.,.X X : / =.=.=.=.=.=.=.=.;.>.o.j > ",
",.,.,.,.,.,.,.,.,.,.,.,.,.,.,.u i l } &.&.&.&. .l m U +.#.#.#.@.O.O.O.A m s N I I P f i i y f X X q / =.=.=.=.=.=.=.=.;.>.o.W : ",
",.,.,.,.,.,.,.,.,.,.,.,.,.,.,.t t l  .&.&.&.&.#.{ [ | O.O.#.O.O.O.O.O.[ N N P I P C J v p y u X X q / ;.=.=.=.=.=.=.=.;.>.o.W : ",
",.,.,.,.,.,.,.,.,.t u t u t t i d H  .&.&.&.#.#.O.O.O.O.O.O.O.O.O.O.O.[ T T I I I I I N p y y X X q / =.=.=.=.o.=.=.=.;.>.o.W : ",
",.,.,.,.,.,.,.,.,.u t t u u u l K U O.@.O.O.O.O.O.O.O.O.O.O.O.O.O.O.O.| T P I I C I S N p t t X X q / =.=.=.=.=.=.=.*.;.>.o.j > ",
",.,.,.,.,.,.,.t u i l l l l l H { @.O.O.O.O.O.O.O.O.O.O.O.O.O.O.O.O.O.| T T C I I I C v a u t + X q ` ;.;.;.;.;.;.=.;.>.>.o.j > ",
",.,.,.,.,.,.,.t t l } } } } }  .@.@.@.+.#.O.[ S O.O.#.%.&.#.#.#.O.| O.O.| T I Z I C v v a p u * + q ' >.>.>.>.>.>.>.>.>.>.*.E : ",
",.,.,.,.,.,.,.t u l } &.&.&.&.&.&.&.@.@.#.O.S S T O.#.&.&.&.&.#.O.O.O.O.O.T I C J N m a s a p t $ : ^ *.*.-.*.=.-.-.-.o.o.( j : ",
",.,.,.,.,.,.,.u u l } &.&.&.&.&.&.#.@.@.#.+.S Z Z | @.&.&.&.&.&.#.#.O.O.| T Z C v v a a s s m p $ @ : j Q ^ ^ ^ ^ ^ ^ Q j > : > ",
",.,.,.,.,.,.,.u t l } } @.&.&.&.@.@.#.@.+.T S Z C S O.%.&.&.&.&.#.#.O.O.| T Z C v v v s s s b z & @ - g E Q ! ! Q ! Q E j > > : ",
",.,.,.,.,.,.,.y u i l l  .&.&.&.@.@.@.O.T S Z C C Z T T @.&.&.&.%.#.O.O.S Z Z C C M N v z v b s % - Q ` ' ] ] ] ] ] X.X.X.( j : ",
",.,.,.,.,.,.,.,.,.u u d }  .@.#.O.O.O.S Z C S S T S C S +.@.%.%.%.#.O.| Z Z C Z Z Z Z C v v c a $ : ` =.=.=.=.=.=.=.=.;.>.*.W : ",
",.,.,.,.,.,.,.,.,.t 2 d d H { O.O.[ [ V B V | O.@.O.T C S R #.&.&.%.O.S C C C S T T | | I C v p $ > / ;.=.=.=.=.=.=.=.;.>.*.j > ",
",.,.,.,.,.,.,.u t 2 t i d m U O.O.O.V M B A O.#.#.O.| S Z S O.%.@.+.T A C S S T O.O.O.T | T v 7 + q / ;.=.=.=.=.=.=.=.;.>.o.j : ",
",.,.,.,.,.,.,.u t u t d N U | O.O.[ V V A O.O.@.#.#.+.T S C T A T T T C C T O.$.%.@.$.+.T T n a $ > / =.=.=.=.=.=.=.=.;.>.o.W > ",
",.,.,.,.,.2 2 p k d d H | O.O.O.O.[ V [ O.O.#.@.+.#.#.+.A Z Z B S C C C C T +.&.&.%.%.$.O.Z C s $ > / =.=.=.=.=.=.=.=.=.>.*.j > ",
",.,.,.,.,.2 y d K Y Y Y +.%.%.+.O.O.O.[ O.O.@.+.#.+.#.+.[ A { { A A C C C R @.&.%.%.%.$.Z C n a $ q ( =.=.=.=.=.=.=.=.;.>.o.j > ",
",.,.,.,.,.2 4 d Y @.@.%.%.%.%.@.O.O.O.O.O.O.@.@.#.O.+.| [ [ B { A A { T T T @.%.%.$. .R Z n n a $ q / =.=.=.=.=.=.=.=.;.>.o.j : ",
",.,.,.,.,.2 2 d Y %.%.%.%.%.%.%.O.O.O.O.#.#.&.@.O.O.| [ [ { { { A {  .+.+.+.%.%.%.+.I Z n n n a + q / =.=.=.=.=.=.=.=.;.>.*.W > ",
",.,.,.,.,.2 y d } %.%.%.%.%.+.+.| [ O.O.#.&.&.@.O.O.[ A [ { { B [  .%.%.&.%.%.@.@.O.Z n Z n n a % q / ;.=.=.=.=.=.*.=.;.>.*.j : ",
",.,.,.,.,.2 2 k } %.%.%.%.@.T Z C I @.%.%.&.%.$.O.O.[ O.| [ A U  .@.%.&.%.%. .| O.T T S T Z n s $ > / =.=.=.=.=.=.=.=.;.>.] j q ",
",.,.,.,.,.2 2 k L } $.%.$.R P n n P +.%.&.$.@.+.O.O.O.[ O.| [ { @.&.%.&.%.@.O.| O.T O.T T Z n s $ q _ =.=.=.=.=.=.=.=.;.>.*.j : ",
",.,.,.,.,.2 y u d k P T R T C n n Z +.%.&.$.I I [ O.O.O.O.O.| O.@.%.@.#.%.+.O.| T T T | T Z n z % : _ =.=.=.=.=.=.=.=.;.:.*.j q ",
",.,.,.,.,.2 t u p f N T T P I P I T @.%.$.R G n S O.O.O.O.O.O.O.@.@.@. .+.+.O.| O.O.O.R O.T n r + q _ ;.=.=.=.=.=.o.=.=.>.*.j q ",
",.,.,.,.,.t 2 p v C P T I T R +.+.$.%.$.T G c G O.@.@.@.$.@.O.O.O.O.O.O.O.T O.O.+.$.$.+.O.S n a % > / ;.=.=.=.=.=.=.=.;.>.X.j q ",
",.,.,.2 2 4 y s J T T I I R $.&.%.%.%.+.n c c G  .&.%.&.%.$.O.T | | T | T T R O.$.%.$.$.T Z n a + > / =.=.=.=.=.*.=.=.;.>.*.j : ",
",.,.,.2 2 4 s c C T T P I T $.%.%.%.%. .P c x G  .%.%.%.%.+.I Z T | T T C P  .@.$.$.%. .I n b a $ q ( =.=.=.=.=.=.=.=.;.>.o.j q ",
",.,.,.2 2 u x n b P C J P I +.%.%.$.$.R b c x G  .%.%.%.@.R C C Z S T Z n P O.%.$.$.+.T n n b s $ q / =.;.=.=.=.=.=.=.;.>.=.j : ",
",.,.,.2 2 4 x c c G c G b G  .%.%.$.T n b c c G +.%.%.+.I G b n n n C n n Z O.%.%. .I G n c n s $ > _ =.=.=.=.=.=.*.=.;.>.X.j q ",
",.,.,.2 2 u x F D c c c c G R  . .R n n c c n G R +.+.R G b b n n n n n n n Z T R I b b n c c 9 + q _ =.=.=.*.=.=.=.=.;.>.*.W * ",
",.,.,.2 2 u v F G G G c c c G G G C n n b b n n n P P n c v b n n b n b n c c z D c b b c c e < + q / =.=.=.=.=.=.=.=.;.>.o.W : ",
",.,.,.2 2 8 F G G G c c c r e r c n n n b n n n n n n n x z c b b b b b M c e 5 6 9 r c e e 6 < + q / =.=.=.=.=.=.=.=.=.>.o.W : ",
",.,.,.1 1 u F G G G b c c r c b n b n n b n n n n b n c r 9 9 D b n n n b c 7 7 < 5 6 e 6 e 6 < + q / =.=.=.=.=.=.=.=.;.>.o.W : ",
",.,.,.1 1 4 k D D D c r r r b G n n n n b c b n b b b c e 6 6 r c b n n c z 7 5 < 5 5 6 6 6 6 < + : _ =.=.=.=.=.=.*.=.;.>.o.j : ",
",.,.,.= 1 4 8 3 4 p r r r c G R I I T G c r c n n b x r 9 9 6 r b n n c a 5 5 < 5 5 6 6 6 6 6 < + q _ =.=.=.=.=.=.=.=.;.>.o.j > ",
",.,.,.,.,.1 1 1 2 4 0 e r G G R R R T Z r e c c c D r 9 9 9 6 r c c c z 7 5 5 5 5 6 6 6 6 6 6 < + q / ;.=.=.=.=.=.=.=.:.>.-.j > ",
",.,.,.,.,.* 1 * * 2 2 k D I R R R R R G D e k 0 s 0 0 6 6 0 6 0 a a 9 7 5 5 5 5 0 r r r 6 6 6 < + : / =.=.=.=.=.=.=.=.;.>.o.j > ",
",.,.,.,.,.,.,.,.,.* 2 4 F R R R R R F F r 6 0 0 s 0 0 6 0 6 6 6 7 7 5 5 5 7 5 9 z x x r 5 5 5 , + > ` :.;.;.;.;.;.;.;.:.>.*.j : ",
",.,.,.,.,.,.,.,.,.* 1 p J R R R R J p 8 0 e 0 0 0 0 6 0 6 6 9 6 3 , 5 5 5 9 e z x x x a 3 % , % O q ] >.>.>.>.>.>.>.>.>.>.o.E : ",
",.,.,.,.,.,.,.,.,.& * u D F F F J D u 1 3 6 9 9 9 0 6 6 5 5 5 3 % % < 5 6 9 r x x z a 7 , $ & $ + > ^ *.*.*.*.=.*.*.*.*.o.( j > ",
",.,.,.,.,.,.,.,.,.* % 2 q y u 4 i y 2 & , 3 6 9 9 9 9 5 , % , % % % $ , 5 6 r x x s 3 % & $ & @ O # > g Q ^ ^ ^ ~ ^ ^ Q j > > : ",
",.,.,.,.,.,.,.,.,.,.,.& % % % % * % % & $ 1 3 5 5 5 5 < , & $ $ $ @ + $ < 5 6 8 0 7 % $ $ ,.,.O o # - w E Q ! ! Q Q ! E j > > > ",
",.,.,.,.,.,.,.,.,.,.,.& & & & & % & & & & * 1 1 % % % % % $ $ $ % O O $ % % % % 1 * % $ @ ,.,.X X - Q ` ' ] ] ] ] ] X.X.o.( j : ",
",.,.,.,.,.,.,.,.,.,.,.,.,.,.,.,.,.,.,.,.,.& & & & & & $ # ,.,.,.,.,.,.+ O $ # $ $ $ & ,.,.,.,.X X q / ;.=.=.=.=.=.=.-.;.>.-.j : ",
",.,.,.,.,.,.,.,.,.,.,.,.,.,.,.,.,.,.,.,.,.& * & & $ $ $ $ ,.,.,.,.,.,.# $ # @ $ $ $ $ ,.,.,.,.X X q ` ;.=.=.=.=.=.=.=.;.>.o.j : ",
",.,.,.,.,.,.,.,.,.,.,.,.,.,.,.,.,.,.,.,.,.,.,.,.,.,.,.,.,.,.,.,.,.,.,.,.,.,.,.,.,.,.,.,.,.,.,.X X q / =.=.=.=.=.=.=.=.;.>.*.E : ",
",.,.,.,.,.,.,.,.,.,.,.,.,.,.,.,.,.,.,.,.,.,.,.,.,.,.,.,.,.,.,.,.,.,.,.,.,.,.,.,.,.,.,.,.,.,.,.X X q / =.=.=.=.=.=.=.=.;.>.o.j > ",
",.,.,.,.,.,.,.,.,.,.,.,.,.,.,.,.,.,.,.,.,.,.,.,.,.,.,.,.,.,.,.,.,.,.,.,.,.,.,.,.,.,.,.,.,.,.,.X X > / =.=.=.=.=.=.=.=.=.>.o.W : ",
",.,.,.,.,.,.,.,.,.,.,.,.,.,.,.,.,.,.,.,.,.,.,.,.,.,.,.,.,.,.,.,.,.,.,.,.,.,.,.,.,.,.,.,.,.,.,.X X q ( =.=.=.=.=.=.=.=.;.>.o.j > ",
",.,.,.,.,.,.,.,.,.,.,.,.,.,.,.,.,.,.,.,.,.,.,.,.,.,.,.,.,.,.,.,.,.,.,.,.,.,.,.,.,.,.,.,.,.,.,.X X q / =.=.=.=.=.=.=.=.;.>.o.W : ",
",.,.,.,.,.,.,.,.,.,.,.,.,.,.,.,.,.,.,.,.,.,.,.,.,.,.,.,.,.,.,.,.,.,.,.,.,.,.,.,.,.,.,.,.,.,.,.X X q / =.=.=.*.=.=.=.=.;.>.o.W : ",
",.,.,.,.,.,.,.,.,.,.,.,.,.,.,.,.,.,.,.,.,.,.,.,.,.,.,.,.,.,.,.,.,.,.,.,.,.,.,.,.,.,.,.,.,.,.,.X X q / ;.=.=.=.=.=.=.=.;.>.-.j : "
};
