/* XPM */
static char *cf58176b5d724734f675d7dc7471f4f0OytSegZKxFA929cp[] = {
/* columns rows colors chars-per-pixel */
"64 64 204 2 ",
"   c None",
".  c #523215",
"X  c #543315",
"o  c #533615",
"O  c #543415",
"+  c #563515",
"@  c #543715",
"#  c #563615",
"$  c #573715",
"%  c #583615",
"&  c #583715",
"*  c #553815",
"=  c #553816",
"-  c #593B15",
";  c #583A16",
":  c #593A16",
">  c #593B16",
",  c #593D16",
"<  c #5A3F17",
"1  c #55321C",
"2  c #55341E",
"3  c #56341E",
"4  c #56341F",
"5  c #56351F",
"6  c #573521",
"7  c #573722",
"8  c #583622",
"9  c #583724",
"0  c #583824",
"q  c #5B4017",
"w  c #5C4217",
"e  c #5C4317",
"r  c #5D4417",
"t  c #5D4218",
"y  c #5C4318",
"u  c #5D4318",
"i  c #5D4418",
"p  c #5E4419",
"a  c #5E4519",
"s  c #5F4519",
"d  c #565112",
"f  c #575112",
"g  c #575212",
"h  c #575213",
"j  c #535715",
"k  c #585213",
"l  c #535815",
"z  c #545815",
"x  c #555815",
"c  c #545915",
"v  c #555915",
"b  c #545816",
"n  c #555816",
"m  c #545916",
"M  c #555916",
"N  c #555917",
"B  c #565916",
"V  c #565917",
"C  c #555A17",
"Z  c #565A16",
"A  c #575B16",
"S  c #565A17",
"D  c #575A17",
"F  c #575B17",
"G  c #575C17",
"H  c #585B17",
"J  c #585C17",
"K  c #595C17",
"L  c #585D17",
"P  c #595D17",
"I  c #5A5E17",
"U  c #5B5E17",
"Y  c #5C5E17",
"T  c #595C18",
"R  c #5A5D18",
"E  c #595E18",
"W  c #5B5E18",
"Q  c #5C5F18",
"!  c #604519",
"~  c #604619",
"^  c #614719",
"/  c #624819",
"(  c #624919",
")  c #634919",
"_  c #63491A",
"`  c #644A1A",
"'  c #654B1A",
"]  c #664C1A",
"[  c #674C1A",
"{  c #674D1A",
"}  c #674D1B",
"|  c #695915",
" . c #625819",
".. c #635919",
"X. c #655B19",
"o. c #615E19",
"O. c #625E19",
"+. c #625F19",
"@. c #635F19",
"#. c #665C19",
"$. c #675D1A",
"%. c #685E1A",
"&. c #5D6018",
"*. c #656119",
"=. c #626519",
"-. c #636519",
";. c #636619",
":. c #67691A",
">. c #676A1A",
",. c #686B1A",
"<. c #696C1A",
"1. c #6A6C1A",
"2. c #6A6D1B",
"3. c #6B6D1B",
"4. c #6B6E1B",
"5. c #6C6E1B",
"6. c #6C6F1B",
"7. c #6D6F1B",
"8. c #6E6F1B",
"9. c #6C6D1D",
"0. c #6C6E1D",
"q. c #6D6F1D",
"w. c #776916",
"e. c #736C1F",
"r. c #746D1F",
"t. c #6D701B",
"y. c #6E701B",
"u. c #6E711B",
"i. c #6F711C",
"p. c #6F721C",
"a. c #70711B",
"s. c #70731C",
"d. c #72731D",
"f. c #73751E",
"g. c #74761D",
"h. c #75761D",
"j. c #75771D",
"k. c #74751E",
"l. c #75751E",
"z. c #76761E",
"x. c #77761E",
"c. c #76771E",
"v. c #77771E",
"b. c #7E731D",
"n. c #7F731D",
"m. c #7F731E",
"M. c #78771F",
"N. c #7F741E",
"B. c #77781E",
"V. c #654935",
"C. c #6C6623",
"Z. c #6D6623",
"A. c #6D6723",
"S. c #746D20",
"D. c #756D20",
"F. c #776F24",
"G. c #786F24",
"H. c #796F2B",
"J. c #767522",
"K. c #767622",
"L. c #777622",
"P. c #777722",
"I. c #787722",
"U. c #797027",
"Y. c #797822",
"T. c #7D7C22",
"R. c #7D7D22",
"E. c #7E7D22",
"W. c #7F7E22",
"Q. c #7F7E23",
"!. c #7F7F23",
"~. c #79702B",
"^. c #7A702B",
"/. c #7B712C",
"(. c #7C722C",
"). c #7D722C",
"_. c #7D732C",
"`. c #80741E",
"'. c #807F23",
"]. c #818023",
"[. c #828123",
"{. c #838123",
"}. c #838223",
"|. c #838224",
" X c #848224",
".X c #848324",
"XX c #89862C",
"oX c #89872C",
"OX c #89872D",
"+X c #8A862D",
"@X c #8A872D",
"#X c #8A872E",
"$X c #888331",
"%X c #888431",
"&X c #898432",
"*X c #8A8532",
"=X c #8B8632",
"-X c #8C8733",
";X c #8D8833",
":X c #8E8833",
">X c #8E8933",
",X c #8F8934",
"<X c #868579",
"1X c #94928B",
/* pixels */
"                                                                                                4 4 <X<X<X<X<X<X<X<X<X<X1X1X9 9 ",
"                                                                                                4 4 <X<X<X<X<X<X<X<X<X<X1X1X9 9 ",
"                                                                                                4 4 <X<X<X<X<X<X<X<X<X<X1X1X9 9 ",
"                                                                                                4 4 <X<X<X<X<X<X<X<X<X<X1X1X9 9 ",
"                                                                                                4 4 <X<X<X<X<X<X<X<X<X<X1X1X9 9 ",
"                                                                                                4 4 <X<X<X<X<X<X<X<X<X<X1X1X9 9 ",
"                                                            ' _ ' ' ' '                         4 4 <X<X<X<X<X<X<X<X<X<X1X1X9 9 ",
"                                                            ' ' ' ' ' '                         4 4 <X<X<X<X<X<X<X<X<X<X1X1X9 9 ",
"                                                        ` ' -X-X,X-X-X-X' }                     4 4 <X<X<X<X<X<X<X<X<X<X1X1X9 9 ",
"                                                        ` / -X-X-X-X-X-X} '                     4 4 <X<X<X<X<X<X<X<X<X<X1X1X9 9 ",
"                                            ` / ' /     ' ' -X-X-X-X-X,X} }     [ [ } } p <     4 4 <X<X<X<X<X<X<X<X<X<X1X1X9 9 ",
"                                            / ` ' '     ' ' :X:X-X-X-X-X} }     [ } } } e p     4 4 <X<X<X<X<X<X<X<X<X<X1X1X9 9 ",
"                                        ` / K.K.L.L.' ' ].}.].}.,X-X-X:X|.|.} } :X:X:X:X_._.p < 4 4 <X<X<X<X<X<X<X<X<X<X1X1X9 9 ",
"                                        / / K.J.L.L.' ' }.].}.].:X-X:X-X|.|.} ' :X:X:X:X~._.e p 4 4 <X<X<X<X<X<X<X<X<X<X1X1X9 9 ",
"                                    / / K.L.L.L.K.K.K.Y.].}.}.}.|.|.|.|.|..X.X.X:X>X>X>X_.(.r e 4 4 <X<X<X<X<X<X<X<X<X<X1X1X9 9 ",
"                                    / s J.L.L.L.Y.Y.K.Y.{.].}.].|.|.|.|.|.|..X.X:X:X>X>X_.(.r e 4 4 <X<X<X<X<X<X<X<X<X<X1X1X9 9 ",
"                                    / ` K.K.K.K.I.I.Y.Y.].{.|.|..X.X.X.X.X.X.X.X.X.X.X{.r.r.r.r.4 4 <X<X<X<X<X<X<X<X<X<X1X1X8 0 ",
"                                    ` / K.K.K.K.I.I.Y.Y.{.{.|.|..X'..X.X.X.X.X.X.X.X.X{.r.r.r.r.4 4 <X<X<X<X<X<X<X<X<X<X1X1X0 8 ",
"                        ! s ^ s _ / X.X.%.*.Y.K.I.I.].{.{.}.}.|.,X:X,X:X,X,X.X.Xj.j.XXoX_.G._._.4 4 <X<X<X<X<X<X<X<X<X<X1X1X9 9 ",
"                        i ^ s ^ ! / X.X.%.X.Y.K.Y.Y.{.].{.}..X.X:X:X:X,X,X,X.X.Xj.j.#X@XG.G._._.4 4 <X<X<X<X<X<X<X<X<X<X1X1X9 9 ",
"                    i ! 0.0.0.0.q.q.#.#.%.$.%.%.d.L.].{.}.}.>X>X,X:X,X,X,X,Xj.j.j.j.#X#XU.U._._.4 4 1X1X1X1X1X1X1X1X1X1X1X1X9 9 ",
"                    i i 0.0.0.0.q.q.#.#.$.$.%.%.j.d.{.].}.}.>X:X,X:X,X,X,X,Xj.d.j.s.#X#Xr.U._._.4 4 1X1X1X1X1X1X1X1X1X1X1X1X9 9 ",
"                    ! i 9.9.0.0.q.q.#.#.s.s.J.f.j.j.B.B.}.}.:X:X:X:X,X,Xd.j.d.j.s.j.j.j.r.U.U.U.4 4 4 4 V.V.V.V.V.V.V.V.8 8 9 9 ",
"                    ! p 9.9.0.0.q.q.#.$.d.s.f.f.j.s.B.B.}.}.:X:X:X:X,X,Xj.j.j.j.j.j.j.d.U.U.D.D.4 4 4 4 V.V.V.V.V.V.V.V.4 8 9 9 ",
"                        ! ! q.0.#.#.T.E.E.].].].j.M.M.j.v.B.:X:X:X>XL.B.j.j.#X#X@X@Xw.w.| | U.U.4 4 <X<X<X<X<X<X<X<X<X<X1X1X8 9 ",
"                        ! ! 0.0.#.#.E.'.].].].].j.j.M.M.v.M.:X:X>X>Xj.j.j.j.@XXX@X@Xw.w.| | D.U.4 6 <X<X<X<X<X<X<X<X<X<X1X1X9 9 ",
"                            ! ! t.e.'.E.*X*X=X=X=X=Xj.M.M.h.M.M.B.B.B.j.oXoX@X@XoXoX.X.X| | r.D.4 4 <X<X<X<X<X<X<X<X<X<X1X1X9 9 ",
"                            ! ! t.6.E.'.*X*X=X=X=X=Xj.M.M.j.M.M.B.B.j.j.oXoX@X@XXX#X.X.X| | r.D.4 4 <X<X<X<X<X<X<X<X<X<X1X1X9 9 ",
"                    i ! ! i 6.6.t.t.a.a.#X*X=X=X=X=XL.j.M.M.b.`.N.N.`.`.#X#X#XXXXXXX]..XD.D.r.r.4 4 <X<X<X<X<X<X<X<X<X<X1X1X9 9 ",
"                    i i ! ! 6.6.e.6.a.u.*X*X=X*X=X=Xj.j.M.j.b.b.N.N.`.`.#X#XXX#XXX#X{..XD.r.r.r.4 4 <X<X<X<X<X<X<X<X<X<X1X1X9 9 ",
"                i i 2.2.0.2.6.6.t.1.u.u.s.s.*X*X=X=X,X:X=X:Xm.m.m.m.m.m.m.m.'.{.:X:X=X,Xr.r.e.e.4 4 <X<X<X<X<X<X<X<X<X<X1X1X9 9 ",
"                i i 2.2.0.2.6.6.t.t.u.u.s.s.*X*X=X=X=X:X=X=Xm.m.b.m.m.m.N.m..X.X:X:X,X=Xr.r.e.e.4 4 <X<X<X<X<X<X<X<X<X<X1X1X9 9 ",
"            y q c B 6.,.2.6.2.6.t.2.E.E.E.'.E.'.W.].-X*X-X-X-X-Xb.b.{.{.{.{.}.}.-X:X-X:X_._.*.*.5 5 <X<X<X<X<X<X<X<X<X<X1X1X9 9 ",
"            y p c B ,.6.6.2.6.2.t.t.E.E.'.E.'.E.|.W.#X-X-X-X-X-Xb.b.{.}.{.{.}.}.:X-X:X-X~._.*.*.5 5 <X<X<X<X<X<X<X<X<X<X1X1X9 9 ",
"            i i h B c c 2.6.2.2.2.2.E.R.E.E.E.'.E.!.-X*X*X*X-X-X].].{.].}.].{.].1.1.-X-X~.~.*.*.3 5 <X<X<X<X<X<X<X<X<X<X1X1X9 9 ",
"            i i c B b b 6.2.2.0.6.6.E.E.E.E.E.E.!.!.*X-X*X-X-X-X].{.].{.].}.].}.1.1.-X-X_.~.*.*.3 5 <X<X<X<X<X<X<X<X<X<X1X1X9 9 ",
"                r p B B  . . .#.2.6.E.T.%X%X*X&XE.W.!.!.W.|.W.|.].].-X-X:X-X-X-X,.,.2.1.~.~.~.~.6 3 <X<X<X<X<X<X<X<X<X<X1X1X9 9 ",
"                e e m m  . . .O.6.2.T.T.%X%X&X&XE.W.!.!.].W.|.W.].].-X-X:X-X-X-X:.2.2.,.~.~.~.H.6 3 <X<X<X<X<X<X<X<X<X<X1X1X9 9 ",
"                    e r m m B m 6.2.2.6.$X$X%X$X&X&Xt.t.W.W.W.].t.s.*X-X:X*X-X*X:.:.,.,.~.~.H.H.3 3 <X<X<X<X<X<X<X<X<X<X1X1X9 9 ",
"                    r r m m m B 2.6.6.6.$X$X%X&X&X*Xs.t.W.W.].].p.p.-X*X*X*X#X-X:.:.:.,.~.~.H.H.3 6 <X<X<X<X<X<X<X<X<X<X1X1X9 9 ",
"                e e m j l l B m 3.3.6.2.6.6.&X+X%X%Xt.t.t.t.p.t.t.t.s.s.*X*X*X*X,.:.:.:.O.*.H.H.3 6 <X<X<X<X<X<X<X<X<X<X1X1X9 9 ",
"                e q l j c l B B 3.3.2.2.6.6.&X'.$X*Xt.t.t.t.t.t.s.s.s.6.*X*X*X*X,.:.:.:.O.*.H.H.3 3 <X<X<X<X<X<X<X<X<X<X1X1X9 9 ",
"            e e j j m j c c c c b B 2.2.0.0.T T H H 6.6.6.e.t.t.t.e.#.#.t.t.t.t.u.e.t.t.O.O.*.O.6 3 <X<X<X<X<X<X<X<X<X<X1X1X9 9 ",
"            e e j j j m c c c c B B 2.2.2.A.V T H H 6.t.6.6.t.t.t.6.#.#.t.t.t.t.u.6.s.t.*.O.O.O.6 3 <X<X<X<X<X<X<X<X<X<X1X1X9 9 ",
"            e e U U U U U U Y Y m B N N B b d d k k t.2.6.6.6.6.U U G &.t.t.2.t.u.1.6.6.@.@.O.O.1 6 <X<X<X<X<X<X<X<X<X<X1X1X9 9 ",
"            e e U U U U U U Y U B m N N B F f d k k q.0.6.6.6.6.U U U &.t.t.t.t.6.u.6.6.O.O.O.O.6 1 <X<X<X<X<X<X<X<X<X<X1X1X9 9 ",
"                q q U U U U U U m B N N N F f f f f f f 6.6.6.6.G &.G G G &.<.t.6.6.&.&.9.Z.Z.Z.6 1 <X<X<X<X<X<X<X<X<X<X1X1X9 9 ",
"                p - U U U U R R F j N N N F f f f f f f 6.3.6.6.G G G U &.G t.t.6.6.&.&.Z.Z.Z.Z.1 6 <X<X<X<X<X<X<X<X<X<X1X1X9 9 ",
"                    q q R U U U m j B b *.;.;.;.h d d d d k  . .G G H U U H  . .....Q Q C.S.C.C.6 6 <X<X<X<X<X<X<X<X<X<X1X1X7 9 ",
"                    q - R &.U U m B b b ;.;.;.;.h h d d d d #. .G G H R B T #. ... .Q Q C.C.C.C.6 1 <X<X<X<X<X<X<X<X<X<X1X1X9 9 ",
"                        , , - - : : - = =.=.=.;.;.;.G B F F = = B R T B R G R T R R Q Q o o C.C.6 6 <X<X<X<X<X<X<X<X<X<X1X1X9 9 ",
"                        , , - - : : : : =.=.=.*.;.;.B G F B = = G B F B U G G U R R Q Q o o C.C.1 1 <X<X<X<X<X<X<X<X<X<X1X1X9 9 ",
"                                        # # =.=.;.;.B B . #     = = $ $ B U B B R R = -     o o 1 6 1X1X1X1X1X1X1X1X1X1X1X1X9 9 ",
"                                        # # =.=.&.;.B B X .     = = $ $ H B G U R R - -     o o 6 1 1X1X1X1X1X1X1X1X1X1X1X1X9 9 ",
"                                            # . o . . .                 # # % % % %             2 5 3 3 V.V.V.V.V.V.V.V.6 6 9 9 ",
"                                            . # . . . .                 # # % % % :             2 2 3 3 V.V.V.V.V.V.V.V.6 7 9 9 ",
"                                                                                                3 3 <X<X<X<X<X<X<X<X<X<X1X1X9 9 ",
"                                                                                                7 6 <X<X<X<X<X<X<X<X<X<X1X1X0 9 ",
"                                                                                                7 7 <X<X<X<X<X<X<X<X<X<X1X1X0 0 ",
"                                                                                                7 7 <X<X<X<X<X<X<X<X<X<X1X1X0 0 ",
"                                                                                                1 1 <X<X<X<X<X<X<X<X<X<X1X1X7 7 ",
"                                                                                                1 1 <X<X<X<X<X<X<X<X<X<X1X1X8 7 ",
"                                                                                                2 1 <X<X<X<X<X<X<X<X<X<X1X1X3 6 ",
"                                                                                                2 1 <X<X<X<X<X<X<X<X<X<X1X1X3 3 "
};
