/* XPM */
static char *_1d4df77ca694d14c4a5a3c2af6ddc0bm6E5GtqFRJUBxn48[] = {
/* columns rows colors chars-per-pixel */
"64 64 38 1 ",
"  c #4F2913",
". c #56321C",
"X c #543523",
"o c #5A3B27",
"O c #5E3B25",
"+ c #573D2D",
"@ c #573E2E",
"# c #5A3D29",
"$ c #5C402C",
"% c #584132",
"& c #5B493C",
"* c #5C4B3E",
"= c #66513F",
"- c #5C4D41",
"; c #5D4D42",
": c #5D4F43",
"> c #5E4F45",
", c #5D5044",
"< c #5E5146",
"1 c #5F5349",
"2 c #675240",
"3 c #655444",
"4 c #655C55",
"5 c #655D56",
"6 c #665F58",
"7 c #666057",
"8 c #686257",
"9 c #676159",
"0 c #686258",
"q c #6A6259",
"w c #6A6359",
"e c #68625A",
"r c #6A635A",
"t c #6C675F",
"y c #767469",
"u c #868579",
"i c #86847B",
"p c #94928B",
/* pixels */
"oooooooooooooooooooooooooooooooo22oooooooooooooooooooooooooooooo",
"oooooooooooooooooooooooooooooooo22oooooooooooooooooooooooooooooo",
"uuuuuuuuuuuuuuuuuuuuuuuuuuuuuuuu22uuuuuuuuuuuuuuuuuuuuuuuuuuuuuu",
"uuuuuuuuuuuuuuuuuuuuuuuuuuuuuuuu22uuuuuuuuuuuuuuuuuuuuuuuuuuuuuu",
"uuuuuuuuuuuuuuuuuuuuuuuuuuuuuuuu==uuuuuuuuuuuuuuuuuuuuuuuuuuuuuu",
"uuuuuuuuuuuuuuuuuuuuuuuuuuuuuuuu==uuuuuuuuuuuuuuuuuuuuuuuuuuuuuu",
"uuuuuuuuuuuuuuuuuuuuuuuuuuuuuuuu##uuuuuuuuuuuuuuuuuuuuuuuuuuuuuu",
"uuuuuuuuuuuuuuuuuuuuuuuuuuuuuuuu$$uuuuuuuuuuuuuuuuuuuuuuuuuuuuuu",
"pppppppppppppppppppppppppppppppp##pppppppppppppppppppppppppppppp",
"pppppppppppppppppppppppppppppppp##pppppppppppppppppppppppppppppp",
"rrr6r606000600000088888888888808  00000000000q0q0r0r0r0q0qqrrrrr",
"r06r6r0q000000000088888888888800  00000000q0q0q0r0r0r0q0q0qqrrrr",
"r96rq066086q0q080000000088000000  060000000q0q0q0q0q8q0qqqrrrrrr",
"rrr660q008q000000000000088000000  00000000q0q0q00qr0q8q0qqrrrrrr",
"                                66                              ",
"                                66                              ",
"6666666666666666666666666666666666666666666666>>5466666666666666",
"6666666666666666666666666666666666666666666666>>4466666666666666",
"6666666666666666666666666666666666666666666666>>5566666666666666",
"6666666666666666666666666666666666666666666666>>5566666666666666",
"6666666666666666666666666666666666666666666666>>6666666666666666",
"6666666666666666666666666666666666666666666666>>6666666666666666",
"6666666666666666666666666666666666666666666666XX6666666666666666",
"6666666666666666666666666666666666666666666666XX6666666666666666",
"6666664566666666666695966666506666666666666666XX6666666666666666",
"6666664566666966666657596666066666606666666666XX6666666666666666",
"111111;&&&&&-&&-<-><<,<-,,->-----;;;;;;;XXXXXXXXXXXX------------",
"111111&;--&&&&-&<<<-<-<<--<->->-->;;>;;;XXXXXXXXXXXX------------",
"tttttttttttt&-tttttttttttttttttttttttttttttttttttttttttttttttttt",
"tttttttttttt&&tttttttttttttttttttttttttttttttttttttttttttttttttt",
"666666666666;&96759666669666666666666686666666666666666666666666",
"666666666666&;66596666665966666666666666666666666666666666666666",
"666666666666&-66666666666666666666666666666666666666666666666666",
"666666666666--66666666666666666666666666666666666666666666666666",
"666666666666><66666666666666666666666666666666666666666666666666",
"666666666666<<66666666666666666666666666666666666666666666666666",
"6666666666661166666666666666666666666666666666666666666666666666",
"6666666666661366666666666666666666666666666666666666666666666666",
"666666666666%%66666666666666666666666666666666666666666666666666",
"666666666666%%66666666666666666666666666666666666666666666666666",
"666666666666++66666666666666666666666666666666666666666666666666",
"666666666666++66666666666666666666666666666666666666666666666666",
"666666666666+@96666666666666666666666666666666666666666666666666",
"666666666666++66666666666669666666666666666666666666666666666666",
"................................66..............................",
"................................66..............................",
"yyyyyyyyyyyyyyyyyyyyyyyyyyyyyyyyoOyyyyyyyyyyyyyyyyyyyyyyyyyyyyyy",
"yyyyyyyyyyyyyyyyyyyyyyyyyyyyyyyyOOyyyyyyyyyyyyyyyyyyyyyyyyyyyyyy",
"yyyyyyyyyyyyyyyyyyyyyyyyyyyyyyyy33yyyyyyyyyyyyyyyyyyyyyyyyyyyyyy",
"yyyyyyyyyyyyyyyyyyyyyyyyyyyyyyyy33yyyyyyyyyyyyyyyyyyyyyyyyyyyyyy",
"yyyyyyyyyyyyyyyyyyyyyyyyyyyyyyyy33yyyyyyyyyyyyyyyyyyyyyyyyyyyyyy",
"yyyyyyyyyyyyyyyyyyyyyyyyyyyyyyyy33yyyyyyyyyyyyyyyyyyyyyyyyyyyyyy",
"yyyyyyyyyyyyyyyyyyyyyyyyyyyyyyyy33yyyyyyyyyyyyyyyyyyyyyyyyyyyyyy",
"yyyyyyyyyyyyyyyyyyyyyyyyyyyyyyyy33yyyyyyyyyyyyyyyyyyyyyyyyyyyyyy",
"uiiiiiiiiiiiiiiiiiiiiiiiiiiiiiii33iiiiiiiiiiiiuuiiiiiiiiiiiiiiii",
"iiiiiiiiiiiiiiiiiiiiiiuuiiiiiiii33iiiiiiiiiiiuuuiiiiiiiiiiiiiiii",
"7777777766777777777777777777777733777777777777777777777766777777",
"7777777796777777777777777777777733597777777777777777777768777777",
"7777777757777777777777777777777733667777777777777777777766677777",
"7777777766777777777777777777777733507777777777777777777785857777",
"77777777777777777777777777777777  777777777777777777777777777777",
"77777777777777777777777777777777  777777777777777777777777777777",
"                                                                ",
"                                                                "
};
