/* XPM */
static char *u_w[] = {
/* columns rows colors chars-per-pixel */
"64 64 50 1",
"  c #4E2710",
". c #4F2914",
"X c #52311E",
"o c #543522",
"O c #573C2C",
"+ c #583824",
"@ c #593B29",
"# c #583F30",
"$ c #5D402D",
"% c #5A4334",
"& c #5B4739",
"* c #5D4B3E",
"= c #624937",
"- c #644C3A",
"; c #66503E",
": c #5E4E42",
"> c #5E5146",
", c #5F5248",
"< c #605246",
"1 c #61544A",
"2 c #65594F",
"3 c #6B5947",
"4 c #6A5B4C",
"5 c #655D55",
"6 c #665F58",
"7 c #6A5D50",
"8 c #676157",
"9 c #666059",
"0 c #6B6256",
"q c #69635B",
"w c #6D685F",
"e c #70675A",
"r c #726B5E",
"t c #6E6960",
"y c #736D64",
"u c #767469",
"i c #7A7264",
"p c #7C7569",
"a c #7A786D",
"s c #7E7B72",
"d c #837A6F",
"f c #828077",
"g c #868579",
"h c #89867F",
"j c #8A887E",
"k c #8A8780",
"l c #8B8980",
"z c #918F87",
"x c #919087",
"c c #929189",
/* pixels */
"++++++++++++++++++++++++++++X$X$--$XX+++++++++++++++++++++X++X++",
"-----------------------;------;;;;==;-----------------------;;-;",
"iiiiiiiiiiiiiiiiiiiiiiiiiiiiiidr;3idiidiiiiiiiiiiiiiiiiiiiiiiidi",
"ggggggggggjgjggggggggggggggggggp44dggggggggggggggggggggggggjgggg",
"gjgggggggggggggggggggggggggggggp33dggggggggggggggggggggggggggggg",
"gggggggggggggggggggggggggggggggp33iggggggggggggfgggggggggggggggg",
"ggfggggggggggggggggggggggggggggi;;dfgggggggggggggggggggfgggggggg",
"jjjjgjgjjgjjgjjjjjgjjgjjjjgjjjjd;;djjjjgjjgjjjjjjjjjjjjjjgjjjjgg",
"zzzzzzzzxxzzzzzzxxxxxxxxxxxxzzzd;;fjxxxxxzzzxxxxzzzczzzcjczzzzzz",
"kkkkhhkkjjhhhhhhjjjjjgjjhhkkhhhd==djjjjjjhhjjjkhhkkkkkkkjjkkkkhk",
"tyyytyyyyyyyyyyyyyyyyyyryyyyyyy7$$4iuyyyyyyyyyyyyyiyyyyyiyyyyyyy",
"9699998877qq6666888888886687q76<XX;0888888888060666666q60000qq6q",
"q9q6q88q8q0q0q0888qqq88q808866q<XX>8888888q7qqqq6e6ee66e6eq0qeq0",
"1111<<1<<<<<<<<,1,<<<<<<<<<<<>1:$$*,,,,,>1<<<<<<<<1<<<<<1<1<1<11",
"oooooooooooooXooooXoX+oooooooooO&>$Xoooooooooooooooooooooooooooo",
"ooooooXooooooooooooooooXooooooo#,,%XooooooooooXXoooooXoooooooooo",
":>,,>,,>,>>,>>,,,,,,,11:,:,1>>,,661,,,,,:,,,,:&&::><,,,,,,1>>1>>",
"66q666666666669966666666666666q6666666666666661,2566696666666666",
"6666666666666666666666666666666666666666666666,,2666696666666666",
"6666666666666666666666666666666666666666666665,,2666666666666666",
"6666666666666666666666666666666666666666666666,,5666666666666666",
"6666666666666666666666666666666666666666666666*:2666666666666666",
"6666666666666666666666666666666666666666666661%%1666666666666666",
"6666666666666666666666666666666666666666666661OO,999666666666666",
"6666666666666666666666666666666666666666666662#O1996666666666666",
"2555551225,5521552522555256122252222266111111:OO>111222255155252",
"111111::::::::::,,,,,,,1,,,,,,>,,,,,,,::%####OooOOO#:>,,:>,,>::>",
"22112111,,:::::,,,,,11,,,,,,,,11,,,,,,,:##########O&:>11>>>>,,,,",
"99999q666662::26q666q66q6666666666666666522222265555666666q6666q",
"ttqtqtqtqqq6>>6tqttqqtqtqtqtttqttqwtqqqwwtqwwqwtqqq6wqwqwwqqqqwq",
"669969996q95:>56q66q66q6699966q666q6666q66w666q6666q6q6q666q6q66",
"666666666665::26666666666666666666666666666666666666666666666666",
"666666666665:>,6656666666666656666666666566656656656666656666666",
"66666666666,>>56666666656665666666666666666666666666666666566665",
"666666666665>>56666666666666666666666666666666566666656666666666",
"666666666666,,56666665665666666666666666665666666566666666666666",
"666666666665,,66666666666666595666666666666666666656666666666566",
"666666666665>>56666665666666595666666666666666666666666666666666",
"66666666666,::56666666666666559966666666666666666666666656666666",
"66666666669,#:16666666666656995966666666666666665666666566665666",
"666666666682%%16666666666666669966666666666666666666666666666666",
"666666666662%&,t666666666886669966666666666666666666666666666666",
"666666666682&%1666t696668888989966666666666666606q666q6666666666",
",,>11111111;##:,,,,,1,,,,,,3>,,,661>11111111111111<111<111111111",
"@@@@O@@@@@@+++++@@@@O@@@++$+@@+&11%++@@@@@@@@@@@@@@+@@@@@@@@@@@@",
"$$$$##$@$@$$@$$$$$$$#O$$$$$$$$$&1>=@$$$$$$$#$$$$$$$$$$$$$$$$$$$$",
"00e7e76e000ee0e00000000ee00e00e4==770000000000000600600000q00677",
"upuuuuppauiuuuuuupuuuuppuuuuuuut==dydydydydypuuuppuppuupyduydupd",
"uuuuuuuuuuuuuuuuuuuuuuuuuuuuuuar33tuuuuuuuuuuuuuuuuuuuuuuuuuuuuu",
"uuuuuuuuuuuuuuuuuuuuuuuuuuuuuuut22yuuuuuuuuuuuuuuuuuuuuuuuuuuuuu",
"uuuuuuuuuuuuuuuuuuuuuuuuuuuuuuut24tuuuuuuuuuuuuuuuuuuuuuuuuuuuuu",
"uuupuyuuuuuuuuuuuuuuuuuuuuuuuuut42tuuuuuuuuuuuuuuuuuuuuuuuuuyuuu",
"uyuuuyuuyuuuyuuuuuuuuuuuuuuuuuut44euuuuuuuuuuuuuuyuuuuuuuuuuuuuu",
"aaasaaaaaaaaaaaaaauaaauauuaaaauu44raauaauuauaaaaaaasaaasaaasaaau",
"dffffffffffffffffffffffffffffgga48aggfffffgfffffdhsfssffsfffffsf",
"sssssssssssssssssssssssassssasau44uasssssssssssaddssssssssssssss",
"wwwwwwttttwwwwwwttqqttqtttttwww8448ttwwwtttttttttqtqttttttttttww",
"55555855596668558588885585555585,3258858555555858885556666555555",
"5855586655555885555558855555855533585585555855558585858666556666",
"85888888999866668888888888858885**288588888888888988888869996866",
"9885888888888888888888888889599,$%,88888888898999898888888888888",
",,>,>,,>,>,,>>>>>,,>,>,,,,>,>,,&.X&,,>>>,,,>,,>>>>>>>>>>>>>>>>>>",
"oX$XooooooooooooooooooooooooXX$X...o$X$Xoooooooooooooooooooooooo",
"                                ..                       .  .   "
};
