/* XPM */
static char *ul_c[] = {
/* columns rows colors chars-per-pixel */
"64 64 74 1",
"  c #49240F",
". c #4E2710",
"X c #4F2913",
"o c #4E301E",
"O c #502E19",
"+ c #53321E",
"@ c #543522",
"# c #563926",
"$ c #573C2C",
"% c #583722",
"& c #583925",
"* c #5A3C2A",
"= c #563E30",
"- c #583F30",
"; c #5D402D",
": c #564134",
"> c #56473C",
", c #57493E",
"< c #5A4333",
"1 c #59473B",
"2 c #5B493D",
"3 c #60432F",
"4 c #614633",
"5 c #634937",
"6 c #644C3B",
"7 c #684F3F",
"8 c #66503F",
"9 c #69523F",
"0 c #5D4D42",
"q c #5E5146",
"w c #5D524A",
"e c #604F43",
"r c #615245",
"t c #615449",
"y c #65594E",
"u c #695241",
"i c #685749",
"p c #6B5947",
"a c #6B5B4B",
"s c #655D55",
"d c #665F58",
"f c #6A5E52",
"g c #705948",
"h c #676057",
"j c #666159",
"k c #6B6256",
"l c #6A645C",
"z c #6E685F",
"x c #716252",
"c c #70675B",
"v c #726A5E",
"b c #786B5D",
"n c #6E6960",
"m c #736D65",
"M c #796E60",
"N c #747166",
"B c #767469",
"V c #7B7264",
"C c #7D766A",
"Z c #7A786D",
"A c #7E7B72",
"S c #837A6F",
"D c #857C72",
"F c #887F75",
"G c #828177",
"H c #868579",
"J c #87887C",
"K c #89867E",
"L c #8A897E",
"P c #8A8780",
"I c #8B8B81",
"U c #918F87",
"Y c #919087",
"T c #929189",
/* pixels */
"jjlt<+%&&*#*****;;;;;;;;;;:;;*;*;*&&;%&%+;66;++;++;+%%%+;++%%+;%",
"jdyr6555666688889e9uuu88uu88898888888558669986656669669569669666",
"jy11xVVVVVVVVVVVVVVVBVVVVVVVVVVVVVVVVVVVVbppvVVVVVVVVVVVVVVVVVVV",
"yr6pCJLHJJHHJJJJJJJHJJJJJHJHJHJJJJJJHJJJHSaxCJJJHJHHHHHHHHHJJHHH",
";eMFHHHHHHHHHHHHHHHHHHHHJHHHHHHHHHHHHHHJJCaaCLHHHHHHHHHHHHHHHHHH",
"%7FTLHHHHHHHHHHHHHHHHHHHHHHHHHHHHHHHHHHHHCppCHHHHHHHHHHHHHHHHHHH",
"%7DYLHHGHHHHHHHHHGHHHHHHHHHHHHHHHHHHHHHHJV88VJHHHHHHHHHHHHHHHHHH",
"&9DYLHHHHHHHHHJJLLLLKKPPJJJLJJJLLJLJJLJLLC88CLLLLLJLLJJLJJLJLLLJ",
"%9DYHGHHHHHHHHITYYYUUTTTTTTTUUUUYYYYYYYYYD86DYTYYYYYYYYYLTYYYYYY",
"%9DYLHHHGHHHHGSSFGHHKHFFKFKFFPPPJKKKKLKPPC55VPPPKPKKKKKLLLLPPHPP",
"&9DYLHHHHHHHJCu5ikfkxcccccnnmmMmmmmmmmmNmf**fmNNmmNmmmmmVNNmmmmm",
"&9DYLHHHHHHHHb*O:82etrrttttyyddddjkjjjjjjq@@rljhjjjjjjjjhhkjjjjj",
"&uDYLHHHHHHJJM&O:e0eeitttttsddddkjjjjljllt@+qllhljjjjjjjjjjjjjjl",
"&uDYJHHHHHHHJb;O$<<12222e52eer0rrrrrtrtqt2**2ttttrttrrtttttwtttt",
"&8DYJHHHHHHHHM;.O+O+O%++++O@@@@@@@@@@@@@+:22*@@@@@+@@@@@@@@@@@@@",
"&uFTJHGHHHHHJM;XO++++%@@@@@@@@@@@@@@@@@++;yy:+O++@@+@@@@@@@@@@@@",
"&uDYPHHHHHHHHb;O:1,2qrr0trrr0tw0ettwrwrwewsswe11q0qrw0w00wwrrwrw",
"&7FYLHGHHHHHJM;@1qwwddjjdjddjdjjddddddddddddddteyjdjdddnddjjdddd",
"&7DYLGHHHHHHJb3%,wwwdjdddddddjdjdddddddddddddswwyddjddddddjjdddd",
"&uFYILLLLLLLLS3%,qwwsddddddddddddddddddddddddswwyddddddddddddddd",
"&9FTTYYTUUUUTS5#0wwwssdddddddddddddddddddddddstessddddsddddddddd",
"&6bDFFFFHHFFGb<&0wwwssdddddddddddddddddddddddseeyddddddddddddddd",
"*;47uggggggg63%;=wwwsddddddddddddddddddddddddw--wddddddddddddddd",
"*;479pup9g9933+&0wwwsdddddddddddddddddddddddlw-$wndddddddddddddd",
"%6SSSSMSMSVVVx;#0wwwddddddddddddddddddddjjjljw$=wddddddddddddddd",
"&7DILHHHHHHHJV4#=w0wwsssyswsysswysyysssywywwwe$$0ttysswsyssswsys",
"&7DULHHHHHHJJV5@=>>0wwwww0ww0wr0wrerewe2--==-$&&===:20trq0ww00qq",
"&7DUKHHHHHHHHV4@=>>0wwwwttttwtttwwwwwwwe---=-------<0trr0wt0wtw0",
"&7DTKHHHHHHHHV4#0wwwdjjjjjjjkjddldldddddsyyytstsfyyysdddddddjddj",
"&7DTKHHHHHHHHV4;wwwwjnjnlljnlnnnlllllllzlnnlnnlnlnnnnnllllnnnlnn",
"&7FTKHHHHHHHHV3&0wwwddjjjjjjdjjjdddldddlddlddldlldddjjddjljjdddd",
"&7FTLHHHHHHHHV3&>wwwdddddddddddddddddddddddddddddddddddddddddddd",
"&9DTJHHHHHHHHV<&0wwwsdddjssjjsjjdddddddddddddddddsddddddsdddddds",
"&9DTJGHHHHHHHV5&>wwwsdddsjjssjssdddddddddddddddddddddddddddsdddd",
"&9DYLHHHHHHHJV4#>wwwssddjsjjjsjjddddddddddddddddddddsddddddddddd",
"&9DYJHHHHHHHHV4#>wwwsdddjsssjsssdddddddddddddddydddddddddddddddd",
"&9DTLHHHHHHHHV;#>0wwwjjdssjjjsjjddddddddddddddddsddddddddddddddd",
"&9DTJHHHHHHHHV5#0wwwsdddjsjssjssdddddddddddddddddddsdddddddddsdd",
"&7DTJHGHHHHHHV<#0wwwsdddddsjjssjddddddddddddddddddddddddsddddddd",
"&9DYHHHHHHHHJV5&0wwwsddddddjjsjjddddddddddddddddddddddsdddddsddd",
"&uDTPHHHHHHHHM4&=wwwwdddhhhhhhssdddddddddddddddddddddddddddddddd",
"&7DTLHFHHHHHHV5&0wwwddddjkhhshjjdddddddddddddddddddddddddddddddd",
"&uDTLHHHHHHHHV4&0wwwddddhhhkjhjjdddddddlddddddddddddjjddddddddjd",
"&7DULHHHHHHHHV4+=>>0wwwwtqqtwwwwsdtrrttttttttttrtrtttttttttetttt",
"&uDYLGHHHHHHHV5+@o@#=#$$***####>tt<&$&&&$*****&****&&&&&&**&$&**",
"&9DTLHHHHHHHJV4+@##&$=**;;;;;;;4tt43*33-3**33*-3-;;;3-<33*3-*-*3",
"&uDYJHHHHHHHHV4%2ttikxckkkkkxxky55gkkkkkkkkkfdcxkkxkfkcdxdxccdkx",
"%7DYLGHHHHHHJM<;tljzNBBBZBBZBZBv55zZZBCBBCCBBCBBBCBZBCBBCCBBBZBC",
"%6DULHHHHHHHJV4&qkklBBBBBBBBBBBnptnBBBBBBBBBBBBBBBBBBBBBBBBBBBBB",
"+7DULFHHHHHHHM4;ykkzNBBBBBBBBBBNysnBBBBBBBBBBBBBBBBBBBBBBBNBBBBB",
"%6DUHHHHHFHJJM4&tkklNBBBBBBBBBBvypNBBBBBBBBBBBBBBBBBBBBBBBNBBBBB",
"+6DTUKKKLLJLLC<;tkklvBBBBBBBBBBvpynBBBBBBBBBBBBBBBBBNBBBBBBBNBBB",
"+7DTTTTTTYTTTS5*tkhlBBBBBBBBBBBvayvBBBBBBBBBBBBBBBBBBBBBBBBBBBBN",
"%4bDFFFDFFFFGb3*yklvBZBBBBZZZBBBaaBZZBBZBBZBZBZZZZBAZZABZZBZZZZZ",
"%&47ggggggg963&3kvNBZHJHHHHJHHHBakBHHHHHHHHHJHHHDAGGGGGGGGGGGGGG",
"%&467g7gg9g943+;yzzBZZZZZZZZZGZBaaBZAAZZZAZZZZZZAAAAAAAAAAAAAAAA",
"%3SGSVSVSVSVVx;%qsyhlnnnzznnzzvkyykzzzzzzzzzzznnnnzzzzzznnzzzzzz",
"%4STJHHHHHHHJV5%,wqqshssshsshhjyrpshhshsssssssssssssssssssssjsss",
"+6GLJHHHHHHHHV5#,qqwsssjhsshshhsppykshhshhhhjssssjshhhhhsssjhsss",
"%6GTJHHHHHHHJV4#,wqwssjshhhjshky00yjhhhhhhhhjjjjjjhhhhjjjjjshjjj",
"%7DULHHHHHHHHV;&,qwyhjhhjhjjkhjt**thjjjjkkhhjjjjjhjjjjjjjjjjhhhh",
"+5DULHHHHHHHJV<#:,,,qqqqqqqqrqq,o+>qqqqqqqqqqqqqqqqqq8qqqqqqqqqw",
"%7DUJHHHHHHHHV5+oooo@@@@@@@@@@#+XX+#@#@@@@@@@@@@@@@@@@@@@@+@@@@@",
"%5DUJGHHHHHHJV4OX   X XX XX X XXXX XX X ....XX..........XX..X..X"
};
