/* XPM */
static char *_ceb21b88a81408189cbbb3db8de464aEk7AE0X6BuJldaB9[] = {
/* columns rows colors chars-per-pixel */
"64 64 57 1 ",
"  c #4A2612",
". c #4F2913",
"X c #502D19",
"o c #56321C",
"O c #56341E",
"+ c #56341F",
"@ c #553420",
"# c #573521",
"$ c #543523",
"% c #583723",
"& c #583724",
"* c #593A26",
"= c #5A3B27",
"- c #5E3B25",
"; c #5A3C28",
": c #5A3C29",
"> c #5B3C29",
", c #5B3D29",
"< c #5C402C",
"1 c #5C402D",
"2 c #5D412E",
"3 c #5E4330",
"4 c #554539",
"5 c #5F4E3F",
"6 c #654935",
"7 c #66513F",
"8 c #5C4D41",
"9 c #5D4E43",
"0 c #5E4F45",
"q c #5D5044",
"w c #5D5149",
"e c #5D5249",
"r c #675240",
"t c #655444",
"y c #635549",
"u c #63564A",
"i c #64574B",
"p c #61574F",
"a c #64584D",
"s c #655C55",
"d c #655D56",
"f c #685F56",
"g c #665F58",
"h c #666057",
"j c #686057",
"k c #696257",
"l c #676159",
"z c #686158",
"x c #696359",
"c c #68625A",
"v c #6C675F",
"b c #766F65",
"n c #767469",
"m c #868579",
"M c #86847B",
"N c #94928A",
"B c #94928B",
/* pixels */
"llll*****;;;3;3><3333333333<3<33<3<<,,;;;;rr;===================",
"llll@***;;;;;333<<33333333<3<3>33>>3,,=;;;rr====================",
"ll@@mmmmmmmmmmMMmmmmmmmmmmmmmmmmMmmmmmmmmmrrmmmmmmmmmmmmmmmmmmmm",
"ll@@mmmmmmmmmmmmmmmmmmmmmmmmmmmmmmmmmmmmmmr7mmmmmmmmmmmmmmmmmmmm",
"**BBmmmmmmmmmmmmmmmmmmmmmmmmmmmmmmmmmmmmmmrrmmmmmmmmmmmmmmmmmmmm",
"**BBmmmmmmmmmmmmmmmmmmmmmmmmmmmmmmmmmmmmmmrrmmmmmmmmmmmmmmmmmmmm",
";;BBmmmmmmmmmmmmmmmmmmmmmmmmmmmmmmmmmmmmmm;3mmmmmmmmmmmmmmmmmmmm",
";;BBmmmmmmmmmmmmmmmmmmmmmmmmmmmmmmmmmmmmmm<;mmMmmmmmmmmmmmmmmmmm",
";;BBmmmmmmmmmmBBBBBBBBBBBBBBBBBBBBBBBBBBBB;;BBBBBBBBBBBBBBBBBBBB",
";=BBmmmmmmmmmmBBBBBBBBBBBBBBBBBBBBBBBBBBBB<;BBBBBBBBBBBBBBBBBBBB",
";;BBmmmmmmmmmm..5559uuuuiiaaffjjzzzzlxzzxx..xxxxzvccczzxzzzccccc",
";;BBmmmmmmmmmm..57q5uuuuiiaaffjjzzzzxlxjxx..xxxxllcccccxzzcccccc",
";>BBmmmmmmmmmm..5559uuuuiiaaffjjzzzccczvxx..llcczxlxxczzcccccccc",
";>BBmmmmmmmmmm..5597uuuuiiaaffjjzzzzcczcxx..zhxzxlxlzcxccccccccc",
">>BBmmmmmmmmmm............................ll....................",
">>BBmmmmmmmmmm............................ld....................",
">>BBMmmmmmmmmm..0wwwdggggggggggggggggggggggggg00ddddgggggggggggg",
">>BBMmmmmmmmmm..wwwwlggggggggggggggggggggggggg00dddlgggggggggggg",
">>BBmmmmmmmmmm++wwwwgggggggggggggggggggggggggg00ddlhgggggggggggg",
">>BBmmmmmmmmmm++wwwwgggggggggggggggggggggggggg00dddlgggggggggggg",
">>BBBBBBBBBBBN++wwwwgggggggggggggggggggggggggg00lggggggggggggggg",
">*BBBBBBBBBBBN++wwwwgggggggggggggggggggggggggg00gggggggggggggggg",
">>%%66666666@+++wwwwgggggggggggggggggggggggggg$$gggggggggggggggg",
">>@*66666666++++wwwwgggggggggggggggggggggggggg$$gggggggggggggggg",
">>BBmmmmmmmmmm++wwwwgggggggghgggggdlgggggggggg$$gggggggggggggggg",
">>BBmmmmmmmmmm++wwwwgggggggghdggggldgggggggggg$$gggggggggggggggg",
">>BBmmmmmmmmmm++4444qqqq9q99999999999999$$$$$$$$$$$$888888888888",
">>BBmmmmmmmmmm++4444qqq0q999599999585989$$$$$$$$$$$$888888888888",
">>BBMmmmmmmmmm++ppppvvvvvvvvvvvvvvvvzvvvvvvvvvvvvvvvvvvvvvvvzvvv",
">>BBmmmmmmmmmm++ppppvvvvvvvvvvvvvvvvvvvvvvvvvvvvvvvvvvvvvvvvvvvv",
">>BBmmmmmmmmmm++wwwwggggdlggggggggggggllggggggggggggggggggggggll",
">>BBmmmmmmmmmm++wwwwggggldgggggggggggggggggggggggggggggggggggggl",
",,BBmmmmmmmmmm++wwwwgggggggggggggggggggggggggggggggggggggggggggg",
",;BBmmmmmmmmmm++wwwwgggggggggggggggggggggggggggggggggggggggggggg",
",>NBmmmmmmmmmm++wwwwgggggggggggggggggggggggggggggggggggggggggggg",
">>NNmmmmmmmmmm++wwwwgggggggggggggggggggggggggggggggggggggggggggg",
">>BBmmmmmmmmmm++wwwwgggggggggggggggggggggggggggggggggggggggggggg",
">>BBmmmmmmmmmm++wwwwgggggggggggggggggggggggggggggggggggggggggggg",
">>BBmmmmmmmmmm++wwwwgggggggggggggggggggggggggggggggggggggggggggg",
">>BBmmmmmmmmmm++wwwwgggggggggggggggggggggggggggggggggggggggggggg",
">>BBmmmmmmmmmm++wwwwgggggggggggggggggggggggggggggggggggggggggggg",
">>BBmmmmmmmmmm++wwwwgggggggggggggggggggggggggggggggggggggggggggg",
">>BBmmmmmmmmmm++wwwwggggggzdggggggggggddggggggddggggggdfgggggggg",
">>BBmmmmmmmmmm%+wwwwgggggggfggggggggggzfggggggzfggggggffgggggggg",
">>BBmmmmmmmmmmOOXXXX+oooooooooooggoooooo+Xoooooo++oooooooooo@ooo",
">>BBmmmmmmmmmm+OXXXXooooooooooo%gg+@oooo++ooooooX+oooooooooo+ooo",
">>BBmmmmmmmmmm%Ojkjjnnnnnnnnnnnn*-nnnnnnnnnnnnnnnnnnnnnnnnnnnnnn",
">>BBmmmmmmmmmmOOkkjjnnnnnnnnnnnn--nnnnnnnnnnnnnnnnnnnnnnnnnnnnnn",
"&%BBmmmmmmmmmm++kkkknnnnnnnnnnnnttnnnnnnnnnnnnnnnnnnnnnnnnnnnnnn",
"&%BBmmmmmmmmmm+okkkknnnnnnnnnnnnttnnnnnnnnnnnnnnnnnnnnnnnnnnnnnn",
"%%BBmmmmmmmmmm++kkkknnnnnnnnnnnnttnnnnnnnnnnnnnnnnnnnnnnnnnnnnnn",
"%%BBmmmMmmmmmM++kkkknnnnnnnnnnnnttnnnnnnnnnnnnnnnnnnnnnnnnnnnnnn",
"%%BBBBBBBBBBBB++zzjknnnnnnnnnnnnttnnnnnnnnnnnnnnnnnnnnnnnnnnnnnn",
"%%BBBBBBBBBBBB++zfkknnnnnnnnnnnnttnnnnnnnnnnnnnnnnnnnnnnnnnnnnnn",
"%&%%66666666++++bbbbMMMMmMMMMMMMttMMMMMMMMMMMMMmMMMMMMMMMMMMMMMM",
"%&%@66666666o+++bbbnMMmmmmMMMMMMttMMMMMMMMMMMMMmMMMMMMMMMMMMMMMM",
"&&BBmmmmmmmmmm+oeeeehhhhhhhhhhhhtthhhhhhhhhhhhhhhhhhhhhhffhhhhhh",
"&&BBmmmmmmmmmm++eeeehhhhhhhhhhhhttdlhhhhhhhhhhhhhhhhhhhhjdhhhhhh",
"&&NBmmmmmmmmmm%oeeeehhhhhhhhhhhhttgghhhhhhhhhhhhhhhhhhhhhhhhhhhh",
"&&NNmmmmmmmmmm++eeeehhhhhhhhhhhhttzdhhhhhhhhhhhhhhhhhhhhhhhhhhhh",
"&&BBmmmmmmmmmm++eeeehhhhhhhhhhhh..hhhhhhhhhhhhhhhhhhhhhhhhhhhhhh",
"&&BBmmmmmmmmmm+owweehhhhhhhhhhhh..hhhhhhhhhhhhhhhhhhhhhhhhhhhhhh",
"&&BBmmmmmmmmmm++    ............................................",
"&&BBmmmmmmmmmm++    ............................................"
};
