/* XPM */
static char *result[] = {
/* columns rows colors chars-per-pixel */
"32 32 71 1 ",
"  c #4A2612",
". c #4F2913",
"X c #502D19",
"o c #56321C",
"O c #56341E",
"+ c #56341F",
"@ c #553420",
"# c #573521",
"$ c #543523",
"% c #583723",
"& c #583724",
"* c #583824",
"= c #593A26",
"- c #5A3B27",
"; c #5E3B25",
": c #5A3C28",
"> c #5A3C29",
", c #5B3C29",
"< c #5A3D29",
"1 c #5B3D29",
"2 c #5C402C",
"3 c #5D402C",
"4 c #5C402D",
"5 c #5D412E",
"6 c #5E422F",
"7 c #5E4330",
"8 c #554539",
"9 c #5F4E3F",
"0 c #654935",
"q c #66513F",
"w c #5C4D41",
"e c #5F4F40",
"r c #5F4F41",
"t c #5D4D42",
"y c #5D4E42",
"u c #5D4E43",
"i c #5D4F43",
"p c #5E4F44",
"a c #5E4F45",
"s c #5F5041",
"d c #5D5044",
"f c #5D5149",
"g c #5D5249",
"h c #675240",
"j c #655444",
"k c #635549",
"l c #63564A",
"z c #64574B",
"x c #61574F",
"c c #64584D",
"v c #655C55",
"b c #655D56",
"n c #685F56",
"m c #665F58",
"M c #666057",
"N c #686057",
"B c #696257",
"V c #676159",
"C c #686158",
"Z c #686159",
"A c #686259",
"S c #696259",
"D c #696359",
"F c #68625A",
"G c #6C675F",
"H c #766F65",
"J c #767469",
"K c #868579",
"L c #86847B",
"P c #94928A",
"I c #94928B",
/* pixels */
"VV*=>>4467777555531-:h----------",
"V@KKKKKKKKKKKKKKKKKKKhKKKKKKKKKK",
"=IKKKKKKKKKKKKKKKKKKKqKKKKKKKKKK",
":IKKKKKKKKKKKKKKKKKKK2KKKKKKKKKK",
">PKKKKKIIIIIIIIIIIIII<IIIIIIIIII",
",IKKKKK.esklzcnNCZAAD.SSAAAAFFFF",
",IKKKKK.9rklzcnNCAAAD.SSAAAAFFFF",
",IKKKKK..............m..........",
",IKKKKK.ffmmmmmmmmmmmmmavmmmmmmm",
",IKKKKK+ffmmmmmmmmmmmmmabmmmmmmm",
",IIIIII+ffmmmmmmmmmmmmmpmmmmmmmm",
",#0000O+ffmmmmmmmmmmmmm$mmmmmmmm",
",IKKKKK+ffmmmmmmmmmmmmm$mmmmmmmm",
",IKKKKK+88ddiuyyyyyt$$$$$$wwwwww",
",IKKKKK+xxGGGGGGGGGGGGGGGGGGGGGG",
",IKKKKK+ffmmmmmmmmmmmmmmmmmmmmmm",
",IKKKKK+ffmmmmmmmmmmmmmmmmmmmmmm",
",IKKKKK+ffmmmmmmmmmmmmmmmmmmmmmm",
",IKKKKK+ffmmmmmmmmmmmmmmmmmmmmmm",
",IKKKKK+ffmmmmmmmmmmmmmmmmmmmmmm",
",IKKKKK+ffmmmmmmmmmmmmmmmmmmmmmm",
",IKKKKK+ffmmmmmmmmmmmmmmmmmmmmmm",
",IKKKKK+XXoooooomooooooooooooooo",
",IKKKKK+BBJJJJJJ;JJJJJJJJJJJJJJJ",
"%IKKKKK+BBJJJJJJjJJJJJJJJJJJJJJJ",
"%IKKKKK+BBJJJJJJjJJJJJJJJJJJJJJJ",
"%IIIIII+BBJJJJJJjJJJJJJJJJJJJJJJ",
"&#0000O+HHLLLLLLjLLLLLLLLLLLLLLL",
"&IKKKKK+ggMMMMMMjMMMMMMMMMMMMMMM",
"&IKKKKK+ggMMMMMMjMMMMMMMMMMMMMMM",
"&IKKKKK+ggMMMMMM.MMMMMMMMMMMMMMM",
"&IKKKKK+  ......................"
};
