/* XPM */
static char *ur_c[] = {
/* columns rows colors chars-per-pixel */
"64 64 66 1",
"  c #4D260F",
". c #4E2710",
"X c #4E2914",
"o c #512C16",
"O c #502E1A",
"+ c #52311E",
"@ c #543522",
"# c #573925",
"$ c #573C2C",
"% c #583723",
"& c #583925",
"* c #5A3D2A",
"= c #583F30",
"- c #5D402D",
"; c #5B4334",
": c #5B4638",
"> c #5E4B3D",
", c #614735",
"< c #624837",
"1 c #644C3A",
"2 c #66503E",
"3 c #5E4E42",
"4 c #5F5146",
"5 c #5F5248",
"6 c #604F40",
"7 c #615246",
"8 c #61544A",
"9 c #64594E",
"0 c #685040",
"q c #6B5947",
"w c #6B5C4D",
"e c #655D55",
"r c #665F58",
"t c #6B5E51",
"y c #666057",
"u c #666059",
"i c #6C6255",
"p c #69635B",
"a c #6D685F",
"s c #716355",
"d c #70675B",
"f c #736B5E",
"g c #78675A",
"h c #786D5F",
"j c #6B6760",
"k c #6E6960",
"l c #736E65",
"z c #786E60",
"x c #767469",
"c c #7A7264",
"v c #7C7569",
"b c #7B786D",
"n c #7E7B72",
"m c #81776B",
"M c #82796E",
"N c #857C72",
"B c #838077",
"V c #868579",
"C c #87887C",
"Z c #89857D",
"A c #8A897E",
"S c #8A8780",
"D c #8B8B81",
"F c #918F87",
"G c #919087",
"H c #929189",
/* pixels */
"&%&&%%&%&&&&&+&&&%%-11-+&&&++&&&&&&&&%&&%%%%&&%&%&&%+-++-++,qppp",
"11111111111111111111222111121111111111111111111111111121121179yy",
"ccccccccccccccmccccgqqgcccmcccccmzzzczccccczccccccccccccmmzg1>5p",
"VCVVVCVVAVVVCVVVVCCvwwbCCCVVAVVVVVCCCVCCCVCVCVVCVVCVVVVVVVVmw299",
"VCVVVCVVVVVVVVVVVCCmwwvCVVVVVVVVVVVVCVVVVVVVVVCVVAVVVVVVVVZVBz2;",
"VVVVBVBVVVVVVVVVVVVvqqvCVVVVVVVVVVVVVVVVVVVVVVVVVVVVVVVVVVVAHB2%",
"VCBVVVVVVVVVVVVVVVCc22cCVVVVVVVVVVVVVVVVVVVVVBCBVVVVVVVBVVVAHV2&",
"CCAAAACACCAACAAAAAAm22mSAAAAAAAVAVAACACCZAAAAAAAAAVVVVVVVNVAHN2&",
"GGGGGGGGAHGGGFFFHHHM60MHGGGGFFGGAHHHGGGGGFFFFFFFFFCBVVVNVVVAFN2%",
"SSSSSSSSAAZZSSSZSSSv<<vSSSSSSSSSAAAACAZZCZZZVVZNMMBVVVVVVVVAFN2%",
"llllllllclllllllllle*&ellllllzlllfzhdpdpddssitiq,2mVVVVVVVVAHN2*",
"prpiprpiippprpprrpp7@@7ppiirrepryyyi99999887>>>-O&hAVVVVVVVAHN2&",
"pippippippprpppppjr7@@7ppppprrrryyyy9999989771>;O*hCVVVVVVVAHN2&",
"88088788888877777753$$1877778480777741>>>1>:;;;$O-hCVVVVVVVAHN2&",
"@@@@@@@@@@@@@@@@@@@$>>$@@@@@@@@@+@@++++++@+++++X -hCVVVVVVVZHN0&",
"@@@@@@@@@@@@@@@@@@@=88=@@@@@@@@@%@@@@@%@@@@@@@+O -hCVVVVVNZAHN0&",
"77874844555544444458rr575444444455555555455554:$o-gVCVVVVVVAGN2&",
"rrprrrrrrrrruruurruurrrrrrrurrjrrrrrrrrrrrrrrr8:+-mAAAAAACAFHN2&",
"rrrrrrrrrrrrrurrrrrrrrrrrrrrrrrrrrrrrrrrrrrrrr8:+-mHHHGGFHHHHm2*",
"rrrrrrrrrrrrrrrrrrrrrrrrrrrrrrrrrrrrrrrrrrrrre5:O&gMBVVVNVZNNm<*",
"rrrrrrrrrrrrrrrrrrrrrrrrrrrrrrrrrrrrrrrrrrrrre5=+O&1qssssssq,-&*",
"rrrrrrrrrrrrrrrrrrrrrrrrrrrrrrrrrrrrrrrrrrrree3=Oo+,qttwwws0,*-*",
"rrrrrrrrrrrrrrrrrrrrrrrrrrrrreerrrrrrrrrrrrrue=@o&qcvvbmmvmmmm,%",
"rrrrrrrrrrrrrrrrrrrrrrrrrrrrrrrrrrrrrrrrrrrru9=O.-cCCVVCVCZZFN2%",
"rerrrrrrrrrrerrrrrrrerrrrrrrerrerrrrrrrrrrrru9=Oo&hAVVVVVVVAGB2%",
"ee9e9e99e88ee999eee8eee99e9eee9eeeeee8ee989583$OX-hCVVVVVVVAGN2&",
"558895763333333355758478444474774444453>=$=$$$@+X-hCVVVVVVBAHN0*",
"e999988744433367585588885885887845555553:======$o*hCVVVVVVVAHN2&",
"rrrurrrrrrre33eerrrrrrrrrurrrrerrrrrrrrre8e999e>+-gCVVVVVVVAHN2&",
"jjjjjjjjjjre44rjjjjjjkkkjjrjjjjjdjpjjjjpajpaaaa9+-hCVVVVVVVAHN2&",
"rruurrrrrrue33errrprrrrruuuurrjrrprpprrrprppypp7+*hCZVVVVVVZHN0&",
"rrrrrrrrrrre349rrrrrrrrrrrrrrrerrrrrrrrreeerrry7+-hCVVVNVVZAHN0&",
"rrrrrrrrrrre34errrererrrerrerrerrrrrrrrrrrerrrr4@*zNCVVVVBVAFN2%",
"rrrrrrrrrrr8545rrrrrrrrrrrrrrrrrrrrrrrrrrrrrrrr4@*lSVVVVVVVAFN2%",
"rrrrrrrrrrre55eerrrrrrrrrrrrrerrrrrrrrrrrrrrrrr4@*zZVVVVVVVAHN2*",
"rrrrrrrrrrre55errrrrrrerrrrrrrrrrrrrrrrrrrrrrru5@*hZVVVVVBVAHN2%",
"rrrrrrrrrrre55errrrrrrrrrrrrrrrrrrrrrrrrrrrrrur7@*hCVVVBVVVAHN2*",
"rrrerrrrrree53eerrrrrrrrrerrrrrrerrrrrrrrrrrrrr7@*hCVVVVVVVZHN2&",
"rrrrrrrrrrr833eurrreererrrrrrrrrrrrerrrrrrrrrrr7O*zCCCBVVVVZHN2&",
"rrrrrrrrrrr8::8rrrrrueurrrrerrrrrrrrrrerrrrrrrr7@*zCVBVVVVZAHN0&",
"rrrrrrrrerp9::8urrrrrrrryyyyerrrrrrerrrrrrrrrrr8+*hCVVVVNVVAHN2&",
"rrrrrrrrrer9:=9urrrrrrrryyyerrrrrrrrrrrrrrrrrrr8+*hCVVVVVVVAHN2&",
"rrrrrrrrypy9::5rjrrrrruuypyyrrurrrrrrrrrrrrrrrr7+-hCVVNCVVVAHN2&",
"555588857883==354558888855555559rr8478878888888:+-hCVVVVVVBAHN2*",
"&***$**&**##%@&***&*$***-#-#-#-;89;&$$***&*****@o-zAVVVVVNVAHN2%",
"--=-==-=--------***;*=-*-------:40,=-*-=-=---*-*o&hVVVVVVVVAHN2%",
"ssrdssssiiiiisiidsiiiissiiiitiiw<<9sssspssrpsps0+*hCVVVVVVZZHN0&",
"xxxxxxxxxbxxbxxxxbxxbxxxbxxxxxxf<0gxvxxxvxvxxxbr&-hVVVVVVVZAHN0&",
"xxxxxxxxxxxxxxxxxxxxxxxxxxxxxxxf7qkxxxxxxxxxxbxi&*gCCVVVVVVAFN2&",
"xxxxxxxxxxxxxxxxxxxxxxxxxxxxxxxkw9fxxxxxxxxxxxxt&-cAAAAAACAFHN2&",
"xxxxxxxxxxxxxxxxxxxxxxxxxxxxxxxfwqkxxxxxxxxxxxxi*-bHHHGGFHHHHm0*",
"xxxxxxxxxxxxxxxlxxxxxxxxxxxxxxxfw9axxxxxxxxxxxxi++gBBVVVNVZNNm1&",
"lxxxxlxxxxxxxxxxxxxxxxxxxxxxxxxjwwfxxxxxxxxxxxxi-o+1qgsssssq,***",
"bbbnbbxnxnxbxxbbbxxbxbxxxxbxbxbx9wlbbbbbxbbbbbbp*o+,qwtwwws0,***",
"NNBBnBBBBBBBBBBnVBnVVVVBBVBVVVBxwwxVVBBBBBnVVBVf*+qcmmvvmvmmmm<%",
"nnnnnnnnnnnnnnnnnnnnnnnbbnbnnnnxwwxnnnbnnnnnnnnd&-cAVVCCCVZZHN2%",
"kjkjaajjjjjjjaaapjjjjjjjjjjjaaay99pfkjkkaaaaaak9+-hCCVVVVVVAHB2%",
"yeyeyyyeuueeyyeeyyyyyyyeeeyeyyyeq79yyeeyeeeeeye4+&hCVVVCVVVAHN2%",
"yeeeeyyyrrreeeyeyyyyeyyeeyyyeyyeq8eyyeyeyyyyeeu5%-hVCVVNVVBAHN2*",
"yyyyyyyyuruuuyuuyyyyyyyyyyyyyyye>29yyyeyyyyyyuu5+-hCVVVVVVVAHN2&",
"yyyyyuyyyyyyyuuuyyyyyyyyyyyyyyy5--9yyyyyyyyyyyp7+*hCVVVVVVVAHN2*",
">55555555>555555565555555655555:O+:555555554575:+-gCVVVVVNVAHN2&",
"@@@@@@@@-+#@@#@@#@@@@@@@#@@@@@@+XX+@@@@@@#@@%@++o-hCVVVVVVZZHN2&",
"...X....  .     ............ X  XX..X.......     -hCVVVVVVZAHN2&"
};
