/* XPM */
static char *a4899066e81e436b9f2bb60794b5935fFiEqdzpCfxEx4sPq[] = {
/* columns rows colors chars-per-pixel */
"64 64 44 1 ",
"  c #4F2913",
". c #56321C",
"X c #543523",
"o c #5A3B27",
"O c #5E3B25",
"+ c #573D2D",
"@ c #573E2E",
"# c #5B3C29",
"$ c #5A3D29",
"% c #5C402C",
"& c #584132",
"* c #5B493C",
"= c #5C4B3E",
"- c #604D3E",
"; c #604E3F",
": c #66513F",
"> c #5D4D42",
", c #5D4F43",
"< c #5E4F45",
"1 c #5D5044",
"2 c #5E5146",
"3 c #5F5349",
"4 c #675240",
"5 c #655444",
"6 c #64574A",
"7 c #64574B",
"8 c #64584C",
"9 c #65594E",
"0 c #655D56",
"q c #665F58",
"w c #666057",
"e c #686157",
"r c #676159",
"t c #696158",
"y c #696359",
"u c #68625A",
"i c #69625A",
"p c #69635A",
"a c #6A635A",
"s c #6C675F",
"d c #767469",
"f c #868579",
"g c #86847B",
"h c #94928B",
/* pixels */
"oooooooooooooooooooo::oooooooooooooooooooooooooooooooooooooowrrr",
"oooooooooooooooo#$oo44oooooooooooooooooooOoooooooooooooooooowrrr",
"ffffffffffffffffffff44ffffffffffffffffffffffffffffffffffffffoorr",
"ffffffffffffffffffff44ffffffffffffffffffffffffffffffffffffffoorr",
"ffffffffffffffffffff44ffffffffffffffffffffffffffffffffffffffhh%o",
"ffffffffffffffffffff44ffffffffffffffffffffffffffffffffffffffhh$o",
"ffffffffffffffffffff$@ffffffffffffffffffffffffffffffffffffffhh$$",
"ffffffffffffffffffff%%ffffffffffffffffffffffffffffffffffffffhh#$",
"hhhhhhhhhhhhhhhhhhhh##hhhhhhhhhhhhhhhhhhhhhhhhhhhhffffffffffhh##",
"hhhhhhhhhhhhhhhhhhhh$#hhhhhhhhhhhhhhhhhhhhhhhhhhhhffffffffffhh##",
"aaaaaaaapppppqpqrprp  rraeaeeeepeeee999997771:--  ffffffffffhh##",
"aaaaaaaappppppppprpp  rreaaaqpraeeee79798777----  ffffffffffhh##",
"aaaaaaaaaqaqpppqppqp  aaaaapaeeeeeee99798866=:--  ffffffffffhh##",
"aaaaaaaaaaappppapppp  eepeaewraweeee99798888:===  ffffffffffhh##",
"                    ew                            ffffffffffhh##",
"                    qw                            ffffffffffhh##",
"qqqqqqqqqqqqqqqqqqqqqqqqqqqqqqqqqqqqqqqqqqqq0p<<  ffffffffffhh$$",
"qqqqqqqqqqqqqqqqqqqqqqqqqqqqqqqqqqqqqqqqqqqqq0<<  ffffffffffhh##",
"qqqqqqqqqqqqqqqqqqqqqqqqqqqqqqqqqqqqqqqqqqqqqq<<  hhhhhhhhhhhh##",
"qqqqqqqqqqqqqqqqqqqqqqqqqqqqqqqqqqqqqqqqqqqqqq<<  hhhhhhhhhhhh##",
"qqqqqqqqqqqqqqqqqqqqqqqqqqqqqqqqqqqqqqqqqqqqqq<<    :5555555  ##",
"qqqqqqqqqqqqqqqqqqqqqqqqqqqqqqqqqqqqqqqqqqqqqq<<    55555555  ##",
"qqqqqqqqqqqqqqqqqqqqqqqqqqqqqqqqqqqqqqqqqqqqqqXX  ffffffffffhh##",
"qqqqqqqqqqqqqqqqqqqqqqqqqqqqqqqqqqqqqqqqqqqqqqXX  ffffffffffhh##",
"qqqqqq00qqqqqqqqqqqqqqqqqqqqrqqqqq0r00rqqqqqqqXX  ffffffffffhh##",
"qqqqqq00qqqq0pqqqqqqqqqqqqqq0rqqqq0rrrqqqqqqqqXX  ffffffffffhh##",
"339733>**>**==*>11<<1111>1>1>1>>>>11>>>>XXXXXXXX  ffffffffffhh##",
"333<33*>****===*11><111111>1>>>>>>>>>>>>XXXXXXXX  ffffffffffhh##",
"ssssssssssss>*ssssssssssssssssssssssssssssssssss  ffffffffffhh##",
"ssssssssssss>*ssssssssssssssssssssssssssssssssss  ffffffffffhh##",
"qqqqqqqqqqqq**pqrqqqqqqqwqqqqqqqqqqqqqrwqqqqqqrq  ffffffffffhh##",
"qqqqqqqqqqqq*>0q0rqqqqqq0rqqqqqqqqqqqqqqqqqqqq0r  ffffffffffhh##",
"qqqqqqqqqqqq==qqqqqqqqqqqqqqqqqqqqqqqqqqqqqqqqqq  ffffffffffhh$$",
"qqqqqqqqqqqq==qqqqqqqqqqqqqqqqqqqqqqqqqqqqqqqqqq  ffffffffffhh##",
"qqqqqqqqqqqq13qqqqqqqqqqqqqqqqqqqqqqqqqqqqqqqqqq  ffffffffffhh##",
"qqqqqqqqqqqq31qqqqqqqqqqqqqqqqqqqqqqqqqqqqqqqqqq  ffffffffffhh##",
"qqqqqqqqqqqq33qqqqqqqqqqqqqqqqqqqqqqqqqqqqqqqqqq  ffffffffffhh##",
"qqqqqqqqqqqq33qqqqqqqqqqqqqqqqqqqqqqqqqqqqqqqqqq  ffffffffffhh##",
"qqqqqqqqqqqq&&qqqqqqqqqqqqqqqqqqqqqqqqqqqqqqqqqq  ffffffffffhh##",
"qqqqqqqqqqqq&&qqqqqqqqqqqqqqqqqqqqqqqqqqqqqqqqqq  ffffffffffhh##",
"qqqqqqqqqqqq++qqqqqqqqqqqqqqqqqqqqqqqqqqqqqqqqqq  ffffffffffhh##",
"qqqqqqqqqqqq++qqqqqqqqqqqqqqqqqqqqqqqqqqqqqqqqqq  ffffffffffhh##",
"qqqqqqqqqqqq++rqqqqqqqqqqqqrqqqqqqqqqqqqqqqqqqqq  ffffffffffhh##",
"qqqqqqqqqqqq++rqqqqqqqqqqqqrqqqqqqqqqqqqqqqqqqqq  ffffffffffhh##",
"................................qq..............  ffffffffffhh##",
"................................qq..............  ffffffffffhh##",
"ddddddddddddddddddddddddddddddddOOdddddddddddddd  ffffffffffhh##",
"ddddddddddddddddddddddddddddddddOOdddddddddddddd  ffffffffffhh##",
"dddddddddddddddddddddddddddddddd55dddddddddddddd  ffffffffffhh##",
"dddddddddddddddddddddddddddddddd55dddddddddddddd  ffffffffffhh##",
"dddddddddddddddddddddddddddddddd55dddddddddddddd  hhhhhhhhhhhh##",
"dddddddddddddddddddddddddddddddd55dddddddddddddd  hhhhhhhhhhhh##",
"dddddddddddddddddddddddddddddddd55dddddddddddddd    55555555  ##",
"dddddddddddddddddddddddddddddddd55dddddddddddddd    55555555  ##",
"gggggggggggggggggggggggggggggggg55gggggggggggggf  ffffffffffhh##",
"ggggggggggggggggggggggffgggggggg55gggggggggggggf  ffffffffffhh##",
"wwwwwwwwqqwwwwwwwwwwwwwwwwwwwwww55wwwwwwwwwwwwww  ffffffffffhh##",
"wwwwwwwwq0wwwwwwwwwwwwwwwwwwwwww55wwwwwwwwwwwwww  ffffffffffhh##",
"wwwwwwwwwwwwwwwwwwwwwwwwwwwwwwww55r0wwwwwwwwwwww  ffffffffffhh##",
"wwwwwwwwwwwwwwwwwwwwwwwwwwwwwwww550rwwwwwwwwwwww  ffffffffffhh##",
"wwwwwwwwwwwwwwwwwwwwwwwwwwwwwwww  wwwwwwwwwwww0r  ffffffffffhh##",
"wwwwwwwwwwwwwwwwwwwwwwwwwwwwwwww  wwwwwwwwwwwwr0  ffffffffffhh##",
"                                                  ffffffffffhh##",
"                                                  ffffffffffhh##"
};
