/* XPM */
static char *result[] = {
/* columns rows colors chars-per-pixel */
"32 32 6 1 ",
"  c #604800",
". c #CB9500",
"X c #F8BB0B",
"o c #F7D76E",
"O c white",
"+ c None",
/* pixels */
"++++++++++++++++++++++++++++++++",
"++++++++++++++++++++++++++++++++",
"++++++++++++++++++++++++++++++++",
"++++++++++++++++++++++++++++++++",
"++++++++++++++++++++++++++++++++",
"++++++++++++++++++++++++++++++++",
"+++++++++++++++  +++++++++++++++",
"++++++++++++++ XO ++++++++++++++",
"+++++++++++++ XXOo +++++++++++++",
"++++++++++++ XXXOOo ++++++++++++",
"+++++++++++ .XXooOOo +++++++++++",
"++++++++++ ..XooooOOo ++++++++++",
"+++++++++ XXXooooooOOO +++++++++",
"+++++++++ ...XoooooXXX +++++++++",
"++++++++++ ...XoooXXX ++++++++++",
"+++++++++++ ...XoXXX +++++++++++",
"++++++++++++ ...X.. ++++++++++++",
"+++++++++++++ ..X. +++++++++++++",
"++++++++++++++ .X ++++++++++++++",
"+++++++++++++++  +++++++++++++++",
"++++++++++++++++++++++++++++++++",
"++++++++++++++++++++++++++++++++",
"++++++++++++++++++++++++++++++++",
"++++++++++++++++++++++++++++++++",
"++++++++++++++++++++++++++++++++",
"++++++++++++++++++++++++++++++++",
"++++++++++++++++++++++++++++++++",
"++++++++++++++++++++++++++++++++",
"++++++++++++++++++++++++++++++++",
"++++++++++++++++++++++++++++++++",
"++++++++++++++++++++++++++++++++",
"++++++++++++++++++++++++++++++++"
};
