/* XPM */
static char *result[] = {
/* columns rows colors chars-per-pixel */
"32 32 46 1 ",
"  c #4E2F1B",
". c #502F1B",
"X c #4F311D",
"o c #50311D",
"O c #4E3420",
"+ c #533623",
"@ c #543825",
"# c #593A25",
"$ c #533D2C",
"% c #5B3E2A",
"& c #5E412D",
"* c #534A3E",
"= c #60442F",
"- c #614531",
"; c #634936",
": c #654D39",
"> c #68513E",
", c #5E5446",
"< c #605647",
"1 c #605748",
"2 c #635A4C",
"3 c #665D52",
"4 c #73654E",
"5 c #6B6354",
"6 c #6A6258",
"7 c #6F6858",
"8 c #736650",
"9 c #726A5A",
"0 c #786F5F",
"q c #77715E",
"w c #78725F",
"e c #777060",
"r c #7A7563",
"t c #7D7867",
"y c #7F7868",
"u c #837E6D",
"i c #86806F",
"p c #878272",
"a c #898474",
"s c #8C8779",
"d c #8E897A",
"f c #908C7E",
"g c #918D81",
"h c #939087",
"j c #96948B",
"k c None",
/* pixels */
"kkkkkkkkkkkkkkkkkkkkkkkkkkkkkkkk",
"kkkkkkkkkkkkkkkkkkkkkkkkkkkkkkkk",
"kkkkkkkkkkkkkk::::;;kkkkkkkkkkkk",
"kkkkkkkkkkk:>>aapau,;-kkkkkkkkkk",
"kkkkkkkkkk:08uaippua12&kkkkkkkkk",
"kkkkkkkkk;rrwdaaapau22&kkkkkkkkk",
"kkkkkkkk=0wudsiapppau22@kkkkkkkk",
"kkkkkkk-uwufsaaaaaaas22,%kkkkkkk",
"kkkkkk=ttygsdaiaaaapss,*,@kkkkkk",
"kkkkkk=88fssaaaaaasasyy,*$kkkkkk",
"kkkkkk-48gssdaaaapaspspg**$kkkkk",
"kkkkk=44fsssddddsaspssga**$kkkkk",
"kkkkk%4fsdsdsdddgppggssg**,Okkkk",
"kkkk%4fsdsddsdffgssgpgpg****$kkk",
"kkkk=4ufsdsssddfsggssah3,,**$kkk",
"kkk&4uuujssddfffgggshh22,,*,&kkk",
"kkk&uuuuijjhffffgghhqq2222<*&kkk",
"kk&uuuuuiiiijffjhhrrq23221<<&kkk",
"kk&tuuuuiiiijjhtrrreq222111,&kkk",
"kk&uutuuuiijtittrree222211<,Okkk",
"kk#75ituyuihttuttqqq,22,1,,,Okkk",
"kk@5558uiidttttttt6622,2,,,Okkkk",
"kkk@555557ttttttt6535,,,,,Xkkkkk",
"kkk@5557755ttttt666533,,,Xkkkkkk",
"kkkk@5555557ttuw636632,,Xkkkkkkk",
"kkkk@53555589997666322XXkkkkkkkk",
"kkkkk&33557777775362oOkkkkkkkkkk",
"kkkkkkoo+oo7755566Xokkkkkkkkkkkk",
"kkkkkkkkkkko.o.o okkkkkkkkkkkkkk",
"kkkkkkkkkkkkkkkkkkkkkkkkkkkkkkkk",
"kkkkkkkkkkkkkkkkkkkkkkkkkkkkkkkk",
"kkkkkkkkkkkkkkkkkkkkkkkkkkkkkkkk"
};
