/* XPM */
static char *result[] = {
/* columns rows colors chars-per-pixel */
"32 32 198 2 ",
"   c #4F2913",
".  c #4E2A14",
"X  c #4E2A15",
"o  c #4F2B15",
"O  c #502A13",
"+  c #502A15",
"@  c #512B15",
"#  c #512D17",
"$  c #502D18",
"%  c #512E19",
"&  c #522F1A",
"*  c #53301A",
"=  c #53311D",
"-  c #54321D",
";  c #54321E",
":  c #55331F",
">  c #54341F",
",  c #56341F",
"<  c #553420",
"1  c #553520",
"2  c #553620",
"3  c #573621",
"4  c #553622",
"5  c #573622",
"6  c #563722",
"7  c #583723",
"8  c #593824",
"9  c #583A25",
"0  c #593A25",
"q  c #5A3A27",
"w  c #5A3B27",
"e  c #5B3C27",
"r  c #5B3C28",
"t  c #5B3F2A",
"y  c #5C3E2B",
"u  c #5C402B",
"i  c #5D402C",
"p  c #5D402D",
"a  c #5E402D",
"s  c #5D412E",
"d  c #5E412E",
"f  c #5F432E",
"g  c #5F4330",
"h  c #5F4431",
"j  c #554939",
"k  c #60442F",
"l  c #5C5245",
"z  c #5D5345",
"x  c #5D5346",
"c  c #5E5346",
"v  c #5E5446",
"b  c #5E5447",
"n  c #5F5547",
"m  c #655C51",
"M  c #665C51",
"N  c #665D51",
"B  c #665D52",
"V  c #675E53",
"C  c #685E53",
"Z  c #685F53",
"A  c #685F54",
"S  c #696053",
"D  c #6A6053",
"F  c #696054",
"G  c #6A6054",
"H  c #6A6155",
"J  c #6B6155",
"K  c #6B6254",
"L  c #6B6255",
"P  c #6B6256",
"I  c #6B6257",
"U  c #6C6255",
"Y  c #6C6357",
"T  c #6D6357",
"R  c #6D6457",
"E  c #6E6457",
"W  c #6C6358",
"Q  c #6C6458",
"!  c #6D6458",
"~  c #6D6558",
"^  c #6D6559",
"/  c #6E6558",
"(  c #6F6558",
")  c #6F6659",
"_  c #736C5B",
"`  c #736C5C",
"'  c #746C5C",
"]  c #746D5C",
"[  c #746D5D",
"{  c #756D5D",
"}  c #756E5D",
"|  c #766E5D",
" . c #777163",
".. c #777164",
"X. c #787264",
"o. c #797364",
"O. c #7A7366",
"+. c #7B7366",
"@. c #7B7367",
"#. c #7B7466",
"$. c #7B7467",
"%. c #7C7467",
"&. c #7D7467",
"*. c #7C7567",
"=. c #7D7567",
"-. c #7E7767",
";. c #7B7668",
":. c #7C7468",
">. c #7C7568",
",. c #7D7568",
"<. c #7C7668",
"1. c #7D7668",
"2. c #7C7768",
"3. c #7D7669",
"4. c #7C7769",
"5. c #7E7768",
"6. c #7E7769",
"7. c #7F7769",
"8. c #7E776A",
"9. c #7F776A",
"0. c #7D7869",
"q. c #7F7868",
"w. c #7F7869",
"e. c #7E786A",
"r. c #7F786A",
"t. c #7F786B",
"y. c #7E796B",
"u. c #80796B",
"i. c #817A6B",
"p. c #817A6C",
"a. c #827B6C",
"s. c #827B6D",
"d. c #837B6D",
"f. c #827B6E",
"g. c #817C6C",
"h. c #827D6C",
"j. c #827C6D",
"k. c #837C6D",
"l. c #827D6D",
"z. c #837D6D",
"x. c #837E6D",
"c. c #837C6F",
"v. c #837E6E",
"b. c #847E6E",
"n. c #847F6E",
"m. c #857F6E",
"M. c #857F6F",
"N. c #847E70",
"B. c #85806F",
"V. c #86806F",
"C. c #86816F",
"Z. c #868270",
"A. c #888374",
"S. c #898474",
"D. c #8A8575",
"F. c #8A8576",
"G. c #8B8576",
"H. c #8A8577",
"J. c #8B8676",
"K. c #8B8677",
"L. c #8C8677",
"P. c #8C8777",
"I. c #8B8678",
"U. c #8B8778",
"Y. c #8C8778",
"T. c #8C8779",
"R. c #8C8878",
"E. c #8D8878",
"W. c #8D8879",
"Q. c #8D8979",
"!. c #8E8879",
"~. c #8E8979",
"^. c #8F8979",
"/. c #8D887A",
"(. c #8E887A",
"). c #8E897A",
"_. c #8F8A7B",
"`. c #8E8A7E",
"'. c #8F8A7E",
"]. c #8F8B7E",
"[. c #908B7B",
"{. c #918B7B",
"}. c #908A7C",
"|. c #908B7C",
" X c #8F8C81",
".X c #938F83",
"XX c #918E84",
"oX c #928F84",
"OX c #949084",
"+X c #949184",
"@X c #959185",
"#X c #969285",
"$X c #959186",
"%X c #959286",
"&X c #99978D",
"*X c #9B988E",
"=X c #9B988F",
"-X c None",
/* pixels */
"-X-X-X-X-X-X-X-X-X-X-X-X-X-X-X-X-X-X-X-X-X-X-X-X-X-X-X-X-X-X-X-X",
"-X-X-X-X-X-X-X-X-X-X-X-X-X-X-X-X-X-X-X-X-X-X-X-X-X-X-X-X-X-X-X-X",
"-X-X-X-X-X-X-X-X-X-X-X-X-X-X-X-X-X-X-X-X-X-X-X-X-X-X-X-X-X-X-X-X",
"-X-X-X-X-X-X-X-X-X-X-X-X-X-X-X-X-X-X-X-X-X-X-X-X-X-X-X-X-X-X-X-X",
"-X-X-X-X-X-X-X-X-X-X-X-Xs a i y r w -X-X-X-X-X-X-X-X-X-X-X-X-X-X",
"-X-X-X-X-X-X-X-X-X-X-Xg ! ^ W Q W Y q -X-X-X-X-X-X-X-X-X-X-X-X-X",
"-X-X-X-X-X-X-X-X-X-Xh ! ) N.k.d.~ W I 9 8 -X-X-X-X-X-X-X-X-X-X-X",
"-X-X-X-X-X-X-X-X-Xk ! / j.k.k.k.i.! Y P A 3 -X-X-X-X-X-X-X-X-X-X",
"-X-X-X-X-X-X-Xd f H q.a.s.s.s.p.i.5.r.P F V 1 -X-X-X-X-X-X-X-X-X",
"-X-X-X-X-X-Xp 8.r.r.w.f.c.d.d.a.r.-.=.*.F Z V 2 -X-X-X-X-X-X-X-X",
"-X-X-X-X-Xu 3.9.r.t.t.F.G.J.J.u.r.1.*.%.+.Z C b , : -X-X-X-X-X-X",
"-X-X-X-Xt >.3.6.6.t.D.F.J.K.P.P.7.1.&.+.+.x.Z b v c > -X-X-X-X-X",
"-X-X-Xe #.>.,.1.8.F.F.J.P.E.Y.P..XB.B.n.n.x.x.b v c x 1 -X-X-X-X",
"-X-X0 O.$.%.:.1.3.F.L.P.!.~.^.(.$XV.B.M.n.v.x.l.v x j j 4 -X-X-X",
"-X-X7 #.$.$.$.1.].K.I.E.!._.{.|.%XZ.B.m.n.v.x.l.h.j j j 6 -X-X-X",
"-X-X5 ) @.@.$.'.K.I.Y.E.(._.{.}.@XC.B.m.n.x.x.h.h.g.j j 6 -X-X-X",
"-X-X, / ( @.`.H.P.Y.W.).).[.[.*XB.B.B.n.b.x.l.h.g.g.j j 3 -X-X-X",
"-X-X- R E T `.K.Y.W.W./.&X&X=X#XB.M.n.n.x.x.h.h.g.A.z z < -X-X-X",
"-X-X-X* L U J  XXXoXoXoX} } | +XOXn.n.x.x.l.h.g.A.n z l ; -X-X-X",
"-X-X-X-X# K G G ` ] ] [ [ { } } } ).Q.x.z.h.S.A.N z l l = -X-X-X",
"-X-X-X-X-X@ D S ` ` ] ] ] ] ] ] ] ] e.T.R.S.B N M m l & -X-X-X-X",
"-X-X-X-X-X-Xo D _ ` ` ` ' ] ] ] ] 4.4.o.U.B N N M m % -X-X-X-X-X",
"-X-X-X-X-X-X-X  O O ` ` ` ` ` ` y.2.2.X...B N m m $ -X-X-X-X-X-X",
"-X-X-X-X-X-X-X-X-X-XO O O ` _ 0.2.<.......N M m + -X-X-X-X-X-X-X",
"-X-X-X-X-X-X-X-X-X-X-X-X-X      ;.;... . .m . X -X-X-X-X-X-X-X-X",
"-X-X-X-X-X-X-X-X-X-X-X-X-X-X-X-X          . -X-X-X-X-X-X-X-X-X-X",
"-X-X-X-X-X-X-X-X-X-X-X-X-X-X-X-X-X-X-X-X-X-X-X-X-X-X-X-X-X-X-X-X",
"-X-X-X-X-X-X-X-X-X-X-X-X-X-X-X-X-X-X-X-X-X-X-X-X-X-X-X-X-X-X-X-X",
"-X-X-X-X-X-X-X-X-X-X-X-X-X-X-X-X-X-X-X-X-X-X-X-X-X-X-X-X-X-X-X-X",
"-X-X-X-X-X-X-X-X-X-X-X-X-X-X-X-X-X-X-X-X-X-X-X-X-X-X-X-X-X-X-X-X",
"-X-X-X-X-X-X-X-X-X-X-X-X-X-X-X-X-X-X-X-X-X-X-X-X-X-X-X-X-X-X-X-X",
"-X-X-X-X-X-X-X-X-X-X-X-X-X-X-X-X-X-X-X-X-X-X-X-X-X-X-X-X-X-X-X-X"
};
