/* XPM */
static char *f2[] = {
/* columns rows colors chars-per-pixel */
"64 64 4 1",
"  c #656C17",
". c #72751B",
"X c #787B21",
"o c #7F8226",
/* pixels */
"................................................................",
"................................................................",
"................................................................",
"................................................................",
"................................................................",
"................................................................",
"..........................XXoo..................................",
"..........................XXoo..................................",
"............................oooo................................",
"............................oooo................................",
"............................XXXXXX..............................",
"............................XXXXXX..............................",
"............................  XXXX  XXXXoooo....................",
"............................  XXXX  XXXXoooo....................",
"..............................    XXXXXX........................",
"..............................    XXXXXX........................",
"..................................XXXX  ........................",
"..................................XXXX  ........................",
"..................................XX  ..........................",
"..................................XX  ..........................",
"................................................................",
"................................................................",
"................................................................",
"................................................................",
"................................................................",
"................................................................",
"......................................................oo........",
"......................................................oo........",
"....................................................oo..........",
"....................................................oo..........",
"..................................................XXXX..........",
"..................................................XXXX..........",
"..................................................XXXX  ........",
"..................................................XXXX  ........",
"..................................................    XXoo......",
"..................................................    XXoo......",
"......................................................XXXX......",
"......................................................XXXX......",
"......................................................    ......",
"......................................................    ......",
"................................................................",
"................................................................",
"............oooo..........oo....................................",
"............oooo..........oo....................................",
"..............ooXXXX..XXoo......................................",
"..............ooXXXX..XXoo......................................",
"........XXoooo  XX  XXXX  ......................................",
"........XXoooo  XX  XXXX  ......................................",
"..........ooXXXX    XXXX  ......................................",
"..........ooXXXX    XXXX  ......................................",
"..........  XXXX....XX  ........................................",
"..........  XXXX....XX  ........................................",
"............  XX................................................",
"............  XX................................................",
"................................................................",
"................................................................",
"................................................................",
"................................................................",
"................................................................",
"................................................................",
"................................................................",
"................................................................",
"................................................................",
"................................................................"
};
