/* XPM */
static char *result[] = {
/* columns rows colors chars-per-pixel */
"32 32 8 1 ",
"  c #636917",
". c #656C17",
"X c #72751B",
"o c #787B21",
"O c #7F8226",
"+ c #A2814F",
"@ c #9CA8AD",
"# c #B3B0A9",
/* pixels */
"XXXXXXXXXXXXXXXXXXXXXXXXXXXXXXXX",
"XXXXXXXXXXXXXXXXXXXXXXXXXXXXXXXX",
"XXXXXXXXXXXXXXXXXXXXXXXXXXXXXXXX",
"XXXXXXXXXXXXXXXXXXXXXXXXXXXXXXXX",
"XXXXXXXXXXXXXXXXXXXXXXXXXXXXXXXX",
"XXXXXXXXXXXXXXXXXXXXXXXXXXXXXXXX",
"XXXXXXXXXXXXXXXXXXXXXXXXXXXXXXXX",
"XXXXXXXXXXXXXXXXXXXXXXXXXXXXXXXX",
"XXXXXXXXXXXXXXXXXXXXXXXXXXXXXXXX",
"XXXXXXXXXXXXXXXXXXXXXXXXXXXXXXXX",
"XXXXXXXXXXXXXXXXXXXXXXXXXXXXXXXX",
"XXXXXXXXXXXXXXXXXXXXXXXXXXXXXXXX",
"XXXXXXXXXXXXXXXXXXXXXXXXXXXXXXXX",
"XXXXXXXXXXXXXXXXXXXXXXXXXXXXXXXX",
"XXXXXXXXXXXXXXXXXXXXXXXXXXXXXXXX",
"XXXXXXXXXXXXooXXXXXXXXXXXXXXXXXX",
"XXXXXXXXXXXOoXXXXXXXXXXXXXXXXXXX",
"XXXXXXXXXXoo.XXXXXXXXXXXXXXXXXXX",
"XXXXXXOOoXoo.XXXXXXXXXXXXXXXXXXX",
"XXXXXXXOoo.o.XXXXXXXXXXXXXXXXXXX",
"XXXXXXX.oo..XXXXXXXXXXXXXXXXXXXX",
"XXXXXXXX..XXXXXXXXXXXXXXXXXOXXXX",
"XXXXXXXXXXXXXXXXXXXXoOOXXXOXXXXX",
"XXXXXXXXXXXXXXXXXXXXXO@@XOOXXXXX",
"XXXXXXXXXXXXXXXXXXXXX@++@ooXXXXX",
"XXXXXXXXXXXXXXXXXXXXX @@ ##XXXXX",
"XXXXXXXXXXXXXXXXXXXXXX  X+#XXXXX",
"XXXXXXXXXXXXXXXXXXXXXXXXX  XXXXX",
"XXXXXXXXXXXXXXXXXXXXXXXXXXXXXXXX",
"XXXXXXXXXXXXXXXXXXXXXXXXXXXXXXXX",
"XXXXXXXXXXXXXXXXXXXXXXXXXXXXXXXX",
"XXXXXXXXXXXXXXXXXXXXXXXXXXXXXXXX"
};
