/* XPM */
static char *result[] = {
/* columns rows colors chars-per-pixel */
"32 64 226 2 ",
"   c #4B2511",
".  c #4C2611",
"X  c #4D2712",
"o  c #4D2713",
"O  c #4E2812",
"+  c #4F2913",
"@  c #4F2B17",
"#  c #502A15",
"$  c #502C16",
"%  c #502D18",
"&  c #512D18",
"*  c #512E19",
"=  c #522E19",
"-  c #512E1A",
";  c #512F1B",
":  c #522E1A",
">  c #522F1A",
",  c #4F311E",
"<  c #53301A",
"1  c #52301C",
"2  c #52301D",
"3  c #52311D",
"4  c #53321E",
"5  c #54321D",
"6  c #55321D",
"7  c #56321C",
"8  c #54321E",
"9  c #54331F",
"0  c #56331E",
"q  c #55341F",
"w  c #4F3625",
"e  c #4F3626",
"r  c #533320",
"t  c #543421",
"y  c #563521",
"u  c #543625",
"i  c #573925",
"p  c #593A26",
"a  c #593B27",
"s  c #5A3B27",
"d  c #563B2B",
"f  c #573D2E",
"g  c #573E2F",
"h  c #5A402E",
"j  c #5B4130",
"k  c #5B4230",
"l  c #5B4231",
"z  c #584132",
"x  c #5C4330",
"c  c #5C4332",
"v  c #5D4432",
"b  c #594435",
"n  c #594436",
"m  c #594537",
"M  c #5A4436",
"N  c #5A4536",
"B  c #5A4537",
"V  c #5F4735",
"C  c #5A4739",
"Z  c #5B483B",
"A  c #5B493C",
"S  c #5B4A3D",
"D  c #5C4A3E",
"F  c #644E3C",
"G  c #5C4C40",
"H  c #5D4D42",
"J  c #5D4E42",
"K  c #5E5146",
"L  c #5C5247",
"P  c #5D5349",
"I  c #5E5349",
"U  c #5F5349",
"Y  c #5E5449",
"T  c #5D544A",
"R  c #5E544A",
"E  c #5E554A",
"W  c #5F554A",
"Q  c #5E554B",
"!  c #5F554B",
"~  c #5E554C",
"^  c #5F554C",
"/  c #5E564C",
"(  c #5F564D",
")  c #645141",
"_  c #675341",
"`  c #675443",
"'  c #655444",
"]  c #695645",
"[  c #655E55",
"{  c #655F55",
"}  c #655F56",
"|  c #655F57",
" . c #665F56",
".. c #665F57",
"X. c #665F58",
"o. c #666057",
"O. c #666058",
"+. c #676058",
"@. c #666158",
"#. c #676158",
"$. c #676159",
"%. c #676258",
"&. c #676259",
"*. c #686159",
"=. c #686259",
"-. c #686359",
";. c #68625A",
":. c #69625A",
">. c #68635A",
",. c #69635A",
"<. c #69635B",
"1. c #6A635B",
"2. c #68645A",
"3. c #69645B",
"4. c #6A645B",
"5. c #69645C",
"6. c #6A645C",
"7. c #6B645C",
"8. c #6A655C",
"9. c #6B655C",
"0. c #6A655D",
"q. c #6B655D",
"w. c #6A665D",
"e. c #6B665D",
"r. c #6B665E",
"t. c #6B675E",
"y. c #6C665D",
"u. c #6C665E",
"i. c #6C675E",
"p. c #6C675F",
"a. c #6D675F",
"s. c #6C685C",
"d. c #6D685C",
"f. c #6D685D",
"g. c #6C695D",
"h. c #6D695D",
"j. c #6C685E",
"k. c #6D695E",
"l. c #6C685F",
"z. c #6D685F",
"x. c #6D695F",
"c. c #6E695E",
"v. c #6D6A5F",
"b. c #6E6A5E",
"n. c #6E6A5F",
"m. c #6F6A5F",
"M. c #6E6B5F",
"N. c #6F6B5F",
"B. c #6D6860",
"V. c #6D6960",
"C. c #6E6860",
"Z. c #6E6960",
"A. c #6D6A60",
"S. c #6E6A60",
"D. c #6F6B60",
"F. c #6E6A61",
"G. c #6F6A61",
"H. c #6F6B61",
"J. c #6F6A62",
"K. c #6F6C60",
"L. c #6F6C61",
"P. c #6F6C62",
"I. c #706B60",
"U. c #706A62",
"Y. c #706B62",
"T. c #706B63",
"R. c #716B63",
"E. c #706C60",
"W. c #706C61",
"Q. c #706D61",
"!. c #706C62",
"~. c #706D62",
"^. c #706C63",
"/. c #716C63",
"(. c #716E62",
"). c #726E62",
"_. c #726F63",
"`. c #736F63",
"'. c #737064",
"]. c #737065",
"[. c #737166",
"{. c #747166",
"}. c #747266",
"|. c #757266",
" X c #757367",
".X c #757368",
"XX c #767368",
"oX c #76736B",
"OX c #767469",
"+X c #77756A",
"@X c #78756A",
"#X c #78766A",
"$X c #79766A",
"%X c #78766B",
"&X c #79766B",
"*X c #79776C",
"=X c #7A776C",
"-X c #7F7C74",
";X c #807D75",
":X c #807E76",
">X c #838177",
",X c #838178",
"<X c #848179",
"1X c #848278",
"2X c #85837B",
"3X c #86837B",
"4X c #868579",
"5X c #86847B",
"6X c #87857C",
"7X c #89877E",
"8X c #8C8A81",
"9X c #8D8B83",
"0X c #8E8C84",
"qX c #908E86",
"wX c #918F87",
"eX c #918F88",
"rX c #929088",
"tX c #939189",
"yX c #93918A",
"uX c #93928A",
"iX c #94928A",
"pX c #94928B",
"aX c #99978F",
"sX c #9A9891",
"dX c #9C9A92",
"fX c None",
/* pixels */
"0 pX4X4X4X4X4Xq < 5 a p p p s s s s s s s fXs s s s s s s s s s ",
"0 sX4X4X4X4X4X4X4X4X4X4X4X4X4X4X4X4X4X4X4XF 4X4X4X4X4X4X4X4X4X4X",
"6 sX4X4X4X4X4X4X4X4X4X4X4X4X4X4X4X4X4X4X4X_ 4X4X4X4X4X4X4X4X4X4X",
"6 sX4X4X4X4X4X4X4X4X4X4X4X4X4X4X4X4X4X4X4X] 4X4X4X4X4X4X4X4X4X4X",
"+ 3XsXdXdXdXdXpXpXuXyXyXtXyXyXtXtXtXiXaXaX` aXaXaXpXrXqXqXqXwXeX",
"O 3XH.F.S.S.S.S.J.Y.Y.U.T.R./././.~././.!.k Y.Y.Y.Y.Y.Y.H.G.S.S.",
"O 2XZ.Z.x.x.x.x.A.S.S.Z.F.G.G.G.H.G.H.L.P.c H.H.H.H.H.G.G.S.Z.x.",
"O <Xy.j.j.j.a.a.z.z.z.z.x.Z.v.S.S.F.G.G.G.c G.G.G.S.S.Z.Z.Z.x.x.",
"O :Xw.e.y.9.u.u.i.a.a.a.a.z.z.x.V.Z.F.G.S.l Z.S.Z.Z.Z.Z.Z.Z.x.z.",
"O ;X6.6.6.7.9.q.e.e.i.u.u.u.i.a.a.z.z.z.z.j x.Z.Z.Z.V.C.l.j.j.i.",
"O -X2.>.>.<.1.4.8.0.w.0.q.q.0.q.r.r.r.u.u.h i.z.z.a.i.i.j.j.i.i.",
"O -X=.=.-.>.>.1.3.6.5.6.3.5.6.6.6.6.q.q.q.t e.u.u.u.u.e.e.e.e.8.",
"O oX#.#.=.-.>.;.:.3.3.3.3.<.3.3.3.3.3.3.3.4 3.6.6.8.8.8.8.8.8.8.",
"X oX .o.#.%.&.;.:.:.,.<.<.<.<.<.<.<.3.3.3.4 3.3.3.3.3.3.3.3.3.3.",
". oXo. .o.#.#.$.*.*.;.;.;.;.;.;.;.;.;.;.>.- ;.;.;.;.>.<.<.<.<.<.",
". oX}  . ...o.@.#.#.%.&.&.&.&.$.$.$.$.$.$.@ $.$.&.$.&.&.&.&.&.$.",
"O oX[ }  . .o.o.O.+.#.$.$.$.$.$.$.$.$.$.$.o $.$.$.$.$.$.$.$.$.$.",
"fX+ [ {  . ...o.O.+.#.$.$.$.$.$.$.$.$.$.$.+ $.$.$.$.$.$.$.$.$.$.",
"fXfX.                                 . X P + + + + + + + + + + ",
"fXfX+ =Xs.s.s.s.d.d.d.+ ~ Q Q Q E R I R Y P P , L L L L L L L L ",
"fXfX+ =Xs.s.s.s.s.s.d.+ ~ Q Q Q E R R R R P P , P L L L L L L L ",
"fXfX+ =Xs.s.s.s.s.s.d.+ / ^ ! ! E R R R R T P w P L L L L L L L ",
"fXfX+ =Xs.s.s.s.s.s.s.+ / ^ ! Q W R R R R T P w L L L L L L L L ",
"fXfX+ =Xs.g.g.g.g.g.g.+ / ~ ^ ! W R R R R T T e P L L L L L L L ",
"fXfX# =Xf.f.h.h.h.h.h.+ ( ( ^ ^ ! R R R R T T e P L L L L L L L ",
"fXfX$ =Xf.f.f.h.h.h.h.+ ^.| | | | | | | | | | B $.$.$.$.$.$.$.$.",
"fXfX& =Xh.h.h.f.c.c.b.+ ^.| | | | | | | | | | C $.$.$.$.$.$.$.$.",
"fXfX= =Xh.h.h.c.c.c.b.b.+ 1 3 b b b b b M N N N N K K K K K K K ",
"fXfX= =Xk.k.k.c.c.c.b.+ ^.^.^.^.z.z.z.z.z.z.z.z.z.z.z.z.z.z.z.z.",
"fXfX: =Xc.b.b.b.b.b.b.+ ^.$.$.$.$.$.$.$.$.$.$.$.$.$.$.$.$.$.$.$.",
"fXfX> =Xn.n.n.b.b.n.m.* ^.$.$.$.$.$.$.$.$.$.$.$.$.$.$.$.$.$.$.$.",
"fXfX> =XN.N.M.N.N.N.N.% ^.$.$.$.$.$.$.$.$.$.$.$.$.$.$.$.$.$.$.$.",
"fXfX> =XN.N.N.N.N.N.N.+ ^.$.$.$.$.$.$.$.$.$.$.$.$.$.$.$.$.$.$.$.",
"fXfX> =XN.N.N.N.N.N.N.+ ^.$.$.$.$.$.$.$.$.$.$.$.$.$.$.$.$.$.$.$.",
"fXfX> =XN.N.N.N.N.N.N.+ ^.$.$.$.$.$.$.$.$.$.$.$.$.$.$.$.$.$.$.$.",
"fXfX> =XD.D.D.K.K.K.I.+ ^.$.$.$.$.$.$.$.$.$.$.$.$.$.$.$.$.$.$.$.",
"fXfX> =XE.K.L.W.Q.Q.Q.E.; ; 2 r H H H J J J m f d d d G S A A Z ",
"fXfX> =X=X=X=X=X=X=X=X+ B.r.t.i.i.i.p.p.p.p.p.p.u p.p.p.p.p.5.5.",
"fXfX8 ) V v v x i 9 9 & z.X.X.X.X.X.X.X.X.X.X.X.u X.X.X.X.X.X.X.",
"fXfXy ,X).).).).).).).+ ^.X.X.X.X.X.X.X.X.X.X.X.D X.X.X.X.X.X.X.",
"fXfXy 1X).).).).).(.(.+ ^.X.X.X.X.X.X.X.X.X.X.X.U X.X.X.X.X.X.X.",
"fXfXy 1X).).).).).).).+ ^.X.X.X.X.X.X.X.X.X.X.X.U X.X.X.X.X.X.X.",
"fXfXy >X`._._._._._.`.+ ^.X.X.X.X.X.X.X.X.X.X.X.U X.X.X.X.X.X.X.",
"fXfXy >X].].].'.'.'.'.+ ^.X.X.X.X.X.X.X.X.X.X.X.U X.X.X.X.X.X.X.",
"fXfXy >X{.{.{.{.[.[.].+ ^.X.X.X.X.X.X.X.X.X.X.X.U X.X.X.X.X.X.X.",
"fXfXy ,X|.}.|.|.|.}.{.{.O ; * g z n U U U U U U U U U U U U U U ",
"fXfXy ,X X|.|.|.|. X X+ p.p.p.p.p.p.p.p.p.p.p.p.p.p.p.p.p.p.p.p.",
"fXfXy 1XXX.X.X.X X XXX+ ^.X.X.X.X.X.X.X.X.X.X.X.X.X.X.X.X.X.X.X.",
"fXfXy ,XOXOXOXOXXXXXXX+ ^.X.X.X.X.X.X.X.X.X.X.X.X.X.X.X.X.X.X.X.",
"fXfXy 5X+X+X+X+XOXOXOX+ ^.X.X.X.X.X.X.X.X.X.X.X.X.X.X.X.X.X.X.X.",
"fXfXy 5X+X+X+X+X+X+XOX+ ^.X.X.X.X.X.X.X.X.X.X.X.X.X.X.X.X.X.X.X.",
"fXfXy 5X+X+X+X+X+X+XOX+ ^.X.X.X.X.X.X.X.X.X.X.X.X.X.X.X.X.X.X.X.",
"fXfXy 5X@X@X@X@X@X@X@X+ ^.X.X.X.X.X.X.X.X.X.X.X.X.X.X.X.X.X.X.X.",
"fXfXy 5X%X&X&X$X%X%X#X+ X.X.X.X.X.X.X.X.X.X.X.X.X.X.X.X.X.X.X.X.",
"fXfXy 8X*X*X*X*X*X%X%X%X7 7 7 7 7 7 7 7 7 X.7 7 7 7 7 7 7 7 7 7 ",
"fXfXy 8X*X*X*X*X*X%X%X%X%X%X+X+X+X+XOXOXOX+ OXOXOXOXOXOXOXOXOXOX",
"fXfXy 8X*X*X*X*X*X*X%X%X%X%X+X+X+X+XOXOXOX' OXOXOXOXOXOXOXOXOXOX",
"fXfXy wX*X*X*X*X*X*X%X%X%X%X+X+X+X+XOXOXOX' OXOXOXOXOXOXOXOXOXOX",
"fXfXy qX*X*X*X*X*X%X%X%X%X%X+X+X+X+XOXOXOX' OXOXOXOXOXOXOXOXOXOX",
"fXfXy qX0X0X0X9X7X6X5X5X5X5X5X5X5X5X5X5X5X' 5X5X5X5X5X5X5X5X5X5X",
"fXfX+ G.o.o.o.o.o.o.o.o.o.o.o.o.o.o.o.o.o.' o.o.o.o.o.o.o.o.o.o.",
"fXfX+ G.o.o.o.o.o.o.o.o.o.o.o.o.o.o.o.o.o.' o.o.o.o.o.o.o.o.o.o.",
"fXfX+ T.o.o.o.o.+.o.o.o.o.o.o.o.o.o.o.} o.+ o.o.o.o.o.o.o.o.o.o.",
"fXfXfX+ + + + + + + + + + + + + + + + + + + + + + + + + + + + + "
};
