/* XPM */
static char *result[] = {
/* columns rows colors chars-per-pixel */
"32 64 142 2 ",
"   c #4E2812",
".  c #4F2913",
"X  c #502C16",
"o  c #512D18",
"O  c #53321E",
"+  c #56321C",
"@  c #543623",
"#  c #543624",
"$  c #543725",
"%  c #553725",
"&  c #553826",
"*  c #573A27",
"=  c #5A3B27",
"-  c #573B28",
";  c #573B29",
":  c #563B2A",
">  c #563B2B",
",  c #563C2C",
"<  c #573D2D",
"1  c #5B3C29",
"2  c #583F2D",
"3  c #5B4231",
"4  c #584132",
"5  c #604734",
"6  c #634D3C",
"7  c #5C4D41",
"8  c #5D4D42",
"9  c #5D5248",
"0  c #5D5348",
"q  c #5E5348",
"w  c #5E5349",
"e  c #5F5349",
"r  c #5D5449",
"t  c #5E5449",
"y  c #5E544A",
"u  c #5F544A",
"i  c #5E554A",
"p  c #5F554A",
"a  c #655444",
"s  c #675544",
"d  c #675545",
"f  c #61574A",
"g  c #61574B",
"h  c #62574B",
"j  c #61584B",
"k  c #62584B",
"l  c #62584C",
"z  c #63584C",
"x  c #63594C",
"c  c #63594D",
"v  c #645A4D",
"b  c #655C4F",
"n  c #655C50",
"m  c #655C51",
"M  c #655D51",
"N  c #665D51",
"B  c #665E51",
"V  c #675E51",
"C  c #665D52",
"Z  c #665E52",
"A  c #675E52",
"S  c #675F52",
"D  c #675E53",
"F  c #675F53",
"G  c #655E55",
"H  c #655F55",
"J  c #665F56",
"K  c #665F57",
"L  c #685F54",
"P  c #665F58",
"I  c #666057",
"U  c #676057",
"Y  c #676157",
"T  c #686054",
"R  c #686155",
"E  c #696155",
"W  c #696156",
"Q  c #696256",
"!  c #696257",
"~  c #696357",
"^  c #6A6257",
"/  c #666058",
"(  c #676058",
")  c #676158",
"_  c #676159",
"`  c #676258",
"'  c #676259",
"]  c #686158",
"[  c #686159",
"{  c #696358",
"}  c #686259",
"|  c #686359",
" . c #6A6358",
".. c #6B6358",
"X. c #6B6359",
"o. c #68625A",
"O. c #69625A",
"+. c #68635A",
"@. c #69635A",
"#. c #69635B",
"$. c #6A635B",
"%. c #69645A",
"&. c #69645B",
"*. c #6A645B",
"=. c #6A655B",
"-. c #6D665A",
";. c #6D665B",
":. c #6E675B",
">. c #6B645C",
",. c #6A655C",
"<. c #6B655D",
"1. c #6A665C",
"2. c #6B665C",
"3. c #6B665D",
"4. c #6B675D",
"5. c #6C665E",
"6. c #6C675E",
"7. c #6C675F",
"8. c #6E685B",
"9. c #6C685E",
"0. c #6D685F",
"q. c #6F6A61",
"w. c #706B63",
"e. c #706C63",
"r. c #726F67",
"t. c #76736B",
"y. c #767469",
"u. c #79766E",
"i. c #7A776F",
"p. c #7E7B73",
"a. c #828076",
"s. c #828077",
"d. c #848278",
"f. c #86837B",
"g. c #868579",
"h. c #86847B",
"j. c #8B8A7F",
"k. c #8C8A81",
"l. c #908E86",
"z. c #94928B",
"x. c #99978F",
"c. c None",
/* pixels */
"= = = = = = = = = = c.= = = = = = = = = = = . . . g.g.g.g.g.z.1 ",
"g.g.g.g.g.g.g.g.g.j.5 j.g.g.g.g.g.g.g.g.g.g.g.g.g.g.g.g.g.g.z.1 ",
"g.g.g.g.g.g.g.g.g.j.6 j.g.g.g.g.g.g.g.g.g.g.g.g.g.g.g.g.g.g.x.1 ",
"g.g.g.g.g.g.g.g.g.j.d j.g.g.g.g.g.g.g.g.g.g.g.g.g.g.g.g.g.g.x.1 ",
"z.z.z.z.z.z.z.x.x.x.s x.x.x.z.z.z.z.z.z.z.z.z.z.z.z.x.x.x.x.f.. ",
"9.9.9.9.9.0.0.0.0.0.3 0.0.0.6.9.9.9.9.6.6.5.5.5.3.3.3.1.,.,.f.. ",
"9.9.9.9.9.9.9.9.9.9.3 6.6.6.6.6.6.6.4.4.3.3.3.3.3.3.<.,.,.,.f.. ",
"6.6.6.6.6.6.6.6.4.4.3 6.6.6.6.5.5.3.3.3.3.3.3.3.2.2.2.=.*.*.p.. ",
"3.3.3.3.3.3.3.3.3.3.3 3.3.3.3.3.3.3.3.3.3.<.<.<.>.*.*.*.*.*.p.. ",
"3.3.3.3.3.3.3.3.3.3.3 3.<.<.<.<.<.,.,.,.,.=.=.*.%.#.#.#.#.+.p.. ",
"1.,.,.<.<.<.<.<.<.<.3 ,.,.,.,.,.,.,.,.,.,.=.*.#.#.#.+.| | | i.. ",
",.&.&.&.&.&.&.&.,.,.3 ,.,.,.,.,.,.,.,.,.=.$.#.#.#.@.| | } } i.. ",
"&.&.&.&.&.&.&.&.,.&.O ,.,.,.,.&.&.&.&.%.@.@.o.o.} [ [ [ ] ] u.. ",
"&.&.&.#.&.&.&.&.&.#.O &.&.&.#.#.#.#.#.O.O.o.o.} [ [ ] ] ) Y t.. ",
"#.#.#.#.#.#.#.#.#.#.O #.#.#.#.#.#.#.@.O.o.o.} } [ ] Y Y I I t.. ",
"+.+.+.+.+.+.+.#.#.#.O #.#.#.#.#.#.#.| } ' ' ` ( U U I J J J r.. ",
"_ _ ' ' ' ' ' ' o.' O o.o.o.o.o.o.o.} [ _ _ ) ( U I I J J J r.. ",
"_ _ _ _ _ _ _ _ _ _ O _ _ _ _ _ _ _ ) ( / / I K J J H H G G . c.",
". . . . . . . . . . 0 . . . . . . . . . . . . . . . . . . . c.c.",
"9 9 9 9 9 9 0 0 0 0 0 0 q t t y y y y y . f g j j k j k k . c.c.",
"9 9 9 0 9 9 0 0 0 0 0 0 q t t y y y y i . h k k l l k k k . c.c.",
"9 9 9 0 0 9 0 0 0 0 0 0 q t t y y y y y . k z z z c c k k . c.c.",
"9 9 9 0 0 0 0 0 0 0 0 0 q t t y y y y y . z l c l l k k k . c.c.",
"9 9 9 0 0 0 0 0 0 0 0 0 q t t y y y y u . c l c l c k k k . c.c.",
"9 9 9 9 0 0 0 0 0 0 0 0 w t r y y y y p . f g j j k k k n . c.c.",
"_ _ _ _ _ _ _ _ _ _ _ _ _ _ _ _ _ _ _ _ . h k k l k k k n . c.c.",
"_ _ _ _ _ _ _ _ _ _ _ _ _ _ _ _ _ _ _ _ . k z z z c c n n . c.c.",
"e e e 4 4 $ % 4 4 4 4 e e e e 4 4 4     x z l c l l x n n . c.c.",
"7.7.7.7.7.7.# 7.7.7.7.7.7.7.7.7.7.7.7.7.. c l c l c n n n . c.c.",
"_ _ _ _ _ _ > _ _ _ _ _ _ _ _ _ _ _ _ e.. c l x x x n n n . c.c.",
"_ _ _ _ _ _ 4 _ _ _ _ _ _ _ _ _ _ _ _ e.. v x x x n n n n . c.c.",
"_ _ _ _ _ _ e _ _ _ _ _ _ _ _ _ _ _ _ e.. x x x x n n n n . c.c.",
"_ _ _ _ _ _ e _ _ _ _ _ _ _ _ _ _ _ _ e.. x x x n n n n n . c.c.",
"_ _ _ _ _ _ e _ _ _ _ _ _ _ _ _ _ _ _ e.. x x x n n n n n . c.c.",
"_ _ _ _ _ _ e _ _ _ _ _ _ _ _ _ _ _ _ e.. x x n n n n n n . c.c.",
"_ _ _ _ _ _ e _ _ _ _ _ _ _ _ _ _ _ _ e.. x x n n n n n n . c.c.",
"e e e e e e e e e e e e e e e 4 4 4     m x n n n n n n n . c.c.",
"7.7.7.7.7.7.7.7.7.7.7.7.7.7.7.7.7.7.7.e.. b ^ ^ ..-.;.:.8.. c.c.",
"P P P P P P P P P P P P P P P P P P P e.o ; - * * * * ; 2 X c.c.",
"P P P P P P P P P P P P P P P P P P P e.. M M N N B B M M . c.c.",
"P P P P P P P P P P P P P P P P P P P e.. N M M N N C V d.. c.c.",
"P P P P P P P P P P P P P P P P P P P e.. A Z Z Z Z A D d.. c.c.",
"P P P P P P P P P P P P P P P P P P P e.. D S F F F F y.d.. c.c.",
"P P P P P P P P P P P P P P P P P P P e.. F F F F F F y.s.. c.c.",
"P P P P P P P P P P P P P P P P P P P e.. F L T T F y.y.s.. c.c.",
"7 7 8 e 4 4 @ , 4 e e e e e e e 4 4     T T T T T T y.y.s.. c.c.",
"7.7.7.7.7.7.& 7.7.7.7.7.7.7.7.7.7.7.7.e.. R T T T y.y.y.a.. c.c.",
"P P P P P P < P P P P P P P P P P P P e.. E E W W y.y.y.a.. c.c.",
"P P P P P P e P P P P P P P P P P P P e.. Q W W y.y.y.y.a.. c.c.",
"P P P P P P e P P P P P P P P P P P P e.. ~ ! Q y.y.y.y.a.. c.c.",
"P P P P P P e P P P P P P P P P P P P e..  .{ y.y.y.y.y.a.. c.c.",
"P P P P P P e P P P P P P P P P P P P e..  . .y.y.y.y.y.a.. c.c.",
"P P P P P P 4 P P P P P P P P P P P P e..  .y.y.y.y.y.y.a.. c.c.",
"P P P P P P : P P P P P P P P P P P P e.. X.y.y.y.y.y.y.a.. c.c.",
"+ + + + + + + + + + P + + + + + + + + + y.y.y.y.y.y.y.y.k.. c.c.",
"y.y.y.y.y.y.y.y.y.y.+ y.y.y.y.y.y.y.y.y.y.y.y.y.y.y.y.y.k.. c.c.",
"y.y.y.y.y.y.y.y.y.y.a y.y.y.y.y.y.y.y.y.y.y.y.y.y.y.y.y.k.. c.c.",
"y.y.y.y.y.y.y.y.y.y.a y.y.y.y.y.y.y.y.y.y.y.y.y.y.y.y.y.l.. c.c.",
"y.y.y.y.y.y.y.y.y.y.a y.y.y.y.y.y.y.y.y.y.y.y.y.y.y.y.y.l.. c.c.",
"h.h.h.h.h.h.h.h.h.h.a h.h.h.h.h.h.h.h.h.h.h.h.k.k.l.l.l.l.. c.c.",
"I I I I I I I I I I a I I I I I I I I I I I I I I I I I q.. c.c.",
"I I I I I I I I I I a I I I I I I I I I I I I I I I I I q.. c.c.",
"I I I I I I I I I I . I I I I I I I I I I I I I I I I I w.. c.c.",
". . . . . . . . . . . . . . . . . . . . . . . . . . . . . c.c.c."
};
