/* XPM */
static char *result[] = {
/* columns rows colors chars-per-pixel */
"32 32 52 1 ",
"  c #4F2913",
". c #56321C",
"X c #543523",
"o c #5A3B27",
"O c #5E3B25",
"+ c #573D2D",
"@ c #573E2E",
"# c #5B3C29",
"$ c #5A3D29",
"% c #5C402C",
"& c #584132",
"* c #5B493C",
"= c #5C4B3E",
"- c #604D3E",
"; c #604E3F",
": c #66513F",
"> c #5D4D42",
", c #5D4E42",
"< c #5D4E43",
"1 c #5D4F43",
"2 c #5E4F44",
"3 c #5E4F45",
"4 c #5D5044",
"5 c #5E5146",
"6 c #5F5349",
"7 c #675240",
"8 c #655444",
"9 c #64574A",
"0 c #64574B",
"q c #64584C",
"w c #64594D",
"e c #65594D",
"r c #65594E",
"t c #655D56",
"y c #665F58",
"u c #666057",
"i c #686157",
"p c #676159",
"a c #696158",
"s c #696258",
"d c #686259",
"f c #696259",
"g c #696359",
"h c #68625A",
"j c #69625A",
"k c #69635A",
"l c #6A635A",
"z c #6C675F",
"x c #767469",
"c c #868579",
"v c #86847B",
"b c #94928B",
/* pixels */
"oooooooooo7ooooooooooooooooooopp",
"cccccccccc7cccccccccccccccccccop",
"cccccccccc:cccccccccccccccccccb#",
"cccccccccc%cccccccccccccccccccb#",
"bbbbbbbbbb$bbbbbbbbbbbbbbcccccb#",
"llllkjjjhh dfgsaiiweq9;- cccccb#",
"llllkjjjhh ffgsaiirqq0;- cccccb#",
"          y              cccccb#",
"yyyyyyyyyyyyyyyyyyyyyyy3 cccccb#",
"yyyyyyyyyyyyyyyyyyyyyyy3 bbbbbb#",
"yyyyyyyyyyyyyyyyyyyyyyy2  8888 #",
"yyyyyyyyyyyyyyyyyyyyyyyX cccccb#",
"yyytyyyyyyyyyyyyyyyyyyyX cccccb#",
"666==*==44441<,,,,,>XXXX cccccb#",
"zzzzzz=zzzzzzzzzzzzzzzzz cccccb#",
"yyyyyy=yyyyyyyyyyyyyyyyy cccccb#",
"yyyyyy=yyyyyyyyyyyyyyyyy cccccb#",
"yyyyyy5yyyyyyyyyyyyyyyyy cccccb#",
"yyyyyy6yyyyyyyyyyyyyyyyy cccccb#",
"yyyyyy&yyyyyyyyyyyyyyyyy cccccb#",
"yyyyyy+yyyyyyyyyyyyyyyyy cccccb#",
"yyyyyy@yyyyyyyyyyyyyyyyy cccccb#",
"................y....... cccccb#",
"xxxxxxxxxxxxxxxxOxxxxxxx cccccb#",
"xxxxxxxxxxxxxxxx8xxxxxxx cccccb#",
"xxxxxxxxxxxxxxxx8xxxxxxx bbbbbb#",
"xxxxxxxxxxxxxxxx8xxxxxxx  8888 #",
"vvvvvvvvvvvvvvvv8vvvvvvv cccccb#",
"uuuuuuuuuuuuuuuu8uuuuuuu cccccb#",
"uuuuuuuuuuuuuuuu8uuuuuuu cccccb#",
"uuuuuuuuuuuuuuuu uuuuuuu cccccb#",
"                         cccccb#"
};
