/* XPM */
static char *result[] = {
/* columns rows colors chars-per-pixel */
"32 32 6 1 ",
"  c #4F2913",
". c #5B3C29",
"X c #655444",
"o c #868579",
"O c #94928B",
"+ c None",
/* pixels */
"++++++++++++++++++++++++ oooooO.",
"++++++++++++++++++++++++ oooooO.",
"++++++++++++++++++++++++ oooooO.",
"++++++++++++++++++++++++ oooooO.",
"++++++++++++++++++++++++ oooooO.",
"++++++++++++++++++++++++ oooooO.",
"++++++++++++++++++++++++ oooooO.",
"++++++++++++++++++++++++ oooooO.",
"++++++++++++++++++++++++ oooooO.",
"++++++++++++++++++++++++ OOOOOO.",
"++++++++++++++++++++++++  XXXX .",
"++++++++++++++++++++++++ oooooO.",
"++++++++++++++++++++++++ oooooO.",
"++++++++++++++++++++++++ oooooO.",
"++++++++++++++++++++++++ oooooO.",
"++++++++++++++++++++++++ oooooO.",
"++++++++++++++++++++++++ oooooO.",
"++++++++++++++++++++++++ oooooO.",
"++++++++++++++++++++++++ oooooO.",
"++++++++++++++++++++++++ oooooO.",
"++++++++++++++++++++++++ oooooO.",
"++++++++++++++++++++++++ oooooO.",
"++++++++++++++++++++++++ oooooO.",
"++++++++++++++++++++++++ oooooO.",
"++++++++++++++++++++++++ oooooO.",
"++++++++++++++++++++++++ OOOOOO.",
"++++++++++++++++++++++++  XXXX .",
"++++++++++++++++++++++++ oooooO.",
"++++++++++++++++++++++++ oooooO.",
"++++++++++++++++++++++++ oooooO.",
"++++++++++++++++++++++++ oooooO.",
"++++++++++++++++++++++++ oooooO."
};
