/* XPM */
static char *result[] = {
/* columns rows colors chars-per-pixel */
"32 32 14 1 ",
"  c #55321C",
". c #55341E",
"X c #56341E",
"o c #56341F",
"O c #56351F",
"+ c #573521",
"@ c #573722",
"# c #583622",
"$ c #583724",
"% c #583824",
"& c #654935",
"* c #868579",
"= c #94928B",
"- c None",
/* pixels */
"$=*****o------------------------",
"$=*****o------------------------",
"$=*****o------------------------",
"$=*****o------------------------",
"$=*****o------------------------",
"$=*****o------------------------",
"$=*****o------------------------",
"$=*****o------------------------",
"$=*****o------------------------",
"$=*****o------------------------",
"$======o------------------------",
"$+&&&&Xo------------------------",
"$=*****o------------------------",
"$=*****o------------------------",
"$=*****o------------------------",
"$=*****o------------------------",
"$=*****o------------------------",
"$=*****o------------------------",
"$=*****o------------------------",
"$=*****o------------------------",
"$=*****o------------------------",
"$=*****o------------------------",
"$=*****o------------------------",
"$=*****o------------------------",
"$=*****o------------------------",
"$=*****o------------------------",
"$======X------------------------",
"$+&&&&XX------------------------",
"%=*****O------------------------",
"%=*****@------------------------",
"#=***** ------------------------",
"o=*****.------------------------"
};
