/* XPM */
static char *e[] = {
/* columns rows colors chars-per-pixel */
"64 64 2 1 ",
"  c None",
". c #6CCFE3",
/* pixels */
"                                                                ",
"                                                                ",
"                                                                ",
"                                                                ",
"                                                                ",
"                                                                ",
"                                                                ",
"                                                                ",
"                                                                ",
"                                                                ",
"                                                                ",
"                                                                ",
"                                                                ",
"                                                                ",
"                                                                ",
"                                                                ",
"                                                                ",
"                                                                ",
"                                                                ",
"                                                                ",
"                      ......      ..........                    ",
"                      ......      ..........                    ",
"                    ..      ..            ..                    ",
"                    ..      ..            ..                    ",
"                    ..  ..  ..    ..........                    ",
"                    ..  ..  ..    ..........                    ",
"                    ..      ..    ..                            ",
"                    ..      ..    ..                            ",
"                      ......      ..  ......                    ",
"                      ......      ..  ......                    ",
"                                                                ",
"                                                                ",
"                                                                ",
"                                                                ",
"                    ..      ..    ......                        ",
"                    ..      ..    ......                        ",
"                      ......      ..      ..                    ",
"                      ......      ..      ..                    ",
"                    ..      ..    ..  ......                    ",
"                    ..      ..    ..  ......                    ",
"                      ......      ..      ..                    ",
"                      ......      ..      ..                    ",
"                    ..      ..    ......                        ",
"                    ..      ..    ......                        ",
"                                                                ",
"                                                                ",
"                                                                ",
"                                                                ",
"                                                                ",
"                                                                ",
"                                                                ",
"                                                                ",
"                                                                ",
"                                                                ",
"                                                                ",
"                                                                ",
"                                                                ",
"                                                                ",
"                                                                ",
"                                                                ",
"                                                                ",
"                                                                ",
"                                                                ",
"                                                                "
};
