/* XPM */
static char *exit1_png[] = {
/* columns rows colors chars-per-pixel */
"64 64 10 1 ",
"  c None",
". c #6CCFE3",
"X c None",
"o c #93FFFF",
"O c #97FFFF",
"+ c #9CFFFF",
"@ c #A0FFFF",
"# c #A4FFFF",
"$ c #A8FFFF",
"% c #B1FFFF",
/* pixels */
"                                                                ",
"                                                                ",
"                                                                ",
"                                                                ",
"                                                                ",
"                                                                ",
"                                                                ",
"                                                                ",
"                                                                ",
"                                                                ",
"                                                                ",
"                                                                ",
"                                                                ",
"                                                                ",
"                                                                ",
"                                                                ",
"                                                                ",
"                                                                ",
"                                                                ",
"                                                                ",
"                      ..XX..      ..XX++oo..                    ",
"                      ..XX..      ..XX++oo..                    ",
"                    ..      ..            ..                    ",
"                    ..      ..            ..                    ",
"                    XX  ##  XX    oo@@%%@@OO                    ",
"                    XX  ##  XX    oo@@%%@@OO                    ",
"                    ..      ..    ..                            ",
"                    ..      ..    ..                            ",
"                      ..XX..      ..  OO....                    ",
"                      ..XX..      ..  OO....                    ",
"                                                                ",
"                                                                ",
"                                                                ",
"                                                                ",
"                    ..      ..    ....oo                        ",
"                    ..      ..    ....oo                        ",
"                      XXOOXX      ..      ..                    ",
"                      XXOOXX      ..      ..                    ",
"                    ..      ..    OO  $$oo..                    ",
"                    ..      ..    OO  $$oo..                    ",
"                      XXOOXX      ..      ..                    ",
"                      XXOOXX      ..      ..                    ",
"                    ..      ..    ....oo                        ",
"                    ..      ..    ....oo                        ",
"                                                                ",
"                                                                ",
"                                                                ",
"                                                                ",
"                                                                ",
"                                                                ",
"                                                                ",
"                                                                ",
"                                                                ",
"                                                                ",
"                                                                ",
"                                                                ",
"                                                                ",
"                                                                ",
"                                                                ",
"                                                                ",
"                                                                ",
"                                                                ",
"                                                                ",
"                                                                "
};
