/* XPM */
static char *exit1[] = {
/* columns rows colors chars-per-pixel */
"64 64 51 1 ",
"  c None",
". c #6ACDE2",
"X c #6BCDE2",
"o c #6BCEE2",
"O c #6BCEE3",
"+ c #6CCFE3",
"@ c #6ED1E4",
"# c #6FD2E5",
"$ c #6FD3E5",
"% c #6FD3E6",
"& c #73D7E8",
"* c #73D8E8",
"= c #73DAE9",
"- c #74DAEA",
"; c #75DBEA",
": c #76DAEA",
"> c #76DBEA",
", c #77DBEA",
"< c #7ADDEB",
"1 c #79DEEC",
"2 c #86F0F6",
"3 c #87F0F6",
"4 c #85F3F8",
"5 c #86F3F8",
"6 c #87F4F9",
"7 c #89F3F8",
"8 c #8CF3F8",
"9 c #8AF4F8",
"0 c #8DF4F8",
"q c #8DF5F9",
"w c #8EF5F9",
"e c #8EF6FA",
"r c #8CFBFC",
"t c #90F6FA",
"y c #91FFFF",
"u c #93FFFF",
"i c #94FFFF",
"p c #95FFFF",
"a c #96FFFF",
"s c #97FFFF",
"d c #9AFBFD",
"f c #99FCFD",
"g c #99FFFF",
"h c #99FFFF",
"j c #9BFFFF",
"k c #9DFFFF",
"l c #9FFFFF",
"z c #A4FFFF",
"x c #A5FFFF",
"c c #AAFFFF",
"v c #AEFFFF",
/* pixels */
"                                                                ",
"                                                                ",
"                                                                ",
"                                                                ",
"                                                                ",
"                                                                ",
"                                                                ",
"                                                                ",
"                                                                ",
"                                                                ",
"                                                                ",
"                                                                ",
"                                                                ",
"                                                                ",
"                                                                ",
"                                                                ",
"                                                                ",
"                                                                ",
"                                                                ",
"                                                                ",
"                      X;66;X      X-5uhja7>X                    ",
"                      X;66;X      .=4uhja2&X                    ",
"                    XX      XX            @X                    ",
"                    ;;      ;;            <,                    ",
"                    66  xx  66    iskxvvxdt8                    ",
"                    66  xx  66    7efxvvxljg                    ",
"                    ;;      ;;    >1                            ",
"                    XX      XX    oX                            ",
"                      X;66;X      OX  g8:.Xo                    ",
"                      X;66;X      +o  g0,oO+                    ",
"                                                                ",
"                                                                ",
"                                                                ",
"                                                                ",
"                    ++      ++    +Oo>9i                        ",
"                    +%      %+    Ooo>9i                        ",
"                      ryppyr      oo      O+                    ",
"                      ryppyr      ,,      #+                    ",
"                    +$      $+    wq  czh3*o                    ",
"                    +$      $+    wq  czh3*o                    ",
"                      ryppyr      ,,      #+                    ",
"                      ryppyr      oo      O+                    ",
"                    +%      %+    Ooo>9i                        ",
"                    ++      ++    +Oo>9i                        ",
"                                                                ",
"                                                                ",
"                                                                ",
"                                                                ",
"                                                                ",
"                                                                ",
"                                                                ",
"                                                                ",
"                                                                ",
"                                                                ",
"                                                                ",
"                                                                ",
"                                                                ",
"                                                                ",
"                                                                ",
"                                                                ",
"                                                                ",
"                                                                ",
"                                                                ",
"                                                                "
};
