/* XPM */
static char *e1[] = {
/* columns rows colors chars-per-pixel */
"64 64 41 1 ",
"  c None",
". c #6ACDE2",
"X c #6BCDE2",
"o c #6BCEE2",
"O c None",
"+ c #6CCFE3",
"@ c #6ED1E4",
"# c #6FD2E5",
"$ c #73D7E8",
"% c #73D8E8",
"& c #75DBEA",
"* c #76DAEA",
"= c #76DBEA",
"- c #77DBEA",
"; c #7ADDEB",
": c #79DEEC",
"> c #86F0F6",
", c #87F0F6",
"< c #89F3F8",
"1 c #8CF3F8",
"2 c #8AF4F8",
"3 c #8DF4F8",
"4 c #8DF5F9",
"5 c #8EF5F9",
"6 c #8EF6FA",
"7 c #90F6FA",
"8 c #94FFFF",
"9 c #95FFFF",
"0 c #97FFFF",
"q c #97FFFF",
"w c #9AFBFD",
"e c #99FCFD",
"r c #99FFFF",
"t c #9AFFFF",
"y c #9BFFFF",
"u c #9DFFFF",
"i c #9FFFFF",
"p c #A4FFFF",
"a c #A5FFFF",
"s c #AAFFFF",
"d c #AEFFFF",
/* pixels */
"                                                                ",
"                                                                ",
"                                                                ",
"                                                                ",
"                                                                ",
"                                                                ",
"                                                                ",
"                                                                ",
"                                                                ",
"                                                                ",
"                                                                ",
"                                                                ",
"                                                                ",
"                                                                ",
"                                                                ",
"                                                                ",
"                                                                ",
"                                                                ",
"                                                                ",
"                                                                ",
"                      ++  ++      +o  uy0<&X                    ",
"                      ++  ++      O.  uy0>$X                    ",
"                    ++      ++            @X                    ",
"                    ++      ++            ;-                    ",
"                        aa        90uaddaw71                    ",
"                        aa        <6eaddaiyr                    ",
"                    ++      ++    =:                            ",
"                    ++      ++    oX                            ",
"                      ++  ++      OX  r1*.Xo                    ",
"                      ++  ++      +o  r3-oO+                    ",
"                                                                ",
"                                                                ",
"                                                                ",
"                                                                ",
"                    ++      ++    +Oo=28                        ",
"                    ++      ++    Ooo=28                        ",
"                        qq        oo      O+                    ",
"                        qq        --      #+                    ",
"                    ++      ++    54  spt,%o                    ",
"                    ++      ++    54  spt,%o                    ",
"                        qq        --      #+                    ",
"                        qq        oo      O+                    ",
"                    ++      ++    Ooo=28                        ",
"                    ++      ++    +Oo=28                        ",
"                                                                ",
"                                                                ",
"                                                                ",
"                                                                ",
"                                                                ",
"                                                                ",
"                                                                ",
"                                                                ",
"                                                                ",
"                                                                ",
"                                                                ",
"                                                                ",
"                                                                ",
"                                                                ",
"                                                                ",
"                                                                ",
"                                                                ",
"                                                                ",
"                                                                ",
"                                                                "
};
