/* XPM */
static char *e2[] = {
/* columns rows colors chars-per-pixel */
"64 64 43 1 ",
"  c None",
". c #11B4D7",
"X c #11B4D8",
"o c #11B5D8",
"O c #12B5D8",
"+ c #12B6D8",
"@ c None",
"# c #12B7D9",
"$ c #13BADB",
"% c #13BCDC",
"& c #14C4E0",
"* c #15C5E0",
"= c #15C8E2",
"- c #15C9E2",
"; c #15C9E3",
": c #16C8E2",
"> c #16C9E2",
", c #16C9E3",
"< c #17CDE4",
"1 c #17CDE5",
"2 c #1BE8F3",
"3 c #1BE9F3",
"4 c #1CEDF6",
"5 c #1CEEF6",
"6 c #1DEEF6",
"7 c #1EEEF6",
"8 c #1EEFF7",
"9 c #1FEFF7",
"0 c #1FF1F8",
"q c #20F1F8",
"w c #24FAFC",
"e c #20FFFF",
"r c #21FFFF",
"t c #22FFFF",
"y c #23FFFF",
"u c #24FFFF",
"i c #25FFFF",
"p c #26FFFF",
"a c #29FFFF",
"s c #2AFFFF",
"d c #2BFFFF",
"f c #2DFFFF",
"g c #31FFFF",
/* pixels */
"                                                                ",
"                                                                ",
"                                                                ",
"                                                                ",
"                                                                ",
"                                                                ",
"                                                                ",
"                                                                ",
"                                                                ",
"                                                                ",
"                                                                ",
"                                                                ",
"                                                                ",
"                                                                ",
"                                                                ",
"                                                                ",
"                                                                ",
"                                                                ",
"                                                                ",
"                                                                ",
"                      ##  ##      #+  uur4=o                    ",
"                      #@  @#      +.  uur2&X                    ",
"                    ##      ##            $o                    ",
"                    #@      @#            <>                    ",
"                        aa        eyisggdwq7                    ",
"                        aa        50wdggdpyy                    ",
"                    #@      @#    -1                            ",
"                    ##      ##    OX                            ",
"                      #@  @#      +o  y7:.o+                    ",
"                      ##  ##      #+  y7,O+#                    ",
"                                                                ",
"                                                                ",
"                                                                ",
"                                                                ",
"                    ##      ##    #+O;6e                        ",
"                    #@      @#    +OO;6e                        ",
"                        tt        OO      +#                    ",
"                        tt        ,,      %@                    ",
"                    #@      @#    98  fau3*O                    ",
"                    #@      @#    98  fau3*O                    ",
"                        tt        ,,      %@                    ",
"                        tt        OO      +#                    ",
"                    #@      @#    +OO;6e                        ",
"                    ##      ##    #+O;6e                        ",
"                                                                ",
"                                                                ",
"                                                                ",
"                                                                ",
"                                                                ",
"                                                                ",
"                                                                ",
"                                                                ",
"                                                                ",
"                                                                ",
"                                                                ",
"                                                                ",
"                                                                ",
"                                                                ",
"                                                                ",
"                                                                ",
"                                                                ",
"                                                                ",
"                                                                ",
"                                                                "
};
