/* XPM */
static char *exit2_png[] = {
/* columns rows colors chars-per-pixel */
"64 64 10 1 ",
"  c None",
". c #12B7D9",
"X c None",
"o c #20FFFF",
"O c #22FFFF",
"+ c #24FFFF",
"@ c #27FFFF",
"# c #29FFFF",
"$ c #2CFFFF",
"% c #33FFFF",
/* pixels */
"                                                                ",
"                                                                ",
"                                                                ",
"                                                                ",
"                                                                ",
"                                                                ",
"                                                                ",
"                                                                ",
"                                                                ",
"                                                                ",
"                                                                ",
"                                                                ",
"                                                                ",
"                                                                ",
"                                                                ",
"                                                                ",
"                                                                ",
"                                                                ",
"                                                                ",
"                                                                ",
"                      ..XX..      ..XX++oo..                    ",
"                      ..XX..      ..XX++oo..                    ",
"                    ..      ..            ..                    ",
"                    ..      ..            ..                    ",
"                    XX  ##  XX    oo@@%%@@OO                    ",
"                    XX  ##  XX    oo@@%%@@OO                    ",
"                    ..      ..    ..                            ",
"                    ..      ..    ..                            ",
"                      ..XX..      ..  OO....                    ",
"                      ..XX..      ..  OO....                    ",
"                                                                ",
"                                                                ",
"                                                                ",
"                                                                ",
"                    ..      ..    ....oo                        ",
"                    ..      ..    ....oo                        ",
"                      XXOOXX      ..      ..                    ",
"                      XXOOXX      ..      ..                    ",
"                    ..      ..    OO  $$oo..                    ",
"                    ..      ..    OO  $$oo..                    ",
"                      XXOOXX      ..      ..                    ",
"                      XXOOXX      ..      ..                    ",
"                    ..      ..    ....oo                        ",
"                    ..      ..    ....oo                        ",
"                                                                ",
"                                                                ",
"                                                                ",
"                                                                ",
"                                                                ",
"                                                                ",
"                                                                ",
"                                                                ",
"                                                                ",
"                                                                ",
"                                                                ",
"                                                                ",
"                                                                ",
"                                                                ",
"                                                                ",
"                                                                ",
"                                                                ",
"                                                                ",
"                                                                ",
"                                                                "
};
