/* XPM */
static char *exit2[] = {
/* columns rows colors chars-per-pixel */
"64 64 53 1 ",
"  c #042327",
". c #11B3D7",
"X c #11B4D7",
"o c #11B4D8",
"O c None",
"+ c #12B5D8",
"@ c #12B6D8",
"# c #12B6D9",
"$ c #12B7D9",
"% c #13BADB",
"& c #13BCDC",
"* c #13BDDC",
"= c #13BEDD",
"- c #14C4E0",
"; c #15C5E0",
": c #14C7E1",
"> c #15C8E2",
", c #15C9E2",
"< c #15C9E3",
"1 c #16C8E2",
"2 c #16C9E2",
"3 c #16C9E3",
"4 c #17CDE4",
"5 c #17CDE5",
"6 c #1BE8F3",
"7 c #1BE9F3",
"8 c #1BECF5",
"9 c #1BEDF5",
"0 c #1BEEF6",
"q c #1BEFF6",
"w c #1CEDF6",
"e c #1CEEF6",
"r c #1DEEF6",
"t c #1EEEF6",
"y c #1EEFF7",
"u c #1FEFF7",
"i c #1FF1F8",
"p c #1DF8FB",
"a c #1DF8FC",
"s c #1FFFFF",
"d c #20F1F8",
"f c #24FAFC",
"g c #20FFFF",
"h c #21FFFF",
"j c #23FFFF",
"k c #23FFFF",
"l c #24FFFF",
"z c #25FFFF",
"x c #26FFFF",
"c c #2AFFFF",
"v c #2AFFFF",
"b c #2DFFFF",
"n c #31FFFF",
/* pixels */
"                                                                ",
"                                                                ",
"                                                                ",
"                                                                ",
"                                                                ",
"                                                                ",
"                                                                ",
"                                                                ",
"                                                                ",
"                                                                ",
"                                                                ",
"                                                                ",
"                                                                ",
"                                                                ",
"                                                                ",
"                                                                ",
"                                                                ",
"                                                                ",
"                                                                ",
"                                                                ",
"                      O,00,O      O>9gkkhw>O                    ",
"                      O,qq,O      .:8gkkg6-o                    ",
"                    OO      OO            %O                    ",
"                    ,,      ,,            42                    ",
"                    0q  cc  q0    gjzvnnvfdt                    ",
"                    0q  cc  q0    eifvnnvxlj                    ",
"                    ,,      ,,    <5                            ",
"                    OO      OO    +o                            ",
"                      O,qq,O      @O  jt1XO@                    ",
"                      O,00,O      $+  jt3+@$                    ",
"                                                                ",
"                                                                ",
"                                                                ",
"                                                                ",
"                    $#      #$    $@+<rg                        ",
"                    #=      =#    @++<rg                        ",
"                      ashhsa      ++      @$                    ",
"                      pshhsp      33      &#                    ",
"                    #*      *#    uy  bcl7;+                    ",
"                    #*      *#    uy  bcl7;+                    ",
"                      pshhsp      33      &#                    ",
"                      ashhsa      ++      @$                    ",
"                    #=      =#    @++<rg                        ",
"                    $#      #$    $@+<rg                        ",
"                                                                ",
"                                                                ",
"                                                                ",
"                                                                ",
"                                                                ",
"                                                                ",
"                                                                ",
"                                                                ",
"                                                                ",
"                                                                ",
"                                                                ",
"                                                                ",
"                                                                ",
"                                                                ",
"                                                                ",
"                                                                ",
"                                                                ",
"                                                                ",
"                                                                ",
"                                                                "
};
