/* XPM */
static char *down_png[] = {
/* columns rows colors chars-per-pixel */
"64 64 16 1 ",
"  c none",
". c black",
"X c #462424",
"o c #664339",
"O c #725148",
"+ c #C14B4B",
"@ c #EF9273",
"# c None",
"$ c #3A639B",
"% c #6799C1",
"& c #F79696",
"* c #F3B9B0",
"= c #FFDD8C",
"- c #B4D8F5",
"; c #FFEFE3",
": c white",
/* pixels */
"                                                                ",
"                                                                ",
"                      ....................                      ",
"                      ....................                      ",
"                  ....========@@@@========....                  ",
"                  ....========@@@@========....                  ",
"                ..::========================::..                ",
"                ..::========================::..                ",
"              ..::::::====================::::::..              ",
"              ..::::::====================::::::..              ",
"            ..====::::::::==::::::::::::==::::====..            ",
"            ..====::::::::==::::::::::::==::::====..            ",
"            ..============++============@@========..            ",
"            ..============++============@@========..            ",
"          ..============++**++============@@========..          ",
"          ..============++**++============@@========..          ",
"          ..====@@====++******++==========++==@@====..          ",
"          ..====@@====++******++==========++==@@====..          ",
"          ..====@@====++********++++====@@++==@@====..          ",
"          ..====@@====++********++++====@@++==@@====..          ",
"          ..====@@@@@@++++++********++++++++@@@@====..          ",
"          ..====@@@@@@++++++********++++++++@@@@====..          ",
"          ..==@@@@@@++********************++@@@@@@==..          ",
"          ..==@@@@@@++********************++@@@@@@==..          ",
"        ..@@@@++@@@@++......********......++@@@@++@@@@..        ",
"        ..@@@@++@@@@++......********......++@@@@++@@@@..        ",
"      ......++;;++@@........********........@@++;;++......      ",
"      ......++;;++@@........********........@@++;;++......      ",
"            ..;;++@@++::$$$$;;;;;;;;$$$$::++@@++;;..            ",
"            ..;;++@@++::$$$$;;;;;;;;$$$$::++@@++;;..            ",
"            ..;;++@@++::%%%%;;;;;;;;%%%%::++@@++;;..            ",
"            ..;;++@@++::%%%%;;;;;;;;%%%%::++@@++;;..            ",
"            ..**++@@++;;;;;;;;****;;;;;;;;++@@++**..            ",
"            ..**++@@++;;;;;;;;****;;;;;;;;++@@++**..            ",
"              ....++++;;;;;;;;;;;;;;;;;;;;++++....              ",
"              ....++++;;;;;;;;;;;;;;;;;;;;++++....              ",
"                  ......;;;;;;&&&&;;;;;;......                  ",
"                  ......;;;;;;&&&&;;;;;;......                  ",
"                  ..    ......****......    ..                  ",
"                  ..    ......****......    ..                  ",
"                        ..$$##**XXooXX..                        ",
"                        ..$$##**XXooXX..                        ",
"                      ..$$$$$$XXooXX$$$$..                      ",
"                      ..$$$$$$XXooXX$$$$..                      ",
"                    ..%%%%##XXOOXX%%##%%%%..                    ",
"                    ..%%%%##XXOOXX%%##%%%%..                    ",
"                  ..::##%%XXOOXX%%%%##%%##::..                  ",
"                  ..::##%%XXOOXX%%%%##%%##::..                  ",
"                ..;;##::XXOOXX%%%%%%%%##::##;;..                ",
"                ..;;##::XXOOXX%%%%%%%%##::##;;..                ",
"              ..;;;;;;##XXXX##############;;;;;;..              ",
"              ..;;;;;;##XXXX##############;;;;;;..              ",
"                ....;;XXXX::::::::::::##..;;....                ",
"                ....;;XXXX::::::::::::##..;;....                ",
"                  ..XXOOXX############..  ..                    ",
"                  ..XXOOXX############..  ..                    ",
"                  ..OOOOXX----####----..                        ",
"                  ..OOOOXX----####----..                        ",
"                  ..OOOOXXXXXXXXXXXXXX..                        ",
"                  ..OOOOXXXXXXXXXXXXXX..                        ",
"                    ......OOOO....OOOO..                        ",
"                    ......OOOO....OOOO..                        ",
"                          ....    ....                          ",
"                          ....    ....                          "
};
