/* XPM */
static char *down2[] = {
/* columns rows colors chars-per-pixel */
"64 64 229 2 ",
"   c None",
".  c #000000",
"X  c #0C0605",
"o  c #180708",
"O  c #18110F",
"+  c #030A18",
"@  c #1A1311",
"#  c #171213",
"$  c #0F111A",
"%  c #240C0C",
"&  c #2C1212",
"*  c #291816",
"=  c #391E1B",
"-  c #36281C",
";  c #37311F",
":  c #0A1422",
">  c #151B27",
",  c #19212B",
"<  c #362926",
"1  c #372B29",
"2  c #3C3421",
"3  c #37302E",
"4  c #333334",
"5  c #393633",
"6  c #3C3936",
"7  c #39373A",
"8  c #2E2C32",
"9  c #311E2A",
"0  c #4B2926",
"q  c #522B28",
"w  c #46312C",
"e  c #5A332C",
"r  c #53342E",
"t  c #472D38",
"y  c #4A353E",
"u  c #5B3F3A",
"i  c #583A35",
"p  c #72292A",
"a  c #63322D",
"s  c #45211F",
"d  c #5B413D",
"f  c #64423B",
"g  c #6B483C",
"h  c #6C5D3A",
"j  c #192B4B",
"k  c #303252",
"l  c #28366E",
"z  c #253579",
"x  c #303E76",
"c  c #1A2D62",
"v  c #4B3641",
"b  c #533E43",
"n  c #433A55",
"m  c #244571",
"M  c #364F7A",
"N  c #56434A",
"B  c #464854",
"V  c #684A46",
"C  c #77554B",
"Z  c #685456",
"A  c #6A5254",
"S  c #494F72",
"D  c #5B697E",
"F  c #6C6967",
"G  c #71606D",
"H  c #6B634F",
"J  c #923637",
"K  c #95544C",
"L  c #A74A45",
"P  c #B47157",
"I  c #956E69",
"U  c #B27571",
"Y  c #C54D4C",
"T  c #CD5A52",
"R  c #C75957",
"E  c #D25B55",
"W  c #C8534F",
"Q  c #CE6957",
"!  c #D5685B",
"~  c #C3755D",
"^  c #D2705E",
"/  c #CA5F60",
"(  c #CD6362",
")  c #D36A67",
"_  c #D37566",
"`  c #D4756C",
"'  c #DC7B65",
"]  c #D37473",
"[  c #D77976",
"{  c #CF7271",
"}  c #E27E6A",
"|  c #988453",
" . c #BC9764",
".. c #BFA669",
"X. c #BFAC7D",
"o. c #DA8766",
"O. c #CD8264",
"+. c #E58169",
"@. c #E88A6D",
"#. c #ED9272",
"$. c #E99C74",
"%. c #F09474",
"&. c #F29E77",
"*. c #EC8F70",
"=. c #C3A76B",
"-. c #D3B776",
";. c #CFB370",
":. c #E9A575",
">. c #F3A278",
",. c #F6A97B",
"<. c #EFB97B",
"1. c #F3B77D",
"2. c #F4C27E",
"3. c #2C3F85",
"4. c #334D8D",
"5. c #324488",
"6. c #385386",
"7. c #3B5897",
"8. c #30498C",
"9. c #39629C",
"0. c #3B608A",
"q. c #3D6CA4",
"w. c #565A88",
"e. c #4A5C99",
"r. c #49568A",
"t. c #586B89",
"y. c #48639C",
"u. c #5D6A9E",
"i. c #5D6598",
"p. c #53759A",
"a. c #466B8B",
"s. c #5C6AA1",
"d. c #557AAB",
"f. c #4970A7",
"g. c #6873A3",
"h. c #656992",
"j. c #5584B4",
"k. c #5B87B5",
"l. c #6A8DB2",
"z. c #748392",
"x. c #6F99C3",
"c. c #6AA0C8",
"v. c #97959A",
"b. c #9A9089",
"n. c #B88C85",
"m. c #B8918B",
"M. c #BC9C95",
"N. c #A39292",
"B. c #9EA4AF",
"V. c #B4A2A3",
"C. c #BFB6AD",
"Z. c #AAAAB9",
"A. c #8E94A8",
"S. c #CD948D",
"D. c #E19088",
"F. c #E79E98",
"G. c #ED9591",
"H. c #DCA59C",
"J. c #F9B981",
"K. c #EBA39D",
"L. c #C7AEA6",
"P. c #C4B9AD",
"I. c #C1B6AC",
"U. c #CBBDBA",
"Y. c #EAAAA3",
"T. c #F2B3AB",
"R. c #F5B7AF",
"E. c #F4BBB2",
"W. c #FABCB4",
"Q. c #F2ACA7",
"!. c #C59BA1",
"~. c #FCCD87",
"^. c #F7C381",
"/. c #FED48A",
"(. c #FFDD8B",
"). c #F8D485",
"_. c #FCDA97",
"`. c #F3C894",
"'. c #FFE18E",
"]. c #FFE491",
"[. c #FFE39F",
"{. c #D2C7BA",
"}. c #F6C5BB",
"|. c #FFE5A2",
" X c #FFE6A9",
".X c #FFEAAB",
"XX c #FFECBF",
"oX c #85AAC9",
"OX c #91B3DC",
"+X c #A6B5CB",
"@X c #ABB5CD",
"#X c #97B9E1",
"$X c #A5BEE0",
"%X c #A9C4D8",
"&X c #CDC6CD",
"*X c #D6D6D7",
"=X c #D7CECE",
"-X c #F4CCC3",
";X c #FACDC2",
":X c #F5D1CA",
">X c #FADAD6",
",X c #E6CEC7",
"<X c #FDEACC",
"1X c #FFF2C3",
"2X c #FFF1CF",
"3X c #E4E0DE",
"4X c #FDE1D6",
"5X c #FEE5D9",
"6X c #F3E5D9",
"7X c #CFD3E2",
"8X c #D1D4E3",
"9X c #D1D6E8",
"0X c #C2CEE5",
"qX c #D8EAF7",
"wX c #D2F0FF",
"eX c #FEEDE1",
"rX c #F7EBE2",
"tX c #FFF2E5",
"yX c #FFF8E6",
"uX c #FEF5EA",
"iX c #FFFAEB",
"pX c #FFFFF4",
"aX c #FFFEF0",
"sX c #FFFFFF",
"dX c #FFFFFE",
"fX c #FFFEFC",
"gX c #FAFFFF",
"hX c #F4F5F5",
"jX c #E5E8E9",
/* pixels */
"                                            . . . . . . . . . . . . . . . . . . . .                                             ",
"                                            - 2 2 2 2 2 2 2 - - - - ; 2 2 2 2 2 2 -                                             ",
"                                    . . . - | =.=......... .P P P P  .........=.=.| - . . .                                     ",
"                                    4 6 2 h -.].].'.'.].]./.J.,.,.J./.].].'.'.].].-.h 2 6 4                                     ",
"                                . 4 v.P.X.;.).'.'.'.'.'.'.(./.~.~./.(.'.'.'.'.'.'.).;.X.P.v.4 .                                 ",
"                                4 F *XpX1X|.].(.(.(.(.(.(.(.(.(.(.(.(.(.(.(.(.(.(.].|.1XpX*XF 4                                 ",
"                            . 4 v.*XhXdXiX2X[.(.(.(.(.(.(.(.(.(.(.(.(.(.(.(.(.(.(.|.2XiXdXhX*Xv.4 .                             ",
"                            - H {.pXdXdXdXiXXX X X|.].].|. X X X X X X X X X X|.(. XyXdXdXdXpX{.H -                             ",
"                        . - | -._.1XiXdXdXdXiXyXyX2X|.|.2XiXyXyXyXyXyXyXyXyXiX2X[.|.yXdXdXiX1X_.-.| - .                         ",
"                        . 2 =.].'.[.2XyXyXyXyXiXiX<X`.`.<XiXiXyXyXyXyXyXyXyXiX<X_._.<XyXyX2X[.'.].=.2 .                         ",
"                        . ; ..].'.(.|. X X X X.X.X`.o.o.`..X.X X X X X X X X X_.J.J._..X X|.(.'.]...; .                         ",
"                        - h ;.'.'.(.(.(.(.(.(./.2.:._ _ :.2./.(.(.(.(.(.(.(.(.~.,.,.^./.(.(.(.'.'.;.h -                         ",
"                    . ; | -.).(.(.(.(.(.(.(.'.2.o._ D.D._ o.2.'.(.(.(.(.(.(.(.(.~.J.,.1.~.(.(.(.(.).-.| ; .                     ",
"                    . 2 =.].'.(.~.~.(.(.(./.^.:._ [ Y.Y.[ _ :.2./.'.'.(.(.(.(.(.'.^.#.#.^.(./.~.(.'.].=.2 .                     ",
"                    . 2 =.].'.~.1.1.~.'.'.2.o._ D.K.T.T.K.D._ o.^.'.'.'.(.(.(.'.'.<._ _ <./.1.1.~.'.].=.2 .                     ",
"                    . 2 ..].'.~.>.>.~.'.'.<.Q ( F.}.E.E.E.K.[ _ :.<.<.2./.'.'.(./.:.Q Q <.~.>.>.~.'.]...2 .                     ",
"                    . 2 ..].'.~.>.>.~.'.'.<.Q ( F.}.E.E.E.T.K.D._ Q Q o.^.'.'./.J.@.T Q <.~.>.>.~.'.]...2 .                     ",
"                    . 2 ..].'.~.>.&.J.~./.:.Q R D.F.F.K.T.E.E.K.[ R / _ :.<.<.:.@.^ T Q :.J.>.>.~.'.]...2 .                     ",
"                    . 2 ..].].~.>.%.&.>.>.@.T Y R ( ( [ K.E.E.T.K.F.F.D._ Q Q Q T T Y Q @.>.%.>.~.'.]...2 .                     ",
"                    . 2 ..'./.J.>.#.#.*.+.' ) ) ) ( ( [ K.E.E.E.E.E.E.Y.[ ( ( ( ) Q W T } %.#.>.J./.'...2 .                     ",
"                    . ; ../.J.>.%.#.%.+.! ) D.K.K.K.K.K.T.E.E.E.E.E.E.T.Y.K.K.K.K.D.R T } %.%.%.>.J./...; .                     ",
"                    = g =.J.#.+.*.%.%.+.T R U m.m.n.n.S.Y.E.E.E.E.E.E.Y.S.n.n.m.m.U R T +.%.%.*.+.#.J.=.g =                     ",
"                . - K O.$.#.! ! +.%.%.+.E L i 1 1 1 1 V S.E.E.E.E.E.W.S.V 1 1 1 1 i L E +.%.%.+.! ! #.$.O.K - .                 ",
"                . * K ~ ' } _ _ ' @.#.' L p o . . . . < n.W.E.R.R.E.W.n.< . . . . o p L ' #.@.' _ _ } ' ~ K * .                 ",
"            . . . X * a L [ Q.Y._ ! @.~ e o . . . . . < n.W.E.R.T.E.W.n.< . . . . . o e ~ @.! _ Y.Q.[ L a * X . . .             ",
"            . . . . . % p P ,X-X[ T @.~ e * 4 4 , : : B M.;X}.}.}.}.;XM.B : : , 4 4 * e ~ +.T [ -X,XP p % . . . . .             ",
"                        % V U.-X[ T +.' L K V.B.t.m m t.U.5X5X4X4X5X5XU.t.m m t.B.V.K L ' } T [ -XU.V %                         ",
"                        . 6 C.-X[ T +.+.T [ >XqXx.q.q.l.*XyXyXyXyXyXyX*Xl.q.q.x.qX>X[ T } } T [ -XI.6 .                         ",
"                        . 6 C.-X[ T } } T [ >XqXoXj.j.oX*XyXyXyXyXyXyX*XoXj.j.oXqX>X[ T +.+.T [ -XI.6 .                         ",
"                        . 6 L.}.[ T +.+.T [ :XjX%XoXoX@X3XeX5X4X4X5XeX3X@XoXoX%XjX:X[ T +.+.T [ }.L.6 .                         ",
"                        . 3 M.T.) T +.+.T { -XyX3X*X*X3XrX5X;X}.}.;X5XrX3X*X*X3XyX-X[ T +.+.T ) T.M.3 .                         ",
"                        . < I U K L ! ' T [ -XyXyXyXyXyXyX5X;X}.}.:X5XyXyXyXyXyXyX-X[ T ' ^ L K U I < .                         ",
"                            < < * q L E Y [ -XyXyXyXyXyXyXeX5X4X4X5XeXeXyXyXyXyXyX-X[ Y E L q * < <                             ",
"                            . . . % p J J K m.{.6XyXyXyXyXeX>X>X>X4XeXyXyXyXyX6X{.m.K J J p % . . .                             ",
"                                    * * * * 1 F {.iXyXyXyX5XW.Q.Q.W.5XyXyXyXiX{.F 1 * & * &                                     ",
"                                    . . . . . 3 b.I.I.I.I.L.K.K.K.Y.L.C.I.I.P.b.1 . . . . .                                     ",
"                                    . .         6 6 6 6 6 A S.R.R.S.A 6 6 6 6 6         . .                                     ",
"                                    . .         . . + + + 7 m.E.H.I w X X . . .         . .                                     ",
"                                                . + j l c S !.H.I u r 0 = % X .                                                 ",
"                                                : j 6.7.4.w.N.U g 0 e i v 4 > :                                                 ",
"                                            . : c 6.7.9.7.r.Z g u e q y S 6.M c : .                                             ",
"                                            . : M f.9.7.6.S y q e i b B 6.9.f.0.k >                                             ",
"                                            . > a.j.7.x k y d u q b D p.4.7.d.k.p.M > .                                         ",
"                                            6 B p.f.M k t e u f b S l.j.4.4.k.x.k.p.B 6                                         ",
"                                        . 6 v.Z.s.M k t u u r b D l.l.k.4.4.k.k.y.u.Z.v.6 .                                     ",
"                                        . 4 B.@Xw.k t e f V N S l.c.c.k.y.7.f.f.5.e.@XB.4 .                                     ",
"                                        . > S w.n t d f e N t.l.l.c.c.l.k.d.7.5.z 5.e.S > .                                     ",
"                                        . > S D v 0 i u t n p.j.j.d.j.j.j.d.u.i.i.i.i.S > .                                     ",
"                                        . 4 v.V.V s 0 t k l 5.4.4.4.4.4.4.u.Z.&X&X&X&Xv.8 .                                     ",
"                                        . 1 N.M.V 0 V G h.s.s.u.u.u.u.u.u.l.@X*XeXiXiXI.6 .                                     ",
"                                        . @ d V q V V.*X8X8X8X7X7X7X7X8X8X@Xg.A.*XiXpXP.6 .                                     ",
"                                        @ * 0 0 0 A Z.9X8X7X8X8X8X8X7X8X8X+Xe.r.v.I.P.b.6 .                                     ",
"                                    . @ w d f i 0 v w.s.s.u.u.u.u.s.u.u.u.e.5.l k 6 6 6                                         ",
"                                    . @ i C C f q y S e.e.7.3.z z 3.7.e.e.4.l j + . . .                                         ",
"                                    . @ i C C f 0 N l.OXOXx.r.z z 7.x.#X#Xl.k +                                                 ",
"                                    . @ i C C f 0 Z @XwXwX$Xs.z l r.A.+X+Xz.8 .                                                 ",
"                                    . @ i C C f 0 Z &XdXdX0Xs.l k v N Z Z v # .                                                 ",
"                                    . @ w i i r 0 V V.=X=XZ.w.k 9 = 0 q q - o .                                                 ",
"                                        @ @ @ * - r V Z Z A v < O * r V V r O .                                                 ",
"                                        . . . X * - 0 0 0 0 = * X O w u u w @ .                                                 ",
"                                                X * r V V r * X     @ @ @ @                                                     ",
"                                                . @ w u u w O .     . . . .                                                     ",
"                                                    @ @ @ @                                                                     ",
"                                                    . . . .                                                                     "
};
