/* XPM */
static char *down[] = {
/* columns rows colors chars-per-pixel */
"64 64 229 2 ",
"   c None",
".  c #000000",
"X  c #0D0605",
"o  c #160808",
"O  c #030A17",
"+  c #1A1311",
"@  c #171315",
"#  c #111116",
"$  c #240C0C",
"%  c #2D1212",
"&  c #2A1916",
"*  c #371D1B",
"=  c #36281C",
"-  c #37311F",
";  c #081321",
":  c #141C26",
">  c #070F2F",
",  c #3A1D27",
"<  c #1B2231",
"1  c #362926",
"2  c #372B29",
"3  c #3C3421",
"4  c #36312E",
"5  c #3C2838",
"6  c #353433",
"7  c #3A3633",
"8  c #3C3936",
"9  c #36353B",
"0  c #232930",
"q  c #45211F",
"w  c #4A2825",
"e  c #522D2A",
"r  c #532623",
"t  c #48322D",
"y  c #5A332C",
"u  c #54322E",
"i  c #482D36",
"p  c #593B36",
"a  c #4B363E",
"s  c #692E2C",
"d  c #67443B",
"f  c #6C5D3A",
"g  c #5E413E",
"h  c #1B304B",
"j  c #2B3354",
"k  c #192963",
"l  c #23347A",
"z  c #2B386D",
"x  c #111C48",
"c  c #493441",
"v  c #523E43",
"b  c #403B55",
"n  c #244571",
"m  c #385375",
"M  c #574349",
"N  c #4A4753",
"B  c #684943",
"V  c #76544C",
"C  c #655456",
"Z  c #664E51",
"A  c #4C5172",
"S  c #655D62",
"D  c #5B697E",
"F  c #6C6967",
"G  c #716866",
"H  c #6E6570",
"J  c #6B634F",
"K  c #923637",
"L  c #95544C",
"P  c #A74A45",
"I  c #B47157",
"U  c #956E69",
"Y  c #B27571",
"T  c #C54D4C",
"R  c #CD5A52",
"E  c #C75957",
"W  c #D05A54",
"Q  c #CE6957",
"!  c #D5685B",
"~  c #C3755D",
"^  c #D2705E",
"/  c #CA5F60",
"(  c #CD6362",
")  c #D36A67",
"_  c #D37566",
"`  c #D97968",
"'  c #D37473",
"]  c #D77976",
"[  c #CF7271",
"{  c #E27E6A",
"}  c #988453",
"|  c #BC9764",
" . c #BFA669",
".. c #BFAC7D",
"X. c #DA8766",
"o. c #CD8264",
"O. c #E58169",
"+. c #E88A6D",
"@. c #ED9272",
"#. c #E99C74",
"$. c #F09474",
"%. c #F29E77",
"&. c #EC8F70",
"*. c #C3A76B",
"=. c #D3B776",
"-. c #CFB370",
";. c #E9A575",
":. c #F3A278",
">. c #F6A97B",
",. c #EFB97B",
"<. c #F3B77D",
"1. c #F4C27E",
"2. c #2B3E84",
"3. c #344D8D",
"4. c #364886",
"5. c #365384",
"6. c #3B5897",
"7. c #314B8E",
"8. c #3B619C",
"9. c #3B608A",
"0. c #3D6CA4",
"q. c #4F598A",
"w. c #586B87",
"e. c #49649C",
"r. c #5D6B9E",
"t. c #53619C",
"y. c #54769B",
"u. c #62658D",
"i. c #4669A4",
"p. c #5E6BA1",
"a. c #557AAC",
"s. c #5079AC",
"d. c #6B75A3",
"f. c #5584B5",
"g. c #5B89B6",
"h. c #5D83AA",
"j. c #6487A7",
"k. c #748BB5",
"l. c #758393",
"z. c #689CC4",
"x. c #7696C3",
"c. c #6AA0C8",
"v. c #9B928A",
"b. c #999999",
"n. c #938E8E",
"m. c #B88C85",
"M. c #B8918B",
"N. c #BD9B95",
"B. c #A38A8D",
"V. c #828CAD",
"C. c #9EA8B2",
"Z. c #BFB6AD",
"A. c #A9ABB9",
"S. c #B1A6AB",
"D. c #B8A098",
"F. c #CD948D",
"G. c #E19088",
"H. c #E79E98",
"J. c #ED9591",
"K. c #DCA59C",
"L. c #F9B981",
"P. c #EBA39D",
"I. c #C7AEA6",
"U. c #C1B6AC",
"Y. c #C3BAAE",
"T. c #CABCB6",
"R. c #EAAAA3",
"E. c #F2B3AB",
"W. c #F5B7AF",
"Q. c #F4BBB2",
"!. c #FABCB4",
"~. c #F2ACA7",
"^. c #C59BA1",
"/. c #FCCD87",
"(. c #F7C381",
"). c #FED48A",
"_. c #FFDD8B",
"`. c #F8D485",
"'. c #FCDA97",
"]. c #F3C894",
"[. c #FFE18E",
"{. c #FFE491",
"}. c #FFE39F",
"|. c #D3C7BA",
" X c #CDC1BA",
".X c #F6C5BB",
"XX c #FFE5A2",
"oX c #FFE6A9",
"OX c #FFEAAB",
"+X c #FFECBF",
"@X c #85AAC9",
"#X c #AAACC4",
"$X c #A4B4CB",
"%X c #B5BCD6",
"&X c #A8BFD0",
"*X c #96B9E1",
"=X c #A9C4D8",
"-X c #D9CBC3",
";X c #D6D5D7",
":X c #CFC5C7",
">X c #F4CCC3",
",X c #FACDC2",
"<X c #F5D1CA",
"1X c #FADAD6",
"2X c #E5D0CD",
"3X c #FDEACC",
"4X c #FFF2C3",
"5X c #FFF1CF",
"6X c #E4E0DE",
"7X c #FDE1D6",
"8X c #FEE5D9",
"9X c #F7E8DB",
"0X c #CFD3E2",
"qX c #D1D5E4",
"wX c #D1D6E8",
"eX c #DAE8F4",
"rX c #FEEDE1",
"tX c #F7EBE2",
"yX c #FFF2E5",
"uX c #FFF8E6",
"iX c #FEF5EA",
"pX c #FFFAEB",
"aX c #FFFFF4",
"sX c #FFFEF0",
"dX c #FFFFFF",
"fX c #FFFFFE",
"gX c #FFFEFC",
"hX c #F4F5F5",
"jX c #E5E8E9",
/* pixels */
"                                                                                                                                ",
"                                                                                                                                ",
"                                            . . . . . . . . . . . . . . . . . . . .                                             ",
"                                            - 3 3 3 3 3 3 3 = = = = 3 3 3 3 3 3 3 -                                             ",
"                                    . . . = } *.*. . . . .| I I I I |  . . . .*.*.} = . . .                                     ",
"                                    6 7 3 f =.{.{.{.[.{.{.).L.>.>.L.).{.{.{.{.{.{.=.f 3 7 6                                     ",
"                                . 6 b.Y...-.`.[.[.[.[.[.[.).)././.).).[.[.[.[.[.[.`.-...Y.b.6 .                                 ",
"                                6 F ;XaX4XXX{.).).).).).).).).).).).).).).).).).).{.XX4XaX;XF 6                                 ",
"                            . 6 b.;XhXdXuX5X}._.).).).).).).).).).).).).).).).).).XX5XuXdXhX;Xb.6 .                             ",
"                            = J |.aXdXdXdXuX+XoXoXXX{.{.XXoXoXoXoXoXoXoXoXoXoXXX_.oXuXdXdXdXaX|.J =                             ",
"                        . - } =.'.4XuXdXdXdXuXuXuX5XXXXX5XuXuXuXuXuXuXuXuXuXuX5XXXoXuXdXdXuX4X'.=.} = .                         ",
"                        . 3 *.{.[.}.5XuXuXuXuXuXuX3X].].3XuXuXuXuXuXuXuXuXuXuX3X'.'.3XuXuX5X}.[.{.*.3 .                         ",
"                        . -  .{.[._.XXoXoXoXoXOXOX].X.X.].OXOXoXOXOXOXOXoXoXoX'.L.L.'.OXoXXX_.[.{. .- .                         ",
"                        = f -.[.[.).).).).).).).1.;._ _ ;.1.).).).).).).).).)./.<.>.(.).).).).[.[.-.f =                         ",
"                    . - } =.`.).[.).).).).).[.1.X._ G.G._ X.1.[.[.).).).).).).)./.L.>.<./.).[.[.).`.=.} - .                     ",
"                    . 3 *.{.[.).)./.).).).).(.;._ ] R.R.] _ ;.(.).[.[.[.).).).).[.(.@.@.(.).)./.).[.{.*.3 .                     ",
"                    . 3 *.{.[./.<.<.).[.[.1.X._ G.P.E.E.P.G._ X.(.[.[.[.).).).[.[.,.` ` ,.).<.<./.[.{.*.3 .                     ",
"                    . 3  .{.[./.:.:./.[.[.,.Q ( H..XQ.Q.Q.P.] _ ;.,.,.1.).[.[.).).;.Q Q ,./.:.:./.[.{. .3 .                     ",
"                    . 3  .{.[./.:.:./.[.[.,.Q ( H..XQ.Q.Q.E.P.G._ Q Q X.(.[.[.).L.+.R Q ,./.:.:./.[.{. .3 .                     ",
"                    . 3  .{.[./.:.%.L.).).;.Q E G.H.H.P.E.Q.Q.P.] E / _ ;.,.,.;.+.^ R Q ;.L.:.:./.[.{. .3 .                     ",
"                    . 3  .{.{./.:.@.%.:.>.&.R T E ( Q ] P.Q.Q.E.P.H.H.G._ Q Q Q R T T Q +.:.$.:./.[.{. .3 .                     ",
"                    . 3  .[.).L.%.@.@.&.O.` ) ) ( ( ( ] P.Q.Q.Q.Q.Q.Q.R.] ( ( ( ) Q T R { $.@.:.L.).[. .3 .                     ",
"                    . -  .).L.:.$.@.@.O.! ) G.P.P.P.P.P.E.Q.Q.Q.Q.Q.Q.E.R.P.P.P.P.G.E R { $.@.$.:.L.). .- .                     ",
"                    * d *.L.@.O.&.$.$.O.R E Y M.M.m.m.F.R.Q.Q.Q.Q.Q.Q.R.F.m.m.M.M.Y E R O.$.$.&.O.@.L.*.d *                     ",
"                . = L o.#.@.! ! O.$.$.O.W P p 4 4 4 2 Z F.Q.Q.W.Q.Q.Q.F.Z 2 4 4 4 p P W O.$.$.O.! ! @.#.o.L = .                 ",
"                . & L ~ ` { _ _ ` O.@.` P s o . . . . 1 m.!.Q.W.Q.Q.!.m.1 . . . . o s P ` @.O.` _ _ { ` ~ L & .                 ",
"            . . . X & y P ] ~.R._ ! O.~ y o . . . . . 1 m.!.Q.E.W.Q.!.m.1 . . . . . o y ~ O.! _ R.E.] P y & X . . .             ",
"            . . . . . $ s I >X>X] R O.~ y & 6 9 < ; ; N N.,X.X.X.X.X,XN.N ; ; < 9 6 & y ~ O.R [ >X>XI s $ . . . . .             ",
"                        $ B T.>X] R O.` P L D.C.w.n n w.T.8X8X7X7X8X8XT.w.n n w.C.D.L P ` O.R ] >XT.B $                         ",
"                        . 7 Z.>X] R O.O.R ] 1XeXx.0.0.k.;XyXyXyXyXyXyX;Xk.0.0.x.eX1X] R O.O.R ] >XZ.7 .                         ",
"                        . 7 Z.>X] R O.O.R ] 1XeX@Xf.f.@X;XyXyXyXyXyXyX;X@Xf.f.@XeX1X] R O.O.R ] >XU.7 .                         ",
"                        . 7 Z..X] R O.O.R ] <XjX=X@X@X&X6XrX8X7X7X8XrX6X&X@X@X=XjX<X] R O.O.R ] .XI.7 .                         ",
"                        . 4 N.E.) R O.O.R ] >XiX6X;X;X6XrX8X,X.X.X,X8XtX6X;X;X6XiX>X[ R O.O.R ) E.N.4 .                         ",
"                        . 1 U Y L P ^ { R ] .XiXyXyXyXyXyX8X,X.X.X,X8XyXyXyXyXyXiX>X] R ` ^ P L Y U 1 .                         ",
"                            1 1 % r P W T ] >XiXyXyXyXyXrXrX8X7X7X8XrXrXyXyXyXyXiX>X] T W P r % 1 1                             ",
"                            . . . $ s K K L M.|.9XiXiXyXyXrX7X1X1X7XrXyXyXyXiX9X|.M.L K K s $ . . .                             ",
"                                    % % % & 2 F |.uXiXiXiX8X!.~.~.!.8XiXiXiXuX|.F 2 & % % %                                     ",
"                                    . . . . . 4 v.Y.U.U.U.I.P.P.P.R.I.U.U.U.Y.v.4 . . . . .                                     ",
"                                    . .         7 7 7 7 7 C F.W.!.F.C 7 7 7 7 7         . .                                     ",
"                                    . .         . . O O O 9 M.Q.K.U 4 X X . . .         . .                                     ",
"                                                . O h z k A ^.K.U d u w * $ X .                                                 ",
"                                                ; h 5.6.7.q.B.Y d w y p a 9 : ;                                                 ",
"                                            . ; j 5.6.8.6.q.C d p y e a A 5.m j ; .                                             ",
"                                            : j 9.i.8.6.5.A a e y p v N 5.8.i.9.j :                                             ",
"                                        . : m a.g.s.6.z j a g p e v D y.3.6.s.g.y.m : .                                         ",
"                                        7 N y.g.z.f.5.j t y d d v A j.f.3.3.f.z.g.y.N 7                                         ",
"                                    . 6 b.A.r.8.g.h.N i p d u v D j.k.f.3.3.f.g.8.r.A.b.6 .                                     ",
"                                    4 S A.%Xk.r.y.w.M u d B M A j.c.z.g.e.6.s.a.p.k.%XA.S 2                                     ",
"                                . 4 v.S.d.k.%X#XH v B p y M w.j.k.z.z.z.g.s.6.p.$X%Xk.d.S.v.4 .                                 ",
"                                4 G -X6XV.d.%XA.Z w p p i b e.f.f.s.f.f.f.i.4.t.$X%Xd.V.6X-XG 4                                 ",
"                            . 6 v.-X9XrX;X#Xk.q.c q w i j z 4.3.3.3.3.3.3.3.2.4.t.k.#X;XrX9X-Xv.7 .                             ",
"                            . 7 v.Y.U.|.9X:Xu.j 5 u Z H u.p.p.r.r.p.r.p.r.t.4.l k A :X9X|.U.Y.v.7 .                             ",
"                                7 7 7 G -X-XS , , Z D.;XqX0X0X0XqXqX0XqXqX$Xt.k > N  X-XG 7 7 7                                 ",
"                                . . . 2 v.N.V w q Z A.wXqX0XqXqXqXqX0XqXqX#Xq.x O 7 v.v.6 . . .                                 ",
"                                    . + p V B p w c q.p.r.r.p.p.p.p.r.p.p.A < O     7 6                                         ",
"                                    . o * p B d e c A i.e.6.4.l l 2.6.i.i.m ; .     . .                                         ",
"                                    . + t B V d e M k.*X*Xx.6.l l 6.x.*X*Xj.0 .                                                 ",
"                                    . + p V V d e M V.$X$XV.q.z z q.V.$X$Xl.0 .                                                 ",
"                                    . + p V V B e t M C C M c 5 5 c M C C c @ .                                                 ",
"                                    . + t p p t 1 * w e e w * * * * w e e = o .                                                 ",
"                                        + + + + o & u B B u & X X & u B B t + .                                                 ",
"                                        . . . . . + t p p t + . . + t p p t + .                                                 ",
"                                                    + + + +         + + + +                                                     ",
"                                                    . . . .         . . . .                                                     "
};
