/* XPM */
static char *down1[] = {
/* columns rows colors chars-per-pixel */
"64 64 225 2 ",
"   c None",
".  c #000000",
"X  c #0C0605",
"o  c #160808",
"O  c #17100F",
"+  c #030A18",
"@  c #1A1311",
"#  c #0F1119",
"$  c #240C0C",
"%  c #2C1212",
"&  c #2A1916",
"*  c #381E1B",
"=  c #36281B",
"-  c #37311F",
";  c #0A1422",
":  c #151B26",
">  c #19212B",
",  c #362926",
"<  c #372929",
"1  c #3C3421",
"2  c #37312E",
"3  c #372A34",
"4  c #343334",
"5  c #3A3633",
"6  c #3B3936",
"7  c #39393B",
"8  c #2F3337",
"9  c #311E2A",
"0  c #4A2725",
"q  c #512D2A",
"w  c #522824",
"e  c #48322C",
"r  c #5A332C",
"t  c #53322D",
"y  c #482D36",
"u  c #47383D",
"i  c #593B36",
"p  c #72292A",
"a  c #63322D",
"s  c #5B413E",
"d  c #64423B",
"f  c #6B483C",
"g  c #6C5D3A",
"h  c #192B4B",
"j  c #2F3252",
"k  c #29366C",
"l  c #253578",
"z  c #2C366E",
"x  c #1A2D62",
"c  c #4A3441",
"v  c #523E43",
"b  c #433A54",
"n  c #244571",
"m  c #365578",
"M  c #574348",
"N  c #494754",
"B  c #674844",
"V  c #665455",
"C  c #725552",
"Z  c #434C74",
"A  c #4E516E",
"S  c #5B697E",
"D  c #6C6869",
"F  c #6B634F",
"G  c #923637",
"H  c #95544C",
"J  c #A74A45",
"K  c #B47157",
"L  c #956E69",
"P  c #B27571",
"I  c #C54D4C",
"U  c #CD5A52",
"Y  c #C75957",
"T  c #D25B55",
"R  c #C8534F",
"E  c #CE6957",
"W  c #D5685B",
"Q  c #C3755D",
"!  c #D2705E",
"~  c #CA5F60",
"^  c #CD6362",
"/  c #D36A67",
"(  c #D37566",
")  c #D4756C",
"_  c #DC7B65",
"`  c #D37473",
"'  c #D77976",
"]  c #CF7271",
"[  c #E27E6A",
"{  c #988453",
"}  c #BC9764",
"|  c #BFA669",
" . c #BFAC7D",
".. c #DA8766",
"X. c #CD8264",
"o. c #E58169",
"O. c #E88A6D",
"+. c #ED9272",
"@. c #E99C74",
"#. c #F09474",
"$. c #F29E77",
"%. c #EC8F70",
"&. c #C3A76B",
"*. c #D3B776",
"=. c #CFB370",
"-. c #E9A575",
";. c #F3A278",
":. c #F6A97B",
">. c #EFB97B",
",. c #F3B77D",
"<. c #F4C27E",
"1. c #293C82",
"2. c #334C8D",
"3. c #344687",
"4. c #375385",
"5. c #3A5896",
"6. c #314C8E",
"7. c #3A619C",
"8. c #3B608A",
"9. c #3C6AA3",
"0. c #4A5584",
"q. c #565A87",
"w. c #4C5C98",
"e. c #515E98",
"r. c #586B87",
"t. c #5E6A9E",
"y. c #59669C",
"u. c #55759A",
"i. c #486995",
"p. c #5A6AA2",
"a. c #4A71A7",
"s. c #5072A8",
"d. c #606DA1",
"f. c #616A9C",
"g. c #5584B5",
"h. c #5B89B7",
"j. c #5D83AA",
"k. c #6487A9",
"l. c #6B94BB",
"z. c #6F99C4",
"x. c #6AA0C8",
"c. c #989698",
"v. c #96908E",
"b. c #B88C85",
"n. c #B8918B",
"m. c #BB9B94",
"M. c #A38A8C",
"N. c #8D95AE",
"B. c #9CA7B3",
"V. c #BFB6AD",
"C. c #A9A9B8",
"Z. c #B8A2A1",
"A. c #A79FA1",
"S. c #CD948D",
"D. c #E19088",
"F. c #E79E98",
"G. c #ED9591",
"H. c #DCA59C",
"J. c #F9B981",
"K. c #EBA39D",
"L. c #C7AEA6",
"P. c #C2B8AD",
"I. c #CBBDB6",
"U. c #EAAAA3",
"Y. c #F2B3AB",
"T. c #F5B7AF",
"R. c #F4BBB2",
"E. c #FABCB4",
"W. c #F2ACA7",
"Q. c #C59BA1",
"!. c #FCCD87",
"~. c #F7C381",
"^. c #FED48A",
"/. c #FFDD8B",
"(. c #F8D485",
"). c #FCDA97",
"_. c #F3C894",
"`. c #FFE18E",
"'. c #FFE491",
"]. c #FFE39F",
"[. c #D5C7BB",
"{. c #F6C5BB",
"}. c #FFE5A2",
"|. c #FFE6A9",
" X c #FFEAAB",
".X c #FFECBF",
"XX c #85AAC9",
"oX c #92B3DC",
"OX c #A7B4CB",
"+X c #97BAE2",
"@X c #A5BEE0",
"#X c #A9C4D8",
"$X c #D6D6D7",
"%X c #D2CCCF",
"&X c #F4CCC3",
"*X c #FACDC2",
"=X c #F5D1CA",
"-X c #FADAD6",
";X c #E9CAC0",
":X c #FDEACC",
">X c #FFF2C3",
",X c #FFF1CF",
"<X c #E4E0DE",
"1X c #FDE1D6",
"2X c #FEE5D9",
"3X c #F3E5D9",
"4X c #CFD3E2",
"5X c #D2D5E4",
"6X c #D2D7E8",
"7X c #C2CEE5",
"8X c #D7EBF8",
"9X c #FFEDE1",
"0X c #F7EBE2",
"qX c #FFF2E5",
"wX c #FFF8E6",
"eX c #FEF5EA",
"rX c #FFFAEB",
"tX c #FFFFF4",
"yX c #FFFEF0",
"uX c #FFFFFF",
"iX c #FFFFFE",
"pX c #FFFEFC",
"aX c #FDFFFF",
"sX c #F4F5F5",
"dX c #E5E8ED",
/* pixels */
"                                            . . . . . . . . . . . . . . . . . . . .                                             ",
"                                            = 1 1 1 1 1 1 1 = = = = - 1 1 1 1 1 1 =                                             ",
"                                    . . . = { &.&.| | | | } K K K K } | | | | &.&.{ = . . .                                     ",
"                                    4 5 1 g *.'.'.`.`.'.'.^.J.:.:.J.^.'.'.`.`.'.'.*.g 1 5 4                                     ",
"                                . 4 c.P. .=.(.`.`.`.`.`.`./.^.!.!.^./.`.`.`.`.`.`.(.=. .P.c.4 .                                 ",
"                                4 D $XtX>X}.'././././././././././././././././././.'.}.>XtX$XD 4                                 ",
"                            . 4 c.$XsXiXrX,X]././././././././././././././././././.}.,XrXiXsX$Xc.4 .                             ",
"                            = F [.tXiXiXiXrX.X|.|.}.'.'.}.|.|.|.|.|.|.|.|.|.|.}./.|.wXiXiXiXtX[.F =                             ",
"                        . = { *.).>XrXiXiXiXrXwXwX,X}.}.,XrXwXwXwXwXwXwXwXwXrX,X].}.wXiXiXrX>X).*.{ = .                         ",
"                        . 1 &.'.`.].,XwXwXwXwXrXrX:X_._.:XrXrXwXwXwXwXwXwXwXrX:X).).:XwXwX,X].`.'.&.1 .                         ",
"                        . - | '.`./.}.|.|.|.|. X X_....._. X X|.|.|.|.|.|.|.|.).J.J.). X|.}./.`.'.| - .                         ",
"                        = g =.`.`././././././.^.<.-.( ( -.<.^././././././././.!.:.:.~.^./././.`.`.=.g =                         ",
"                    . - { *.(./././././././.`.<...( D.D.( ..<.`././././././././.!.J.:.,.!././././.(.*.{ - .                     ",
"                    . 1 &.'.`./.!.!./././.^.~.-.( ' U.U.' ( -.<.^.`.`./././././.`.~.+.+.~./.^.!./.`.'.&.1 .                     ",
"                    . 1 &.'.`.!.,.,.!.`.`.<...( D.K.Y.Y.K.D.( ..~.`.`.`./././.`.`.>.( ( >.^.,.,.!.`.'.&.1 .                     ",
"                    . 1 | '.`.!.;.;.!.`.`.>.E ^ F.{.R.R.R.K.' ( -.>.>.<.^.`.`./.^.-.E E >.!.;.;.!.`.'.| 1 .                     ",
"                    . 1 | '.`.!.;.;.!.`.`.>.E ^ F.{.R.R.R.Y.K.D.( E E ..~.`.`.^.J.O.U E >.!.;.;.!.`.'.| 1 .                     ",
"                    . 1 | '.`.!.;.$.J.!.^.-.E Y D.F.F.K.Y.R.R.K.' Y ~ ( -.>.>.-.O.! U E -.J.;.;.!.`.'.| 1 .                     ",
"                    . 1 | '.'.!.;.#.$.;.;.O.U I Y ^ ^ ' K.R.R.Y.K.F.F.D.( E E E U U I E O.;.#.;.!.`.'.| 1 .                     ",
"                    . 1 | `.^.J.;.+.+.%.o._ / / / ^ ^ ' K.R.R.R.R.R.R.K.' ^ ^ ^ / E R U [ #.+.;.J.^.`.| 1 .                     ",
"                    . - | ^.J.;.#.+.#.o.W / D.K.K.K.K.K.Y.R.R.R.R.R.R.Y.U.K.K.K.K.D.Y U [ #.#.#.;.J.^.| - .                     ",
"                    * f &.J.+.o.%.#.#.o.U Y P n.n.b.b.S.U.R.R.R.R.R.R.U.S.b.b.n.n.P Y U o.#.#.%.o.+.J.&.f *                     ",
"                . = H X.@.+.W W o.#.#.o.T J i < < < < V S.R.R.R.R.R.E.S.V < < < < i J T o.#.#.o.W W +.@.X.H = .                 ",
"                . & H Q _ [ ( ( _ O.+._ J p o . . . . , b.E.R.T.T.R.E.b., . . . . o p J _ %.O._ ( ( [ _ Q H & .                 ",
"            . . . X & a J ' Y.U.( W O.Q r o . . . . . , b.E.R.T.Y.R.E.b., . . . . . o r Q O.W ( U.Y.' J a & X . . .             ",
"            . . . . . $ p K ;X&X' U O.Q r & 4 8 > ; ; N m.*X{.{.{.{.*Xm.N ; ; > 8 4 & r Q o.U ' &X;XK p $ . . . . .             ",
"                        $ B I.&X' U o._ J H Z.B.r.n n r.I.2X2X1X1X2X2XI.r.n n r.B.Z.H J _ [ U ' &XI.B $                         ",
"                        . 5 V.&X' U o.o.U ' -X8Xz.9.9.l.$XwXwXwXwXwXwX$Xl.9.9.z.8X-X' U [ [ U ' &XP.5 .                         ",
"                        . 5 P.&X' U [ [ U ' -X8XXXg.g.XX$XwXwXwXwXwXwX$XXXg.g.XX8X-X' U o.o.U ' &XP.5 .                         ",
"                        . 6 L.{.' U o.[ U ' =XdX#XXXXXOX<X9X2X1X1X2X9X<XOXXXXX#XdX=X' U o.o.U ' {.L.5 .                         ",
"                        . 2 m.Y./ U o.o.U ] &XwX<X$X$X<X0X2X*X{.{.*X2X0X<X$X$X<XwX&X' U o.o.U / Y.m.2 .                         ",
"                        . , L P H J W _ U ' &XwXwXwXwXwXwX2X*X{.{.=X2XwXwXwXwXwXwX&X' U _ ! J H P L , .                         ",
"                            , , % w J T I ' &XwXwXwXwXwXwX9X2X1X1X2X9X9XwXwXwXwXwX&X' I T J w % , ,                             ",
"                            . . . $ p G G H n.[.3XwXwXwXwX9X-X-X-X1X9XwXwXwXwX3X[.n.H G G p $ . . .                             ",
"                                    % % % & < D [.rXwXwXwX2XE.W.W.E.2XwXwXwXrX[.D < & % % %                                     ",
"                                    . . . . . 2 v.P.P.V.P.L.K.K.K.U.L.V.P.P.P.v.< . . . . .                                     ",
"                                    . .         6 5 5 6 6 V S.T.E.S.V 6 6 5 5 6         . .                                     ",
"                                    . .         . . + + + 7 n.R.H.L e X X . . .         . .                                     ",
"                                                . + h k x A Q.H.L i t 0 * $ X .                                                 ",
"                                                ; h 4.5.6.q.M.P f 0 r i c 3 : ;                                                 ",
"                                            . ; x 4.5.7.5.0.V f i r q u Z 4.m x ; .                                             ",
"                                            : j 8.a.7.5.4.Z u q r i v N 4.9.a.m ; .                                             ",
"                                        . : m u.h.s.5.z j u s i q v S u.2.5.g.i.: .                                             ",
"                                        4 N u.h.x.j.4.j y r f f v A k.j.2.2.a.u.N 5                                             ",
"                                    . 7 c.C.y.7.h.j.N y i i t v S k.l.j.2.1.3.t.C.A.7 .                                         ",
"                                    . u %XdXN.t.u.r.M t f B M A k.x.x.h.i.2.l e.OXB.4 .                                         ",
"                                    . 7 %XiXdXC.D v f f r M r.k.l.x.x.z.h.a.2.3.e.Z : .                                         ",
"                                    . 8 N.6X6XC.V 0 i i y b i.g.g.s.g.g.g.a.2.3.w.Z : .                                         ",
"                                    . : Z p.p.q.c 0 0 y j z 3.6.2.2.2.2.2.3.1.e.C.c.4 .                                         ",
"                                    . : Z t.t.A u 0 3 b q.d.d.t.t.t.t.p.p.w.3.f.$XI.u .                                         ",
"                                    . 4 c.%X%XA.V 3 j q.OX5X5X5X4X4X4X5X5XOXw.t.%XI.u .                                         ",
"                                    . < M.[.[.m.B 3 k e.OX5X5X5X5X5X4X5X5XOXe.0.c.v.6 .                                         ",
"                                    . @ s C C B t 3 k 3.e.t.d.d.d.p.t.t.t.e.3.z j 2                                             ",
"                                    . o * q q 0 0 c 0.w.w.5.1.l l 1.5.w.w.2.z h + .                                             ",
"                                    . O e f f i 0 M N.+X+Xz.5.l l 5.z.oXoXk.j +                                                 ",
"                                    . @ i C C f q M N.OXOXN.0.k l p.@X8X8XB.8 .                                                 ",
"                                    . @ i C C B q e M V V M c j k p.7XiXiXOX7 .                                                 ",
"                                    . @ e i i e , * 0 q q 0 * 9 j q.C.%X$Xc.4 .                                                 ",
"                                        @ @ @ O o & t B B t & O 9 c V C C M @ .                                                 ",
"                                        . . . . . O e s i e O X % * 0 q q = o .                                                 ",
"                                                    @ @ @ @     X & t B B e O .                                                 ",
"                                                    . . . .     . O e i i e @ .                                                 ",
"                                                                    @ @ @ @                                                     ",
"                                                                    . . . .                                                     "
};
