/* XPM */
static char *left1_png[] = {
/* columns rows colors chars-per-pixel */
"64 64 16 1 ",
"  c None",
". c black",
"X c #462424",
"o c #664339",
"O c #725148",
"+ c #C14B4B",
"@ c #EF9273",
"# c #293A80",
"$ c #3A639B",
"% c #6799C1",
"& c #F79696",
"* c #F3B9B0",
"= c #ffdd8c",
"- c #B4D8F5",
"; c #FFEFE3",
": c #FFFFFF",
/* pixels */
"                        ..................                      ",
"                        ..................                      ",
"                    ....======@@@@========....                  ",
"                    ....======@@@@========....                  ",
"                  ..::======================::..                ",
"                  ..::======================::..                ",
"                ..::::::==================::::::..              ",
"                ..::::::==================::::::..              ",
"                ..==::::::::::::::::::::::::::====..            ",
"                ..==::::::::::::::::::::::::::====..            ",
"              ..==================================..            ",
"              ..==================================..            ",
"              ..==============@@====================..          ",
"              ..==============@@====================..          ",
"              ..==============++==@@================..          ",
"              ..==============++==@@================..          ",
"                ..++========@@++==@@================..          ",
"                ..++========@@++==@@================..          ",
"                ..**++++++++++++@@@@====@@==========..          ",
"                ..**++++++++++++@@@@====@@==========..          ",
"                ..************++@@@@@@==++========@@..          ",
"                ..************++@@@@@@==++========@@..          ",
"                ..****........++@@@@++@@@@++@@@@@@@@..          ",
"                ..****........++@@@@++@@@@++@@@@@@@@..          ",
"                  ..**..........@@++;;++++++++@@@@@@..          ",
"                  ..**..........@@++;;++++++++@@@@@@..          ",
"                  ..;;;;$$$$::++@@++;;++@@@@@@@@@@..            ",
"                  ..;;;;$$$$::++@@++;;++@@@@@@@@@@..            ",
"                  ..;;;;%%%%::++@@++;;++@@@@@@@@@@..            ",
"                  ..;;;;%%%%::++@@++;;++@@@@@@@@@@..            ",
"                ..;;;;;;;;;;;;++@@++**++@@@@@@@@..              ",
"                ..;;;;;;;;;;;;++@@++**++@@@@@@@@..              ",
"                  ..;;;;;;;;;;++@@++++@@@@@@@@..                ",
"                  ..;;;;;;;;;;++@@++++@@@@@@@@..                ",
"                    ....&&;;;;++++++@@@@@@..@@..                ",
"                    ....&&;;;;++++++@@@@@@..@@..                ",
"                        ......++XXXX......  ......              ",
"                        ......++XXXX......  ......              ",
"                            ..XXoo..                            ",
"                            ..XXoo..                            ",
"                            ..ooXX##..                          ",
"                            ..ooXX##..                          ",
"                            ..XX%%##;;..                        ",
"                            ..XX%%##;;..                        ",
"                          ..::##%%####..                        ",
"                          ..::##%%####..                        ",
"                        ..;;##::##%%..                          ",
"                        ..;;##::##%%..                          ",
"                        ..;;;;######..                          ",
"                        ..;;;;######..                          ",
"                          ..##::::::..                          ",
"                          ..##::::::..                          ",
"                          ..########..                          ",
"                          ..########..                          ",
"                        ..OOXX------..                          ",
"                        ..OOXX------..                          ",
"                      ..OOOOOO..::XXOO..                        ",
"                      ..OOOOOO..::XXOO..                        ",
"                      ..OOOO..  ..OOOOOO..                      ",
"                      ..OOOO..  ..OOOOOO..                      ",
"                        ....      ..OOOO..                      ",
"                        ....      ..OOOO..                      ",
"                                  ......                        ",
"                                  ......                        "
};
