/* XPM */
static char *left1[] = {
/* columns rows colors chars-per-pixel */
"64 64 219 2 ",
"   c None",
".  c #000000",
"X  c #0C0504",
"o  c #140C0B",
"O  c #160707",
"+  c #16100E",
"@  c #18110F",
"#  c #030819",
"$  c #1A1311",
"%  c #2D1C16",
"&  c #271414",
"*  c #341E1B",
"=  c #351D18",
"-  c #240C0C",
";  c #33221C",
":  c #38231B",
">  c #342D1C",
",  c #37301E",
"<  c #39301F",
"1  c #0C1423",
"2  c #161A25",
"3  c #201B26",
"4  c #3A2D2B",
"5  c #352826",
"6  c #3C3421",
"7  c #34312E",
"8  c #343334",
"9  c #393532",
"0  c #3B3935",
"q  c #393839",
"w  c #2E2B33",
"e  c #19212B",
"r  c #462925",
"t  c #44302B",
"y  c #49302D",
"u  c #58312B",
"i  c #593D36",
"p  c #5B3F39",
"a  c #583633",
"s  c #4C3032",
"d  c #652A2B",
"f  c #643D31",
"g  c #643230",
"h  c #733531",
"j  c #5D433C",
"k  c #6C5D3A",
"l  c #604335",
"z  c #172552",
"x  c #2F3150",
"c  c #2D3A71",
"v  c #141F4A",
"b  c #443F59",
"n  c #2E4675",
"m  c #594548",
"M  c #464354",
"N  c #6D4C43",
"B  c #6A514D",
"V  c #79564D",
"C  c #755249",
"Z  c #6D5956",
"A  c #4D5175",
"S  c #605E60",
"D  c #6D6A68",
"F  c #64655E",
"G  c #923E3D",
"H  c #A13F40",
"J  c #8D5644",
"K  c #95534F",
"L  c #A84745",
"P  c #B25148",
"I  c #B36D56",
"U  c #B46B56",
"Y  c #B7775A",
"T  c #B37975",
"R  c #916F69",
"E  c #C34C4C",
"W  c #C8544F",
"Q  c #CC5A53",
"!  c #C85755",
"~  c #D35E57",
"^  c #CF6C59",
"/  c #CE6757",
"(  c #D46A5B",
")  c #D6695C",
"_  c #C2765D",
"`  c #C5795F",
"'  c #D7715E",
"]  c #CE6464",
"[  c #CA6866",
"{  c #D26A64",
"}  c #CF706E",
"|  c #C97B61",
" . c #DC7A6A",
".. c #D87765",
"X. c #CF7371",
"o. c #D07471",
"O. c #D77A79",
"+. c #E37F68",
"@. c #988454",
"#. c #BC9764",
"$. c #BD817F",
"%. c #BFA669",
"&. c #BFAC7D",
"*. c #E58269",
"=. c #E58C6D",
"-. c #EA886D",
";. c #EB8D70",
":. c #ED9272",
">. c #EB9872",
",. c #F29475",
"<. c #F79978",
"1. c #E9916F",
"2. c #C1A76A",
"3. c #C2A86B",
"4. c #CFB26D",
"5. c #D3B775",
"6. c #CFB171",
"7. c #EBA876",
"8. c #F3A379",
"9. c #F8A57B",
"0. c #EDB87A",
"q. c #F5B17D",
"w. c #F1BC7D",
"e. c #F8B67F",
"r. c #DE8966",
"t. c #2B3C82",
"y. c #334789",
"u. c #365091",
"i. c #3D6CA4",
"p. c #485C98",
"a. c #525E98",
"s. c #515A8E",
"d. c #476487",
"f. c #5A6A9D",
"g. c #52668E",
"h. c #5776A9",
"j. c #576CA3",
"k. c #767DA7",
"l. c #616DA3",
"z. c #887E85",
"x. c #7B8796",
"c. c #5687B7",
"v. c #5C82AA",
"b. c #7789B1",
"n. c #7398C1",
"m. c #9B9189",
"M. c #969799",
"N. c #9D9B9D",
"B. c #978D86",
"V. c #B98D86",
"C. c #B88D86",
"Z. c #BA928B",
"A. c #A49A94",
"S. c #B0A29D",
"D. c #9496AA",
"F. c #A29CA5",
"G. c #BEB4AB",
"H. c #AFA6AB",
"J. c #9EA8B2",
"K. c #C89A93",
"L. c #D68D89",
"P. c #E5958F",
"I. c #FABA81",
"U. c #ECA19B",
"Y. c #C2BAAD",
"T. c #C1B5AC",
"R. c #CBBDB4",
"E. c #D0A9A1",
"W. c #EAACA4",
"Q. c #F0B4AC",
"!. c #FCCD86",
"~. c #F7C482",
"^. c #FED389",
"/. c #FFDD8B",
"(. c #F6D585",
"). c #FCDE93",
"_. c #FFE18E",
"`. c #FFE591",
"'. c #FFE39F",
"]. c #D4C7BB",
"[. c #EFC4BB",
"{. c #FEC2BA",
"}. c #FFE5A3",
"|. c #FFE6A9",
" X c #FFECBF",
".X c #86AAC9",
"XX c #92B3DC",
"oX c #9CB9CE",
"OX c #A8ACC8",
"+X c #B5BBD4",
"@X c #AFB5C9",
"#X c #94B6E0",
"$X c #ABC3D8",
"%X c #BFDBF1",
"&X c #D6D6D8",
"*X c #D0CCCB",
"=X c #F2CBC3",
"-X c #F8DBD7",
";X c #EAD5D3",
":X c #FFF3C4",
">X c #FFF2CE",
",X c #FAE5DA",
"<X c #E4E0DD",
"1X c #D2D5E5",
"2X c #D5D9E4",
"3X c #C5DFF4",
"4X c #DAE8F4",
"5X c #FBECE2",
"6X c #FFF4E5",
"7X c #FFF8E6",
"8X c #FEF5E9",
"9X c #FFFAED",
"0X c #FFFFF4",
"qX c #FFFEF0",
"wX c #FFFFFF",
"eX c #FFFFFE",
"rX c #FFFEFC",
"tX c #F4F5F5",
"yX c #E5E8E9",
/* pixels */
"                                                . . . . . . . . . . . . . . . . . .                                             ",
"                                                > 6 6 6 6 6 : : : : < 6 6 6 6 6 6 ,                                             ",
"                                        . . . > @.3.2.%.%.#.Y U U Y #.%.%.%.%.2.3.@.> . . .                                     ",
"                                        q 0 6 k 5.`.`.`.`.^.I.9.9.I.^._._._._.`.`.5.k 6 0 q                                     ",
"                                    . q M.Y.&.4.(._._._._./.^.!.!.^./._._._._._._.(.4.&.Y.M.q .                                 ",
"                                    q D &X0X:X}.)././././././././././././././././.).}.:X0X&XD q                                 ",
"                                . q M.&XtXeX9X>X'././././././././././././././././.'.>X9XeXtX&XM.q .                             ",
"                                . 0 Y.0XeXeXeX9X X}.|.|.|.|.|.|.|.|.|.|.|.|.|.|.}. X9XeXeXeX0X].Z >                             ",
"                                . 6 &.:X9XeXeXeX9X7X7X7X7X7X7X7X7X7X7X7X7X7X7X7X7X9XeXeXeX9X:X).5.@.> .                         ",
"                                > k 4.}.>X7X7X7X7X7X7X7X7X7X7X7X7X7X7X7X7X7X7X7X7X7X7X7X7X>X'._.`.2.< .                         ",
"                            . , @.5.(.`.}.|.|.|.|.|.|.|.|.|.|.|.|.|.|.|.|.|.|.|.|.|.|.|.|.}.)._.`.%.< .                         ",
"                            . 6 3.`._./././././././././././.!.!./././././././././././././././._._.6.k >                         ",
"                            . 6 2.`._././././././././././.!.q.q.!././././././././././././././././.(.5.@., .                     ",
"                            . 6 2.`._./././././././././._.~.:.:.~./.^.!./././././././././././././._.`.3.6 .                     ",
"                            . 6 3.`.`././././././././._._.w.....w.^.q.q.!././././././././././././._.`.2.6 .                     ",
"                            . , @.6.0.~.^._._././._._./.^.7./ ^ 0.!.9.9.!././././././././././././._._.%.6 .                     ",
"                                , l P r.~._._._._._._.^.I.=.Q ^ 0.!.9.9.!././././././././././././._._.%.6 .                     ",
"                                . & K  .7.w.w.0.0.0.w.7.=.' W ^ 7.I.9.9.!._././.^.^./././././././._.`.%.6 .                     ",
"                                . 5 T P. .^ ^ ^ ^ ^ ^ / Q W E / =.9.,.9.!._._.!.q.q.!././././././._.`.%.6 .                     ",
"                                . 4 C.W.O.] ] ] ] ] ] ] ] ~ W Q +.,.:.9.I.^./.~.:.:.~._././././././.^.#.< .                     ",
"                                . 4 C.Q.U.U.U.U.U.U.U.U.U.L.~ Q +.,.,.,.9.q.^.w.....w._._././._._.^.I.Y : .                     ",
"                                . 4 V.{.Q.W.K.V.V.C.C.Z.Z.T ! Q *.,.,.;.*.1.I.q...( 7.w.!.!.!.!.!.I.9.U : .                     ",
"                                . 4 V.{.{.K.B 4 4 4 4 4 4 a L ~ *.,.,.*.) ( :.<.-...' ..>.9.9.9.9.9.<.U : .                     ",
"                                . 5 R K.Q.C.5 . . . . . . O d P ..:.-. .} }  .*.*...W W ..*.;.:.:.,.,.U : .                     ",
"                                    5 B K.V.5 . . . . . . . O u ` -.( } W.W.} Q Q W E E W ) *.,.:.,.<.I : .                     ",
"                                    . 4 Z.E.Z w 2 1 1 e q q % u ` *.Q X.=X=Xo.E W Q Q Q Q ( *.,.,.=.` J * .                     ",
"                                    . 9 G.-X].N.d.n n g.J.S.K L ..*.Q X.=X=Xo.W ' *.*.*.*.*.;.,.,.` f %                         ",
"                                    . 9 G.9X9X&Xb.i.i.n.4X-XO.Q *.*.Q X.=X=XX.Q *.,.,.,.,.,.:.,.,.U ; .                         ",
"                                    . q G.8X8X&X.Xc.c..X4X-XO.Q *.*.Q o.=X=Xo.Q +.,.,.:.,.,.:.,.<.U ; .                         ",
"                                    q D ].7X7X<X+X.X.X$XyX;Xo.Q *.*.Q } [.[.} Q +.,.,.:.:.,.,.=.` J * .                         ",
"                                . 9 m.*X,X7X7X5X<X&X&X<X8X=Xo.Q *.*.Q } W.W.[ Q +.,.,.:.:.,.<.` f %                             ",
"                                . q m.].,X8X8X7X7X7X7X7X7X[.} Q *.*.Q ~ L.L.{ ( *.,.,.,.,.=.` J % .                             ",
"                                    7 D ].9X8X7X7X7X7X7X7X[.} Q *.*.Q E ~ {  .*.;.,.,.,.,.` f %                                 ",
"                                    . 4 B.T.G.R.;X,X5X8X8X=Xo.W ....Q E W ' -.,.,.=.` ` ;.U ; .                                 ",
"                                        q 9 9 B L.{.,X9X9X=Xo.E W Q E Q ..-.,.<.<.` f f | Y : .                                 ",
"                                        . . . * K $.K.T.T.K.[ P L H L L U U U U U J % % J J % .                                 ",
"                                                * 5 9 0 0 f L L h d d u r : : : : *     ; % X . . .                             ",
"                                                . . . . . - h G g r = & X . . . . .     . . . . . .                             ",
"                                                        . o r g f y & X                                                         ",
"                                                        . o : u i y 2 #                                                         ",
"                                                        . O r i u s x v # .                                                     ",
"                                                        . o r p m b c c x 9                                                     ",
"                                                        . X = m g.g.u.s.F.m.0 .                                                 ",
"                                                        q s 8 M v.c.u.a.OXN.q .                                                 ",
"                                                    . q N.J.A n v.c.u.y.a.A 2 .                                                 ",
"                                                    7 S J.+Xb.j.h.h.p.y.c v # .                                                 ",
"                                                . 9 m.H.k.b.+X@Xj.u.h.d.v #                                                     ",
"                                                . 0 R.<XD.k.+XOXp.y.j.d.2 .                                                     ",
"                                                . 0 Y.8X;X@Xk.p.t.t.u.c 1 .                                                     ",
"                                                . 9 m.R.*X@Xk.f.f.l.l.A 2 .                                                     ",
"                                                    9 M A b.+X1X1X1X2XD.q .                                                     ",
"                                                    . # z p.OX1X1X1X1XD.q .                                                     ",
"                                                    . # z y.a.f.f.l.l.A 2 .                                                     ",
"                                                    @ 3 x c p.p.p.p.p.n 1 .                                                     ",
"                                                . + t a s M b.XXXXXX#Xb.e .                                                     ",
"                                                + 5 j N a m x.oX%X3X$Xx.q o                                                     ",
"                                            . @ t j N C N j q S *X&Xz.m j t + .                                                 ",
"                                            . $ i V V N j t X q N.S.B u N j ; +                                                 ",
"                                            . $ i V V j ; o     q s j N C N j t @ .                                             ",
"                                            . $ t i i t + .     . o t j N V V i $ .                                             ",
"                                                $ $ $ @             + 5 j V V i $ .                                             ",
"                                                . . . .             . o 4 p i t $ .                                             ",
"                                                                    . . o $ $ $                                                 ",
"                                                                    . . . . . .                                                 "
};
