/* XPM */
static char *left[] = {
/* columns rows colors chars-per-pixel */
"64 64 209 2 ",
"   c None",
".  c #000000",
"X  c #0C0708",
"o  c #140B0A",
"O  c #170707",
"+  c #18100E",
"@  c #070B1C",
"#  c #090C1C",
"$  c #120E10",
"%  c #1A1311",
"&  c #2D1C16",
"*  c #271515",
"=  c #331E1A",
"-  c #371E1B",
";  c #240C0C",
":  c #35211A",
">  c #39231C",
",  c #342D1C",
"<  c #37301E",
"1  c #39301F",
"2  c #0C1523",
"3  c #161B26",
"4  c #19212B",
"5  c #3A2D2B",
"6  c #362726",
"7  c #3C3421",
"8  c #35322F",
"9  c #372C35",
"0  c #353434",
"q  c #393532",
"w  c #3B3935",
"e  c #323539",
"r  c #2E2731",
"t  c #2C1C2A",
"y  c #472925",
"u  c #49322D",
"i  c #56302B",
"p  c #573E37",
"a  c #5A3C35",
"s  c #5E3B39",
"d  c #5B2C2A",
"f  c #652A2B",
"g  c #643D31",
"h  c #643230",
"j  c #7C3232",
"k  c #613B2E",
"l  c #6C5D3A",
"z  c #60412E",
"x  c #1B285E",
"c  c #18224C",
"v  c #202B4B",
"b  c #1E2B61",
"n  c #2A346A",
"m  c #252F65",
"M  c #294675",
"N  c #554046",
"B  c #6C4840",
"V  c #69504C",
"C  c #7A574D",
"Z  c #6D5956",
"A  c #495672",
"S  c #6D6A68",
"D  c #6B634F",
"F  c #923E3D",
"G  c #A13F40",
"H  c #8D5644",
"J  c #95534F",
"K  c #A84745",
"L  c #B25148",
"P  c #B36D56",
"I  c #B46B56",
"U  c #B7775A",
"Y  c #B37975",
"T  c #916F69",
"R  c #C34C4C",
"E  c #C8544F",
"W  c #C65250",
"Q  c #C95551",
"!  c #CC5A53",
"~  c #C85D5C",
"^  c #D35E57",
"/  c #CF6C59",
"(  c #CE6757",
")  c #D46A5B",
"_  c #D6695C",
"`  c #C2765D",
"'  c #C5795F",
"]  c #D7715E",
"[  c #CE6464",
"{  c #CA6866",
"}  c #D26A64",
"|  c #CF706E",
" . c #C97B61",
".. c #DC7A6A",
"X. c #D87765",
"o. c #CF7371",
"O. c #D07471",
"+. c #D77A79",
"@. c #E37F68",
"#. c #998454",
"$. c #978252",
"%. c #BC9764",
"&. c #BD817F",
"*. c #BFA669",
"=. c #BFAC7D",
"-. c #DE8966",
";. c #E58269",
":. c #E58C6D",
">. c #EA886D",
",. c #EB8D70",
"<. c #ED9272",
"1. c #EB9872",
"2. c #F29475",
"3. c #F99878",
"4. c #F69A77",
"5. c #E9916F",
"6. c #C1A76A",
"7. c #C2A86B",
"8. c #CFB26D",
"9. c #D3B775",
"0. c #CFB171",
"q. c #EBA876",
"w. c #F3A379",
"e. c #F8A57B",
"r. c #EFB97B",
"t. c #E6B578",
"y. c #F5B17D",
"u. c #F1BC7D",
"i. c #F8B67F",
"p. c #35478B",
"a. c #354E91",
"s. c #31488D",
"d. c #3D6CA4",
"f. c #515C95",
"g. c #476284",
"h. c #5E689C",
"j. c #55708E",
"k. c #60699C",
"l. c #4B70A7",
"z. c #5586B7",
"x. c #5783AF",
"c. c #6A8DB0",
"v. c #6F99C0",
"b. c #969799",
"n. c #99959A",
"m. c #9A9089",
"M. c #B98D86",
"N. c #B88D86",
"B. c #BA928B",
"V. c #BFA39C",
"C. c #9EA8B2",
"Z. c #BAA5A1",
"A. c #BEB4AB",
"S. c #A4A3BB",
"D. c #C89A93",
"F. c #D68D89",
"G. c #E08D87",
"H. c #E89B94",
"J. c #FBB680",
"K. c #F9BE82",
"L. c #ECA19B",
"P. c #C2B9AD",
"I. c #C1B5AC",
"U. c #CFB3AA",
"Y. c #EAACA4",
"T. c #F0B4AC",
"R. c #FCCD86",
"E. c #F7C482",
"W. c #FED389",
"Q. c #FFDD8B",
"!. c #F6D585",
"~. c #FFDF91",
"^. c #F4DA9A",
"/. c #FFE18E",
"(. c #FFE591",
"). c #FFE39F",
"_. c #D4C7BB",
"`. c #EFC4BB",
"'. c #FEC2BA",
"]. c #FDC1B7",
"[. c #FFE5A3",
"{. c #FFE6A9",
"}. c #FFECBF",
"|. c #86AAC9",
" X c #A8BED0",
".X c #A9C4D8",
"XX c #D5C9C8",
"oX c #D2C9D1",
"OX c #D6D6D8",
"+X c #F2CBC3",
"@X c #F1D1CC",
"#X c #F8DBD7",
"$X c #FFF3C4",
"%X c #FFF2CE",
"&X c #E4E0DD",
"*X c #FAE5DA",
"=X c #DAE8F4",
"-X c #FBECE2",
";X c #FFF4E5",
":X c #FFF8E6",
">X c #FEF5E9",
",X c #FFFBED",
"<X c #FFFFF4",
"1X c #FFFEF0",
"2X c #FFFFFF",
"3X c #FFFFFE",
"4X c #FFFEFC",
"5X c #F4F5F5",
"6X c #E5E8E9",
/* pixels */
"                                                                                                                                ",
"                                                                                                                                ",
"                                                . . . . . . . . . . . . . . . . . .                                             ",
"                                                < 7 7 7 7 7 > > > > 1 7 7 7 7 7 7 <                                             ",
"                                        . . . , #.7.6.*.*.%.U I I U %.*.*.*.*.6.7.#., . . .                                     ",
"                                        0 w 7 l 9.(.(.(.(.W.J.e.e.J.W.(./././.(.(.9.l 7 w 0                                     ",
"                                    . 0 b.P.=.8.!././././.Q.W.R.R.W.Q././././././.!.8.=.P.b.0 .                                 ",
"                                    0 S OX<X$X[.~.Q.Q.Q.Q.Q.Q.Q.Q.Q.Q.Q.Q.Q.Q.Q.Q.~.[.$X<XOXS 0                                 ",
"                                . 0 b.OX5X2X,X%X).Q.Q.Q.Q.Q.Q.Q.Q.Q.Q.Q.Q.Q.Q.Q.Q.).%X,X2X5XOXb.0 .                             ",
"                                . w P.<X2X2X2X,X}.[.{.{.{.{.{.{.{.{.{.{.{.{.{.{.[.}.,X2X2X2X<X_.D ,                             ",
"                                . 7 =.$X,X2X2X2X,X:X:X:X:X:X:X:X:X:X:X:X:X:X:X:X:X,X2X2X2X,X$X^.9.$., .                         ",
"                                , l 8.[.%X:X:X:X:X:X:X:X:X:X:X:X:X:X:X:X:X:X:X:X:X:X:X:X:X%X)./.(.6.7 .                         ",
"                            . < #.9.!.(.[.{.{.{.{.{.{.{.{.{.{.{.{.{.{.{.{.{.{.{.{.{.{.{.{.[.~./.(.*.1 .                         ",
"                            . 7 7.(./.Q.Q.Q.Q.Q.Q.Q.Q.Q.Q.Q.R.R.Q.Q.Q.Q.Q.Q.Q.Q.Q.Q.Q.Q.Q.Q.Q././.0.l ,                         ",
"                            . 7 6.(./.Q.Q.Q.Q.Q.Q.Q.Q.Q.Q.R.y.y.R.Q.Q.Q.Q.Q.Q.Q.Q.Q.Q.Q.Q.Q.Q.Q.Q.!.9.#.< .                     ",
"                            . 7 6.(./.Q.Q.Q.Q.Q.Q.Q.Q.Q./.E.<.<.E.Q.R.R.Q.Q.Q.Q.Q.Q.Q.Q.Q.Q.Q.Q.Q./.(.7.7 .                     ",
"                            . 7 7.(.(.Q.Q.Q.Q.Q.Q.Q.Q.Q./.u.X.X.u.W.y.y.R.Q.Q.Q.Q.Q.Q.Q.Q.Q.Q.Q.Q./.(.6.7 .                     ",
"                            . < #.0.t.E.W././.Q.Q././.Q.W.q.( / r.R.e.w.R.Q.Q.Q.Q.Q.Q.Q.Q.Q.Q.Q.Q././.*.7 .                     ",
"                                < z L -.E././././././.W.J.:.! / r.R.e.e.R.Q.Q.Q.Q.Q.Q.Q.Q.Q.Q.Q.Q././.*.7 .                     ",
"                                . * J ..q.u.u.r.r.r.u.q.:.] W / q.K.e.e.R./.Q.Q.W.W.Q.Q.Q.Q.Q.Q.Q./.(.*.7 .                     ",
"                                . 6 Y G.../ / / / / / ( ! E R ( :.e.2.e.R././.R.y.y.R.Q.Q.Q.Q.Q.Q./.(.*.7 .                     ",
"                                . 5 N.Y.+.[ [ [ [ [ [ [ [ ~ W ! @.<.<.e.K.W.Q.E.<.<.E././.Q.Q.Q.Q.Q.W.%.1 .                     ",
"                                . 5 N.T.L.H.L.L.L.L.L.L.L.G.~ ! @.2.2.2.e.y.W.u.X.X.u././.Q.Q././.W.J.U > .                     ",
"                                . 5 M.].T.Y.D.M.M.N.N.B.B.Y ~ ! ;.2.2.,.;.5.u.y.X._ q.E.R.R.R.R.R.K.e.I > .                     ",
"                                . 5 M.].].D.V 6 5 5 5 5 5 a K ^ ;.2.2.;.) _ <.4.>...] ..1.e.e.e.e.e.4.I > .                     ",
"                                . 6 T D.T.M.6 . . . . . . O f L ..<.>...O.O...;.;.X.W E X.;.,.<.<.2.2.I > .                     ",
"                                    6 V D.M.6 . . . . . . . O i ` >._ O.Y.Y.O.! ! W R R W ) ;.2.<.2.3.P > .                     ",
"                                    . 5 B.U.Z r 3 2 2 4 e 0 & i ` ;.! O.+X+XO.R E ! ! ! ! _ ;.2.2.:.' H = .                     ",
"                                    . q Z.#X_.n.g.M M j.C.Z.J K ..;.! O.+X+XO.E ] ;.;.;.;.;.,.2.2.` g &                         ",
"                                    . q A.,X,XOXc.d.d.v.=X#X+.! ;.;.! O.+X+XO.! ;.2.2.2.2.2.<.2.3.I : .                         ",
"                                    . q A.,X,XOX|.z.z.|.=X#X+.! ;.;.! O.+X+XO.! @.2.2.2.2.<.<.2.3.I : .                         ",
"                                    0 S _.:X:X&X X|.|..X6X@XO.! ;.;.! | `.`.{ ! @.2.2.<.<.2.2.:.' H = .                         ",
"                                . 0 m.XX*X:X:X-X&XOXOX&X>X+XO.! ;.;.! { Y.Y.{ ! @.2.2.<.<.2.3.' g &                             ",
"                                . 0 m._.*X:X:X:X:X:X:X:X:X`.| ! ;.;.! ~ G.G.} _ ;.2.2.2.2.:. .H & .                             ",
"                                    0 S _.,X,X>X:X:X:X:X:X`.| ! ;.;.! R ~ } ..;.,.2.2.2.2.` g &                                 ",
"                                    . 6 m.I.I.U.@X*X-X>X>X+XO.W X.X.! R W _ >.2.2.:.` ' ,.I : .                                 ",
"                                        0 q q V F.].*X,X,X+XO.R W ! R ! @.>.2.3.3.` k g  .U > .                                 ",
"                                        . . . = J &.V.I.P.D.{ L K G K K I I I I I H & & H H & .                                 ",
"                                                = 6 q w w g K K j f f d y > > > > =     : & X . . .                             ",
"                                                . . . . . ; j F h y - * X . . . . .     . . . . . .                             ",
"                                                        . o y h g u * X                                                         ",
"                                                        . o > i p y o .                                                         ",
"                                                        . o y p i - o .                                                         ",
"                                                        . o y s N 9 $ .                                                         ",
"                                                        . o - N j.A 3 .                                                         ",
"                                                        . $ 9 A c.l.v @                                                         ",
"                                                        . 3 A c.c.x.M c # .                                                     ",
"                                                        . 3 g.z.z.l.a.b # .                                                     ",
"                                                        . 2 n a.a.a.s.b # .                                                     ",
"                                                        . 3 A h.h.f.p.x # .                                                     ",
"                                                        . 8 n.oXoXS.f.x @ .                                                     ",
"                                                        . w P.,X,XoXk.x @ .                                                     ",
"                                                        . w P.,X,XoXk.x @ .                                                     ",
"                                                        . 8 n.oXoXS.f.x @ .                                                     ",
"                                                        . 3 A h.h.f.p.b # .                                                     ",
"                                                        . # v n n m m c # .                                                     ",
"                                                        . X t 9 9 r 3 #                                                         ",
"                                                        . o 6 i i > o .                                                         ",
"                                                        . + u B B u + .                                                         ",
"                                                        . % p C C p % .                                                         ",
"                                                        . % p C C p % .                                                         ",
"                                                        . % u p p u % .                                                         ",
"                                                            % % % %                                                             ",
"                                                            . . . .                                                             "
};
