/* XPM */
static char *left2[] = {
/* columns rows colors chars-per-pixel */
"64 64 218 2 ",
"   c None",
".  c #000000",
"X  c #0B0505",
"o  c #140D0B",
"O  c #170707",
"+  c #16100E",
"@  c #18110F",
"#  c #050717",
"$  c #1A1311",
"%  c #2D1C16",
"&  c #271414",
"*  c #341E1B",
"=  c #351D18",
"-  c #240C0C",
";  c #33221C",
":  c #38231B",
">  c #342D1C",
",  c #37301E",
"<  c #39301F",
"1  c #0B1522",
"2  c #161823",
"3  c #201F28",
"4  c #172335",
"5  c #3A2D2B",
"6  c #352826",
"7  c #3C3421",
"8  c #35322F",
"9  c #3D2A34",
"0  c #343334",
"q  c #3A3532",
"w  c #3C3935",
"e  c #373939",
"r  c #2E2F32",
"t  c #462925",
"y  c #44302B",
"u  c #4A322F",
"i  c #58302A",
"p  c #483636",
"a  c #593D36",
"s  c #5B3A36",
"d  c #572D29",
"f  c #652A2B",
"g  c #643A31",
"h  c #733531",
"j  c #5E433C",
"k  c #49413E",
"l  c #60453E",
"z  c #6C5D3A",
"x  c #60412E",
"c  c #141E49",
"v  c #393B4A",
"b  c #232E51",
"n  c #2B386D",
"m  c #2F3C7B",
"M  c #543F43",
"N  c #274473",
"B  c #32456F",
"V  c #6E4C44",
"C  c #79564D",
"Z  c #755249",
"A  c #6D5854",
"S  c #6B524E",
"D  c #475377",
"F  c #4F5064",
"G  c #6B6867",
"H  c #71606D",
"J  c #665A5A",
"K  c #923E3D",
"L  c #A13F40",
"P  c #8D5644",
"I  c #95534F",
"U  c #A84745",
"Y  c #B25148",
"T  c #B36D56",
"R  c #B46B56",
"E  c #B7775A",
"W  c #B37975",
"Q  c #916F69",
"!  c #C34C4C",
"~  c #C8544F",
"^  c #CC5A53",
"/  c #C85755",
"(  c #D35E57",
")  c #CF6C59",
"_  c #CE6757",
"`  c #D46A5B",
"'  c #D6695C",
"]  c #C2765D",
"[  c #C5795F",
"{  c #D7715E",
"}  c #CE6464",
"|  c #CA6866",
" . c #D26A64",
".. c #CE736C",
"X. c #DC7A6A",
"o. c #D87765",
"O. c #CF7371",
"+. c #D07471",
"@. c #D77A79",
"#. c #E37F68",
"$. c #988454",
"%. c #BC9764",
"&. c #BD817F",
"*. c #BFA669",
"=. c #BFAC7D",
"-. c #E58269",
";. c #E58C6D",
":. c #EA886D",
">. c #EB8D70",
",. c #ED9272",
"<. c #EB9872",
"1. c #F29475",
"2. c #F79978",
"3. c #E9916F",
"4. c #C1A76A",
"5. c #C2A86B",
"6. c #CFB26D",
"7. c #D3B775",
"8. c #CFB171",
"9. c #EBA876",
"0. c #F3A379",
"q. c #F8A57B",
"w. c #EDB87A",
"e. c #F5B17D",
"r. c #F1BC7D",
"t. c #F8B67F",
"y. c #DE8966",
"u. c #273B82",
"i. c #2E4689",
"p. c #344D8D",
"a. c #314184",
"s. c #37538F",
"d. c #3D6CA4",
"f. c #4C568C",
"g. c #4A5A93",
"h. c #515C94",
"j. c #55769C",
"k. c #536892",
"l. c #486DA3",
"z. c #5D6BA2",
"x. c #4E77A6",
"c. c #616EA4",
"v. c #6878A8",
"b. c #666A92",
"n. c #5684B4",
"m. c #5B86B5",
"M. c #5781AD",
"N. c #678DB2",
"B. c #699DC4",
"V. c #7398C1",
"C. c #6CA0C6",
"Z. c #9C928A",
"A. c #97989A",
"S. c #978E87",
"D. c #B98D86",
"F. c #B88D86",
"G. c #BA928B",
"H. c #A39992",
"J. c #B0A29E",
"K. c #9C9DA8",
"L. c #8A8DB1",
"P. c #A39DA7",
"I. c #9EA4B1",
"U. c #BEB4AB",
"Y. c #B0A6AB",
"T. c #C89A93",
"R. c #D68D89",
"E. c #E5958F",
"W. c #FABA81",
"Q. c #ECA19B",
"!. c #C3BAAE",
"~. c #C1B5AC",
"^. c #CBBCB1",
"/. c #D0A9A1",
"(. c #EAACA4",
"). c #F0B4AC",
"_. c #FCCD86",
"`. c #F7C482",
"'. c #FED389",
"]. c #FFDD8B",
"[. c #F6D585",
"{. c #FCDE93",
"}. c #FFE18E",
"|. c #FFE591",
" X c #FFE39F",
".X c #D4C7BB",
"XX c #EFC4BB",
"oX c #FEC2BA",
"OX c #FFE5A3",
"+X c #FFE6A9",
"@X c #FFECBF",
"#X c #86AAC9",
"$X c #ACB5CD",
"%X c #A9C4D8",
"&X c #D6D6D8",
"*X c #D8CBC1",
"=X c #F2CBC3",
"-X c #F8DBD7",
";X c #EBD6D4",
":X c #FFF3C4",
">X c #FFF2CE",
",X c #FAE5DA",
"<X c #E4E0DD",
"1X c #CFD2E2",
"2X c #D2D6E5",
"3X c #D5D9E9",
"4X c #DAE8F4",
"5X c #FFF4E5",
"6X c #FFF8E6",
"7X c #FEF5EA",
"8X c #FFFAED",
"9X c #FFFFF4",
"0X c #FFFEF0",
"qX c #FFFFFF",
"wX c #FFFFFE",
"eX c #FFFEFC",
"rX c #F4F5F5",
"tX c #F0EAE5",
/* pixels */
"                                                . . . . . . . . . . . . . . . . . .                                             ",
"                                                > 7 7 7 7 7 : : : : < 7 7 7 7 7 7 ,                                             ",
"                                        . . . > $.5.4.*.*.%.E R R E %.*.*.*.*.4.5.$.> . . .                                     ",
"                                        e w 7 z 7.|.|.|.|.'.W.q.q.W.'.}.}.}.}.|.|.7.z 7 w e                                     ",
"                                    . e A.!.=.6.[.}.}.}.}.].'._._.'.].}.}.}.}.}.}.[.6.=.!.A.e .                                 ",
"                                    e G &X9X:XOX{.].].].].].].].].].].].].].].].].{.OX:X9X&XG e                                 ",
"                                . e A.&XrXwX8X>X X].].].].].].].].].].].].].].].]. X>X8XwXrX&XA.e .                             ",
"                                . w !.9XwXwXwX8X@XOX+X+X+X+X+X+X+X+X+X+X+X+X+X+XOX@X8XwXwXwX9X.XA >                             ",
"                                . 7 =.:X8XwXwXwX8X6X6X6X6X6X6X6X6X6X6X6X6X6X6X6X6X8XwXwXwX8X:X{.7.$.> .                         ",
"                                > z 6.OX>X6X6X6X6X6X6X6X6X6X6X6X6X6X6X6X6X6X6X6X6X6X6X6X6X>X X}.|.4.7 .                         ",
"                            . , $.7.[.|.OX+X+X+X+X+X+X+X+X+X+X+X+X+X+X+X+X+X+X+X+X+X+X+X+XOX{.}.|.*.< .                         ",
"                            . 7 5.|.}.].].].].].].].].].].]._._.].].].].].].].].].].].].].].].}.}.8.z >                         ",
"                            . 7 4.|.}.].].].].].].].].].]._.e.e._.].].].].].].].].].].].].].].].].[.7.$., .                     ",
"                            . 7 4.|.}.].].].].].].].].].}.`.,.,.`.].'._.].].].].].].].].].].].].].}.|.5.7 .                     ",
"                            . 7 5.|.|.].].].].].].].].}.}.r.o.o.r.'.e.e._.].].].].].].].].].].].].}.|.4.7 .                     ",
"                            . , $.8.w.`.'.}.}.].].}.}.].'.9._ ) w._.q.q._.].].].].].].].].].].].].}.}.*.7 .                     ",
"                                , x Y y.`.}.}.}.}.}.}.'.W.;.^ ) w._.q.q._.].].].].].].].].].].].].}.}.*.7 .                     ",
"                                . & I X.9.r.r.w.w.w.r.9.;.{ ~ ) 9.W.q.q._.}.].].'.'.].].].].].].].}.|.*.7 .                     ",
"                                . 6 W E.X.) ) ) ) ) ) _ ^ ~ ! _ ;.q.1.q._.}.}._.e.e._.].].].].].].}.|.*.7 .                     ",
"                                . 5 F.(.@.} } } } } } } } ( ~ ^ #.1.,.q.W.'.].`.,.,.`.}.].].].].].].'.%.< .                     ",
"                                . 5 F.).Q.Q.Q.Q.Q.Q.Q.Q.Q.R.( ^ #.1.1.1.0.e.'.r.o.o.r.}.}.].].}.}.'.W.E : .                     ",
"                                . 5 D.oX).(.T.D.D.F.F.G.G.W / ^ -.1.1.>.-.3.W.e.o.` 9.r._._._._._.W.q.R : .                     ",
"                                . 5 D.oXoXT.S 5 5 5 5 5 5 s U ( -.1.1.-.` ` ,.2.:.o.{ o.<.q.q.q.q.q.2.R : .                     ",
"                                . 6 Q T.).F.6 . . . . . . O f Y o.,.:.X.O.O.X.-.-.o.~ ~ o.-.>.,.,.1.1.R : .                     ",
"                                    6 S T.D.6 . . . . . . . O i [ :.` O.(.(.O.^ ^ ~ ! ! ~ ` -.1.,.1.2.T : .                     ",
"                                    . 5 G./.A r 2 1 1 3 e e % i [ -.^ O.=X=X+.! ~ ^ ^ ^ ^ ` -.1.1.;.[ P * .                     ",
"                                    . q U.-X.XA.f.N N k.I.J.I U o.-.^ O.=X=X+.~ { -.-.-.-.-.>.1.1.[ g %                         ",
"                                    . q U.8X8X&XN.d.d.V.4X-X@.^ -.-.^ O.=X=XO.^ -.1.1.1.1.1.,.1.1.R ; .                         ",
"                                    . e U.8X7X&X#Xn.n.#X4X-X@.^ -.-.^ +.=X=X+.^ #.1.1.1.1.1.,.1.2.R ; .                         ",
"                                    e G .X6X6X<X$X#X#X%X4X;X+.^ -.-.^ O.XXXX..^ #.1.1.,.,.1.1.;.[ P * .                         ",
"                                . q Z.*X,X6X6XtX<X&X&X<X7X=X+.^ -.-.^ ..(.(.| ^ #.1.1.,.,.1.2.[ g %                             ",
"                                . e Z..X,X7X7X6X6X6X6X6X6XXXO.^ -.-.^ ( R.R. .` -.1.1.1.1.;.[ P % .                             ",
"                                    8 G .X8X7X6X6X6X6X6X6XXXO.^ -.-.^ ! (  .X.-.>.1.1.1.1.[ g %                                 ",
"                                    . 5 S.~.U.^.;X,X5X7X7X=X+.~ o.o.^ ! ~ { :.1.1.;.[ [ >.R ; .                                 ",
"                                        e q q S R.oX,X8X8X=X+.! ~ ^ ! ^ o.:.1.2.2.[ g g ..E : .                                 ",
"                                        . . . * I &.T.~.~.T.| Y U L U U R R R R R P % % P P % .                                 ",
"                                                * 6 q w w g U U h f f d t : : : : *     ; % X . . .                             ",
"                                                . . . . . - h K g t = & X . . . . .     . . . . . .                             ",
"                                                        . o t g g y & X                                                         ",
"                                                        . o : i a u 3 1                                                         ",
"                                                        . o y a d p B b 1 .                                                     ",
"                                                        . o y a M F k.s.4 #                                                     ",
"                                                        . o = M k.M.N.x.N c # .                                                 ",
"                                                        . o 9 F j.n.n.n.v.D 1 .                                                 ",
"                                                        . 2 D j.g.p.p.v.$XK.r .                                                 ",
"                                                        # b j.m.l.i.m h.$XY.G 8                                                 ",
"                                                    . # c B M.B.m.l.p.a.g.v.Y.Z.q .                                             ",
"                                                    q v n s.n.B.B.n.s.a.f.L.<X^.w .                                             ",
"                                                . q Z.P.f.p.n.C.C.n.p.g.I.<X7X!.w .                                             ",
"                                                . q H.P.f.i.l.n.n.l.i.f.K.^.!.S.q .                                             ",
"                                                    w v n u.i.p.p.i.u.n v p w q                                                 ",
"                                                    . 1 D c.c.z.z.c.c.D 1 . . .                                                 ",
"                                                    . r K.3X2X1X2X2X3XK.r .                                                     ",
"                                                    o p J.&X2X2X1X2X3XK.e .                                                     ",
"                                                . o y l S H b.z.z.z.c.D 2 .                                                     ",
"                                                + ; j V s 9 b n g.h.m b 2 @                                                     ",
"                                            . @ y j V Z V u 2 v I.$XJ 9 u y + .                                                 ",
"                                            . $ a C Z V j y o e P.J.A s V j ; +                                                 ",
"                                            . $ a C C j ; o     e k j V Z V j y @ .                                             ",
"                                            . $ y a a y + .     . o y l V Z C a $ .                                             ",
"                                                $ $ $ @             + ; j C C a $ .                                             ",
"                                                . . . .             . o 5 a a y $ .                                             ",
"                                                                    . . o $ $ $                                                 ",
"                                                                    . . . . . .                                                 "
};
