/* XPM */
static char *right_png[] = {
/* columns rows colors chars-per-pixel */
"64 64 14 1 ",
"  c None",
". c black",
"X c #462424",
"o c #725148",
"O c #C14B4B",
"+ c #EF9273",
"@ c #293A80",
"# c #3A639B",
"$ c #6799C1",
"% c #F79696",
"& c #F3B9B0",
"* c #ffdd8c",
"= c #FFEFE3",
"- c white",
/* pixels */
"                                                                ",
"                                                                ",
"                      ..................                        ",
"                      ..................                        ",
"                  ....********++++******....                    ",
"                  ....********++++******....                    ",
"                ..--**********************--..                  ",
"                ..--**********************--..                  ",
"              ..------******************------..                ",
"              ..------******************------..                ",
"            ..****----------------**--------**..                ",
"            ..****----------------**--------**..                ",
"            ..********************OOOO**********..              ",
"            ..********************OOOO**********..              ",
"          ..********************OO&&&&OOOO******..              ",
"          ..********************OO&&&&OOOO******..              ",
"          ..****************++**OO&&&&&&&&OO****..              ",
"          ..****************++**OO&&&&&&&&OO****..              ",
"          ..****************++**OO&&&&&&&&&&OO++..              ",
"          ..****************++**OO&&&&&&&&&&OO++..              ",
"          ..**********++****++++OO&&OOOOOO&&&&..                ",
"          ..**********++****++++OO&&OOOOOO&&&&..                ",
"          ..++********OO**++++++OO&&&&&&&&&&&&..                ",
"          ..++********OO**++++++OO&&&&&&&&&&&&..                ",
"          ..++++++++OO++++OO++++OO........&&&&..                ",
"          ..++++++++OO++++OO++++OO........&&&&..                ",
"          ..++++++OOOOOOOO==OO++..........&&..                  ",
"          ..++++++OOOOOOOO==OO++..........&&..                  ",
"            ..++++++++++OO==OO++OO--####====..                  ",
"            ..++++++++++OO==OO++OO--####====..                  ",
"            ..++++++++++OO==OO++OO--$$$$====..                  ",
"            ..++++++++++OO==OO++OO--$$$$====..                  ",
"              ..++++++++OO&&OO++OO============..                ",
"              ..++++++++OO&&OO++OO============..                ",
"                ..++++++++OOOO++OO==========..                  ",
"                ..++++++++OOOO++OO==========..                  ",
"                ..++..++++++OOOOOO====%%....                    ",
"                ..++..++++++OOOOOO====%%....                    ",
"              ......  ..........OO......                        ",
"              ......  ..........OO......                        ",
"                            ..##....                            ",
"                            ..##....                            ",
"                            ..####..                            ",
"                            ..####..                            ",
"                          ..@@$$$$..                            ",
"                          ..@@$$$$..                            ",
"                          ..@@@@@@..                            ",
"                          ..@@@@@@..                            ",
"                          ..@@====..                            ",
"                          ..@@====..                            ",
"                          ....====....                          ",
"                          ....====....                          ",
"                        ..ooooXXXXoooo..                        ",
"                        ..ooooXXXXoooo..                        ",
"                        ..XXooooooooXX..                        ",
"                        ..XXooooooooXX..                        ",
"                        ..ooXXXXXXXXoo..                        ",
"                        ..ooXXXXXXXXoo..                        ",
"                          ............                          ",
"                          ............                          ",
"                            ..oooo..                            ",
"                            ..oooo..                            ",
"                              ....                              ",
"                              ....                              "
};
