/* XPM */
static char *right[] = {
/* columns rows colors chars-per-pixel */
"64 64 212 2 ",
"   c None",
".  c #000000",
"X  c #0D0505",
"o  c #0F0807",
"O  c #140C0B",
"+  c #190707",
"@  c #19110F",
"#  c #17100E",
"$  c #090D1D",
"%  c #040815",
"&  c #07111B",
"*  c #1B1311",
"=  c #240B0A",
"-  c #2D1C16",
";  c #2B1415",
":  c #331C1A",
">  c #311B16",
",  c #352019",
"<  c #39231B",
"1  c #342D1C",
"2  c #3A281D",
"3  c #37301E",
"4  c #39301F",
"5  c #0C1624",
"6  c #141C27",
"7  c #182332",
"8  c #2D272D",
"9  c #3C2321",
"0  c #392D2B",
"q  c #352927",
"w  c #3C3421",
"e  c #35322F",
"r  c #353434",
"t  c #393532",
"y  c #3B3935",
"u  c #323539",
"i  c #302E30",
"p  c #2E1F29",
"a  c #462C28",
"s  c #522F2D",
"d  c #46322C",
"f  c #55302C",
"g  c #4C3733",
"h  c #533631",
"j  c #5A3633",
"k  c #593C36",
"l  c #643E34",
"z  c #6B2F2C",
"x  c #531E1D",
"c  c #5C413A",
"v  c #65433D",
"b  c #6C5D3A",
"n  c #1A2E50",
"m  c #2C3E5F",
"M  c #1E2B60",
"N  c #1B2A57",
"B  c #2A4875",
"V  c #35577E",
"C  c #6C4A42",
"Z  c #6A4B46",
"A  c #735249",
"S  c #6D5551",
"D  c #6D6A68",
"F  c #52515A",
"G  c #943737",
"H  c #A43E3E",
"J  c #8D5644",
"K  c #95544C",
"L  c #A74A46",
"P  c #B74444",
"I  c #B36D56",
"U  c #B86E58",
"Y  c #B7775A",
"T  c #AC6250",
"R  c #BB7C77",
"E  c #916F69",
"W  c #C24C4C",
"Q  c #C8534F",
"!  c #CC5A53",
"~  c #C85855",
"^  c #D35E57",
"/  c #CD685A",
"(  c #D46A5B",
")  c #D5675B",
"_  c #C2765D",
"`  c #C5795F",
"'  c #D7715E",
"]  c #CA5F60",
"[  c #CD6362",
"{  c #CB6968",
"}  c #D46C63",
"|  c #CF706E",
" . c #C97B61",
".. c #D57664",
"X. c #D4756D",
"o. c #DC7A65",
"O. c #CF7371",
"+. c #D07472",
"@. c #D77977",
"#. c #E27D67",
"$. c #988453",
"%. c #BC9864",
"&. c #BD817F",
"*. c #BFA669",
"=. c #BFAC7D",
"-. c #DB8866",
";. c #E58269",
":. c #E78A6D",
">. c #EB8D70",
",. c #EE9272",
"<. c #EB9872",
"1. c #F29475",
"2. c #F99878",
"3. c #F59A77",
"4. c #E9916F",
"5. c #C1A76A",
"6. c #C2A86B",
"7. c #CFB26D",
"8. c #D3B775",
"9. c #CFB372",
"0. c #E6A273",
"q. c #EDAC77",
"w. c #F3A379",
"e. c #F8A57B",
"r. c #EFB87A",
"t. c #F5B27D",
"y. c #F1BC7C",
"u. c #F8B67F",
"i. c #F4C27E",
"p. c #334E8A",
"a. c #3D6CA4",
"s. c #376098",
"d. c #535C8F",
"f. c #476586",
"g. c #596794",
"h. c #4B75AA",
"j. c #5686B6",
"k. c #6A92BB",
"l. c #6A96C1",
"z. c #969799",
"x. c #9A969A",
"c. c #9A9089",
"v. c #B98D86",
"b. c #B88D86",
"n. c #AD958D",
"m. c #BFA39C",
"M. c #BEB4AB",
"N. c #B3A4AA",
"B. c #9EA8B2",
"V. c #C89A93",
"C. c #D98E87",
"Z. c #E08F87",
"A. c #E69C96",
"S. c #E79E98",
"D. c #E09086",
"F. c #FABA81",
"G. c #EBA49D",
"H. c #EFBC8E",
"J. c #C2BAAD",
"K. c #C1B5AC",
"L. c #CABCB4",
"P. c #D0A9A1",
"I. c #EBABA4",
"U. c #E8AAA3",
"Y. c #F2B5AD",
"T. c #F5BDB4",
"R. c #F9BEB5",
"E. c #EEAFA6",
"W. c #FCCC87",
"Q. c #F7C582",
"!. c #FED389",
"~. c #FFDD8B",
"^. c #F8D585",
"/. c #F4CA98",
"(. c #FCDE93",
"). c #FFE18E",
"_. c #FFE491",
"`. c #FFE39F",
"'. c #D5C6BB",
"]. c #EFC4BB",
"[. c #EFCABD",
"{. c #FCC1B8",
"}. c #FFE5A2",
"|. c #FFE6A9",
" X c #FFEAAB",
".X c #FFECBF",
"XX c #86AAC9",
"oX c #A8BED0",
"OX c #A9C4D8",
"+X c #D6D6D8",
"@X c #D3C8CA",
"#X c #F2CBC3",
"$X c #F6DCD8",
"%X c #F1D1CC",
"&X c #FFF3C4",
"*X c #FFF2CF",
"=X c #E4E0DD",
"-X c #FAE5DA",
";X c #FDEFCE",
":X c #DAE8F4",
">X c #FBECE2",
",X c #FFF4E5",
"<X c #FFF8E6",
"1X c #FEF5E9",
"2X c #FFFAEC",
"3X c #FFFFF4",
"4X c #FFFFF0",
"5X c #FFFFFF",
"6X c #FFFFFE",
"7X c #FFFEFC",
"8X c #F4F5F5",
"9X c #E5E8E9",
/* pixels */
"                                                                                                                                ",
"                                                                                                                                ",
"                                            . . . . . . . . . . . . . . . . . .                                                 ",
"                                            1 w w w w w w w < < < < 3 w w w w 3                                                 ",
"                                    . . . 1 $.6.5.*.*.*.*.%.Y I I Y %.*.*.5.6.$.1 . . .                                         ",
"                                    r y w b 8._._.).).)._.!.F.e.e.F.!._._._._.8.b w y r                                         ",
"                                . r z.J.=.7.^.).).).).).).~.!.W.W.!.~.).).).).^.7.=.J.z.r .                                     ",
"                                r D +X3X&X}.(.~.~.~.~.~.~.~.~.~.~.~.~.~.~.~.~.(.}.&X3X+XD r                                     ",
"                            . r z.+X8X5X<X*X`.~.~.~.~.~.~.~.~.~.~.~.~.~.~.~.~.`.*X3X5X8X+Xz.u .                                 ",
"                            1 S '.3X5X5X5X<X.X}.|.|.|.|.|.|.|.|.|.}._._.}.|.|..X<X5X5X5X3XJ.y .                                 ",
"                        . 1 $.8.(.&X<X5X5X5X<X<X<X<X<X<X<X<X<X<X<X*X}.}.*X<X<X<X5X5X5X<X&X=.w .                                 ",
"                        . w 5._.).`.*X<X<X<X<X<X<X<X<X<X<X<X<X<X<X;X/.H.[.$X<X<X<X<X<X*X}.7.b 1                                 ",
"                        . 3 *._.).(.}.|.|.|.|.|.|.|.|.|.|.|.|. X X/.-./ | C./. X X X|.}._.^.8.$.3 .                             ",
"                        1 b 9.).~.~.~.~.~.~.~.~.~.~.~.~.~.~.~.^.i.0...] ~ ..0.y.r.i.^.~.~.)._.6.w .                             ",
"                    . 3 $.8.^.~.~.~.~.~.~.~.~.~.~.~.~.~.~.~.~.i.-...D.S.S.D.../ / -.i.).~.)._.5.w .                             ",
"                    . w 6._.).~.~.~.~.~.~.~.~.~.~.~.~.~.W.!.~.r./ [ S.{.{.G.@.~ ] ..0.Q.!.)._.*.w .                             ",
"                    . w 5._.).~.~.~.~.~.~.~.~.~.~.~.~.W.t.t.!.r./ [ A.T.T.Y.G.A.S.Z...-.Q._._.*.w .                             ",
"                    . w *.).).~.~.~.~.~.~.~.~.~.~.~.~.W.w.w.W.y./ [ A.T.T.T.T.T.T.U.+...0.Q.W.%.w .                             ",
"                    . w *._.).~.~.~.~.~.~.~.~.~.~.~.~.W.w.w.W.y./ [ A.T.T.T.T.T.T.Y.G.C...o.3.Y 2 .                             ",
"                    . w *._.).~.~.~.~.~.~.~.^.!.~.~.).W.w.w.F.q./ [ S.Y.G.A.A.A.A.G.Y.U.@./ U J , .                             ",
"                    . w *._.).~.~.~.~.~.~.W.t.t.W.).).W.w.1.w.:.! [ S.G.@./ [ / / @.G.Y.U.R l >                                 ",
"                    . 3 %.!.~.~.~.~.~.).).Q.,.,.Q.~.!.F.w.,.,.#.! [ G.I.@.[ [ [ [ @.G.R.{.b.i .                                 ",
"                    . < Y F.!.).).~.~.).).y.....y.!.F.w.1.,.1.#.! [ G.T.I.G.G.G.G.U.Y.T.R.b.i .                                 ",
"                    . < I w.F.W.W.W.W.W.Q.0.( ..t.F.4.;.>.1.1.;.! ~ R v.v.v.v.v.v.V.U.R.{.v.q .                                 ",
"                    . < I 3.w.w.w.w.w.<.o.' o.:.3.,.( ) ;.1.1.;.^ L j q q q q q i S V.{.{.v.q .                                 ",
"                    . < I 1.1.,.,.>.;.} Q Q ..;.;.o.X.X.o.:.,.o.L z + . . . . . . q b.Y.V.E q .                                 ",
"                    . < U 2.1.,.,.;.) Q W W ! ! ! X.U.U.X.( :._ f + . . . . . . . q v.V.S q                                     ",
"                    . : J ` :.1.1.;.( ! ! ! ! Q W +.#X#XO.! ;._ f - r u 7 5 5 6 i S P.v.q .                                     ",
"                        > l _ 1.1.>.;.;.;.;.;.' Q +.#X#X+.! ;.o.L K N.B.f.B B f.x.'.$Xm.t .                                     ",
"                        . , I 1.1.,.1.1.1.1.1.;.! +.#X#X+.! ;.;.! @.$X:Xl.a.a.k.+X<X<XM.t .                                     ",
"                        . , I 2.1.,.1.1.,.1.1.#.! +.#X#X+.! ;.;.! @.$X:XXXj.j.XX+X<X<XM.t .                                     ",
"                        . , J ` :.1.1.,.,.,.1.#.! | ].].| ! ;.;.! +.%X9XOXXXXXoX=X<X1X'.D r                                     ",
"                            - l ` 2.1.,.,.1.1.#.! { I.I.| ! ;.;.! +.#X1X=X+X+X=X>X>X<X-X@Xc.t .                                 ",
"                            . - J  .:.1.1.1.1.;.( } Z.C.~ ! ;.;.! X.].<X<X<X<X<X<X<X1X-X'.c.r .                                 ",
"                                - l _ 1.1.1.1.>.;.o.} ~ W ! ;.;.! | ].<X<X<X<X<X1X1X<X'.D e                                     ",
"                                . , I :.` _ :.1.1.:.( ! W ! ....Q +.#X1X1X>X-X%XL.K.K.c.i .                                     ",
"                                . < U  .l l _ 2.2.1.:.#.! Q ! ! W +.#X<X<X-X{.V.S t t r                                         ",
"                                . - J J - - J U I I I T L G G G P { V.J.K.m.&.K : . . .                                         ",
"                            . . . o - ,     : < < < < , > ; = x H L l y y t q :                                                 ",
"                            . . . . . .     . . . . . . . . % p z z = . . . . .                                                 ",
"                                                        . & N m p = X .                                                         ",
"                                                        . 5 B p.n & . .                                                         ",
"                                                        . 5 B s.p.n & .                                                         ",
"                                                        % 7 p.h.h.V 6 .                                                         ",
"                                                    . $ n B h.l.l.f.7 .                                                         ",
"                                                    . $ M p.h.j.j.f.6 .                                                         ",
"                                                    . $ M p.p.p.p.m 5 .                                                         ",
"                                                    . $ M p.d.g.g.V 6 .                                                         ",
"                                                    . $ M d.B.@X@Xz.i .                                                         ",
"                                                    . % 7 d.@X<X3XJ.y .                                                         ",
"                                                    . . % F L.3X3XJ.y . . .                                                     ",
"                                                    * @ O g n.'.'.n.g # @ *                                                     ",
"                                                . * d k k c Z S S Z c k k d * .                                                 ",
"                                                . @ g C A C h a a h C A C g @ .                                                 ",
"                                                . O 9 k C A C v v C A C k 9 O .                                                 ",
"                                                . O 9 j v C C C C C C v j 9 O .                                                 ",
"                                                . @ g v j s s s s s s j v g @ .                                                 ",
"                                                . * d h 9 : : : : : : 9 h d * .                                                 ",
"                                                    * @ O o X X X X o O @ *                                                     ",
"                                                    . . . . O * * O . . . .                                                     ",
"                                                        . O a c c a O .                                                         ",
"                                                        . * d c c d * .                                                         ",
"                                                            * * * *                                                             ",
"                                                            . . . .                                                             "
};
