/* XPM */
static char *right2[] = {
/* columns rows colors chars-per-pixel */
"64 64 218 2 ",
"   c None",
".  c #000000",
"X  c #0D0505",
"o  c #090808",
"O  c #120B0A",
"+  c #190707",
"@  c #19110E",
"#  c #17100E",
"$  c #050B18",
"%  c #0A1017",
"&  c #1B1311",
"*  c #240B0A",
"=  c #2D1C16",
"-  c #2A1918",
";  c #341C1A",
":  c #321A17",
">  c #352019",
",  c #39231C",
"<  c #352C1C",
"1  c #38301E",
"2  c #0C1523",
"3  c #131B25",
"4  c #182235",
"5  c #352C2A",
"6  c #392D2B",
"7  c #392624",
"8  c #3C3421",
"9  c #34312E",
"0  c #343333",
"q  c #3A3532",
"w  c #3B3935",
"e  c #383A3B",
"r  c #2D292E",
"t  c #2E1F29",
"y  c #462927",
"u  c #45312C",
"i  c #4A342E",
"p  c #55302C",
"a  c #4F3630",
"s  c #423A36",
"d  c #5A3633",
"f  c #583F38",
"g  c #573A34",
"h  c #522F2D",
"j  c #643E34",
"k  c #6B2F2C",
"l  c #531E1D",
"z  c #59403A",
"x  c #65443E",
"c  c #6C5D3A",
"v  c #182745",
"b  c #1E3757",
"n  c #333C54",
"m  c #27376D",
"M  c #263B72",
"N  c #141F4A",
"B  c #2E4E74",
"V  c #4E484B",
"C  c #694740",
"Z  c #6D4A43",
"A  c #614741",
"S  c #6A504C",
"D  c #75534A",
"F  c #725047",
"G  c #715652",
"H  c #474F76",
"J  c #605E60",
"K  c #6A6867",
"L  c #6B634F",
"P  c #943737",
"I  c #A43E3E",
"U  c #8D5644",
"Y  c #95544C",
"T  c #A74A46",
"R  c #B74444",
"E  c #B36D56",
"W  c #B86E58",
"Q  c #B7775A",
"!  c #AC6250",
"~  c #BB7C77",
"^  c #916F69",
"/  c #C24C4C",
"(  c #C8534F",
")  c #CC5A53",
"_  c #C85855",
"`  c #D35E57",
"'  c #CD685A",
"]  c #D4695B",
"[  c #C2765D",
"{  c #C5795F",
"}  c #D7715E",
"|  c #CA5F60",
" . c #CD6362",
".. c #CB6968",
"X. c #D46C63",
"o. c #CE736C",
"O. c #D57664",
"+. c #DA7867",
"@. c #CF7371",
"#. c #D07472",
"$. c #D77977",
"%. c #E27D67",
"&. c #988453",
"*. c #BC9864",
"=. c #BD817F",
"-. c #BFA669",
";. c #BFAC7D",
":. c #DB8866",
">. c #E58269",
",. c #E78A6D",
"<. c #EB8D70",
"1. c #EE9272",
"2. c #EB9872",
"3. c #F29475",
"4. c #F79977",
"5. c #E9916F",
"6. c #C1A76A",
"7. c #C2A86B",
"8. c #CFB26D",
"9. c #D3B775",
"0. c #CFB372",
"q. c #E7A474",
"w. c #F3A379",
"e. c #F8A57B",
"r. c #EFB87A",
"t. c #F5B27D",
"y. c #F1BC7C",
"u. c #F8B67F",
"i. c #F4C27E",
"p. c #33498B",
"a. c #325287",
"s. c #3A5D97",
"d. c #2E5281",
"f. c #3E639D",
"g. c #3D6CA4",
"h. c #535C94",
"j. c #476587",
"k. c #4D6994",
"l. c #4A76AA",
"z. c #5878AB",
"x. c #5775AA",
"c. c #737BA2",
"v. c #5887B6",
"b. c #5F91BD",
"n. c #7789B4",
"m. c #6996C1",
"M. c #9B918A",
"N. c #98989A",
"B. c #9A8E87",
"V. c #B98D86",
"C. c #B88D86",
"Z. c #A99891",
"A. c #BFA39C",
"S. c #9EA4AF",
"D. c #A8A3A6",
"F. c #BEB4AB",
"G. c #AAAEBA",
"H. c #BAA5A1",
"J. c #9492A9",
"K. c #C89A93",
"L. c #D98E87",
"P. c #E08F87",
"I. c #E69C96",
"U. c #E79E98",
"Y. c #E09086",
"T. c #FABA81",
"R. c #EBA49D",
"E. c #EFBC8E",
"W. c #C1B9AD",
"Q. c #C9BBB1",
"!. c #D0A9A1",
"~. c #EBABA4",
"^. c #E8AAA3",
"/. c #F2B5AD",
"(. c #F5BDB4",
"). c #F9BEB5",
"_. c #EEAFA6",
"`. c #FCCC87",
"'. c #F7C582",
"]. c #FED389",
"[. c #FFDD8B",
"{. c #F8D585",
"}. c #F4CA98",
"|. c #FCDE93",
" X c #FFE18E",
".X c #FFE491",
"XX c #FFE39F",
"oX c #D6C7BB",
"OX c #EFC5BB",
"+X c #FCC1B8",
"@X c #FFE5A2",
"#X c #FFE6A9",
"$X c #FFEAAB",
"%X c #FFECBF",
"&X c #86AAC9",
"*X c #B0B8D1",
"=X c #A9C4D8",
"-X c #D6D6D8",
";X c #D8CBC1",
":X c #F2CBC3",
">X c #F6DCD8",
",X c #EAD5D4",
"<X c #FFF3C4",
"1X c #FFF2CF",
"2X c #FAE5DA",
"3X c #F1E7D6",
"4X c #DAE8F4",
"5X c #FFF4E5",
"6X c #FFF8E6",
"7X c #FEF5EA",
"8X c #FFFAEC",
"9X c #FFFFF4",
"0X c #FFFEF0",
"qX c #FFFFFF",
"wX c #FFFFFE",
"eX c #FFFEFC",
"rX c #F4F5F5",
"tX c #F0EAE5",
/* pixels */
"                                            . . . . . . . . . . . . . . . . . .                                                 ",
"                                            1 8 8 8 8 8 8 8 , , , , 8 8 8 8 8 <                                                 ",
"                                    . . . < &.7.6.-.-.-.-.*.Q E E Q *.-.-.6.7.&.< . . .                                         ",
"                                    0 w 8 c 9..X.X X X.X.X].T.e.e.T.]..X X.X.X9.c 8 w 0                                         ",
"                                . 0 N.W.;.8.{. X X X X X X[.].`.`.].[. X X X X{.8.;.W.N.0 .                                     ",
"                                0 K -X9X<X@X|.[.[.[.[.[.[.[.[.[.[.[.[.[.[.[.[.|.@X<X9X-XK 0                                     ",
"                            . 0 N.-XrXwX8X1XXX[.[.[.[.[.[.[.[.[.[.[.[.[.[.[.[.XX1X9XwXrX-XN.0 .                                 ",
"                            < L oX9XwXwXwX8X%X@X#X#X#X#X#X#X#X#X#X@X.X.X@X#X#X<X8XwXwXwX9XW.w .                                 ",
"                        . < &.9.|.<X8XwXwXwX8X6X6X6X6X6X6X6X6X6X8X1X@X@X1X8X6X8XwXwXwX9X<X;.8 .                                 ",
"                        . 8 6..X XXX1X6X6X6X6X6X6X6X6X6X6X6X6X6X8X1X}.E.OX>X6X6X6X6X6X1X@X8.c <                                 ",
"                        . 1 -..X X|.@X#X#X#X#X#X#X#X#X#X#X#X#X$X$X}.:.' o.L.}.$X$X$X#X@X.X{.9.&.1 .                             ",
"                        < c 0. X[.[.[.[.[.[.[.[.[.[.[.[.[.[.[.{.i.q.O.| _ O.q.y.y.i.{.[.[. X.X7.8 .                             ",
"                    . 1 &.9.{.[.[.[.[.[.[.[.[.[.[.[.[.[.[.[.[.i.:.O.P.U.U.Y.O.' ' :.i. X X X.X7.8 .                             ",
"                    . 8 7..X X[.[.[.[.[.[.[.[.[.[.[.[.[.`.].[.r.'  .U.+X+XR.$.| | O.q.'.]. X.X-.8 .                             ",
"                    . 8 6..X X[.[.[.[.[.[.[.[.[.[.[.[.`.t.t.].y.'  .I.(.(./.R.I.I.P.O.:.'..X.X-.8 .                             ",
"                    . 8 -. X X[.[.[.[.[.[.[.[.[.[.[.[.`.w.w.`.y.'  .I.(.(.(.(.(.(.R.#.O.q.'.`.*.8 .                             ",
"                    . 8 -. X X[.[.[.[.[.[.[.[.[.[.[.[.`.w.w.`.y.'  .I.(.(.(.(.(.(./.R.P.O.+.4.Q , .                             ",
"                    . 8 -..X X[.[.[.[.[.[.[.{.{.[.[.[.`.w.w.T.q.'  .I./.R.I.I.I.I.R./.^.$.' W U > .                             ",
"                    . 8 -..X X[.[.[.[.[.[.`.t.t.`. X X`.w.3.w.,.)  .U.R.$.'  . .' $.R./.~.~ j =                                 ",
"                    . 8 *.].[.[.[.[.[. X X'.1.1.'.[.].T.w.1.3.%.)  .R.~.$. . . . .$.R.).+XC.5 .                                 ",
"                    . , Q T.]. X X[.[. X Xy.O.O.y.].u.w.3.3.3.%.)  .R.(.~.R.R.R.R.^./.(.).C.5 .                                 ",
"                    . , E w.T.`.`.`.`.`.'.q.} O.t.T.5.>.<.3.3.>.) _ ~ V.V.V.V.V.V.K.^.).+XV.6 .                                 ",
"                    . , E 4.w.w.w.w.w.2.+.} +.,.4.1.] ] >.3.3.>.` T d 6 6 6 6 6 5 S K.+X+XV.6 .                                 ",
"                    . , E 4.3.1.1.<.>.X.( ( O.>.>.+.#.#.+.,.1.+.T k + . . . . . . 7 C./.K.^ 7 .                                 ",
"                    . , W 4.3.1.1.>.] ( / / _ ) ) #.~.^.#.] ,.[ p + . . . . . . . 7 V.K.S 7                                     ",
"                    . ; U { ,.3.3.>.] ) ) ) ) ( / #.:X:X#.) >.[ p - q 0 4 2 2 3 r L !.V.6 .                                     ",
"                        = j [ 3.3.<.>.>.>.>.>.} ( #.:X:X#.) >.+.T Y H.S.j.B B j.N.oX>XH.q .                                     ",
"                        . > E 4.3.1.3.3.3.3.3.>.) #.:X:X#.) >.>.) $.>X4Xm.g.g.n.-X8X8XF.q .                                     ",
"                        . > E 4.3.1.1.3.1.3.3.%.) #.:X:X#.) >.>.) $.>X4X&Xv.v.&X-X8X8XF.q .                                     ",
"                        . ; U { ,.3.3.1.1.3.3.%.) o.OXOXo.) >.>.) #.:X4X=X&X&X*X,X6X7XoXK 0                                     ",
"                            = j { 4.3.1.1.3.3.%.) ..~.~...) >.>.) #.:X7XtX-X-X,XtX6X6X3X;XM.0 .                                 ",
"                            . = U O.,.3.3.3.3.>.] X.P.L._ ) >.>.) o.OX6X6X6X6X6X6X7X7X3XoXM.0 .                                 ",
"                                = j [ 3.3.3.3.<.>.+.X._ / ) >.>.) o.OX6X6X6X6X6X7X7X8XoXK 0                                     ",
"                                . > E ,.{ [ ,.3.3.,.] _ / ) O.O._ #.:X7X7X5X2X:XQ.W.W.B.5 .                                     ",
"                                . , W O.j j { 4.4.3.,.%.) ( ) ) / #.:X8X8X2X+XL.S q q 0                                         ",
"                                . = U U = = U W E E W ! T P P I R ..K.W.F.A.=.Y ; . . .                                         ",
"                            . . . X = >     ; , , , , > : * * l I T j w w q 6 ;                                                 ",
"                            . . . . . .     . . . . . . . . $ t k k * . . . . .                                                 ",
"                                                        . % b n t * X .                                                         ",
"                                                        $ 4 d.d.v $ . .                                                         ",
"                                                    . $ v M a.s.d.b % .                                                         ",
"                                                    q n M p.f.l.l.B 2 .                                                         ",
"                                                . w M.D.h.p.l.b.m.j.3 .                                                         ",
"                                                . 0 N.*Xh.p.v.m.v.k.V w                                                         ",
"                                                . 3 H h.p.p.v.v.f.k.G.N.0 .                                                     ",
"                                                . $ N m p.k.x.z.x.n.*XG.J 9                                                     ",
"                                                    $ v k.z.s.x.*X*Xn.c.D.M.q .                                                 ",
"                                                    . 3 B j.m H S.G.c.J.,XQ.s .                                                 ",
"                                                    . o 3 3 2 2 r J D.,X7XQ.w .                                                 ",
"                                                    & & # # # O O s Z.oXoXB.5 .                                                 ",
"                                                . & u d g g g g g z S G G z & .                                                 ",
"                                                . # a Z D D D D D Z d y y : X .                                                 ",
"                                                . O 7 d Z D D D D F Z d y : X .                                                 ",
"                                                . O 7 d x C C x C C Z x d 7 O .                                                 ",
"                                                . & a x d h h h h h h d x d # .                                                 ",
"                                                . O u a , : ; ; ; ; ; 7 d i - #                                                 ",
"                                                . . O # X X X O O O O O O - i u & .                                             ",
"                                                & # O & 0 0 O . . . . . O 7 x z & .                                             ",
"                                            . & u i ; A D.N.0 .     . O u x D f & .                                             ",
"                                            . & f Z d G D.D.e .     . & u z f u & .                                             ",
"                                            . & f D F A V e             & & & &                                                 ",
"                                            . & u f z 6 O .             . . . .                                                 ",
"                                                & & & O . .                                                                     ",
"                                                . . . . . .                                                                     "
};
