/* XPM */
static char *right1[] = {
/* columns rows colors chars-per-pixel */
"64 64 213 2 ",
"   c None",
".  c #000000",
"X  c #0D0505",
"o  c #0E0907",
"O  c #120B0B",
"+  c #190707",
"@  c #19110E",
"#  c #17100E",
"$  c #030A18",
"%  c #0B111A",
"&  c #1B1311",
"*  c #240B0A",
"=  c #2D1C16",
"-  c #2A1817",
";  c #341C1A",
":  c #321A17",
">  c #352019",
",  c #39231C",
"<  c #342D1C",
"1  c #3A281D",
"2  c #37301E",
"3  c #39301F",
"4  c #0B1523",
"5  c #141C27",
"6  c #18232D",
"7  c #16233D",
"8  c #2B262D",
"9  c #3C2322",
"0  c #392D2B",
"q  c #362927",
"w  c #3C3421",
"e  c #35312F",
"r  c #343333",
"t  c #393533",
"y  c #3A3835",
"u  c #383A3B",
"i  c #342F34",
"p  c #2E1F29",
"a  c #412E29",
"s  c #522F2D",
"d  c #48322D",
"f  c #56302B",
"g  c #4F3630",
"h  c #443B39",
"j  c #5A3633",
"k  c #553D35",
"l  c #583F38",
"z  c #5C3935",
"x  c #643E34",
"c  c #6B2F2C",
"v  c #531E1D",
"b  c #594039",
"n  c #65443D",
"m  c #6C5D3A",
"M  c #192C52",
"N  c #273C5D",
"B  c #1E2D5B",
"V  c #274473",
"C  c #35567E",
"Z  c #4E4548",
"A  c #694740",
"S  c #6C4B43",
"D  c #75534A",
"F  c #6D5450",
"G  c #4D526F",
"H  c #4B6177",
"J  c #6B6867",
"K  c #6B634F",
"L  c #943737",
"P  c #A43E3E",
"I  c #8D5644",
"U  c #95544C",
"Y  c #A74A46",
"T  c #B74444",
"R  c #B36D56",
"E  c #B86E58",
"W  c #B7775A",
"Q  c #AC6250",
"!  c #BB7C77",
"~  c #916F69",
"^  c #C24C4C",
"/  c #C8534F",
"(  c #CC5A53",
")  c #C85855",
"_  c #D35E57",
"`  c #CD685A",
"'  c #D46A5B",
"]  c #D5675B",
"[  c #C2765D",
"{  c #C5795F",
"}  c #D7715E",
"|  c #CA5F60",
" . c #CD6362",
".. c #CB6968",
"X. c #D46C63",
"o. c #CE736C",
"O. c #D57664",
"+. c #DA7867",
"@. c #CF7371",
"#. c #D07472",
"$. c #D77977",
"%. c #E27D67",
"&. c #988453",
"*. c #BC9864",
"=. c #BD817F",
"-. c #BFA669",
";. c #BFAC7D",
":. c #DB8866",
">. c #E58269",
",. c #E78A6D",
"<. c #EB8D70",
"1. c #EE9272",
"2. c #EB9872",
"3. c #F29475",
"4. c #F79977",
"5. c #E9916F",
"6. c #C1A76A",
"7. c #C2A86B",
"8. c #CFB26D",
"9. c #D3B775",
"0. c #CFB372",
"q. c #E7A474",
"w. c #F3A379",
"e. c #F8A57B",
"r. c #EFB87A",
"t. c #F5B27D",
"y. c #F1BC7C",
"u. c #F8B67F",
"i. c #F4C27E",
"p. c #273A82",
"a. c #334A8C",
"s. c #325483",
"d. c #345A8E",
"f. c #3D6CA4",
"g. c #4E5E91",
"h. c #486687",
"j. c #516E97",
"k. c #4A74A9",
"l. c #6175AA",
"z. c #5986B6",
"x. c #5F90BD",
"c. c #6F8CB4",
"v. c #6D98C2",
"b. c #9C928B",
"n. c #979899",
"m. c #978D86",
"M. c #B98D86",
"N. c #B88D86",
"B. c #BB968F",
"V. c #BFA39C",
"C. c #9EA4AF",
"Z. c #A9A5A6",
"A. c #BEB4AB",
"S. c #B7AAAA",
"D. c #C89A93",
"F. c #D98E87",
"G. c #E08F87",
"H. c #E69C96",
"J. c #E79E98",
"K. c #E09086",
"L. c #FABA81",
"P. c #EBA49D",
"I. c #EFBC8E",
"U. c #C1B9AD",
"Y. c #CBBDB3",
"T. c #D0A9A1",
"R. c #EBABA4",
"E. c #E8AAA3",
"W. c #F2B5AD",
"Q. c #F5BDB4",
"!. c #F9BEB5",
"~. c #EEAFA6",
"^. c #FCCC87",
"/. c #F7C582",
"(. c #FED389",
"). c #FFDD8B",
"_. c #F8D585",
"`. c #F4CA98",
"'. c #FCDE93",
"]. c #FFE18E",
"[. c #FFE491",
"{. c #FFE39F",
"}. c #D3C6BB",
"|. c #EFC5BB",
" X c #FCC1B8",
".X c #FFE5A2",
"XX c #FFE6A9",
"oX c #FFEAAB",
"OX c #FFECBF",
"+X c #86AAC9",
"@X c #ACB9D2",
"#X c #A9C4D8",
"$X c #D6D6D8",
"%X c #D7CBC8",
"&X c #F2CBC3",
"*X c #F6DCD8",
"=X c #F1D1CC",
"-X c #FFF3C4",
";X c #FFF2CF",
":X c #FAE5DA",
">X c #F1E7D6",
",X c #DAE8F4",
"<X c #FFF4E5",
"1X c #FFF8E6",
"2X c #FEF5E9",
"3X c #FFFAEC",
"4X c #FFFFF4",
"5X c #FFFEF0",
"6X c #FFFFFF",
"7X c #FFFFFE",
"8X c #FFFEFC",
"9X c #F4F5F5",
"0X c #F0EAE5",
/* pixels */
"                                            . . . . . . . . . . . . . . . . . .                                                 ",
"                                            2 w w w w w w w , , , , 0 w w w w 2                                                 ",
"                                    . . . < &.7.6.-.-.-.-.*.W R R W *.-.-.6.7.&.< . . .                                         ",
"                                    r y w m 9.[.[.].].[.[.(.L.e.e.L.(.[.].[.[.9.m w y r                                         ",
"                                . r n.U.;.8._.].].].].].].).(.^.^.(.).].].].]._.8.;.U.n.r .                                     ",
"                                r J $X4X-X.X'.).).).).).).).).).).).).).).).).'..X-X4X$XJ r                                     ",
"                            . r n.$X9X7X3X;X{.).).).).).).).).).).).).).).).).{.;X4X7X9X$Xn.r .                                 ",
"                            < K }.4X7X7X7X3XOX.XXXXXXXXXXXXXXXXXXX.X[.[..XXXXX-X3X7X7X7X4XU.y .                                 ",
"                        . < &.9.'.-X3X7X7X7X3X1X1X1X1X1X1X1X1X1X3X;X.X.X;X3X1X3X7X7X7X4X-X;.w .                                 ",
"                        . w 6.[.].{.;X1X1X1X1X1X1X1X1X1X1X1X1X1X3X;X`.I.|.*X1X1X1X1X1X;X.X8.m <                                 ",
"                        . 2 -.[.].'..XXXXXXXXXXXXXXXXXXXXXXXXXoXoX`.:.` o.F.`.oXoXoXXX.X[._.9.&.2 .                             ",
"                        < m 0.].).).).).).).).).).).).).).).)._.i.q.O.| ) O.q.y.y.i._.).).].[.7.w .                             ",
"                    . 2 &.9._.).).).).).).).).).).).).).).).).i.:.O.G.J.J.K.O.` ` :.i.].].].[.7.w .                             ",
"                    . w 7.[.].).).).).).).).).).).).).).^.(.).r.`  .J. X XP.$.| | O.q./.(.].[.-.w .                             ",
"                    . w 6.[.].).).).).).).).).).).).).^.t.t.(.y.`  .H.Q.Q.W.P.H.H.G.O.:./.[.[.-.w .                             ",
"                    . w -.].].).).).).).).).).).).).).^.w.w.^.y.`  .H.Q.Q.Q.Q.Q.Q.P.#.O.q./.^.*.w .                             ",
"                    . w -.].].).).).).).).).).).).).).^.w.w.^.y.`  .H.Q.Q.Q.Q.Q.Q.W.P.G.O.+.4.W 1 .                             ",
"                    . w -.[.].).).).).).).)._._.).).).^.w.w.L.q.`  .H.W.P.H.H.H.H.P.W.E.$.` E I > .                             ",
"                    . w -.[.].).).).).).).^.t.t.^.].].^.w.3.w.,.(  .J.P.$.`  . .` $.P.W.R.! x =                                 ",
"                    . w *.(.).).).).).].]./.1.1./.).(.L.w.1.3.%.(  .P.R.$. . . . .$.P.!. XN.e .                                 ",
"                    . , W L.(.].].).).].].y.O.O.y.(.u.w.3.3.3.%.(  .P.Q.R.P.P.P.P.E.W.Q.!.N.e .                                 ",
"                    . , R w.L.^.^.^.^.^./.q.} O.t.L.5.>.<.3.3.>.( ) ! M.M.M.M.M.M.D.E.!.!.N.q .                                 ",
"                    . , R 4.w.w.w.w.w.2.+.} +.,.4.1.' ] >.3.3.>._ Y j q q q q q e F D. X XM.q .                                 ",
"                    . , R 4.3.1.1.<.>.X./ / O.>.>.+.#.#.+.,.1.+.Y c + . . . . . . q N.W.D.~ q .                                 ",
"                    . , E 4.3.1.1.>.] / ^ ^ ) ( ( #.R.E.#.' ,.[ f + . . . . . . . q M.D.F q                                     ",
"                    . ; I { ,.3.3.>.' ( ( ( ( / ^ #.&X&X#.( >.[ f = y r 6 4 4 5 i K T.B.q .                                     ",
"                        = x [ 3.3.<.>.>.>.>.>.} / #.&X&X#.( >.+.Y U V.C.h.V V h.n.}.*XV.y .                                     ",
"                        . > R 4.3.1.3.3.3.3.3.>.( #.&X&X#.( >.>.( $.*X,Xv.f.f.c.$X3X3XA.y .                                     ",
"                        . > R 4.3.1.1.3.1.3.3.%.( #.&X&X#.( >.>.( $.*X,X+Xz.z.+X$X3X2XA.y .                                     ",
"                        . ; I { ,.3.3.1.1.3.3.%.( o.|.|.o.( >.>.( #.=X,X#X+X+X@X>X1X2X}.J r                                     ",
"                            = x { 4.3.1.1.3.3.%.( ..R.R...( >.>.( #.&X2X0X$X$X>X0X1X1X>X%Xb.r .                                 ",
"                            . = I O.,.3.3.3.3.>.] X.G.F.) ( >.>.( o.|.1X1X1X1X1X1X2X2X>X}.b.r .                                 ",
"                                = x [ 3.3.3.3.<.>.+.X.) ^ ( >.>.( o.|.1X1X1X1X1X2X2X3X}.J e                                     ",
"                                . > R ,.{ [ ,.3.3.,.' ) ^ ( %.O./ #.&X2X2X<X:X=XY.U.U.m.e .                                     ",
"                                . , E O.x x { 4.4.3.,.%.( / ( ) ^ #.&X3X3X:X XF.F y y r                                         ",
"                                . = I I = = I E R R E Q Y L L L T ..D.U.A.V.=.U ; . . .                                         ",
"                            . . . o = >     ; , , , , > : - * v P Y x y y y q ;                                                 ",
"                            . . . . . .     . . . . . . . . $ p c c * . . . . .                                                 ",
"                                                        . % B N p * X .                                                         ",
"                                                        % M s.s.M $ . .                                                         ",
"                                                    . 4 N s.d.d.s.B % .                                                         ",
"                                                    $ 7 s.k.k.k.k.C 5 .                                                         ",
"                                                . $ 7 V k.x.x.x.x.h.6 .                                                         ",
"                                                . 5 G l.l.z.z.x.v.j.6 .                                                         ",
"                                                . i C.@Xl.a.a.j.x.j.6 .                                                         ",
"                                                e J S.@Xg.p.a.g.j.H 8 X                                                         ",
"                                            . y b.S.c.g.a.a.k.j.G h 9 - X .                                                     ",
"                                            . h Y.%Xg.M B V h.H y : ; - X .                                                     ",
"                                            . h Y.}.Z $ $ 4 5 5 O X o X . . . .                                                 ",
"                                            . y b.b.h O # # # # # & & & & O . .                                                 ",
"                                                y h k k k k k k k k k z b a O .                                                 ",
"                                                . O g S D D D D D D D D S g # .                                                 ",
"                                                . O 9 z S D D D D D D S z 9 O .                                                 ",
"                                                . O 9 j n A A n A A A n j 9 O .                                                 ",
"                                                . & g n j s s s s s s j n g # .                                                 ",
"                                                . O a g , : ; ; ; ; ; 9 g g = #                                                 ",
"                                                . . O # X X X O O O O O O = g d & .                                             ",
"                                                & # O & r r O . . . . . O q n b & .                                             ",
"                                            . & d g ; Z Z.n.r .     . O a n D l & .                                             ",
"                                            . & l S j F Z.Z.u .     . & d b l d & .                                             ",
"                                            . & l D S A Z u             & & & &                                                 ",
"                                            . & d l l 0 O .             . . . .                                                 ",
"                                                & & & O . .                                                                     ",
"                                                . . . . . .                                                                     "
};
