/* XPM */
static char *up1_png[] = {
/* columns rows colors chars-per-pixel */
"64 64 15 1 ",
"  c None",
". c black",
"X c #462424",
"o c #664339",
"O c None",
"+ c #C14B4B",
"@ c #EF9273",
"# c #293A80",
"$ c #3A639B",
"% c #6799C1",
"& c #F3B9B0",
"* c #FFDD8C",
"= c #B4D8F5",
"- c #FFEFE3",
"; c white",
/* pixels */
"                      ....................                      ",
"                      ....................                      ",
"                  ....********@@@@********....                  ",
"                  ....********@@@@********....                  ",
"                ..;;************************;;..                ",
"                ..;;************************;;..                ",
"              ..;;;;;;********************;;;;;;..              ",
"              ..;;;;;;********************;;;;;;..              ",
"            ..****;;;;;;;;;;;;;;;;;;;;;;;;;;;;****..            ",
"            ..****;;;;;;;;;;;;;;;;;;;;;;;;;;;;****..            ",
"            ..************************************..            ",
"            ..************************************..            ",
"          ..****************************************..          ",
"          ..****************************************..          ",
"          ..****************************************..          ",
"          ..****************************************..          ",
"          ..****@@****************************@@****..          ",
"          ..****@@****************************@@****..          ",
"          ..****@@****************************@@****..          ",
"          ..****@@****************************@@****..          ",
"          ..**@@@@@@************************@@@@@@**..          ",
"          ..**@@@@@@************************@@@@@@**..          ",
"        ..@@@@++@@@@@@@@@@@@@@@@@@@@@@@@@@@@@@@@++@@@@..        ",
"        ..@@@@++@@@@@@@@@@@@@@@@@@@@@@@@@@@@@@@@++@@@@..        ",
"      ......++--++@@@@@@@@@@@@@@@@@@@@@@@@@@@@++--++......      ",
"      ......++--++@@@@@@@@@@@@@@@@@@@@@@@@@@@@++--++......      ",
"            ..--++@@@@@@@@@@@@@@@@@@@@@@@@@@@@++--..            ",
"            ..--++@@@@@@@@@@@@@@@@@@@@@@@@@@@@++--..            ",
"            ..--++@@@@@@@@@@@@@@@@@@@@@@@@@@@@++--..            ",
"            ..--++@@@@@@@@@@@@@@@@@@@@@@@@@@@@++--..            ",
"            ..&&++@@@@@@@@@@@@@@@@@@@@@@@@@@@@++&&..            ",
"            ..&&++@@@@@@@@@@@@@@@@@@@@@@@@@@@@++&&..            ",
"              ....++@@@@@@@@@@@@@@@@@@@@@@@@++....              ",
"              ....++@@@@@@@@@@@@@@@@@@@@@@@@++....              ",
"                  ......@@@@@@@@@@@@@@@@......                  ",
"                  ......@@@@@@@@@@@@@@@@......                  ",
"                  ..    ................    ..                  ",
"                  ..    ................    ..                  ",
"                        ..XXooXX$$$$$$..                        ",
"                        ..XXooXX$$$$$$..                        ",
"                      ..$$$$XXooXX$$$$$$..                      ",
"                      ..$$$$XXooXX$$$$$$..                      ",
"                    ..%%%%##%%XXOOXX##%%..                      ",
"                    ..%%%%##%%XXOOXX##%%..                      ",
"                  ..;;##%%##%%%%XXOOXX%%%%..                    ",
"                  ..;;##%%##%%%%XXOOXX%%%%..                    ",
"                  ..######%%%%%%%%XXOO####..                    ",
"                  ..######%%%%%%%%XXOO####..                    ",
"                ..------############XXXX;;..                    ",
"                ..------############XXXX;;..                    ",
"                  ..----##;;;;;;;;;;;;XXXX..                    ",
"                  ..----##;;;;;;;;;;;;XXXX..                    ",
"                    ....##############XXOOOO..                  ",
"                    ....##############XXOOOO..                  ",
"                        ..====####====XXOOOO..                  ",
"                        ..====####====XXOOOO..                  ",
"                        ..XXXXXX##;;;;XXOOOO..                  ",
"                        ..XXXXXX##;;;;XXOOOO..                  ",
"                        ..OOOO..XXXXXXXX....                    ",
"                        ..OOOO..XXXXXXXX....                    ",
"                          ....  ..OOOO..                        ",
"                          ....  ..OOOO..                        ",
"                                  ....                          ",
"                                  ....                          "
};
