/* XPM */
static char *up2_png[] = {
/* columns rows colors chars-per-pixel */
"64 64 15 1 ",
"  c none",
". c black",
"X c #462424",
"o c #664339",
"O c #725148",
"+ c #C14B4B",
"@ c #EF9273",
"# c #293A80",
"$ c #3A639B",
"% c #6799C1",
"& c #F3B9B0",
"* c #FFDD8C",
"= c #B4D8F5",
"- c None",
"; c white",
/* pixels */
"                      ....................                      ",
"                      ....................                      ",
"                  ....********@@@@********....                  ",
"                  ....********@@@@********....                  ",
"                ..;;************************;;..                ",
"                ..;;************************;;..                ",
"              ..;;;;;;********************;;;;;;..              ",
"              ..;;;;;;********************;;;;;;..              ",
"            ..****;;;;;;;;;;;;;;;;;;;;;;;;;;;;****..            ",
"            ..****;;;;;;;;;;;;;;;;;;;;;;;;;;;;****..            ",
"            ..************************************..            ",
"            ..************************************..            ",
"          ..****************************************..          ",
"          ..****************************************..          ",
"          ..****************************************..          ",
"          ..****************************************..          ",
"          ..****@@****************************@@****..          ",
"          ..****@@****************************@@****..          ",
"          ..****@@****************************@@****..          ",
"          ..****@@****************************@@****..          ",
"          ..**@@@@@@************************@@@@@@**..          ",
"          ..**@@@@@@************************@@@@@@**..          ",
"        ..@@@@++@@@@@@@@@@@@@@@@@@@@@@@@@@@@@@@@++@@@@..        ",
"        ..@@@@++@@@@@@@@@@@@@@@@@@@@@@@@@@@@@@@@++@@@@..        ",
"      ......++--++@@@@@@@@@@@@@@@@@@@@@@@@@@@@++--++......      ",
"      ......++--++@@@@@@@@@@@@@@@@@@@@@@@@@@@@++--++......      ",
"            ..--++@@@@@@@@@@@@@@@@@@@@@@@@@@@@++--..            ",
"            ..--++@@@@@@@@@@@@@@@@@@@@@@@@@@@@++--..            ",
"            ..--++@@@@@@@@@@@@@@@@@@@@@@@@@@@@++--..            ",
"            ..--++@@@@@@@@@@@@@@@@@@@@@@@@@@@@++--..            ",
"            ..&&++@@@@@@@@@@@@@@@@@@@@@@@@@@@@++&&..            ",
"            ..&&++@@@@@@@@@@@@@@@@@@@@@@@@@@@@++&&..            ",
"              ....++@@@@@@@@@@@@@@@@@@@@@@@@++....              ",
"              ....++@@@@@@@@@@@@@@@@@@@@@@@@++....              ",
"                  ......@@@@@@@@@@@@@@@@......                  ",
"                  ......@@@@@@@@@@@@@@@@......                  ",
"                  ..    ................    ..                  ",
"                  ..    ................    ..                  ",
"                        ..XXooXX$$$$$$..                        ",
"                        ..XXooXX$$$$$$..                        ",
"                      ..$$$$XXooXX$$$$$$..                      ",
"                      ..$$$$XXooXX$$$$$$..                      ",
"                      ..%%##%%XXOOXX##%%%%..                    ",
"                      ..%%##%%XXOOXX##%%%%..                    ",
"                    ..;;####%%%%XXOOXX%%##;;..                  ",
"                    ..;;####%%%%XXOOXX%%##;;..                  ",
"                    ..####%%%%%%%%XXOOXX####..                  ",
"                    ..####%%%%%%%%XXOOXX####..                  ",
"                    ..--############XXXX------..                ",
"                    ..--############XXXX------..                ",
"                    ..--##;;;;;;;;;;##XX----..                  ",
"                    ..--##;;;;;;;;;;##XX----..                  ",
"                      ..##############XXXXXX..                  ",
"                      ..##############XXXXXX..                  ",
"                        ..====####====XXOOOO..                  ",
"                        ..====####====XXOOOO..                  ",
"                        ..;;;;##XXXXXXXXOOOO..                  ",
"                        ..;;;;##XXXXXXXXOOOO..                  ",
"                        ..XXXXXX..OOOO......                    ",
"                        ..XXXXXX..OOOO......                    ",
"                        ..OOOO..  ....                          ",
"                        ..OOOO..  ....                          ",
"                          ....                                  ",
"                          ....                                  "
};
