/* XPM */
static char *up[] = {
/* columns rows colors chars-per-pixel */
"64 64 215 2 ",
"   c None",
".  c #000000",
"X  c #0D0505",
"o  c #0B0808",
"O  c #120B0A",
"+  c #040A17",
"@  c #0A121D",
"#  c #1A1311",
"$  c #171315",
"%  c #18100E",
"&  c #240B0C",
"*  c #290F10",
"=  c #291815",
"-  c #341D18",
";  c #3A1E1D",
":  c #311916",
">  c #23100F",
",  c #35211A",
"<  c #39221A",
"1  c #342D1C",
"2  c #37301E",
"3  c #38321F",
"4  c #091523",
"5  c #141C26",
"6  c #070F2F",
"7  c #1E243D",
"8  c #362826",
"9  c #3C3421",
"0  c #37312E",
"q  c #3C2736",
"w  c #343434",
"e  c #3A3633",
"r  c #3B3936",
"t  c #3F3B38",
"y  c #272830",
"u  c #47221F",
"i  c #4A2825",
"p  c #522E2A",
"a  c #532623",
"s  c #48322D",
"d  c #5A352E",
"f  c #55312C",
"g  c #482D36",
"h  c #4B353E",
"j  c #563E37",
"k  c #5C3A35",
"l  c #5A3F39",
"z  c #533631",
"x  c #72292A",
"c  c #643E33",
"v  c #60312A",
"b  c #63413B",
"n  c #69493C",
"m  c #6C5D3A",
"M  c #4C413E",
"N  c #1B304C",
"B  c #2B3454",
"V  c #182763",
"C  c #2C3565",
"Z  c #23347A",
"A  c #303E76",
"S  c #111C48",
"D  c #493441",
"F  c #523E43",
"G  c #403B55",
"H  c #294B77",
"J  c #385375",
"K  c #574349",
"L  c #45485A",
"P  c #53464F",
"I  c #6C4840",
"U  c #654946",
"Y  c #76554B",
"T  c #78564C",
"R  c #635359",
"E  c #684F50",
"W  c #6B634F",
"Q  c #424B6A",
"!  c #4F5577",
"~  c #605E60",
"^  c #5B697E",
"/  c #716766",
"(  c #6C6A6F",
")  c #9B4845",
"_  c #925946",
"`  c #885442",
"'  c #A84A44",
"]  c #AC614F",
"[  c #B46D56",
"{  c #B77459",
"}  c #926F6A",
"|  c #AF6F6C",
" . c #CC5952",
".. c #CA5750",
"X. c #D3695A",
"o. c #C5785F",
"O. c #D96D65",
"+. c #D4756E",
"@. c #DE7D69",
"#. c #D27472",
"$. c #DC7972",
"%. c #E37E67",
"&. c #E17D6C",
"*. c #988453",
"=. c #BC9764",
"-. c #BFA669",
";. c #BFAC7D",
":. c #CD8264",
">. c #E6826A",
",. c #EA896E",
"<. c #EC8D70",
"1. c #EF9273",
"2. c #E99C74",
"3. c #F29475",
"4. c #F29E77",
"5. c #F69C78",
"6. c #EB926F",
"7. c #C1A76A",
"8. c #C6A76B",
"9. c #CFB26D",
"0. c #D3B776",
"q. c #CFB372",
"w. c #F3A379",
"e. c #F8A57B",
"r. c #F6B17D",
"t. c #2B3E84",
"y. c #344D8D",
"u. c #364886",
"i. c #385586",
"p. c #3D5596",
"a. c #3B5A95",
"s. c #324A8C",
"d. c #3C619D",
"f. c #386095",
"g. c #3B608A",
"h. c #3C68A2",
"j. c #4A5381",
"k. c #515F98",
"l. c #565882",
"z. c #49649C",
"x. c #5D6B9E",
"c. c #53619C",
"v. c #54769B",
"b. c #5C6A80",
"n. c #4669A4",
"m. c #5E6BA1",
"M. c #557AAC",
"N. c #5079AC",
"B. c #606CA0",
"V. c #747CA6",
"C. c #656992",
"Z. c #5682B2",
"A. c #5B89B6",
"S. c #5D83AA",
"D. c #6487A7",
"F. c #7984B1",
"G. c #6697BE",
"H. c #7D89AE",
"J. c #758393",
"K. c #689CC4",
"L. c #7895C6",
"P. c #6AA0C8",
"I. c #9C928A",
"U. c #999999",
"Y. c #938E8E",
"T. c #BC9992",
"R. c #8292AF",
"E. c #8487AC",
"W. c #A9ABB9",
"Q. c #B3ACAF",
"!. c #AD9FA5",
"~. c #F9BC81",
"^. c #FBB681",
"/. c #C1B8AD",
"(. c #CABBB2",
"). c #C0AEA5",
"_. c #EDB0A8",
"`. c #FBCC86",
"'. c #FED38A",
"]. c #FFDD8B",
"[. c #F6D585",
"{. c #FFDF91",
"}. c #F4DA9A",
"|. c #FFE18E",
" X c #FFE590",
".X c #FFE39F",
"XX c #D3C7B7",
"oX c #CDC1BA",
"OX c #F7C4BC",
"+X c #FFE5A3",
"@X c #FFE6A9",
"#X c #FFECBF",
"$X c #A9ACC5",
"%X c #A4B4CB",
"&X c #B6BCD6",
"*X c #B1B0C5",
"=X c #96B9E1",
"-X c #DACCC1",
";X c #D6D3D5",
":X c #CFC5C7",
">X c #F5CDC4",
",X c #E5D0CD",
"<X c #FFF2C3",
"1X c #FFF1CE",
"2X c #FCEBDE",
"3X c #CFD3E2",
"4X c #D1D5E4",
"5X c #D1D6E8",
"6X c #FCEDE4",
"7X c #FFF7E5",
"8X c #FFF8E6",
"9X c #FFFAEE",
"0X c #FFFFF3",
"qX c #FFFFFE",
"wX c #F4F5F5",
/* pixels */
"                                                                                                                                ",
"                                                                                                                                ",
"                                            . . . . . . . . . . . . . . . . . . . .                                             ",
"                                            1 9 9 9 9 9 9 9 < < < < 3 9 9 9 9 9 9 2                                             ",
"                                    . . . 1 *.7.7.-.-.-.-.=.{ [ [ { =.-.-.-.-.7.7.*.1 . . .                                     ",
"                                    w e 9 m 0. X X|.|. X X'.^.e.e.^.'.|.|.|.|. X X0.m 9 e w                                     ",
"                                . w U./.;.9.[.|.|.|.|.|.|.].'.`.`.'.].|.|.|.|.|.|.[.9.;./.U.w .                                 ",
"                                w ( ;X0X<X+X X].].].].].].].].].].].].].].].].].]. X+X<X0X;X( w                                 ",
"                            . w U.;XwXqX9X1X.X].].].].].].].].].].].].].].].].].]..X1X9XqXwX;XU.w .                             ",
"                            1 W XX0XqXqXqX9X#X+X@X@X@X@X@X@X@X@X@X@X@X@X@X@X@X@X+X#X9XqXqXqX0XXXW 1                             ",
"                        . 1 *.0.}.<X9XqXqXqX9X7X7X8X8X7X7X7X8X8X7X7X7X7X8X8X8X7X7X9XqXqXqX9X<X}.0.*.1 .                         ",
"                        . 9 7. X|..X1X7X7X7X7X7X8X8X7X7X7X7X7X8X7X7X7X7X8X8X8X8X8X7X7X7X7X1X.X|. X7.9 .                         ",
"                        . 3 -. X|.{.+X@X@X@X@X@X@X@X@X@X@X@X@X@X@X@X@X@X@X@X@X@X@X@X@X@X@X+X{.|. X-.3 .                         ",
"                        1 m q.|.].].].].].].].].].].].].].].].].].].].].].].].].].].].].].].].|.|.q.m 1                         ",
"                    . 2 *.0.[.].].].].].].].].].].].].].].].].].].].].].].].].].].].].].].].].].].[.0.*.2 .                     ",
"                    . 9 7. X|.].].].].].].].].].].].].].].].].].].].].].].].].].].].].].].].].].].|. X7.9 .                     ",
"                    . 9 7. X|.].].].].].].].].].].].].].].].].].].].].].].].].].].].].].].].].].].|. X7.9 .                     ",
"                    . 9 -.|.|.].`.`.].].].].].].].].].].].].].].].].].].].].].].].].].].].].`.`.].|.|.-.9 .                     ",
"                    . 9 -. X|.`.r.r.`.].].].].].].].].].].].].].].].].].].].].].].].].].].`.r.r.`.|. X-.9 .                     ",
"                    . 9 -. X|.`.w.w.`.|.].].].].].].].].].].].].].].].].].].].].].].].].].`.w.w.`.|. X-.9 .                     ",
"                    . 9 -. X|.`.w.w.`.|.].].].].].].].].].].].].].].].].].].].].].].].].|.`.w.w.`.|. X-.9 .                     ",
"                    . 9 -.|.'.~.4.4.~.'.].].].].].].].].].].].].].].].].].].].].].].].].'.~.4.4.~.'.|.-.9 .                     ",
"                    . 3 -.'.^.4.3.3.4.r.'.|.].].].].].].].].].].].].].].].].].].].|.|.'.r.4.3.3.4.^.'.-.3 .                     ",
"                    - n 8.~.6.>.<.1.1.4.~.`.`.`.`.`.`.`.`.`.`.`.`.`.`.`.`.`.`.`.`.`.`.~.4.1.1.<.>.1.~.8.n -                     ",
"                . , _ :.2.1.X.X.>.3.1.3.4.w.w.w.w.w.w.w.w.w.w.w.w.w.w.w.w.w.w.w.w.w.w.w.3.1.3.>.X.X.1.2.:._ , .                 ",
"                . = ` o.@.&.+.+.@.>.<.1.1.1.1.1.1.1.1.1.1.1.1.1.1.1.1.1.1.1.1.1.1.1.1.1.1.<.>.@.+.+.&.@.o.` = .                 ",
"            . . . o = v ' $._._.+.X.>.3.1.1.1.1.1.1.1.1.1.1.1.1.1.1.1.1.1.1.1.1.1.1.1.1.3.>.X.+._._.$.' v = o . . .             ",
"            . . . . . & x | >X>X#...%.3.3.1.1.1.1.1.1.1.1.1.1.1.1.1.1.1.1.1.1.1.1.1.1.3.3.%...#.>X>X| x & . . . . .             ",
"                        & U (.>X#...%.3.3.1.1.1.1.1.1.1.1.1.1.1.1.1.1.1.1.1.1.1.1.1.1.3.3.%...#.>X(.U &                         ",
"                        . e Q.>X#...%.3.3.1.1.1.1.1.1.1.1.1.1.1.1.1.1.1.1.1.1.1.1.1.1.3.3.%...#.>XQ.e .                         ",
"                        . e Q.>X#...%.3.3.1.1.1.1.1.1.1.1.1.1.1.1.1.1.1.1.1.1.1.1.1.1.3.3.%...#.>X/.e .                         ",
"                        . e ).OX#...>.3.3.1.1.1.1.1.1.1.1.1.1.1.1.1.1.1.1.1.1.1.1.1.1.3.3.>...#.OX).e .                         ",
"                        . 0 T._.O...>.3.3.1.1.1.1.1.1.1.1.1.3.1.1.1.1.1.1.1.1.1.1.1.1.3.3.>...O._.T.0 .                         ",
"                        . 8 } | ) ' X.,.3.3.3.3.3.1.1.1.1.1.3.3.1.1.1.1.1.1.1.3.3.3.3.3.,.X.' ) | } 8 .                         ",
"                            8 8 = a ' O.<.3.3.3.3.1.1.1.1.1.1.1.1.1.1.1.1.1.1.3.3.3.3.,.O.' a = 8 8                             ",
"                            . . . & x ) ] [ [ o.,.3.3.3.3.3.3.3.3.3.3.3.3.3.3.,.o.[ [ ] ) x & . . .                             ",
"                                    * : - , , c o.5.3.3.3.3.3.3.3.3.3.3.3.5.5.o.c , , - : *                                     ",
"                                    . . . . . - _ { [ [ [ [ [ [ [ [ [ [ [ [ { _ - . . . . .                                     ",
"                                    . .         , < < < < < < < < < < < < < < ,         . .                                     ",
"                                    . .         . . . X O O X o @ 4 4 4 4 + . .         . .                                     ",
"                                                . . > ; i i ; y C H H H H N + .                                                 ",
"                                                4 5 q h k d p h Q i.d.h.h.i.N @                                                 ",
"                                            . @ B H i.Q h p k k h L i.h.h.f.i.B @ .                                             ",
"                                            5 B g.n.d.i.L F k d f h Q i.a.d.n.g.B 5                                             ",
"                                        . 5 J v.A.M.p.y.v.^ F p c b h B A p.N.A.v.J 5 .                                         ",
"                                        e L v.A.K.Z.y.y.Z.D.! F b b d g B i.Z.K.A.v.L e                                         ",
"                                    . w U.W.x.d.A.Z.y.y.Z.G.D.^ F f b l g L S.A.d.x.W.U.w .                                     ",
"                                    0 ~ W.&XF.m.M.N.a.z.A.K.P.D.! K U b d K b.v.x.F.&XW.~ 0                                     ",
"                                . 0 I.!.V.F.&X%Xm.a.N.A.G.K.K.G.D.b.K d b U F ( W.&XF.V.!.I.0 .                                 ",
"                                0 / -X;XE.V.&X%Xk.s.n.Z.Z.M.M.Z.Z.z.G g l k i E W.&XV.E.;X-X/ w                                 ",
"                            . w I.-X2X6X;X*XF.k.u.t.s.y.y.y.y.y.y.u.A B g i u D l.F.*X;X6X6X-XI.w .                             ",
"                            . e I.(./.XX2X:X! V Z s.k.B.x.x.x.x.x.m.m.C./ E f q B ! !.XX(./.(.I.e .                             ",
"                                e e e / -XoXP 6 V c.$X4X4X3X4X4X3X3X3X4X;X!.E ; q h E E M e t e                                 ",
"                                . . . w I.I.e + S j.$X4X4X3X4X4X4X4X3X4X4XW.E i i p p ; X . . .                                 ",
"                                        e e     + 7 ! m.m.x.m.B.m.m.x.m.m.l.D i c n n s O .                                     ",
"                                        . .     . 4 J n.n.p.t.Z Z t.p.z.z.! D p n Y Y j # .                                     ",
"                                                . y D.=X=XL.p.Z Z p.L.=X=XH.P p b Y Y j # .                                     ",
"                                                . y J.%X%XR.j.C C j.R.%X%XE.K p n Y Y j # .                                     ",
"                                                . $ D R R P D q q D P R R K s p I T T j # .                                     ",
"                                                . O < p p i ; - - ; i p p i ; 8 s j k s # .                                     ",
"                                                . % s I I z = X X = z I I z = O % # # #                                         ",
"                                                . # s l l s # . . # s l l s # . . . . .                                         ",
"                                                    # # # #         # # # #                                                     ",
"                                                    . . . .         . . . .                                                     "
};
