/* XPM */
static char *up1[] = {
/* columns rows colors chars-per-pixel */
"64 64 215 2 ",
"   c None",
".  c #000000",
"X  c #0C0505",
"o  c #0B0808",
"O  c #120B0A",
"+  c #18110F",
"@  c #17110F",
"#  c #040A17",
"$  c #0A121E",
"%  c #1A1311",
"&  c #171213",
"*  c #190E12",
"=  c #240B0C",
"-  c #290F10",
";  c #281715",
":  c #3B1F1D",
">  c #331C17",
",  c #23100F",
"<  c #35211A",
"1  c #39221A",
"2  c #342D1C",
"3  c #37301E",
"4  c #38321F",
"5  c #0A1423",
"6  c #0F1925",
"7  c #151C27",
"8  c #162129",
"9  c #342727",
"0  c #3C3421",
"q  c #39312F",
"w  c #333334",
"e  c #3B3936",
"r  c #3A3735",
"t  c #312932",
"y  c #311E2A",
"u  c #4E2B29",
"i  c #472725",
"p  c #522E2A",
"a  c #532623",
"s  c #44312B",
"d  c #4E342E",
"f  c #5A352E",
"g  c #54322C",
"h  c #462C37",
"j  c #4C363E",
"k  c #45303F",
"l  c #573E37",
"z  c #5B3A35",
"x  c #5A3E39",
"c  c #523530",
"v  c #72292A",
"b  c #60312A",
"n  c #643E33",
"m  c #5C4039",
"M  c #64423C",
"N  c #694939",
"B  c #6C5D3A",
"V  c #192B4C",
"C  c #303353",
"Z  c #2A376A",
"A  c #253578",
"S  c #303E76",
"D  c #4B3641",
"F  c #533E43",
"G  c #403B55",
"H  c #294B77",
"J  c #3B5A76",
"K  c #35487A",
"L  c #2E4454",
"P  c #564349",
"I  c #454659",
"U  c #5D4A53",
"Y  c #694C4B",
"T  c #674742",
"R  c #77554B",
"E  c #675459",
"W  c #6E5456",
"Q  c #6B634F",
"!  c #424B6A",
"~  c #444E7B",
"^  c #505672",
"/  c #5B697E",
"(  c #6C6B6A",
")  c #71606D",
"_  c #645466",
"`  c #9B4845",
"'  c #925946",
"]  c #885442",
"[  c #A84A44",
"{  c #AC614F",
"}  c #B46D56",
"|  c #B77459",
" . c #926F6A",
".. c #AF6F6C",
"X. c #CC5952",
"o. c #CA5750",
"O. c #D3695A",
"+. c #C5785F",
"@. c #D96D65",
"#. c #D4756E",
"$. c #DE7D69",
"%. c #D27472",
"&. c #DC7972",
"*. c #E37E67",
"=. c #E17D6C",
"-. c #988453",
";. c #BC9764",
":. c #BFA669",
">. c #BFAC7D",
",. c #CD8264",
"<. c #E6826A",
"1. c #EA896E",
"2. c #EB926F",
"3. c #EC8D70",
"4. c #EF9273",
"5. c #E99C74",
"6. c #F29475",
"7. c #F29E77",
"8. c #F69C78",
"9. c #C1A76A",
"0. c #C6A76B",
"q. c #CFB26D",
"w. c #CFB372",
"e. c #D3B776",
"r. c #F3A379",
"t. c #F8A57B",
"y. c #F6B17D",
"u. c #293C83",
"i. c #344C8D",
"p. c #344586",
"a. c #395587",
"s. c #3D5494",
"d. c #375595",
"f. c #31498B",
"g. c #3A619B",
"h. c #3B608A",
"j. c #3C68A2",
"k. c #4A5C97",
"l. c #515F99",
"z. c #515683",
"x. c #48639C",
"c. c #5E6B9F",
"v. c #5B6797",
"b. c #53769A",
"n. c #4C6785",
"m. c #476FA6",
"M. c #5D6BA1",
"N. c #5064A0",
"B. c #537BAD",
"V. c #606CA0",
"C. c #656992",
"Z. c #5A81A2",
"A. c #5682B3",
"S. c #5B87B5",
"D. c #6287A8",
"F. c #6697BD",
"G. c #6E8CB2",
"H. c #748392",
"J. c #699DC5",
"K. c #7693C4",
"L. c #6AA0C8",
"P. c #96969A",
"I. c #9A9189",
"U. c #A19E9C",
"Y. c #BC9992",
"T. c #8F99AD",
"R. c #B4A5A4",
"E. c #A9A7B7",
"W. c #BFB7AD",
"Q. c #9EA2AF",
"!. c #F9BC81",
"~. c #FBB681",
"^. c #C2B9AD",
"/. c #C6B6AD",
"(. c #EDB0A8",
"). c #FBCC86",
"_. c #FED38A",
"`. c #FFDD8B",
"'. c #F6D585",
"]. c #FFDF91",
"[. c #F4DA9A",
"{. c #FFE18E",
"}. c #FFE590",
"|. c #FFE39F",
" X c #D3C9B8",
".X c #CBC0BA",
"XX c #F7C4BC",
"oX c #FFE5A3",
"OX c #FFE6A9",
"+X c #FFECBF",
"@X c #91B3DC",
"#X c #A4B6CA",
"$X c #A9AEC9",
"%X c #97B9E1",
"&X c #A5BEE0",
"*X c #CBC5CB",
"=X c #D3C9CA",
"-X c #D9D0CF",
";X c #D3D3D5",
":X c #F5CDC4",
">X c #E9CAC0",
",X c #FFF2C3",
"<X c #FFF1CE",
"1X c #F9E9DC",
"2X c #CFD3E2",
"3X c #D1D5E4",
"4X c #D1D6E8",
"5X c #C2CEE5",
"6X c #D2EFFF",
"7X c #FFF7E5",
"8X c #FFF8E6",
"9X c #FFFBED",
"0X c #FFFFF2",
"qX c #FEFFFE",
"wX c #F4F5F5",
/* pixels */
"                                            . . . . . . . . . . . . . . . . . . . .                                             ",
"                                            2 0 0 0 0 0 0 0 1 1 1 1 4 0 0 0 0 0 0 3                                             ",
"                                    . . . 2 -.9.9.:.:.:.:.;.| } } | ;.:.:.:.:.9.9.-.2 . . .                                     ",
"                                    w r 0 B e.}.}.{.{.}.}._.~.t.t.~._.{.}.{.{.}.}.e.B 0 r w                                     ",
"                                . w P.^.>.q.'.{.{.{.{.{.{.`._.).)._.`.{.{.{.{.{.{.'.q.>.^.P.w .                                 ",
"                                w ( ;X0X,XoX}.`.`.`.`.`.`.`.`.`.`.`.`.`.`.`.`.`.`.].oX,X0X;X( w                                 ",
"                            . w P.;XwXqX9X<X|.`.`.`.`.`.`.`.`.`.`.`.`.`.`.`.`.`.`.|.<X9XqXwX;XP.w .                             ",
"                            2 Q  X0XqXqXqX9X+XoXOXOXOXOXOXOXOXOXOXOXOXOXOXOXOXOXoX+X9XqXqXqX0X XQ 2                             ",
"                        . 2 -.e.[.,X9XqXqXqX9X7X7X7X8X8X8X7X7X7X7X7X7X7X7X8X8X7X7X9XqXqXqX9X,X[.e.-.2 .                         ",
"                        . 0 9.}.{.|.<X7X7X7X7X8X7X7X7X7X8X7X7X7X7X7X7X7X7X7X8X8X7X7X7X7X7X<X|.{.}.9.0 .                         ",
"                        . 4 :.}.{.].oXOXOXOXOXOXOXOXOXOXOXOXOXOXOXOXOXOXOXOXOXOXOXOXOXOXOXoX].{.}.:.4 .                         ",
"                        2 B w.{.`.`.`.`.`.`.`.`.`.`.`.`.`.`.`.`.`.`.`.`.`.`.`.`.`.`.`.`.`.`.`.{.{.w.B 2                         ",
"                    . 3 -.e.'.`.`.`.`.`.`.`.`.`.`.`.`.`.`.`.`.`.`.`.`.`.`.`.`.`.`.`.`.`.`.`.`.`.`.'.e.-.2 .                     ",
"                    . 0 9.}.{.`.`.`.`.`.`.`.`.`.`.`.`.`.`.`.`.`.`.`.`.`.`.`.`.`.`.`.`.`.`.`.`.`.`.{.}.9.0 .                     ",
"                    . 0 9.}.{.`.`.`.`.`.`.`.`.`.`.`.`.`.`.`.`.`.`.`.`.`.`.`.`.`.`.`.`.`.`.`.`.`.`.{.}.9.0 .                     ",
"                    . 0 :.{.{.`.).).`.`.`.`.`.`.`.`.`.`.`.`.`.`.`.`.`.`.`.`.`.`.`.`.`.`.`.`.).).`.{.{.:.0 .                     ",
"                    . 0 :.}.{.).y.y.).`.`.`.`.`.`.`.`.`.`.`.`.`.`.`.`.`.`.`.`.`.`.`.`.`.`.).y.y.).{.}.:.0 .                     ",
"                    . 0 :.}.{.).r.r.).{.`.`.`.`.`.`.`.`.`.`.`.`.`.`.`.`.`.`.`.`.`.`.`.`.{.).r.r.).{.}.:.0 .                     ",
"                    . 0 :.}.{.).r.r.).{.`.`.`.`.`.`.`.`.`.`.`.`.`.`.`.`.`.`.`.`.`.`.`.`.{.).r.r.).{.}.:.0 .                     ",
"                    . 0 :.{._.!.7.7.!._.`.`.`.`.`.`.`.`.`.`.`.`.`.`.`.`.`.`.`.`.`.`.`.`._.!.7.7.!._.{.:.0 .                     ",
"                    . 4 :._.~.7.6.6.7.y._.{.`.`.`.`.`.`.`.`.`.`.`.`.`.`.`.`.`.`.`.{.{._.y.7.6.6.7.~._.:.4 .                     ",
"                    > N 0.!.2.<.3.4.4.7.!.).).).).).).).).).).).).).).).).).).).).).).!.7.4.4.3.<.2.!.0.N >                     ",
"                . < ' ,.5.4.O.O.<.6.4.6.r.r.r.r.r.r.r.r.r.r.r.r.r.r.r.r.r.r.r.r.r.r.r.r.6.4.6.<.O.O.4.5.,.' < .                 ",
"                . ; ] +.$.=.#.#.$.<.3.4.4.4.4.4.4.4.4.4.4.4.4.4.4.4.4.4.4.4.4.4.4.4.4.4.4.3.<.$.#.#.=.$.+.] ; .                 ",
"            . . . o ; b [ &.(.(.#.O.<.6.4.4.4.4.4.4.4.4.4.4.4.4.4.4.4.4.4.4.4.4.4.4.4.4.6.<.O.#.(.(.&.[ b ; o . . .             ",
"            . . . . . = v ..>X:X%.o.*.6.6.4.4.4.4.4.4.4.4.4.4.4.4.4.4.4.4.4.4.4.4.4.4.4.6.*.o.%.:X>X..v = . . . . .             ",
"                        = T /.:X%.o.*.6.6.4.4.4.4.4.4.4.4.4.4.4.4.4.4.4.4.4.4.4.4.4.4.4.6.*.o.%.:X/.T =                         ",
"                        . r W.:X%.o.*.6.6.4.4.4.4.4.4.4.4.4.4.4.4.4.4.4.4.4.4.4.4.4.4.6.6.*.o.%.:XW.r .                         ",
"                        . e W.:X%.o.*.6.6.4.4.4.4.4.4.4.4.4.4.4.4.4.4.4.4.4.4.4.4.4.4.6.6.=.o.%.:X/.r .                         ",
"                        . r /.XX%.o.<.6.6.4.4.4.4.4.4.4.4.4.4.4.4.4.4.4.4.4.4.4.4.4.4.6.6.<.o.%.XX/.r .                         ",
"                        . q Y.(.@.o.<.6.6.4.4.4.4.4.4.4.4.4.4.4.4.4.4.4.4.4.4.4.4.4.4.6.6.<.o.@.(.Y.q .                         ",
"                        . 9  ...` [ O.1.6.6.6.6.6.4.4.4.4.4.4.4.4.4.4.4.4.4.4.6.6.6.6.6.1.O.[ ` .. .9 .                         ",
"                            9 9 ; a [ O.1.6.6.6.6.4.4.4.4.4.4.4.4.4.4.4.4.4.4.6.6.6.6.1.@.[ a ; 9 9                             ",
"                            . . . = v ` { } } +.1.6.6.6.6.6.6.6.6.6.6.6.6.6.6.1.+.} } { ` v = . . .                             ",
"                                    - > > < < n +.8.6.6.6.6.6.6.6.6.6.6.6.8.8.+.n < < > > -                                     ",
"                                    . . . . . > ' | | } } } } } } } } } } } | ' > . . . . .                                     ",
"                                    . .         < 1 1 1 1 1 1 1 1 1 1 1 1 1 1 <         . .                                     ",
"                                    . .         . . . X O O X o $ 5 5 5 5 # . .         . .                                     ",
"                                                . X ; : i i : t Z H H H H V # .                                                 ",
"                                                5 7 w j z f p j ! a.g.j.j.a.V $                                                 ",
"                                            . $ Z K a.! j p z z j I a.j.j.d.a.Z 5 .                                             ",
"                                            8 C a.m.g.a.I F z f f j ! a.d.g.m.J 6 .                                             ",
"                                        . 6 J b.S.B.s.s.b./ F p n M j C S s.B.n.7 .                                             ",
"                                        r I b.F.J.S.i.i.S.D.^ F T n f h C a.S.Z.L 8                                             ",
"                                    . e P.E.c.x.S.S.i.i.A.F.D./ F f M x h I Z.F.Z.J 8 .                                         ",
"                                    . w Q.$Xk.f.m.B.s.x.S.J.L.D.^ P T M f P v.S.S.n.7 .                                         ",
"                                    . 6 ~ k.p.u.i.k.B.S.F.J.J.F.D./ P f M U ~ d.d.Z 5 .                                         ",
"                                    r I ^ v.v.k.p.i.m.A.A.B.B.A.A.x.G h x P C K k.~ 6 .                                         ",
"                                . r I..X*X*X*XE.k.u.f.i.i.i.i.i.i.p.Z C h i q _ $XQ.w .                                         ",
"                                . w I.=X1X9X9X=Xv.p.k.M.M.c.c.c.c.M.M.C.) Y u Y R.U.w .                                         ",
"                                    q (  X0X9X=Xv.k.$X3X3X3X3X2X2X2X2X3X;XR.Y p Y P % .                                         ",
"                                    . 9 I.^./.P.z.k.$X3X3X2X3X3X3X2X2X3X4XE.Y i i i ; +                                         ",
"                                        w r r C Z f.k.c.c.c.c.V.V.V.c.M.M.z.D u z M m s % .                                     ",
"                                        . . . # V Z s.k.k.s.u.A A u.s.k.k.~ D p N R R l % .                                     ",
"                                                # C G.%X%XK.s.A A k.K.@X@XG.P u M R R l % .                                     ",
"                                                . t H.#X#XT.~ Z A N.&X6X6X#XE u M R R l % .                                     ",
"                                                . & D E E U D C Z M.5XqXqX*XW u M R R l % .                                     ",
"                                                . O 1 p p i : y C z.E.-X-XR.Y i c l l s % .                                     ",
"                                                . + d T T c ; * y D Y W W Y c : ; % % %                                         ",
"                                                . % s x x s @ X ; : i u u i : ; X . . .                                         ",
"                                                    % % % %     X ; c T T c ; X                                                 ",
"                                                    . . . .     . + s x x s + .                                                 ",
"                                                                    % % % %                                                     ",
"                                                                    . . . .                                                     "
};
