/* XPM */
static char *up2[] = {
/* columns rows colors chars-per-pixel */
"64 64 211 2 ",
"   c None",
".  c #000000",
"X  c #0C0505",
"o  c #0B0808",
"O  c #120A0A",
"+  c #17100F",
"@  c #040A17",
"#  c #0A121D",
"$  c #1A1311",
"%  c #190E12",
"&  c #240B0C",
"*  c #290F10",
"=  c #291814",
"-  c #3A1E1D",
";  c #331C17",
":  c #23100F",
">  c #35211A",
",  c #39221A",
"<  c #342D1C",
"1  c #37301E",
"2  c #38321F",
"3  c #091523",
"4  c #0E1825",
"5  c #141B26",
"6  c #381F27",
"7  c #372528",
"8  c #3C3421",
"9  c #3A322F",
"0  c #372A36",
"q  c #333334",
"w  c #3B3733",
"e  c #3A3936",
"r  c #3B3B3A",
"t  c #2E2D31",
"y  c #46221F",
"u  c #4A2926",
"i  c #522E2A",
"p  c #532623",
"a  c #48322C",
"s  c #5A352E",
"d  c #56312B",
"f  c #482D36",
"g  c #4B353E",
"h  c #413C38",
"j  c #5B3A35",
"k  c #5B3F39",
"l  c #553B35",
"z  c #72292A",
"x  c #633E33",
"c  c #60312A",
"v  c #64423B",
"b  c #6A4B3A",
"n  c #6C5D3A",
"m  c #192B4B",
"M  c #2E3252",
"N  c #2B356A",
"B  c #263577",
"V  c #2C366E",
"C  c #4A3442",
"Z  c #533E43",
"A  c #433B55",
"S  c #294B77",
"D  c #365578",
"F  c #574348",
"G  c #454659",
"H  c #504C56",
"J  c #6A4842",
"K  c #654743",
"L  c #78564C",
"P  c #755855",
"I  c #645157",
"U  c #6B634F",
"Y  c #424B6A",
"T  c #444D75",
"R  c #545772",
"E  c #5B697E",
"W  c #6D6B6B",
"Q  c #9B4845",
"!  c #925946",
"~  c #885442",
"^  c #A84A44",
"/  c #AC614F",
"(  c #B46D56",
")  c #B77459",
"_  c #926F6A",
"`  c #AF6F6C",
"'  c #CC5952",
"]  c #CA5750",
"[  c #D3695A",
"{  c #C5785F",
"}  c #D96D65",
"|  c #D4756E",
" . c #DE7D69",
".. c #D27472",
"X. c #DC7972",
"o. c #E37E67",
"O. c #E17D6C",
"+. c #988453",
"@. c #BC9764",
"#. c #BFA669",
"$. c #BFAC7D",
"%. c #CD8264",
"&. c #E6826A",
"*. c #EA896E",
"=. c #EC8D70",
"-. c #EF9273",
";. c #E99C74",
":. c #F29475",
">. c #F29E77",
",. c #F69C78",
"<. c #EB926F",
"1. c #C1A76A",
"2. c #C6A76B",
"3. c #CFB26D",
"4. c #D3B776",
"5. c #CFB372",
"6. c #F3A379",
"7. c #F8A57B",
"8. c #F6B17D",
"9. c #293C82",
"0. c #334589",
"q. c #334C8D",
"w. c #354684",
"e. c #385486",
"r. c #3D5495",
"t. c #385894",
"y. c #31498A",
"u. c #3A6199",
"i. c #3B608A",
"p. c #3B67A2",
"a. c #4B5484",
"s. c #575B87",
"d. c #4F5D99",
"f. c #4A5B97",
"g. c #515E98",
"h. c #4B6998",
"j. c #5E6A9E",
"k. c #58639A",
"l. c #547599",
"z. c #556B84",
"x. c #4766A2",
"c. c #5A69A1",
"v. c #4A71A7",
"b. c #587AAA",
"n. c #517DB0",
"m. c #606DA1",
"M. c #616A9C",
"N. c #5682B3",
"B. c #5C89B7",
"V. c #5D82AA",
"C. c #6487A9",
"Z. c #6797BE",
"A. c #699DC5",
"S. c #7693C3",
"D. c #6AA0C8",
"F. c #9D938B",
"G. c #989698",
"H. c #918D92",
"J. c #B89991",
"K. c #A09F9C",
"L. c #A2A19E",
"P. c #8F97AB",
"I. c #9BA7B5",
"U. c #A8A9B9",
"Y. c #BFB7AD",
"T. c #AB9CA2",
"R. c #F9BC81",
"E. c #FBB681",
"W. c #C0B9AD",
"Q. c #CBBDB2",
"!. c #C0AEA5",
"~. c #EDB0A8",
"^. c #FBCC86",
"/. c #FED38A",
"(. c #FFDD8B",
"). c #F6D585",
"_. c #FFDF91",
"`. c #F4DA9A",
"'. c #FFE18E",
"]. c #FFE590",
"[. c #FFE39F",
"{. c #D6C6B9",
"}. c #CBC0BA",
"|. c #F7C4BC",
" X c #FFE5A3",
".X c #FFE6A9",
"XX c #FFECBF",
"oX c #92B3DC",
"OX c #A6ACCA",
"+X c #A8B5CB",
"@X c #97BAE2",
"#X c #A5BEE0",
"$X c #CCC4CB",
"%X c #D4D3D4",
"&X c #D9CECE",
"*X c #F5CDC4",
"=X c #E9CAC0",
"-X c #FFF2C3",
";X c #FFF1CE",
":X c #FAEADD",
">X c #CFD3E2",
",X c #D2D5E4",
"<X c #D4D8E7",
"1X c #C2CEE5",
"2X c #D3F0FF",
"3X c #FFF7E5",
"4X c #FFF8E6",
"5X c #FFFBED",
"6X c #FFFEF2",
"7X c #FFFFFE",
"8X c #F4F5F5",
/* pixels */
"                                            . . . . . . . . . . . . . . . . . . . .                                             ",
"                                            < 8 8 8 8 8 8 8 , , , , 2 8 8 8 8 8 8 1                                             ",
"                                    . . . < +.1.1.#.#.#.#.@.) ( ( ) @.#.#.#.#.1.1.+.< . . .                                     ",
"                                    q w 8 n 4.].].'.'.].]./.E.7.7.E./.'.].'.'.].].4.n 8 w q                                     ",
"                                . q G.W.$.3.).'.'.'.'.'.'.(./.^.^./.(.'.'.'.'.'.'.).3.$.W.G.q .                                 ",
"                                q W %X6X-X X].(.(.(.(.(.(.(.(.(.(.(.(.(.(.(.(.(.(._. X-X6X%XW q                                 ",
"                            . q G.%X8X7X6X;X[.(.(.(.(.(.(.(.(.(.(.(.(.(.(.(.(.(.(.[.;X5X7X8X%XG.q .                             ",
"                            < U {.6X7X7X7X5XXX.X.X.X.X.X.X.X.X.X.X.X.X.X.X.X.X.X XXX5X7X7X7X6X{.U <                             ",
"                        . < +.4.`.-X5X7X7X7X5X3X3X3X4X4X4X3X3X3X3X3X3X3X3X4X4X3X3X5X7X7X7X5X-X`.4.+.< .                         ",
"                        . 8 1.].'.[.;X3X3X3X3X4X3X3X3X3X4X3X3X3X3X3X3X3X3X3X4X4X3X3X3X3X3X;X[.'.].1.8 .                         ",
"                        . 2 #.].'._. X.X.X.X.X.X.X.X.X.X.X.X.X.X.X.X.X.X.X.X.X.X.X.X.X.X.X X_.'.].#.2 .                         ",
"                        < n 5.'.(.(.(.(.(.(.(.(.(.(.(.(.(.(.(.(.(.(.(.(.(.(.(.(.(.(.(.(.(.(.(.'.'.5.n <                         ",
"                    . 1 +.4.).(.(.(.(.(.(.(.(.(.(.(.(.(.(.(.(.(.(.(.(.(.(.(.(.(.(.(.(.(.(.(.(.(.(.).4.+.< .                     ",
"                    . 8 1.].'.(.(.(.(.(.(.(.(.(.(.(.(.(.(.(.(.(.(.(.(.(.(.(.(.(.(.(.(.(.(.(.(.(.(.'.].1.8 .                     ",
"                    . 8 1.].'.(.(.(.(.(.(.(.(.(.(.(.(.(.(.(.(.(.(.(.(.(.(.(.(.(.(.(.(.(.(.(.(.(.(.'.].1.8 .                     ",
"                    . 8 #.'.'.(.^.^.(.(.(.(.(.(.(.(.(.(.(.(.(.(.(.(.(.(.(.(.(.(.(.(.(.(.(.(.^.^.(.'.'.#.8 .                     ",
"                    . 8 #.].'.^.8.8.^.(.(.(.(.(.(.(.(.(.(.(.(.(.(.(.(.(.(.(.(.(.(.(.(.(.(.^.8.8.^.'.].#.8 .                     ",
"                    . 8 #.].'.^.6.6.^.'.(.(.(.(.(.(.(.(.(.(.(.(.(.(.(.(.(.(.(.(.(.(.(.(.'.^.6.6.^.'.].#.8 .                     ",
"                    . 8 #.].'.^.6.6.^.'.(.(.(.(.(.(.(.(.(.(.(.(.(.(.(.(.(.(.(.(.(.(.(.(.'.^.6.6.^.'.].#.8 .                     ",
"                    . 8 #.'./.R.>.>.R./.(.(.(.(.(.(.(.(.(.(.(.(.(.(.(.(.(.(.(.(.(.(.(.(./.R.>.>.R./.'.#.8 .                     ",
"                    . 2 #./.E.>.:.:.>.8./.'.(.(.(.(.(.(.(.(.(.(.(.(.(.(.(.(.(.(.(.'.'./.8.>.:.:.>.E./.#.2 .                     ",
"                    ; b 2.R.<.&.=.-.-.>.R.^.^.^.^.^.^.^.^.^.^.^.^.^.^.^.^.^.^.^.^.^.^.R.>.-.-.=.&.<.R.2.b ;                     ",
"                . > ! %.;.-.[ [ &.:.-.:.6.6.6.6.6.6.6.6.6.6.6.6.6.6.6.6.6.6.6.6.6.6.6.6.:.-.:.&.[ [ -.;.%.! > .                 ",
"                . = ~ {  .O.| |  .&.=.-.-.-.-.-.-.-.-.-.-.-.-.-.-.-.-.-.-.-.-.-.-.-.-.-.-.=.&. .| | O. .{ ~ = .                 ",
"            . . . o = c ^ X.~.~.| [ &.:.-.-.-.-.-.-.-.-.-.-.-.-.-.-.-.-.-.-.-.-.-.-.-.-.:.&.[ | ~.~.X.^ c = o . . .             ",
"            . . . . . & z ` =X*X..] o.:.:.-.-.-.-.-.-.-.-.-.-.-.-.-.-.-.-.-.-.-.-.-.-.-.:.o.] ..*X=X` z & . . . . .             ",
"                        & K Q.*X..] o.:.:.-.-.-.-.-.-.-.-.-.-.-.-.-.-.-.-.-.-.-.-.-.-.-.:.o.] ..*XQ.K &                         ",
"                        . w Y.*X..] o.:.:.-.-.-.-.-.-.-.-.-.-.-.-.-.-.-.-.-.-.-.-.-.-.:.:.o.] ..*XY.w .                         ",
"                        . e Y.*X..] o.:.:.-.-.-.-.-.-.-.-.-.-.-.-.-.-.-.-.-.-.-.-.-.-.:.:.O.] ..*XW.w .                         ",
"                        . w !.|...] &.:.:.-.-.-.-.-.-.-.-.-.-.-.-.-.-.-.-.-.-.-.-.-.-.:.:.&.] ..|.!.w .                         ",
"                        . 9 J.~.} ] &.:.:.-.-.-.-.-.-.-.-.-.-.-.-.-.-.-.-.-.-.-.-.-.-.:.:.&.] } ~.J.9 .                         ",
"                        . 7 _ ` Q ^ [ *.:.:.:.:.:.-.-.-.-.-.-.-.-.-.-.-.-.-.-.:.:.:.:.:.*.[ ^ Q ` _ 7 .                         ",
"                            7 7 = p ^ [ *.:.:.:.:.-.-.-.-.-.-.-.-.-.-.-.-.-.-.:.:.:.:.*.} ^ p = 7 7                             ",
"                            . . . & z Q / ( ( { *.:.:.:.:.:.:.:.:.:.:.:.:.:.:.*.{ ( ( / Q z & . . .                             ",
"                                    * ; ; > > x { ,.:.:.:.:.:.:.:.:.:.:.:.,.,.{ x > > ; ; *                                     ",
"                                    . . . . . ; ! ) ) ( ( ( ( ( ( ( ( ( ( ( ) ! ; . . . . .                                     ",
"                                    . .         > , , , , , , , , , , , , , , >         . .                                     ",
"                                    . .         . . . X O O X o # 3 3 3 3 @ . .         . .                                     ",
"                                                . X = - u u - t N S S S S m @ .                                                 ",
"                                                3 5 0 g j s d g Y e.u.p.p.e.m #                                                 ",
"                                            . 3 N D e.Y g i j j g G e.p.p.u.e.N # .                                             ",
"                                            . 4 D v.p.e.G Z j s d g Y e.t.u.v.e.M 5                                             ",
"                                            . 5 h.N.t.e.l.E Z i x v g M V r.n.B.l.D 5 .                                         ",
"                                            w H l.v.q.q.N.C.R Z K x s f M e.N.A.B.l.G w                                         ",
"                                        . e L.U.c.0.B q.N.Z.C.E Z d v k f G V.B.x.j.U.K.e .                                     ",
"                                        . q I.+Xg.9.q.h.B.A.D.C.R F K v d F z.h.w.d.+XI.q .                                     ",
"                                        . 5 T g.0.q.v.B.Z.A.A.Z.C.E F d v K F A V 0.d.Y 5 .                                     ",
"                                        . 5 Y f.0.q.v.N.N.n.n.N.N.h.A f k x u g R j.j.R G w                                     ",
"                                        . t G.U.g.9.y.q.q.q.q.q.q.0.V M f u y K T.$X$X$XQ.F.w .                                 ",
"                                        . h Q.%XM.0.f.c.j.j.j.j.j.c.m.s.A 7 6 P {.5X5X:X&XF.q .                                 ",
"                                        . h Q.%Xj.f.OX,X,X,X>X,X>X,X<XOXs.M 7 P {.6X6X{.W q                                     ",
"                                        . w F.K.a.d.OX,X,X>X,X,X,X,X,XOXd.N 0 J J.{.{.F.7 .                                     ",
"                                            w M V 0.g.j.j.j.c.m.c.c.c.d.0.V 0 i J P P k $ .                                     ",
"                                            . @ m V e.f.f.r.9.B B 9.r.x.x.a.C u u i i , O .                                     ",
"                                                @ M C.oXoXS.r.B B r.S.@X@XP.F u j v v a + .                                     ",
"                                                . q I.2X2X#Xx.B V a.P.+X+XH.F i v L L l $ .                                     ",
"                                                . e +X7X7X1Xc.V M C F I I F f i J L L l $ .                                     ",
"                                                . q G.&X&XU.s.M 6 - u i i u - 7 a l l a $ .                                     ",
"                                                . $ F P P I C 7 % = d J J d = O + $ $ $                                         ",
"                                                . O , i i u - = X + a k k a $ . . . . .                                         ",
"                                                . + a J J d = X     $ $ $ $                                                     ",
"                                                . $ a k k a + .     . . . .                                                     ",
"                                                    $ $ $ $                                                                     ",
"                                                    . . . .                                                                     "
};
