/* XPM */
static char *result[] = {
/* columns rows colors chars-per-pixel */
"32 32 16 1 ",
"  c black",
". c #462424",
"X c #664339",
"o c #725148",
"O c #C14B4B",
"+ c #EF9273",
"@ c #293A80",
"# c #3A639B",
"$ c #6799C1",
"% c #F79696",
"& c #F3B9B0",
"* c #FFDD8C",
"= c #B4D8F5",
"- c #FFEFE3",
"; c white",
": c None",
/* pixels */
"::::::::::::         :::::::::::",
"::::::::::  ***++****  :::::::::",
"::::::::: ;***********; ::::::::",
":::::::: ;;;*********;;; :::::::",
":::::::: *;;;;;;;;;;;;;** ::::::",
"::::::: ***************** ::::::",
"::::::: *******+********** :::::",
"::::::: *******O*+******** :::::",
":::::::: O****+O*+******** :::::",
":::::::: &OOOOOO++**+***** :::::",
":::::::: &&&&&&O+++*O****+ :::::",
":::::::: &&    O++O++O++++ :::::",
"::::::::: &     +O-OOOO+++ :::::",
"::::::::: --##;O+O-O+++++ ::::::",
"::::::::: --$$;O+O-O+++++ ::::::",
":::::::: ------O+O&O++++ :::::::",
"::::::::: -----O+OO++++ ::::::::",
"::::::::::  %--OOO+++ + ::::::::",
"::::::::::::   O..   :   :::::::",
":::::::::::::: .X ::::::::::::::",
":::::::::::::: X.@ :::::::::::::",
":::::::::::::: .$@- ::::::::::::",
"::::::::::::: ;@$@@ ::::::::::::",
":::::::::::: -@;@$ :::::::::::::",
":::::::::::: --@@@ :::::::::::::",
"::::::::::::: @;;; :::::::::::::",
"::::::::::::: @@@@ :::::::::::::",
":::::::::::: o.=== :::::::::::::",
"::::::::::: ooo ;.o ::::::::::::",
"::::::::::: oo : ooo :::::::::::",
"::::::::::::  ::: oo :::::::::::",
":::::::::::::::::   ::::::::::::"
};
