/* XPM */
static char *result[] = {
/* columns rows colors chars-per-pixel */
"32 32 14 1 ",
"  c black",
". c #462424",
"X c #725148",
"o c #C14B4B",
"O c #EF9273",
"+ c #293A80",
"@ c #3A639B",
"# c #6799C1",
"$ c #F79696",
"% c #F3B9B0",
"& c #FFDD8C",
"* c #FFEFE3",
"= c white",
"- c None",
/* pixels */
"-----------         ------------",
"---------  &&&&OO&&&  ----------",
"-------- =&&&&&&&&&&&= ---------",
"------- ===&&&&&&&&&=== --------",
"------ &&========&====& --------",
"------ &&&&&&&&&&oo&&&&& -------",
"----- &&&&&&&&&&o%%oo&&& -------",
"----- &&&&&&&&O&o%%%%o&& -------",
"----- &&&&&&&&O&o%%%%%oO -------",
"----- &&&&&O&&OOo%ooo%% --------",
"----- O&&&&o&OOOo%%%%%% --------",
"----- OOOOoOOoOOo    %% --------",
"----- OOOoooo*oO     % ---------",
"------ OOOOOo*oOo=@@** ---------",
"------ OOOOOo*oOo=##** ---------",
"------- OOOOo%oOo****** --------",
"-------- OOOOooOo***** ---------",
"-------- O OOOooo**$  ----------",
"-------   -     o   ------------",
"-------------- @  --------------",
"------------- @@@ --------------",
"------------ +### --------------",
"------------ =++# --------------",
"----------- *++#.. -------------",
"----------- *       ------------",
"------------ XXXXXX ------------",
"------------ .XXXX. ------------",
"------------ X....X ------------",
"------------       X -----------",
"----------- X.= - XX -----------",
"----------- XX ---  ------------",
"------------   -----------------"
};
