/* XPM */
static char *result[] = {
/* columns rows colors chars-per-pixel */
"32 32 47 1 ",
"  c #4F2913",
". c #56321C",
"X c #543523",
"o c #5A3B27",
"O c #5E3B25",
"+ c #573D2D",
"@ c #573E2E",
"# c #5A3D29",
"$ c #5C402C",
"% c #584132",
"& c #5B493C",
"* c #5C4B3E",
"= c #66513F",
"- c #5C4D41",
"; c #5D4D42",
": c #5D4E42",
"> c #5D4E43",
", c #5D4F43",
"< c #5E4F44",
"1 c #5E4F45",
"2 c #5D5044",
"3 c #5E5146",
"4 c #5F5349",
"5 c #675240",
"6 c #655444",
"7 c #655C55",
"8 c #655D56",
"9 c #665F58",
"0 c #666057",
"q c #686257",
"w c #676159",
"e c #686158",
"r c #696158",
"t c #686159",
"y c #686258",
"u c #696258",
"i c #686259",
"p c #696259",
"a c #6A6259",
"s c #6A6359",
"d c #68625A",
"f c #6A635A",
"g c #6C675F",
"h c #767469",
"j c #868579",
"k c #86847B",
"l c #94928B",
/* pixels */
"oooooooooooooooo5ooooooooooooooo",
"jjjjjjjjjjjjjjjj5jjjjjjjjjjjjjjj",
"jjjjjjjjjjjjjjjj=jjjjjjjjjjjjjjj",
"jjjjjjjjjjjjjjjj$jjjjjjjjjjjjjjj",
"llllllllllllllll#lllllllllllllll",
"itwtyryyyqqqqqqq yyyyuuupppppsff",
"dtttyruyyyyyqyye eyyyuupppppasff",
"                9               ",
"99999999999999999999999179999999",
"99999999999999999999999189999999",
"99999999999999999999999<99999999",
"99999999999999999999999X99999999",
"99989999999999999999999X99999999",
"444**&**2222,>:::::;XXXXXX------",
"gggggg*ggggggggggggggggggggggggg",
"999999*9999999999999999999999999",
"999999*9999999999999999999999999",
"99999939999999999999999999999999",
"99999949999999999999999999999999",
"999999%9999999999999999999999999",
"999999+9999999999999999999999999",
"999999@9999999999999999999999999",
"................9...............",
"hhhhhhhhhhhhhhhhOhhhhhhhhhhhhhhh",
"hhhhhhhhhhhhhhhh6hhhhhhhhhhhhhhh",
"hhhhhhhhhhhhhhhh6hhhhhhhhhhhhhhh",
"hhhhhhhhhhhhhhhh6hhhhhhhhhhhhhhh",
"kkkkkkkkkkkkkkkk6kkkkkkkkkkkkkkk",
"00000000000000006000000000000000",
"00000000000000006000000000000000",
"0000000000000000 000000000000000",
"                                "
};
