/* XPM */
static char *0[] = {
/* columns rows colors chars-per-pixel */
"125 125 20 1",
"  c #7B8F28",
". c #7D9326",
"X c #7B9028",
"o c #859F1F",
"O c #809724",
"+ c #839B21",
"@ c #87A11E",
"# c #89A41B",
"$ c #8FAC17",
"% c #8CA919",
"& c #90AF16",
"* c #97B90F",
"= c #9ABC0D",
"- c #93B313",
"; c #97B810",
": c #98BA10",
"> c #9DC20A",
", c #A1C707",
"< c #A0C608",
"1 c #A2C906",
/* pixels */
"$++.O..##+.+###+#o.+$<#o#OO@#OOoOOo+.o#$##-==o o@o#ooooo#oo.o.%#+....+#@..@##@+#+.@>;+#@.+#@.++O+oOO##$#$*=&..#o#%.#++%#..+..",
"@.+++.+#@..@@@@+#Oo#<*ooo O##.OOOO++o####@*=-.@#oo#o.oo@@ XX.@#o+.o.+@#+.+@@@+#o.@-1%@@. o#o.OOO++o@###o$=*#O#oo%#++.#%.X..@%",
"..#@@++#+XO++++%#oo;1#oo..ooo.O.O++ooo#oo@=-$##.o#@..o##o X o#o.+%+@+@@..++++@$@@#1;oo+XO@@..OO+O+oo@#oo;;&##o #%..+###.X .%%",
"O#$#+.@+OOO.+O#$%+#<=o++.Oo#o....OOo+#o.o--$-@..o#o.oo#@. Xo@@.o%%#.+@+.+.O.+$$@+;1%+o.X+@%..O.OO+o+#O.@;&-%o O##.++##+ X.@#o",
"#$$+X+++o+XXX+-$+O*<$.+. O##O...Oo+Oo%..o&$-$o..@#..o@@@.X.@%o.%$%..+++@....%-#.%<*+....o%+....++++#o O$&$&o.Xo##...##.. .##.",
"$$@.XO+@%.XX.%-@.$>=+... @#o.  o#O.o#o O#$#$@. o@o..o@@.XX@#o.@-$+ .++%+   o-%+.*>$..+X.$o+  .%+.O@%..o$%%$o .o#...###...%%..",
"-%O .@+$O X +$%O.-=-... O$o+. o#...##. o##@#o .o%o...@oo.@#ooo$$@.X++%%  X.%$#X#*=@..X.#%+. .%+X.+%o O@####O..##...#+o..$#++#",
"%+.+@+$%.XX.%%#.o;*%   +-$OO.o#.X o#o O#oooooX.$@.X.o@#o@#oo.#$#..@+@$+XXX+%#+.-*-.  X#-o+.+@o.X.##..o#oooo..o%oX..+##+##+.#%",
"o+o#.o$o XX+@##.%--o  $*$o..o@o. .o#.Xo@o.++. @#+. .%$o@@@o.o$%++#+.%%.XX.##%+.--$. +;&%..+@@..Xo#oX.o#......$o..X.$#+###..#$",
"o##.O%#.XXX+@%o.$$-OO-=#@o.+oo.  o@@..oo+ .X o$o+X.#%.o+o#..%%o@%+X#%@.XX.+#%X#--% %>&#@.Ooo+.X.ooo.ooo...XX%%o.X+$#.o.#+.@$#",
"##O o#o.X .+#$.O$$$o;=%o@..o++. .@%o +o+.X X.##+..@#+.o+%..o%oo#@ .##..X ++$+ #&$@%=-o@+.+++..X.##..ooo.XXXo#o...%%.@+##..##+",
"oo..o#o X.+@$o +##$-=$oooX.++.X o$#. +++.XX o#o.+@@#.++#@ .%@o@o+ +@@.XXO+%$..##%$**@o@..+.+. .%%o...o.XXX.##o.o##..+o%. o%oo",
"oO +o#.. o+$$. +##-;-+@#.X..o. o$o+..+.+.. .##+.+o+...@%+Xo#ooo+..+#@  ++@$@X.##$**#+#+....+..%%ooX.oo.X  o#o.ooo+...%#..##+o",
"O. o%o  ooo$o. @#$=-@o%o.XXo+.o#o++...++XXOo@o..+++.X.$$..#@.++...%#. .#+$$.X.##-;%+%#+ X.@..%%+.......X.oo#..o.+...#$o.o#o.+",
"...##O o#O%#O.oo@--@o$@+.Xo@.+@@++O...+..@+ooo .....X$-+Xo#o.... +$+..%.@%@..#+%-%o#%+...%..@@++o....oXooooo...... o-%X.##...",
". o$o.O%Oo#@.@@O@$@@$@+. .%..oo+.+.....o#+OooO .....#-#X.o@+...X.%#+X#%.@#+.#++%$@%$+...@@X+o++.......##..oo.....X+&$+..o#...",
" O$oOO##.@@+o#.+o%o##o..o#@Xo@@..+.XX.@%o.+@..XX.X.@$%oX.oo.X.XX#%+.+%+@#@.%+.@##@%@O.O@%..@#++..O X.##X.+++ .. X+%$@..+o+XXX",
".##+Oo#o+@o@#oXo%oo@o.@@@#..-#..... .@#+....o..X..+#%@...oo.XX..##.+##.++@##..#%+#@O+#@#+ #-+...O. o%#. .+++  X .o%#o..+++X.X",
"+##.O#oO+o@@@..$@o@oo##@#@.;$X....X.#+++X..@..XX.+o##o..o+..XX.##+.+#+.#+##+X#&+@@++%@##O#=O..... o#oo.X.oo.XXX.+o%@+X+++.XXX",
"#@OO##o.++##o.##+ooo@#@#@o=;X.X... ##++XXo$o.......#oo...o+.X +##.+##.++###.+%++@++####+$>o .X..Xo#.o. .$#O.. ..+o@+.XO++.XX.",
"@+%%#o+.+@$@.o#+.oo@@##@#;>+XXXX..##.+.X$;.........#o.X..+. .o#+@%###..+##+.##.@+###%@+$>-   X...%o+OXo=#...   OO+o+..+.+.X+o",
"#=$.oo+O@%@+o@@.+o@@##oo;=$ X.X.++%...@>*.........+@+.X....+#.o&>+++o.+%%+++#+..+#+%#+$>=O X .+.#o...&=#....O. ..o++..+...@++",
"<- +o+.@%#++o#o..@#o%oo%=-oXXX.@.%@X +*>.X....XXX.@o.....+## +*>+.++.+%#+++##..+%@##++;:$XXX ++o%. .&=& ...o.   +o+O....o#+.#",
"*+ +++o#@@+o##..##o##.o--$XXXX@.##. +**#XXX#oXXX.#..+....%%..=>$..+++%##++#%+X@%+@$+O%;-+ XXO@+#o  &=-.  .#O . O@... ..o#o %=",
"#..O++@@#+.#%+.##+@#o.%-$o XXo%+#+ .;-$...o#.X..@o......##..$=-...++#+#+.+%@.o%++##.+--$.. .#@o#o #;$o  O%+ . O%....XX+@@.+;=",
"O..O+++#+.+$@+##..@#..$$$oX .%oo#+.&$##..o%.XX..%X... ..o+.o--%...+o++%..#%+##+X+#@.#$$@.  @#+@@ o&%%.++#o   .%+....X.@o+.$--",
"OX.O++##X.##+@@+ o@@.o###.XX@#.o#+#&+#+++%+XX.o%..X..X.#++.#%%+....oo%. +$+@@@..#@+.@%%+  +#++ooo$%ooooo%O .+#%.X... +@+.+#$#",
"....O+%O +%@o++.Xo#@Xo@ooX o#o+o+##+++%+@#..@o#%..XXXX#o..+###......%#..##+@@. +@#..+##...@#+++@#oO+%oo#o ooo#o XXX +#.+.o@#+",
"..X.O%#X.##++O+ .@#..+oo...@#o.o###.+%.+@++%oo%#.XXX.o%.....+...X..o$. o#o.o+..+#@..+++. +@@+++##o.##Ooo+o#o#oO XX..#+....++.",
".X.X@#OX+@@....Xo$@.XX.oo..o@.oo##+.##+++@%o##@.XX...%.X...........%#..@@+.....#%+X..+@+.o@+.+#%o o#.oooo##o#o. ...@@XX......",
"XO.+#@O+@#+.....#@o.X.@@X.ooo.o#%+.##+++o@o%oo@.X.o.%+.. .X X.....@#+.+@@....X+%+. X+#. +oo+.@%@oooo.+ooo%#ooo  +++%.XXX.XXXX",
"@..+@#+O@+.X..X@%o.Xo@oXX.oo+.##+++##..+%+%#oo+X.%.#%. ....XXX++..@##.+ooX....%#+..o@+XX+++.@%@++o#+.+o#o%oooO +@+#o. OOXXXX.",
". .@#%.++o.   +%@OOO#@.  Ooo.##o++##.X+$o#%++++X#@+#+ .@+ .X.+#.Xo@$+.+++XXX.#%...o#+ X.++++##o++#@XO##+%@+++..%.@#O +@... .%",
"..+@-+.+++....o%+.OooO  .OO.#o#o++$+.#%++%@.++.+%.o#+.#+ X..o$. Xo%$..++.XXX+#@..#@@XXX.+++@@#.+%#++%#O#%O+++.#@+#@.+#. X..$#",
" .@$$..+OO   +#o.Oo+o..  ooooo#O.%#+##..@#+O+++$@+@@+@@  .++-o  +%-@X+++.XX.@#+.+o+.X.X.++@+#+.o$++#@X+#@.+O+%%O+#++%O  ++$$.",
"+@%$@ .OOO .o@@+.O++O   oooo.%O.#%+@#+ +##.O.$-#++@+@#+ +#+:$..@#$$....+XX+@#@..+++.XX.#+++##.+%@+#@.X@@+OO+-%@O@+@#@ X@+%=+ ",
"#@%%+ .OoO+o+oo+ ..O. O#oOO+## O##+#+.X+@@..-=@@.+o@#@X+%O-:++@@%$#X..++.#+o@+..+.. Xo#..++%OX+%+@o+X.@#+.@>-++O+@##..##+>$.+",
"o%%%. .o+@#.+++......##o ..o%O o#++++ .#%+ ->#@oO++%#+O#+#1#o#@@#%+XX.oo%+.o++X....+%#...O%@XO#@+++. +##X+>-@@+++##@ @#O>;+#%",
"##@o. o#@#..+++   . $%o.  O#o Oo#.+.. .%@.$>#@%+.+#%+O@#@<-@#@####+X.%o#+X+o+..X  +-#+X..@%OX+#+OO+..@%++>:+##OO+$#O+#+-1##+#",
"+@@+.+%o#+ .+++.X  -$oo.  ##O oo+X... #$+#>-#$@.+%%+++#@;>##@##@#@..##@@XX.++.XX +=@o.XX.#@..@@O...XO%@+-=#$%+.@$#++@##>;+##$",
"+@o++%@++. O++O .X%>++OX O#@..oo+X.X .$@@;;$$@++@%@++@#$>;##@%++@@+o%oo+X..++.X..>$.+.XX@#+X+@+..XXX#%+$;-$%+O+%#+++##;>$#@%@",
"++%+@%++O...O..O+@1%.#.X ooo Ooo.XXX.#%.$-;$@++@#@o+@##->-@+%@++@@+#@++....+.X+.;>O++ XO@@OX+++.XXX+%+@-;-#+++@##+O##$*=%+@%.",
"+%#+%@.+o+ ...+@.=*.#+ .ooo+ ++o.XXXo%@+---o++o@@@.+##%;>#.@%+.@$+##+.oo..+..@+%>#O%.XO#@+..++OX.X.##.%-;#++++@#+.@$+->-++##.",
"#$+@@+.@o.  .o%.$<#+#X%%Ooo..O+O.XX.##.#$$%%#+++%+X@$+-=-.+@@.+$@o#@X+#.X...#@+=>O#OO-++++..++OXXX+%@+%-&#$+@+#@..$@%==#X@#+.",
"$#o@o.@#. .++%++=;+#@:$XOo+..OOOXX.@#+.#%->%.++$@ .%@@;;%X@@@ #$+@@.+#+ X.+@#.$=$+#%*+.+++.OOO.X +@@++%$;;+O+#$. @$+---O.@#..",
"%+o@+@%. .o+##.$=-%&<$ .o+O..OO..++#@+.@->$X.+$$.X@#+%--@.o#++$@o@o+#o  +oo#++;=$$;>O +++OX.OOXOoo@o.+%=>O.O#-@ O#@+--$.+@#.#",
"@+@@@#o .#+o#O+==$-<-. +oOO..O.O#+++@..->-.Xo$$oX.#@+%$$+.##.@#+o@@@#. o@+@@X$=;$;=# .@O+.XOO.+#.oo+ o=># +#$%..@#+#-$#.@%++%",
"+@%#@#..#oOoo+$=;-:;+X@+.OO ..o%+.+++.#;;oX@#$#..o@o.%#%.@%++#@+%###oXo%.o@+@=;;;;$..#OOO.X..#%..oo+.-;$..@%%+X+@@.+%%+O%#.@#",
"@%+##o.##.+@@#-:;;-$.+#..O.. ooo..++O+$$# +o%%oooo@..@@@+%@++@@%@+%#.+%+.@+#$-;;;&+.#+...X .+%+ .o+.#$$O.o@$#oo+@oXo@@+@%++@@",
"%+@$@++#o.++@#--;$$@O%O.... OooO .++O#$$OOoo&#-#+oo..++o##++@%%@+%%+O##.++@#----$$+@#......+o+ .+OOo$%#.+o$%#-.oo+X+o+@$o+o@$",
"+@$@++@#..+#@%;$-%$+##  ....O.oOO.OOo%oo.++$#-; ++oX.++@$o.@%$@o%%+++#+.++#@---$$%+%O .....o+++.O+.##@o.+@&#>+.oo.X+++%#.+@%$",
"@%@+++%@.+@#o-$$$$#o#+  +O .o.oo...O#o+OO+#$$<..+++X..+##O+@%#@#%+++#%O.+#@#-%%%%+#@. .+...++@....o#OO.++$#=- +++.X..@#@.o#%%",
"@#++o%#.+#@+#$#%$$O#@..oo ..Oo%. ..#o..O+o$%<; .+++X X@#@.+%##@@+++#%+.o%++$$#%-++%+X+@. ..O#o ..o%...+O#$-1+X+++.XX.@#+.####",
"o++@#%++##.+%#o%-@+@o @@   .o%o  .o%.  @O#%->#.O+@. .+@@+.##@#+o+@@%@+o%+O#$@@$$+@@..%.. .+#%.  .$o  ++o%%<-...@oXX.@@@.+%@#@",
"+@%#%@o@@..@@oo$$+oo+o#. .o+#o. Oo%+ .#+o#$>=oO.$+.o@+@@.@#+oo++##%%+@#+X+@#+#-#+@o+%+ X+++%+ .+##. +#.##:<$+X#$..@o@@+.%++#+",
"#--##+@@+X+@@+@$@+ooo%+..#+o#O oo##. o#O@%*==. -%+@@.+++@@..++o$:%%@+@+..@@+O%%+ooo@@.X+@+@@..oo#o .#oo#-==%X+:+o#+.+oo#.+++.",
">;+#@+o+.Xo#@.##++o@@@..%++@oO@o@#o O%+o@$==$ $=o##..+o#%....+-<#o%++++X++#++%@++o##+ +%.o@++@o##. #%Oo@-=*O.>%@#o .o@%o....#",
">.@@++.+..@#++#@++@%%+.@@.ooo##@#@O.#o.oo-==.o1&@@+ .@#$@ XX+;>%.%++++.X+%@.@#++@###.+%++oo@%@#@o +#++o%*>%.*<#@@XXo#%%.X..%=",
"+.@@.... +%o.o@o@@#%@.@%+O+o#o#@oo.o#oOo#*=$.>>o+oX.##%%.XX+->-.o@+....X@%++@@+#@%#++#@.++@@@#o@O.##.oo-=*+%1&+++X+%@$@  .#=>",
".o@@.....##++o@%%#%o++@#OOO%o#%ooo.@#OOo$;;o-1&o+O+##%%@.X+$;;++@@....X+$++++%%@%%+++%+.Oo%o%@o@.o#o.+@-;$+<<+++.@##%%+ .#-;-",
".+#+XXXXo$o++@$%@%@+++%%.O@#o%+OoOOoo.Oo-;$#>>o.++#@%##o +%$-%.+@#.XX .%#+++%$@##+++@&o.o#o##++o.o#oOO%*-%;<&.++@##%##.X#%$-@",
"+%#.XXX.##..@%$@@@@++%*+.%#+%#Oo+Oooo.O%;&#=>-..+o@%#@#OO%@##+.@%+. X.+%+O+#%%@##++@&&.@%oo$oO++Ooo.Oo-$$$==@.O+@@#@@@X@#@##.",
"$%+.X.X@#o.+###o+%+O@=-+%@.@%o.++OooOO%$$#&*=# .@@##+@@O#@++@.+$+.....%@..@#%@+@+++$<+o%+O##OO+O+oo.o%$%%*=;.X+#@%o@@++%+oo+.",
"%.+.o..##..@@@@+%+.+:<@@@.O@#OO+O+OoO#####;=;o.#oo%++o+@#..+.+%@+.+..@@@.+@@#+@#.+%1&o@+ o#o.++.+oOo#%%@$==$X+#+%#.+o+%o.+..#",
"..+#.+#@o .ooo+@@oo$1-oo.Xoo@..o++++@###@#*:$o#oO##OoOo#@XXX+#@.+#o.o@@..+oooo#oo@=<ooo..ooo.OOO+++@@#@+-=-#@#.o$++++##O X.@%",
".@%@#.+@o .oo.o$$oo=>@oo..o#o....O.+++#++%*$&#o.o#o.Oo##+XX.##o.##@o+o@..OO+O#$#o$1-+oO oo%...OOO+@+#+O@*--$#.O##..+@#o. .+##",
"+$$%..+@oo....$-@.->-+o+X.@#oX...++++%OX+--$$#..##.OOo##.XXo#@.@$$oXo++++...o$$Oo>>@oO. o#o ....+++@#X.%-$-#O o#@.O+#@+  .@%.",
"%$%..+++#. X @-#.@>>@...Xo$oXX..@o++%#X.#$$$#O +o#.OO#ooXX.%#.o$$@X.++@@  ..$-o.->;.OO  ##o . o#+++%+ +$$%$o..o@o..o##.  @%@.",
"$$+.X++$@X.XO$$@.-=;...XX#@oX..#+..+%+X+#%#%@..+#o..+@o+X.$@++%$%.X.+@$. . #&#.o==#X.. o$oO  o#..+#@X.@%#%#+.O@#...@@o..@%+++",
"-#. +@#$.XXX#$%.o;=$XX  #$ooX.#o X+#@X.@#oo#o .##O..+ooo+##++@$%+X.@o$@   O$$o.$==o   O$#O. o#. .@#+ +##@@@.X+%o...@#@O@%+.+%",
"#..#++$@XX .###.@-;@  .$-@...@@.X.o%+ +@oO++O o$o.  o$#o@#@.+%$@.@#.#$.X .o##o.-;&.X o;$o..o#o ..#@..@@++++X.##+.X.#%oo@@+.#$",
"+@%+.#$.XXXo@##.$--o @=-#o.o@ooX..@@.X@@o..O .##+. O$oooo@+.@$@o##.+%#.X .#o$.o--% .-=%#..ooo. .@@+ +@@O....o%++X.@$+oo@#.+%$",
"#%+ +##. X.+o$..$&$.#>-@@..@ooXXX+##X.+@OXXXX@$++.+##O@+@o.+%#+##..#%+XXX.o%# @$$#+;*#@o.oooO ..@#+ +++. . O%#OO.@%++o+#..@$+",
"#@. o#oXXX.+$#X+$$#$=;o@o..oo.XX.%%+XO++.XXX+##O.+##.++o#.X@%+@@+X.##.XXXo@$+ #$$#-=$o@O.OOO. .o%@..+++X  .@#+OO@@@O++%+X+%@+",
"@+X+@#+ X.o%$+ +##-;=@o@oX...+X.%%+OXO++.XX.@#+.+oo+.++%oX+#@+@o.X@@@X Xoo$#..###;*-oo@...Oo  o$o+.O++OX. +#@.O+@+..+@#..@#+@",
"+. +##X .o+$#. o##;;#o#@XX..@X.%%++..+O+XXX+#@O.+++...#%..@#o++oX.o%+XX@+#$+X.@#-*-oo#+X .oO o$o++..++O  .@#+.++++..+%#.+#@++",
"...#%+ .%+#%+..#o-;%o##+.X.@..@#+++X.OOOXO+@@+.O+O...o-#.+@@....X+%@.Xo@+%#..o@#;&@o$o.. oo o#o++...+...+@@@O.O++.X.$-..@@+.+",
". .%#. #@+##..@+#&%o%#oO X#o.@ooOOOX.O.O@@O@@OX.... +-$.Xo@+....X#%+X+%.@#+.oo+$$##$o+. +# OooOO+.....+#++@+.....XX%-o +@@...",
" .%%+.+%.o#+o%++o$o#%o+.X@#X.oo.+OOX..O##XO++OX....+$$@X.o@+..XX+$o+.%o+@@.@#.o##o$#+O.O%+.o@oOO.....@#+.+++XX....#-#.X+@+...",
".+%+.+%@+@o+#@X+##o#@.+oo$+X#$o.O..XX+##.X+++.XXXX.#$@+X+o+.XXX.##+.@#++@o@%.+o#o@#O.+o## O$@OO... .o#o .+++XXXX.+%%@..o++XX ",
"O#%..@#++oo@#..#%.#o.o#o## #*O..... +#@+..O+O.XX..+##@..+++.XX.+$#..#o.oo@@o..%@o#o.##o#o.-%.....X.@@@.X.+O.XXXX+o%@+X.+++XX ",
"@#+.+##.+o@#@Xo%ooooo$@#@o%>+......+#++. .@@+XXX.++@@+..++...XO##..##oooo##o.%#o@@o##@#@+*-X....X.#@++  +%+.XX..+@#++..++.XX ",
"#++@%@+++o%#+.%@.oo##@#@o$<# .. XX+%+++ O-#OOXXX..+o++X.O++X .@@o.##o.o.##@.##.oooo###@#*=.XX. X.#@++.X%-+O.XXXO.@@+..++..X.O",
"+$-#+@+.o##o+@#..ooo@%oo$=;    .+O#+...#>#...X.X..+@++..O...@++@-$oo#..o$@.o#o.oo#o##o@;># XXX.O+%O..+-:..OX.X...o++..O...+@+",
"*>+O+@.+#%o+o@@.oo#o##oo**@  XX+.@#...$>#....+XX. o++.X...+#+.%>-X+oo.#%@ooo#...o##$o+-*-.XXX.++#+..@==....+OXXX.o+.....+@@.+",
"># ++++##@++@%.Xo#o##oo&*-.   +o+%+XX$=-XXXO@.XX +@.+.X..@%+X%<*..++.o%#o.o##Xo@#o#@O@*-# X X@O##. +:=+ X.++XXXX#+.+...O##X+:",
"&..+++@@#@.@%@.o#oo%o.#;-%. X.#+##. %:-+XX.#OXXX+#....X.+#@ #=*@.+++o@@#o.##..#%O##++$--+   @#+%+X+--%X .@@XXXX#+...XX.@#..-=",
"+..O+++##..%@+@#o.o#o.%&$o X.#oo#+ @;%#..O%+XXXO#+....X.@o.+--%+...+oo#+.o%oo##.o#@.o$-#.  +%+@@..$-$+..@#XXXX@#..O.X.@@+.%-;",
"O..++++$.X@%oo#o +#@..%$#OXXo$.o#++-##+++@@. XO%@.X..X.@@+.#$-+....#+#+..$@o@@.X@@o.@$%@  .#@O@@.%$#@+++#+ X.@%..... .#+O+$$$",
".....+$+ +%@+@@. o@@.+##@.X.#@Oo++%#++$+o#+.+@@#+ .   +#+.O###+....+#%. @%ooooX.@#+.@##+ .@#++@+@%@+@@+#@..+@#@.   . #++.+#%@",
"..X..##..@#o+o...@#+.+o++XXo#+++@##OO%++@@.+#+##. X. .#O...+++......%+ .#@o@...o@#..o@+. .##+++##o.+%O+#++#@@#+ .   @@.O.++@O",
".X.X+$+ .@@+.+..+##...++o..#@.+o##+.@#O+@+@#@##+   ..%+ ....+...X..#%..#@o.....@%oX..+++.+#+.+@##.+%++@+o#@@#@.  ..+%......+.",
"XX..##.+o@o....X@%+.XX+#O.+@o.+@%#.+#+.++#@###@OXX+.@#X . X.. . . +#+.o#@....X.%@..X.oo..@@+++#%+.##.++@@@#@@+.  +O#+ XXX.XXX",
"++.+#+++oo.X.XX+%o+..+#. .+o+.o$@++##.++#@@%+#+. +++%+ X...   .+.X##+.+ooX....##+...@@X ++@.+#%++o#o.+@#@#@@@+ .@+##  ...XXXX",
"+..+#%.++o.XXX.%#+..@#.  .+++o##+++%+.O##+%++++ +#O##. ++.X. .%..+##%.++oXXXX@%o..+#@. X++++##@++##..+%o%#++@.X#++#+ .+.XXXX+",
"X ++$#X+oo..XXo#oO.o@+.. +++o#@@++%#.O%#+%#+@+..%++#+ +# . ..%o .+#$..+o+XXX.##+.o@@. X.+++@##+.@%+.@%+@%++++Xo%.##..#+.XX.@%",
"X.+%$..+++.XX.##O.+@+O X.O++++%+O#$++#@.@%++++.%#.o#O+%.  OO$%  .#$%..+o.. .o#+..@@+X.X.+o@+#@.+$@++#+O##+++.+%++@o.%o  .Oo-+",
"X+#-%..++.XX.##+..+++.. .@++O#+.+$++##..##O..+$$o+ooo%o  oo$;. .%%&...+....+##..+++.XXX+@.+@%..##+##+ +#+.+.#&#Ooo+@#. .oo;%X",
"##%$+......++##..OOO. X+#++++$..#%+#++ +@#..+*$@Oooooo. #oo=o.o@#%%...++..o+##..++.XX.@@.++%+ +%@@@+..@#+.+&;#++ooo#+ +%+=-..",
"+#$#...+++%+++@......O@#O..+$+ +%++++..+#+ @>-#+.+o##o #@+,&+o%+%%#...o.+#.#+.......+#o...##..##++++ +@#..->@@++oo##.O%O$=o+#",
"##%#X O#@#+X+++. ..X+$#.X..##..@#O++OX.#%.+>;+#+OOo%#.o#+;=o##@%%%+..o+##..#+...X.X%%@X..o%+X+#++++.X+$+.->#@#+++%#o.#o#1$o#@",
"@#%+..###@..+++XXXX+;#+.X +#+ +#+.O..X+%++=:+$$+Oo$#oO#o$,$o@@%o#o..+%o%...++.X.XX&&@.XX.##.Xo@+.....##.%>&+$+.+#$oOo#o==o@@%",
"+#++.##@+.X.+++X.X.>#+O.X.@#O.+++.....$#+-:-#$+.o%#oOo##==##o%oooo..%#+o...+..XXX&:++.XX+#oX.@@....X+$+#:;#&@OO#%o++##&<&#@#%",
"++#++$+++....+.X..>;++O X+#@..+#+  X +$+%-;-#+++##oOo##-=;%o%#O++#+%#++.X.+.+...%>++@XX.@#..+@oXXXX.&@+-;-$@++##@oOo%#==$@@%+",
"+#%.%#+.+...+..#.->++#  .##+X++#.XXX+%@+--;#+++#o#oO###;>$+o%oO+$oo%@.+....+..@+>-.#.XX+@@..@+.XXX.+#+#-;$+++###@O+%o$==o+#%.",
"+$+##+.+#.....#+#>-.%..#++++X.++.XX.@#+@$-$+@+++#o.+$o&=*+.##OO#%.##..%.X...@#.;>+@#X@@@@@..+++.XX+##O%--@#++++#O.#%@*=$.o#o.",
"$%+##.+%.XX..##.;=+#+#-++++...+.XXX+@@.#$$--+++#% .##o;;- +#o.o$oo#..%#XXX.+%.#>-.%.-%X++....+.XX.##++$-&-#O++$+ +$o$**o @@+.",
"&++#+.%+.X.+#%.#*;#%->.X+++..++. .+@@o.#$==O..#-O o#o#--#.o@o.%%.##.o%.X.++%@.;=%#&>$ .+++..+.XX++#+O+#->$.O+-#X.##+---.+@#Oo",
"#+@++##.X+++#+.;>$%=>@X.#++X....+@+o@..#>>+X+%-# .##+%-$+.@%.o%o@+oo%...#oo%.#==%->-XX@++......@++@+X+->-..+&$OXo%+o-&%.+%o.#",
"++#%##.X+#+#@.#>*$=*%X.#.......%#.Oo+.+;=%..#$%. o#oO#$$O+%o+##+#%#%#..%..@o.*=-&>&. ooo.....+%@.+@+.%>-O.+$&#X.@@Oo$%@.@%++%",
"+#####X+%++#++-;*;*&..#..+..X.+%OX+++.$-$..#%%@.+o@+O##@.##++@oo%o##..%%.#++%*;;;-%.oo.......%@X.++O+;-@X+###+++@@.o##++%o+o@",
"%#+%%+.##.++##-;*-&%.##....X.+#+ .+++@$$+.@+$#%%Ooo..oooo$++o@%%+@%o.o#.++o#$;-;-&+.#.......@@.X++++%&#.++#$#$++o+ +oo+%#+oo%",
"++%%+.#%..+@##;&;%$#+%.X...X.#+..O+.+###OO+#$#:.+++..+++%#++@$%+#$%.o##..@%@&---%%.%.......@@...OOO@%%+.++-@-$.+@+X+++#%++o%$",
"+%%+++##..@%#%-%$%%+%+XX...X+++#..+.@#++.Oo$@>%.+++X.OO%%+.@%$o@%#.+o%...@%o-$&%$@o%.....X.+.@+.OOO%++OO+%%$>.O++....@##.+%%%",
"%#++.#%..@%#@&%%%&+#%.X.#XX...%....o%.+.++$%*>..+++XX.+%@..%%%o%o.+o%%..%@.%&%%$%.$@XXo.X...#%X...%+O.O+o$$1# +++.XX.##+.o%%@",
"#+++%%#.+%+.#%##&#.%o..#.XX.+%#X..O%+ .++o%-1% .++OX .@@+.@%@#+@.o#%%..%%.%$%@%&.@%.X#@.X.++%.XX.##XX.@+%%>=...++.XX+@#O.%o#@",
"+.##%#+##..@%#+&&++#..%. X.+##.X O%#  +@+#%==oO.@#.X++@@.+%+@@+++%@%oo#@..%%+#&%.@@.@%XXX.@#@.XXo%. .#+@%->$+.O%+X++@@+.#@+%o",
"##&%%+#+@..##.@%%+ooo%#. +@+#+X.o##. .%O@@->*@ @-.+#++@++#++o++@$%%%.%#.Xo@@.%&@@ooo%.X.#+##...@%@..#++@$==$..-@.@@++@+@o++o+",
"&>%##+++.X.##.#%#++###..##.##X+#+#@ .#o+@%*>-.+>@@%+.++@%+..O+#*;@%+o@...@%.@%%.ooo@oX.%+@#@X@+@#.X+%.@@-==@ &-+##..++##..+++",
">#+%++++..@#@.##.++##o.+%.+#++#+##+.@#Ooo-==o.=*@#@X.+@%@....%>:.#%.++...@%.o%@.o@%%..#o.@+.####@..#@+@#:>-X#1%#@.X+@#%+ ..+-",
"&.##..+...%#.##@+##%%.+%+.o+#@@@@@.O#oOo@;=-.&<#+@.X+%#%+ XX%=>++#+.....o%+.#@.@@%%..%%.@.%@#@@@+ o%++o$*=@+<*oo+ .##%#.X +;=",
"X+@+.....@%+.+@@%#%#++##.++##@##@o.o#+++%;*##1*o++X@%#%%. .#*=%.#o......%#.++@%%%%%..@..oo%@%#@@O+#oO+o-*-O*<#o+.+###$+. +$:;",
".+@+.XXX.%@.+@%%o%#+++#%+.+%#%#+oOO@oO++$;-o=<#OOO@#@%%@X.#--&++o@...XX@$@@+@$#@%%.@o%@..#@@%+@@.o@oO+@;-%$<;O+O+#####. +%&;%",
"+@#+XXXX#%+++#&##%#..#$%.+%+#%.+oOo@o.+@--$->*OO+@@#%@#+X@@%%@.+%#.....%@..#$%@#@@.o%;..%%.%#+.@OooOO+$-&$=>%.Oo@@%###.+%%%%+",
"@&+.XXX+%@..%%%@o#+.o$>.+%@+%#.++.oo+.o$-$$*=&..+@@%@@@.+%+@%O.%@...X.@%..@%%%@@@..%>%.%%.#%..@.+oo.+#-$$-==o Oo@##@@+.%oo@@."
};
