/* XPM */
static char *r1[] = {
/* columns rows colors chars-per-pixel */
"64 64 154 2 ",
"   c None",
".  c #4F2F1A",
"X  c #4E311D",
"o  c #50311D",
"O  c #4F3927",
"+  c #533623",
"@  c #533926",
"#  c #5A3A25",
"$  c #553C2A",
"%  c #5B3E2B",
"&  c #55402E",
"*  c #5D412D",
"=  c #544232",
"-  c #5C4533",
";  c #5D4836",
":  c #53473A",
">  c #534A3D",
",  c #5B4C3D",
"<  c #60432F",
"1  c #614632",
"2  c #634A36",
"3  c #654D3A",
"4  c #66503D",
"5  c #68523E",
"6  c #564D40",
"7  c #5A4F41",
"8  c #5E5446",
"9  c #5F5648",
"0  c #604E40",
"q  c #625445",
"w  c #6A5542",
"e  c #6D5A46",
"r  c #605748",
"t  c #635A4C",
"y  c #6B5C4A",
"u  c #665E52",
"i  c #685F53",
"p  c #72634D",
"a  c #6B6355",
"s  c #6F6857",
"d  c #6C6459",
"f  c #6F6858",
"g  c #736552",
"h  c #746956",
"j  c #786C57",
"k  c #706758",
"l  c #736B5B",
"z  c #796F5C",
"x  c #77715E",
"c  c #79715E",
"v  c #756F60",
"b  c #777161",
"n  c #7C7666",
"m  c #7D7766",
"M  c #7F7766",
"N  c #7D7665",
"B  c #7A7463",
"V  c #7D7866",
"C  c #7D7867",
"Z  c #7E7866",
"A  c #7D7867",
"S  c #7D7768",
"D  c #7C7669",
"F  c #7E7868",
"G  c #7F7969",
"H  c #7F7A68",
"J  c #7F7A69",
"K  c #7E7969",
"L  c #807665",
"P  c #807766",
"I  c #807664",
"U  c #807967",
"Y  c #807969",
"T  c #817A6A",
"R  c #807B6B",
"E  c #817B6B",
"W  c #837B6B",
"Q  c #817C6B",
"!  c #827C6A",
"~  c #827C6B",
"^  c #817B6C",
"/  c #827B6C",
"(  c #827C6C",
")  c #837E6D",
"_  c #837E6E",
"`  c #847E6F",
"'  c #827D6C",
"]  c #857F70",
"[  c #857F71",
"{  c #827D71",
"}  c #85806F",
"|  c #86806F",
" . c #868070",
".. c #868170",
"X. c #868171",
"o. c #878171",
"O. c #868271",
"+. c #878271",
"@. c #868072",
"#. c #878172",
"$. c #878272",
"%. c #878372",
"&. c #878373",
"*. c #868174",
"=. c #868172",
"-. c #888272",
";. c #888372",
":. c #888273",
">. c #888373",
",. c #898373",
"<. c #888473",
"1. c #898473",
"2. c #888374",
"3. c #898374",
"4. c #888474",
"5. c #898474",
"6. c #898475",
"7. c #898575",
"8. c #8A8475",
"9. c #8A8575",
"0. c #8A8576",
"q. c #8A8577",
"w. c #8A8676",
"e. c #8B8676",
"r. c #8B8677",
"t. c #8C8777",
"y. c #8A8575",
"u. c #8B8678",
"i. c #8C8778",
"p. c #8C8779",
"a. c #8C877A",
"s. c #8C8779",
"d. c #8D8878",
"f. c #8C8879",
"g. c #8D8879",
"h. c #8D887A",
"j. c #8D897A",
"k. c #8D887B",
"l. c #8D897B",
"z. c #8E897A",
"x. c #8E897B",
"c. c #8D897C",
"v. c #8E897C",
"b. c #8E8A7D",
"n. c #8F8B7D",
"m. c #8F8B7E",
"M. c #8E897B",
"N. c #908C7F",
"B. c #908C7E",
"V. c #8F8C81",
"C. c #918D80",
"Z. c #918E82",
"A. c #939086",
"S. c #959389",
/* pixels */
"                                                                                                                                ",
"                                                                                                                                ",
"                                                                                                                                ",
"                                                                                                                                ",
"                                                        2 2 2 2 2 2 2 2 2 1 2 2                                                 ",
"                                                        e e e e e e e e w w 3 3                                                 ",
"                                            3 3 3 4 3 y z P P P m m P m m l t ; 3 1 1 1                                         ",
"                                            w w w w e g W 5.5.5.5.5.5.5.o.J f t 4 3 3 2                                         ",
"                                        2 w g g p g z P o.5.5.o.o.5.5.o.} W W b y q q q - *                                     ",
"                                        w y l x h z W 5.5.5.o.o.o.o.o.o.o.o.5.J a t t q - *                                     ",
"                                    1 4 g l m m x m o.i.5.5.5.5.5.5.o.o.o.o.o.m a t t q - *                                     ",
"                                    3 e l m Z Z m W 5.g.5.5.5.5.5.5.o.o.5.5.o.J l a t q 3 -                                     ",
"                                * 3 y l x m J W o.5.i.5.5.o.5.5.5.o.o.o.o.5.5.W J l a t q ; % +                                 ",
"                                4 e h m m Z W 5.i.g.i.5.5.o.5.5.5.o.o.o.5.5.5.5.o.m a t t q - $                                 ",
"                            * 4 g x x m Z W 5.g.g.i.5.5.5.5.5.5.5.5.5.5.5.5.5.5.5.W a t t r 9 ; * %                             ",
"                            3 y m W m m W 5.g.g.g.i.5.5.5.5.5.5.5.5.5.5.5.5.5.5.i.{ l a t 9 9 7 - *                             ",
"                        < 4 g x m J m W 5.g.g.g.g.g.5.5.o.5.5.5.5.5.5.5.5.5.5.5.i.i.o.m i 9 6 6 7 ; $ +                         ",
"                        < 4 h m m m W o.g.N.g.i.g.i.5.5.o.o.5.5.5.5.5.5.5.5.5.5.i.i.i.W d r 7 6 9 ; $ #                         ",
"                        < 3 p h h x o.g.g.g.g.i.5.5.5.5.5.5.5.5.5.5.5.5.5.5.5.5.i.5.{ W m l t 7 6 > $ $                         ",
"                        < 2 e p p z 5.N.g.i.i.i.5.5.5.5.5.5.5.5.5.5.5.5.5.5.5.5.5.5.W W W m l t 6 : - -                         ",
"                        < 2 e p p z 5.C.g.i.i.i.g.i.5.5.5.5.5.5.5.5.5.5.5.5.i.i.5.5.5.5.o.o.o.m 9 > : - - $                     ",
"                        2 4 e g j m 5.N.g.i.i.g.g.g.5.5.5.5.5.5.5.5.5.5.5.5.i.5.5.5.i.i.5.g.N.{ t > > : - $                     ",
"                    < 2 e y p j W 5.g.g.g.i.i.g.g.g.g.g.g.g.g.i.i.5.5.5.i.i.5.5.5.i.i.g.g.g.g.J t > > : - $                     ",
"                    * 2 e h j P 5.g.g.i.i.i.g.g.g.g.g.g.g.g.g.g.g.i.5.5.5.i.5.5.g.g.i.g.g.N.g.D t > > > - -                     ",
"                    % 1 e j W 5.g.g.g.g.i.i.g.g.g.g.g.g.g.g.g.g.N.g.5.o.5.5.g.g.C.g.g.i.g.g.N.W t > > > 7 ; $ X                 ",
"                    1 4 p P 5.g.g.g.g.g.g.g.g.g.g.g.g.g.g.g.g.N.C.g.i.5.5.i.g.C.g.g.g.g.i.g.C.{ t > > 6 9 ; $ O                 ",
"                % 1 4 g U 5.g.g.g.g.g.g.g.g.g.g.g.g.g.g.N.N.N.N.C.C.g.5.5.g.C.N.i.i.g.g.5.i.C.{ t > > > 6 > : - $ $             ",
"                % 2 e x 5.g.g.g.g.g.g.g.g.g.g.g.g.g.g.g.N.N.N.N.C.g.g.g.g.g.g.g.5.5.g.g.i.i.i.D t > > > > > > : - $             ",
"                * 2 e j W 5.g.g.g.g.g.g.g.g.g.g.i.i.g.g.g.g.N.N.g.g.g.C.C.g.g.g.i.i.5.g.C.i.m a 9 9 9 9 6 > > : - $             ",
"                2 4 p x W o.i.g.g.g.g.g.g.i.g.g.i.g.g.g.g.g.N.g.g.g.C.C.C.C.g.g.g.g.g.i.i.J d t 9 9 9 9 6 > 6 > - $             ",
"            * 2 w p x W W W o.5.C.A.g.i.i.i.g.g.g.g.g.N.N.N.N.N.C.C.C.C.C.C.g.g.C.C.C.i.b a t r 9 9 9 9 6 6 9 ; - %             ",
"            % 2 p x W W W W W o.V.C.C.g.g.g.N.g.g.g.N.N.N.N.N.N.C.C.C.C.C.C.V.g.g.g.V.{ a r t t 9 9 9 9 7 6 9 ; - *             ",
"            % 3 h W W W W W W o.5.g.C.S.S.A.A.C.N.N.N.N.N.N.N.N.C.C.C.C.C.A.C.g.W J J b a t t t t t t r 9 9 6 > - *             ",
"            3 y m } W W W W W W W 5.N.A.A.C.C.C.C.C.N.N.g.N.C.C.C.C.C.C.g.g.g.o.m l l a i t t t t t t t r 9 7 > - *             ",
"        % 3 g m W W W W W W W W } o.5.5.5.5.5.g.C.A.C.N.g.C.A.S.S.A.A.V.o.J J J m l a i i t t t t t t r q 9 9 ; - *             ",
"        % 3 z } W W W W W W W } } } } } } W W 5.A.S.A.C.C.C.C.V.V.g.g.i.J m m m m l a t t i t t t t t q q q 9 9 - *             ",
"        % 3 l W W W W W W W W } } } } } } } W 5.A.S.S.S.S.V.o.W W W J J m m b x x l i t t t t t t t r r 9 9 9 9 - *             ",
"        % 3 l W W W W W W W W } W } } } o.o.5.i.g.C.A.C.V.i.W m m m m m m m b l l a t t t t t t t r r r 9 9 9 7 - %             ",
"        % 3 z W } W J J W W W W W W } } } 5.C.V.o.o.5.5.o.W J m m m m m b b b l a t t t t t t t t r r r 9 9 9 ; $ +             ",
"        % 3 l J J J J W W W W W W W W } } 5.A.C.W Z W W J J J Z m m m m x x x l t t t t t t t t r r 9 9 9 9 9 ; $ X             ",
"        # 2 a l l l W W W J W W W W W W W 5.C.V.W m Z J W W J Z m m m x x x x l t 9 t t t t r 9 9 9 9 9 9 9 9 ; $ X             ",
"        # - y a a f m Z m m W W W W W W o.5.g.i.W m m J W W J Z Z m m x l l l d t r t t t t r 9 9 9 9 9 9 9 ; - $ X             ",
"        + - t a a a l l h z U W W W } 5.5.5.o.W J Z Z Z J J J Z Z Z Z m l d d a t t t t r r t t 9 9 9 9 9 ; - #                 ",
"        + * q t a a a a a h m J J W W W 5.o.W Z Z Z Z Z Z Z Z Z Z m m v d a a i i t t t 9 9 t t 9 9 9 9 ; - # X                 ",
"            * ; t a a a a a f l l l l m J W J m Z Z Z Z Z Z Z J Z m l d a a i i a t t 9 9 9 9 9 9 9 9 ; & #                     ",
"            + * t a a a a a a a a a a l l m m Z Z Z Z Z Z Z Z m m v d a a a i i a i t 9 9 9 9 9 9 9 ; - # .                     ",
"            + * t a a a a a a a a a a a a l m J J Z Z Z Z Z Z m l d d d a a a a i i t t 9 9 9 9 9 ; & #                         ",
"            + * q t a a a a a a a a a a a a b m m Z J J J J Z b d a a a a a a a i i i t r 9 9 9 ; - # .                         ",
"                * ; t a a a a a a a a a a a l l m Z Z J W W m l d a i i a d d a i i t t 9 9 9 ; & #                             ",
"                + * t a a a a a a a a a a a a l b m m m Z m m l d a i i a d d i i i t r ; ; ; - # .                             ",
"                + - t a a i a a a a a a a a g h l l l l l l l f d d a d d a i i i t t 9 & # # #                                 ",
"                + - q y i i a a a a a a a a g g h l l l l l f a d a a d d d i t 9 9 9 ; # . . X                                 ",
"                    1 3 t i i a a a a a a f h h l l l l l l f a a a i i d d i q - $ $ $                                         ",
"                    % - 0 q q q q q q q t y a l l f f f f f f a a a i i r q 9 ; # X X X                                         ",
"                        $ $ $ $ * * $ $ $ ; y l l f a a a a a a d d d t - $ $ #                                                 ",
"                        . . X o + + o . . $ q y y t q q q q q q r r r 7 $ . . .                                                 ",
"                                            $ $ $ $ $ $ $ $ $ $ $ $ $ $                                                         ",
"                                            . . . . . . . . . . . . . .                                                         ",
"                                                                                                                                ",
"                                                                                                                                ",
"                                                                                                                                ",
"                                                                                                                                ",
"                                                                                                                                ",
"                                                                                                                                "
};
