/* XPM */
static char *r2[] = {
/* columns rows colors chars-per-pixel */
"64 64 164 2 ",
"   c None",
".  c #4D260F",
"X  c #4E2711",
"o  c #4E2812",
"O  c #512C16",
"+  c #54321D",
"@  c #553622",
"#  c #583723",
"$  c #563A27",
"%  c #593A25",
"&  c #573C29",
"*  c #5B3E2B",
"=  c #55412F",
"-  c #5C412E",
";  c #564534",
":  c #5C4433",
">  c #5B4738",
",  c #554939",
"<  c #5B4B3C",
"1  c #614734",
"2  c #614936",
"3  c #624C3A",
"4  c #65513F",
"5  c #5B4E40",
"6  c #5D5345",
"7  c #5F5548",
"8  c #614F41",
"9  c #635345",
"0  c #695644",
"q  c #635749",
"w  c #655A4C",
"e  c #6A5C4C",
"r  c #665D51",
"t  c #695E52",
"y  c #6C604E",
"u  c #6B6255",
"i  c #6E6559",
"p  c #716353",
"a  c #70675B",
"s  c #70675A",
"d  c #70685B",
"f  c #776B5B",
"g  c #71685C",
"h  c #71695C",
"j  c #71695D",
"k  c #726A5D",
"l  c #726A5E",
"z  c #736A5E",
"x  c #726A5F",
"c  c #726B5F",
"v  c #736B5E",
"b  c #776A5C",
"n  c #766B5D",
"m  c #736C5F",
"M  c #746D5F",
"N  c #746C5F",
"B  c #776C5E",
"V  c #766D5F",
"C  c #746C5C",
"Z  c #786D5D",
"A  c #786D5F",
"S  c #77705F",
"D  c #756D60",
"F  c #766F61",
"G  c #776F61",
"H  c #776F62",
"J  c #756E61",
"K  c #777163",
"L  c #787162",
"P  c #787063",
"I  c #787163",
"U  c #797163",
"Y  c #787062",
"T  c #797164",
"R  c #7A7264",
"E  c #7A7265",
"W  c #7A7365",
"Q  c #7B7365",
"!  c #7B7366",
"~  c #7B7466",
"^  c #7B7467",
"/  c #7C7466",
"(  c #7C7566",
")  c #7C7467",
"_  c #7D7467",
"`  c #7C7567",
"'  c #7D7567",
"]  c #7D7667",
"[  c #7A7466",
"{  c #7D7568",
"}  c #7D7668",
"|  c #7D7669",
" . c #7E7668",
".. c #7E7768",
"X. c #7E7669",
"o. c #7E7769",
"O. c #7F7769",
"+. c #7D776A",
"@. c #7E776A",
"#. c #7F776A",
"$. c #7C7668",
"%. c #7F7868",
"&. c #7F7869",
"*. c #7F7969",
"=. c #7F786A",
"-. c #7F796A",
";. c #7F786B",
":. c #7F796B",
">. c #7E786A",
",. c #80786A",
"<. c #80796A",
"1. c #80786B",
"2. c #80796B",
"3. c #817A6A",
"4. c #817A6B",
"5. c #807A6C",
"6. c #817A6C",
"7. c #807A6D",
"8. c #817A6D",
"9. c #827B6C",
"0. c #827B6D",
"q. c #837B6D",
"w. c #827B6E",
"e. c #837B6E",
"r. c #827C6D",
"t. c #837C6D",
"y. c #837D6D",
"u. c #837C6E",
"i. c #837D6E",
"p. c #847C6D",
"a. c #847C6E",
"s. c #847D6E",
"d. c #857E6F",
"f. c #837E6D",
"g. c #847E70",
"h. c #857E70",
"j. c #857E71",
"k. c #857F71",
"l. c #857F70",
"z. c #867F71",
"x. c #847E70",
"c. c #85806F",
"v. c #868071",
"b. c #868072",
"n. c #878172",
"m. c #868172",
"M. c #888374",
"N. c #898374",
"B. c #898474",
"V. c #8A8475",
"C. c #8A8575",
"Z. c #8A8576",
"A. c #8B8576",
"S. c #8B8676",
"D. c #8B8677",
"F. c #8C8777",
"G. c #8A8576",
"H. c #8C8877",
"J. c #8B8779",
"K. c #8E897A",
"L. c #908B7C",
"P. c #928E81",
"I. c #959185",
"U. c #98958A",
/* pixels */
"                                                                                                                                ",
"                                                                                                                                ",
"                                                                                                                                ",
"                                                                                                                                ",
"                                                                                                                                ",
"                                                                                                                                ",
"                                                                                                                                ",
"                                                                                                                                ",
"                                                - - * * * * * * * * * *                                                         ",
"                                                2 2 2 2 2 2 1 : : : : :                                                         ",
"                                            - 2 0 e e e e e e e w w w 0 : #                                                     ",
"                                            2 0 t i c c c c c c i i i e 2 :                                                     ",
"                                        - 2 0 t u c E ;.@.@.@.E c i i u e 0 - @ # #                                             ",
"                                        2 0 t i c Y s.s.s.s.s.@.F i i i i e 2 - - -                                             ",
"                                    - 2 0 t u c E ;.s.s.s.s.s.s.@.E s i i u e q q 8 * +                                         ",
"                                    2 0 u c c F ;.s.s.s.s.s.s.s.s.@.F c c i i u u w : *                                         ",
"                            * * - 2 0 u c E E @.s.s.s.s.s.s.s.s.s.s.E E E F i u u t w 2 * +                                     ",
"                            2 2 2 0 u c E s.s.s.s.s.s.s.s.s.s.s.s.s.;.;.;.E c i u u u q : *                                     ",
"                        * 2 p c c Z E E @.s.s.s.s.s.s.s.s.s.s.s.s.;.@.E E E E c u t u r q > * +                                 ",
"                        2 0 Z s.s.s.s.;.;.s.s.l.l.l.l.s.s.s.s.s.;.@.E E E E E E c u u t u q : %                                 ",
"                    * 2 e Z E s.s.s.;.@.@.s.b.M.M.M.M.M.M.b.s.;.s.;.@.E E E E E E c u r t w 6 : % + + +                         ",
"                    2 0 c ;.@.@.@.@.@.;.s.s.M.M.M.M.M.M.M.M.s.s.s.;.@.E E E E E E E c i u r q 5 : * * %                         ",
"                * 2 e c E @.@.@.@.@.@.s.l.M.M.M.M.M.M.M.M.M.M.b.s.@.@.@.E E E E E E E Y i r q 6 > > > : % +                     ",
"                2 0 c @.@.@.@.@.@.;.s.s.M.M.M.M.M.H.M.M.M.M.M.M.b.s.s.;.@.@.@.@.@.;.s.;.c u w 6 6 6 7 > : %                     ",
"            * 1 e c E @.@.@.@.@.@.s.b.M.M.M.M.M.H.H.H.H.H.H.H.H.H.H.b.s.s.s.s.s.s.s.s.s.;.c w 6 6 6 6 6 5 : * +                 ",
"            1 0 c @.@.@.@.@.@.@.@.s.M.M.M.M.M.M.H.H.H.H.H.H.H.H.P.L.M.c.c.c.c.c.c.c.s.s.c.] u w 7 6 6 6 6 > * %                 ",
"        * 1 e c E @.@.@.@.@.@.@.@.s.M.M.M.M.M.H.H.H.H.H.H.H.H.L.P.P.M.c.c.c.c.s.c.s.s.s.s.s.E c w 6 6 6 5 , ; = % @             ",
"        # 1 p @.@.E E E E E E @.s.l.M.M.H.H.H.H.H.H.H.L.L.L.H.L.I.P.M.c.c.c.s.s.c.s.s.s.s.s.s.E i w 6 5 , , , ; * @             ",
"        @ 1 p @.@.E E E @.@.@.s.M.H.H.M.H.H.H.H.H.H.H.L.L.L.L.L.I.P.M.c.c.c.c.c.c.s.s.s.s.s.s.s.E c 6 , , , , ; % @             ",
"        @ : p E E E E E E @.;.l.H.H.H.M.H.H.H.H.H.H.H.L.L.L.L.L.I.P.M.c.c.c.c.c.c.s.s.s.s.s.s.s.s.E e 6 , , , ; % @             ",
"        @ - e F E @.@.E E ;.b.H.H.H.H.H.H.H.H.H.H.H.H.L.L.L.L.L.I.P.M.c.c.c.c.c.s.s.s.s.s.s.s.s.s.s.E u 6 , , ; % @             ",
"        + - e c F E E @.@.l.H.H.H.M.H.H.H.H.H.H.H.H.H.L.L.L.L.P.P.H.M.c.c.c.c.s.s.s.s.s.s.s.s.s.s.s.s.Y 0 , , ; % @             ",
"        + - e s c c E ;.b.H.H.H.H.H.H.H.H.H.H.H.H.H.L.L.L.L.I.I.H.M.b.c.c.c.c.s.s.s.s.s.s.s.s.s.s.s.s.Y 6 , , ; % @             ",
"        + * e i i s c @.H.H.H.M.M.H.H.H.H.H.H.H.L.P.P.P.P.I.U.I.M.s.c.c.c.c.c.s.s.s.s.s.s.s.s.s.s.s.s.E w , , ; % @             ",
"        + * w i i u i P M.H.H.M.H.H.H.H.H.H.H.L.I.U.U.U.U.U.U.I.M.s.s.c.c.c.c.s.s.s.s.s.s.s.s.s.s.s.b.@.w 6 6 > * +             ",
"        + * 2 e u u u c ;.M.H.H.H.H.H.H.H.H.H.H.P.P.P.P.P.I.I.I.H.M.b.s.s.s.s.s.s.s.s.s.s.s.s.s.s.s.s.F w 6 6 > * +             ",
"            * : w i u u c @.H.P.P.P.P.P.P.P.I.H.l.;.;.;.;.s.L.I.P.H.b.s.s.s.s.s.s.s.s.s.s.s.s.s.b.s.c w 7 6 6 > * +             ",
"            O % 2 w u u u c ;.H.H.H.H.H.H.H.H.b.E c c c c E b.H.H.H.M.b.b.b.s.s.s.s.s.s.s.s.s.s.s.Y w 6 6 6 6 > % +             ",
"                @ : w u u u c F E E E E E E E E c c c c c S E E E s.M.H.H.M.c.s.s.s.s.s.b.M.b.s.F u q 6 6 6 6 > % +             ",
"                o @ 2 q t u t u c c c c c c c c c c c c c c c c c E s.M.M.M.b.b.c.c.c.s.s.s.s.E i w q 7 6 6 > : % +             ",
"                    @ - q u u u c c c c c c c c c c c c c c c c c c E E ;.l.M.M.M.M.M.s.F i i u r r w w 7 > * @                 ",
"                    o @ > q t u c c c c c c c c c c c c c c c c c c c Y E ;.b.M.H.M.l.E i r r r r r r w 5 ; @ O                 ",
"                        @ - q i c c c c c c c c c c c c c c c c c c E E @.@.;.s.M.b.F u r r r r r r r 0 * @                     ",
"                        o @ > 0 0 e e e s c c c c c c c c c c c S Y E ;.;.@.E @.l.;.i r r r r r r w 0 > @ O                     ",
"                            @ @ * * * : y c c c c c c c c c c c E ;.;.;.@.@.E E @.Y i r r r r r r 0 : @                         ",
"                            X o o . . @ 4 e e e e y s c c c c E ;.;.;.E @.E E Y Y c u r r r r w 0 > @ o                         ",
"                                        % * * * * 1 y S c S E @.;.;.;.E E Y Y Y Y F u r r r r 0 * @                             ",
"                                        o X o X . * 4 e e e u c E ;.;.@.E Y Y Y Y F u w 0 0 6 > @ X                             ",
"                                                    @ * % * * 2 c ;.;.@.E Y Y E E F i 0 * @ @ @                                 ",
"                                                    X X X . . * 0 p p u u e e e e e 0 > @ X X o                                 ",
"                                                                * * * * * * * * * % @ @                                         ",
"                                                                X X X X X X X X X X o o                                         ",
"                                                                                                                                ",
"                                                                                                                                ",
"                                                                                                                                ",
"                                                                                                                                ",
"                                                                                                                                ",
"                                                                                                                                ",
"                                                                                                                                ",
"                                                                                                                                ",
"                                                                                                                                ",
"                                                                                                                                ",
"                                                                                                                                ",
"                                                                                                                                "
};
