/* XPM */
static char *rock2_png[] = {
/* columns rows colors chars-per-pixel */
"64 64 198 2 ",
"   c None",
".  c #4F2913",
"X  c #4E2A14",
"o  c #4E2A15",
"O  c #4F2B15",
"+  c #502A13",
"@  c #502A15",
"#  c #512B15",
"$  c #512D17",
"%  c #502D18",
"&  c #512E19",
"*  c #522F1A",
"=  c #53301A",
"-  c #53311D",
";  c #54321D",
":  c #54321E",
">  c #55331F",
",  c #54341F",
"<  c #56341F",
"1  c #553420",
"2  c #553520",
"3  c #553620",
"4  c #573621",
"5  c #553622",
"6  c #573622",
"7  c #563722",
"8  c #583723",
"9  c #593824",
"0  c #583A25",
"q  c #593A25",
"w  c #5A3A27",
"e  c #5A3B27",
"r  c #5B3C27",
"t  c #5B3C28",
"y  c #5B3F2A",
"u  c #5C3E2B",
"i  c #5C402B",
"p  c #5D402C",
"a  c #5D402D",
"s  c #5E402D",
"d  c #5D412E",
"f  c #5E412E",
"g  c #5F432E",
"h  c #5F4330",
"j  c #5F4431",
"k  c #554939",
"l  c #60442F",
"z  c #5C5245",
"x  c #5D5345",
"c  c #5D5346",
"v  c #5E5346",
"b  c #5E5446",
"n  c #5E5447",
"m  c #5F5547",
"M  c #655C51",
"N  c #665C51",
"B  c #665D51",
"V  c #665D52",
"C  c #675E53",
"Z  c #685E53",
"A  c #685F53",
"S  c #685F54",
"D  c #696053",
"F  c #6A6053",
"G  c #696054",
"H  c #6A6054",
"J  c #6A6155",
"K  c #6B6155",
"L  c #6B6254",
"P  c #6B6255",
"I  c #6B6256",
"U  c #6B6257",
"Y  c #6C6255",
"T  c #6C6357",
"R  c #6D6357",
"E  c #6D6457",
"W  c #6E6457",
"Q  c #6C6358",
"!  c #6C6458",
"~  c #6D6458",
"^  c #6D6558",
"/  c #6D6559",
"(  c #6E6558",
")  c #6F6558",
"_  c #6F6659",
"`  c #736C5B",
"'  c None",
"]  c #746C5C",
"[  c #746D5C",
"{  c #746D5D",
"}  c #756D5D",
"|  c #756E5D",
" . c #766E5D",
".. c #777163",
"X. c #777164",
"o. c #787264",
"O. c #797364",
"+. c #7A7366",
"@. c #7B7366",
"#. c #7B7367",
"$. c #7B7466",
"%. c #7B7467",
"&. c #7C7467",
"*. c #7D7467",
"=. c #7C7567",
"-. c #7D7567",
";. c #7E7767",
":. c #7B7668",
">. c #7C7468",
",. c #7C7568",
"<. c #7D7568",
"1. c #7C7668",
"2. c #7D7668",
"3. c #7C7768",
"4. c #7D7669",
"5. c #7C7769",
"6. c #7E7768",
"7. c #7E7769",
"8. c #7F7769",
"9. c #7E776A",
"0. c #7F776A",
"q. c #7D7869",
"w. c #7F7868",
"e. c #7F7869",
"r. c #7E786A",
"t. c #7F786A",
"y. c #7F786B",
"u. c #7E796B",
"i. c #80796B",
"p. c #817A6B",
"a. c #817A6C",
"s. c #827B6C",
"d. c #827B6D",
"f. c #837B6D",
"g. c #827B6E",
"h. c #817C6C",
"j. c #827D6C",
"k. c #827C6D",
"l. c #837C6D",
"z. c #827D6D",
"x. c #837D6D",
"c. c #837E6D",
"v. c #837C6F",
"b. c #837E6E",
"n. c #847E6E",
"m. c #847F6E",
"M. c #857F6E",
"N. c #857F6F",
"B. c #847E70",
"V. c #85806F",
"C. c #86806F",
"Z. c #86816F",
"A. c #868270",
"S. c #888374",
"D. c #898474",
"F. c #8A8575",
"G. c #8A8576",
"H. c #8B8576",
"J. c #8A8577",
"K. c #8B8676",
"L. c #8B8677",
"P. c #8C8677",
"I. c #8C8777",
"U. c #8B8678",
"Y. c #8B8778",
"T. c #8C8778",
"R. c #8C8779",
"E. c #8C8878",
"W. c #8D8878",
"Q. c #8D8879",
"!. c #8D8979",
"~. c #8E8879",
"^. c #8E8979",
"/. c #8F8979",
"(. c #8D887A",
"). c #8E887A",
"_. c #8E897A",
"`. c #8F8A7B",
"'. c #8E8A7E",
"]. c #8F8A7E",
"[. c #8F8B7E",
"{. c #908B7B",
"}. c #918B7B",
"|. c #908A7C",
" X c #908B7C",
".X c #8F8C81",
"XX c #938F83",
"oX c #918E84",
"OX c #928F84",
"+X c #949084",
"@X c #949184",
"#X c #959185",
"$X c #969285",
"%X c #959186",
"&X c #959286",
"*X c #99978D",
"=X c #9B988E",
"-X c #9B988F",
/* pixels */
"                                                                                                                                ",
"                                                                                                                                ",
"                                                                                                                                ",
"                                                                                                                                ",
"                                                                                                                                ",
"                                                                                                                                ",
"                                                                                                                                ",
"                                                                                                                                ",
"                                                d d s s p p u u t t e e                                                         ",
"                                                d d s s p p u u t t e e                                                         ",
"                                            h h ~ ~ / / Q Q ! ! Q Q T T w w                                                     ",
"                                            h h ~ ~ / / Q Q ! ! Q Q T T w w                                                     ",
"                                        j j ~ ~ _ _ B.B.l.l.f.f.^ ^ Q Q U U 0 0 9 9                                             ",
"                                        j j ~ ~ _ _ B.B.l.l.f.f.^ ^ Q Q U U 0 0 9 9                                             ",
"                                    l l ~ ~ ( ( k.k.l.l.l.l.l.l.p.p.~ ~ T T I I S S 4 4                                         ",
"                                    l l ~ ~ ( ( k.k.l.l.l.l.l.l.p.p.~ ~ T T I I S S 4 4                                         ",
"                            f f g g J J w.w.s.s.d.d.d.d.d.d.a.a.p.p.6.6.t.t.I I G G C C 2 2                                     ",
"                            f f g g J J w.w.s.s.d.d.d.d.d.d.a.a.p.p.6.6.t.t.I I G G C C 2 2                                     ",
"                        a a 9.9.t.t.t.t.e.e.g.g.v.v.f.f.f.f.s.s.t.t.;.;.-.-.=.=.G G A A C C 3 3                                 ",
"                        a a 9.9.t.t.t.t.e.e.g.g.v.v.f.f.f.f.s.s.t.t.;.;.-.-.=.=.G G A A C C 3 3                                 ",
"                    i i 4.4.0.0.t.t.y.y.y.y.G.G.H.H.K.K.K.K.i.i.t.t.2.2.=.=.&.&.@.@.A A Z Z n n < < > >                         ",
"                    i i 4.4.0.0.t.t.y.y.y.y.G.G.H.H.K.K.K.K.i.i.t.t.2.2.=.=.&.&.@.@.A A Z Z n n < < > >                         ",
"                y y ,.,.4.4.7.7.7.7.y.y.F.F.G.G.K.K.L.L.I.I.I.I.8.8.2.2.*.*.@.@.@.@.c.c.A A n n b b v v , ,                     ",
"                y y ,.,.4.4.7.7.7.7.y.y.F.F.G.G.K.K.L.L.I.I.I.I.8.8.2.2.*.*.@.@.@.@.c.c.A A n n b b v v , ,                     ",
"            r r $.$.,.,.<.<.2.2.9.9.G.G.G.G.K.K.I.I.W.W.T.T.I.I.XXXXV.V.V.V.m.m.m.m.c.c.c.c.n n b b v v c c 2 2                 ",
"            r r $.$.,.,.<.<.2.2.9.9.G.G.G.G.K.K.I.I.W.W.T.T.I.I.XXXXV.V.V.V.m.m.m.m.c.c.c.c.n n b b v v c c 2 2                 ",
"        q q +.+.%.%.&.&.>.>.2.2.4.4.G.G.P.P.I.I.~.~.^.^././.).).%X%XC.C.V.V.N.N.m.m.b.b.c.c.z.z.b b c c k k k k 5 5             ",
"        q q +.+.%.%.&.&.>.>.2.2.4.4.G.G.P.P.I.I.~.~.^.^././.).).%X%XC.C.V.V.N.N.m.m.b.b.c.c.z.z.b b c c k k k k 5 5             ",
"        8 8 $.$.%.%.%.%.%.%.2.2.[.[.L.L.U.U.W.W.~.~.`.`.}.}. X X&X&XA.A.V.V.M.M.m.m.b.b.c.c.z.z.j.j.k k k k k k 7 7             ",
"        8 8 $.$.%.%.%.%.%.%.2.2.[.[.L.L.U.U.W.W.~.~.`.`.}.}. X X&X&XA.A.V.V.M.M.m.m.b.b.c.c.z.z.j.j.k k k k k k 7 7             ",
"        6 6 _ _ #.#.#.#.%.%.].].L.L.U.U.T.T.W.W.).).`.`.}.}.|.|.#X#XZ.Z.V.V.M.M.m.m.c.c.c.c.j.j.j.j.h.h.k k k k 7 7             ",
"        6 6 _ _ #.#.#.#.%.%.].].L.L.U.U.T.T.W.W.).).`.`.}.}.|.|.#X#XZ.Z.V.V.M.M.m.m.c.c.c.c.j.j.j.j.h.h.k k k k 7 7             ",
"        < < ( ( ) ) #.#.'.'.J.J.I.I.T.T.Q.Q._._._._.{.{.{.{.=X=XV.V.V.V.V.V.m.m.n.n.c.c.z.z.j.j.h.h.h.h.k k k k 4 4             ",
"        < < ( ( ) ) #.#.'.'.J.J.I.I.T.T.Q.Q._._._._.{.{.{.{.=X=XV.V.V.V.V.V.m.m.n.n.c.c.z.z.j.j.h.h.h.h.k k k k 4 4             ",
"        ; ; E E W W R R '.'.L.L.T.T.Q.Q.Q.Q.(.(.*X*X*X*X-X-X$X$XV.V.N.N.m.m.m.m.c.c.c.c.j.j.j.j.h.h.S.S.x x x x 1 1             ",
"        ; ; E E W W R R '.'.L.L.T.T.Q.Q.Q.Q.(.(.*X*X*X*X-X-X$X$XV.V.N.N.m.m.m.m.c.c.c.c.j.j.j.j.h.h.S.S.x x x x 1 1             ",
"            = = P P Y Y K K .X.XoXoXOXOXOXOXOXOX| | | |  . .@X@X+X+Xm.m.m.m.c.c.c.c.z.z.j.j.h.h.S.S.m m x x z z : :             ",
"            = = P P Y Y K K .X.XoXoXOXOXOXOXOXOX| | | |  . .@X@X+X+Xm.m.m.m.c.c.c.c.z.z.j.j.h.h.S.S.m m x x z z : :             ",
"                $ $ L L H H H H ' ' [ [ [ [ { { { { } } | | | | | | _._.!.!.c.c.x.x.j.j.D.D.S.S.B B x x z z z z - -             ",
"                $ $ L L H H H H ' ' [ [ [ [ { { { { } } | | | | | | _._.!.!.c.c.x.x.j.j.D.D.S.S.B B x x z z z z - -             ",
"                    # # F F D D ' ' ' ' [ [ [ [ [ [ [ [ [ [ [ [ [ [ [ [ r.r.R.R.E.E.D.D.V V B B N N M M z z * *                 ",
"                    # # F F D D ' ' ' ' [ [ [ [ [ [ [ [ [ [ [ [ [ [ [ [ r.r.R.R.E.E.D.D.V V B B N N M M z z * *                 ",
"                        O O F F ` ` ' ' ' ' ' ' ] ] [ [ [ [ [ [ [ [ 5.5.5.5.O.O.Y.Y.V V B B B B N N M M & &                     ",
"                        O O F F ` ` ' ' ' ' ' ' ] ] [ [ [ [ [ [ [ [ 5.5.5.5.O.O.Y.Y.V V B B B B N N M M & &                     ",
"                            . . + + + + ' ' ' ' ' ' ' ' ' ' ' ' u.u.3.3.3.3.o.o.X.X.V V B B M M M M % %                         ",
"                            . . + + + + ' ' ' ' ' ' ' ' ' ' ' ' u.u.3.3.3.3.o.o.X.X.V V B B M M M M % %                         ",
"                                        + + + + + + ' ' ` ` q.q.3.3.1.1.X.X.X.X.X.X.B B N N M M @ @                             ",
"                                        + + + + + + ' ' ` ` q.q.3.3.1.1.X.X.X.X.X.X.B B N N M M @ @                             ",
"                                                    . . . . . . :.:.:.:.X.X.........M M X X o o                                 ",
"                                                    . . . . . . :.:.:.:.X.X.........M M X X o o                                 ",
"                                                                . . . . . . . . . . X X                                         ",
"                                                                . . . . . . . . . . X X                                         ",
"                                                                                                                                ",
"                                                                                                                                ",
"                                                                                                                                ",
"                                                                                                                                ",
"                                                                                                                                ",
"                                                                                                                                ",
"                                                                                                                                ",
"                                                                                                                                ",
"                                                                                                                                ",
"                                                                                                                                ",
"                                                                                                                                ",
"                                                                                                                                "
};
