/* XPM */
static char *rock3_png[] = {
/* columns rows colors chars-per-pixel */
"64 64 156 2 ",
"   c None",
".  c #4E2812",
"X  c #4F2912",
"o  c #4F2913",
"O  c #4E2A13",
"+  c #4F2A15",
"@  c #4F2B15",
"#  c #502B14",
"$  c #512B15",
"%  c #512D16",
"&  c #502C17",
"*  c #522E17",
"=  c #512D18",
"-  c #522E18",
";  c #522F19",
":  c #54311A",
">  c #54311D",
",  c #56351F",
"<  c #563620",
"1  c #593923",
"2  c #583824",
"3  c #593C28",
"4  c #5B3C28",
"5  c #5C3E2A",
"6  c #5D3F2B",
"7  c #5D3F2C",
"8  c #5C402C",
"9  c #5D402C",
"0  c #5D412D",
"q  c #5E412E",
"w  c #5E422F",
"e  c #5F432F",
"r  c #5F4331",
"t  c #614633",
"y  c #644833",
"u  c #654B36",
"i  c #654A37",
"p  c #654B37",
"a  c #654B38",
"s  c #664B38",
"d  c #644C38",
"f  c #654C38",
"g  c #674E39",
"h  c #664E3B",
"j  c #674E3B",
"k  c #674F3B",
"l  c #674F3C",
"z  c #694F3B",
"x  c #5E5448",
"c  c #5E5548",
"v  c #5F5548",
"b  c #61574A",
"n  c #61584A",
"m  c #64594C",
"M  c #675C4F",
"N  c #675D50",
"B  c #685D50",
"V  c #685E50",
"C  c None",
"Z  c #695E51",
"A  c #695F51",
"S  c #695F52",
"D  c #6A5F52",
"F  c #6A6052",
"G  c #6A6053",
"H  c #6A6054",
"J  c #6B6154",
"K  c #6C6154",
"L  c #6C6255",
"P  c #6D6256",
"I  c #6D6356",
"U  c #6E6356",
"Y  c #6E6357",
"T  c #6E6456",
"R  c #6E6457",
"E  c #6F6457",
"W  c #6F6557",
"Q  c #6F6558",
"!  c #706558",
"~  c #706658",
"^  c #716759",
"/  c #706959",
"(  c #706A58",
")  c #706A59",
"_  c #716B59",
"`  c #706A5A",
"'  c #716B5A",
"]  c #726B5A",
"[  c #726C5B",
"{  c #756D60",
"}  c #766D61",
"|  c #766E61",
" . c #776E62",
".. c #776F62",
"X. c #787063",
"o. c #797265",
"O. c #7A7265",
"+. c #7A7365",
"@. c #7A7366",
"#. c #7B7466",
"$. c #7D7667",
"%. c #7E7767",
"&. c #7E7768",
"*. c #898272",
"=. c #898372",
"-. c #888373",
";. c #898473",
":. c #8A8473",
">. c #898374",
",. c #8A8474",
"<. c #8A8574",
"1. c #8A8575",
"2. c #8B8675",
"3. c #8A8576",
"4. c #8B8576",
"5. c #8B8676",
"6. c #8C8776",
"7. c #8C8777",
"8. c #8D8777",
"9. c #8E8777",
"0. c #8D8877",
"q. c #8C8678",
"w. c #8D8778",
"e. c #8E8878",
"r. c #8E8879",
"t. c #8E8979",
"y. c #8E897A",
"u. c #8F897A",
"i. c #8F897B",
"p. c #8F8A7A",
"a. c #8F8A7B",
"s. c #8F8A7C",
"d. c #8E8A7D",
"f. c #8E8A7E",
"g. c #8F8B7E",
"h. c #908A7B",
"j. c #908A7C",
"k. c #908B7C",
"l. c #918B7C",
"z. c #908A7D",
"x. c #918C7C",
"c. c #918C7D",
"v. c #928E83",
"b. c #939084",
"n. c #939085",
"m. c #949085",
"M. c #949086",
"N. c #95938A",
"B. c #95938B",
"V. c #96938B",
"C. c #96948B",
"Z. c #97958C",
"A. c #98968E",
"S. c #99968E",
"D. c #99978F",
"F. c #9A9890",
/* pixels */
"                                                                                                                                ",
"                                                                                                                                ",
"                                                                                                                                ",
"                                                                                                                                ",
"                                                                                                                                ",
"                                                                                                                                ",
"                                                                                                                                ",
"                                                                                                                                ",
"                                                                                                                                ",
"                                                                                                                                ",
"                                                                                                                                ",
"                                                                                                                                ",
"                                                                                                                                ",
"                                                                                                                                ",
"                                                u u f f a a k k l l h h d d t t w w 8 8                                         ",
"                                                u u f f a a k k l l h h d d t t w w 8 8                                         ",
"                                            p p &.&.&.&.&.&.&.&.%.%.%.%.$.$.$.$.$.$.$.$.0 0                                     ",
"                                            p p &.&.&.&.&.&.&.&.%.%.%.%.$.$.$.$.$.$.$.$.0 0                                     ",
"                                        i i >.>.-.-.&.&.&.&.&.&.&.&.&.&.%.%.$.$.$.$.$.$.C C 9 9                                 ",
"                                        i i >.>.-.-.&.&.&.&.&.&.&.&.&.&.%.%.$.$.$.$.$.$.C C 9 9                                 ",
"                                    p p <.<.<.<.<.<.;.;.=.=.*.*.&.&.&.&.&.&.%.%.$.$.$.$.$.$.C C 6 6                             ",
"                                    p p <.<.<.<.<.<.;.;.=.=.*.*.&.&.&.&.&.&.%.%.$.$.$.$.$.$.C C 6 6                             ",
"                                    a a 1.1.1.1.1.1.4.4.,.,.:.:.g.g.f.f.&.&.&.&.%.%.$.$.$.$.C C C C 5 5                         ",
"                                    a a 1.1.1.1.1.1.4.4.,.,.:.:.g.g.f.f.&.&.&.&.%.%.$.$.$.$.C C C C 5 5                         ",
"                                s s i.i.2.2.2.2.2.2.5.5.5.5.4.4.,.,.=.=.f.f.f.f.&.&.$.$.$.$.C C C C b b 3 3                     ",
"                                s s i.i.2.2.2.2.2.2.5.5.5.5.4.4.,.,.=.=.f.f.f.f.&.&.$.$.$.$.C C C C b b 3 3                     ",
"                            j j M.M.a.a.q.q.6.6.6.6.5.5.5.5.5.5.4.4.3.3.=.=.-.-.d.d.d.d.C C C C x x v v 2 2                     ",
"                            j j M.M.a.a.q.q.6.6.6.6.5.5.5.5.5.5.4.4.3.3.=.=.-.-.d.d.d.d.C C C C x x v v 2 2                     ",
"                            z z m.m.s.s.w.w.w.w.7.7.7.7.7.7.6.6.5.5.1.1.1.1.f.f.f.f.A A Z Z C C x x x x x x < <                 ",
"                            z z m.m.s.s.w.w.w.w.7.7.7.7.7.7.6.6.5.5.1.1.1.1.f.f.f.f.A A Z Z C C x x x x x x < <                 ",
"                        g g n.n.y.y.k.k.w.w.e.e.r.r.9.9.7.7.6.6.a.a.i.i.g.g. . .| | A A A A C C x x c c c c > >                 ",
"                        g g n.n.y.y.k.k.w.w.e.e.r.r.9.9.7.7.6.6.a.a.i.i.g.g. . .| | A A A A C C x x c c c c > >                 ",
"                    y y #.#.b.b.j.j.k.k.e.e.e.e.r.r.0.0.0.0.7.7.a.a.v.v.........| | } } C C C C x x c c c c ; ;                 ",
"                    y y #.#.b.b.j.j.k.k.e.e.e.e.r.r.0.0.0.0.7.7.a.a.v.v.........| | } } C C C C x x c c c c ; ;                 ",
"                r r +.+.N.N.a.a.k.k.k.k.x.x.c.c.r.r.e.e.8.8.7.7.C.C.Q Q R R P P L L } } C C x x x x n n - -                     ",
"                r r +.+.N.N.a.a.k.k.k.k.x.x.c.c.r.r.e.e.8.8.7.7.C.C.Q Q R R P P L L } } C C x x x x n n - -                     ",
"                e e +.+.B.B.s.s.z.z.k.k.l.l.x.x.a.a.u.u.t.t.Z.Z.S S ! ! Q Q I I L L J J { { x x x x = =                         ",
"                e e +.+.B.B.s.s.z.z.k.k.l.l.x.x.a.a.u.u.t.t.Z.Z.S S ! ! Q Q I I L L J J { { x x x x = =                         ",
"                q q +.+.N.N.s.s.s.s.k.k.k.k.l.l.h.h.p.p.Z.Z.F F ^ ^ ~ ~ R R Y Y J J J J J J H H & &                             ",
"                q q +.+.N.N.s.s.s.s.k.k.k.k.l.l.h.h.p.p.Z.Z.F F ^ ^ ~ ~ R R Y Y J J J J J J H H & &                             ",
"                7 7 +.+.@.@.V.V.s.s.s.s.k.k.h.h.F.F.F.F.D D A A ~ ~ Q Q U U I I J J G G @ @ + +                                 ",
"                7 7 +.+.@.@.V.V.s.s.s.s.k.k.h.h.F.F.F.F.D D A A ~ ~ Q Q U U I I J J G G @ @ + +                                 ",
"                4 4 o.o.+.+.+.+.N.N.V.V.A.A.D.D.S.S.A A V V V V Q Q E E I I K K O O o o                                         ",
"                4 4 o.o.+.+.+.+.N.N.V.V.A.A.D.D.S.S.A A V V V V Q Q E E I I K K O O o o                                         ",
"                1 1 X.X.O.O.+.+./ / ] ] [ [ ] ] D.D.V V B B W W R R T T . . . .                                                 ",
"                1 1 X.X.O.O.+.+./ / ] ] [ [ ] ] D.D.V V B B W W R R T T . . . .                                                 ",
"                    , , o.o.o.o.' ' ' ' ' ' ' ' _ _ N N M M W W X X . .                                                         ",
"                    , , o.o.o.o.' ' ' ' ' ' ' ' _ _ N N M M W W X X . .                                                         ",
"                        : : o.o.` ` ) ) ) ) ) ) ( ( m m o o . .                                                                 ",
"                        : : o.o.` ` ) ) ) ) ) ) ( ( m m o o . .                                                                 ",
"                            * * % % $ $ # # o o o o o o                                                                         ",
"                            * * % % $ $ # # o o o o o o                                                                         ",
"                                                                                                                                ",
"                                                                                                                                ",
"                                                                                                                                ",
"                                                                                                                                ",
"                                                                                                                                ",
"                                                                                                                                ",
"                                                                                                                                ",
"                                                                                                                                ",
"                                                                                                                                ",
"                                                                                                                                ",
"                                                                                                                                ",
"                                                                                                                                "
};
