/* XPM */
static char *r3[] = {
/* columns rows colors chars-per-pixel */
"64 64 152 2 ",
"   c None",
".  c #4D260F",
"X  c #4E2711",
"o  c #4E2812",
"O  c #512B14",
"+  c #532F1A",
"@  c #54331E",
"#  c #553521",
"$  c #583722",
"%  c #573924",
"&  c #593A25",
"*  c #573C2A",
"=  c #5A3E2A",
"-  c #5D412E",
";  c #5D4533",
":  c #5D4B3C",
">  c #624632",
",  c #644A36",
"<  c #644D3A",
"1  c #67503E",
"2  c #68503C",
"3  c #5D4E40",
"4  c #5E5244",
"5  c #5E5548",
"6  c #645344",
"7  c #6B5643",
"8  c #6B5946",
"9  c #61564A",
"0  c #655B4D",
"q  c #6A5B4A",
"w  c #715C4B",
"e  c #675D50",
"r  c #695E51",
"t  c #6F604F",
"y  c #71604F",
"u  c #6D6355",
"i  c #6E6857",
"p  c #6F6558",
"a  c #736555",
"s  c #786656",
"d  c #706659",
"f  c #726B5B",
"g  c #786C5C",
"h  c #766D61",
"j  c #786F62",
"k  c #777062",
"l  c #7B7466",
"z  c #7E7768",
"x  c #7F7869",
"c  c #817666",
"v  c #80796A",
"b  c #807A6A",
"n  c #817A6A",
"m  c #807A6B",
"M  c #827969",
"N  c #847A6A",
"B  c #817A6C",
"V  c #817B6C",
"C  c #827B6D",
"Z  c #807A6E",
"A  c #827C6D",
"S  c #837C6D",
"D  c #827C6E",
"F  c #847D6E",
"G  c #847E6F",
"H  c #857E6F",
"J  c #847F6F",
"K  c #877E6E",
"L  c #817B6E",
"P  c #847E71",
"I  c #857F71",
"U  c #837E72",
"Y  c #887F70",
"T  c #868070",
"R  c #878070",
"E  c #868170",
"W  c #878171",
"Q  c #878271",
"!  c #878275",
"~  c #868176",
"^  c #888171",
"/  c #888271",
"(  c #898073",
")  c #898373",
"_  c #8A8373",
"`  c #898473",
"'  c #8A8473",
"]  c #898074",
"[  c #8B8375",
"{  c #888377",
"}  c #8B8276",
"|  c #898475",
" . c #8A8474",
".. c #8A8574",
"X. c #8A8475",
"o. c #8A8575",
"O. c #8B8575",
"+. c #8A8675",
"@. c #8B8675",
"#. c #888477",
"$. c #8A8576",
"%. c #8B8576",
"&. c #8A8577",
"*. c #8B8676",
"=. c #8B8677",
"-. c #8B8777",
";. c #8C8776",
":. c #8C8677",
">. c #8C8777",
",. c #8D8777",
"<. c #8C8777",
"1. c #8D8877",
"2. c #898478",
"3. c #8A8578",
"4. c #8A8678",
"5. c #8B8678",
"6. c #8B8778",
"7. c #8A8679",
"8. c #8B8679",
"9. c #8B8779",
"0. c #8C8678",
"q. c #8D8778",
"w. c #8C8779",
"e. c #8D8779",
"r. c #8B8679",
"t. c #8D8878",
"y. c #8D8879",
"u. c #8C887A",
"i. c #8D887A",
"p. c #8E887A",
"a. c #8E897A",
"s. c #8E897B",
"d. c #8F897B",
"f. c #8F8A7B",
"g. c #8D897C",
"h. c #8E897C",
"j. c #8E8A7C",
"k. c #8E8A7D",
"l. c #8F8B7F",
"z. c #8E897A",
"x. c #908B7C",
"c. c #918C7E",
"v. c #908B7C",
"b. c #8F8B81",
"n. c #918D80",
"m. c #928E82",
"M. c #918D81",
"N. c #959186",
"B. c #959287",
"V. c #949186",
"C. c #959289",
"Z. c #99968D",
/* pixels */
"                                                                                                                                ",
"                                                                                                                                ",
"                                                                                                                                ",
"                                                                                                                                ",
"                                                                                                                                ",
"                                                                                                                                ",
"                                                                                                                                ",
"                                                                                                                                ",
"                                                                                                                                ",
"                                                                                                                                ",
"                                                                                                                                ",
"                                                                                                                                ",
"                                                                                                                                ",
"                                                                                                                                ",
"                                                , , , , , , < < < < < < , , > ; - - = =                                         ",
"                                                7 7 7 7 7 7 8 8 8 8 8 7 7 7 7 1 < < < <                                         ",
"                                            > 7 a g g g g g g g g g g g g g g g g g g y < =                                     ",
"                                            7 y l N x x x x x x x x x x z z z z z x x g 6 ;                                     ",
"                                        > 7 g N N N N z z z z x x x x x z z z z l z x j r 6 ; =                                 ",
"                                        7 a N >.>.W N N N N N N x z z z l l l l l l l l g 8 < ;                                 ",
"                                    , 7 g N >.>.>.>.W T W W W N x z z z z z l l l l l l l g 8 6 ; =                             ",
"                                    , 8 c >.>.>.>.>.>.>.>.>.>.W N N N N x l l l l l l z x l p q < ;                             ",
"                                    , 8 c >.>.>.>.>.>.>.>.>.>.>.q.q.q.W N z l l l l l z z l u q q 6 ; =                         ",
"                                    7 a N >.>.>.>.>.>.>.>.>.>.>.y.y.y.q.P N N N x l l l z l u r r q < ;                         ",
"                                > 7 g N >.>.>.>.>.>.>.>.>.>.>.>.>.>.>.>.q.q.q.W N l l l z l u r r q 6 : ; =                     ",
"                                8 s Y y.y.>.>.>.>.>.>.>.>.>.>.>.>.>.>.>.q.y.y.q.P N N x l g u e q q q 3 ; %                     ",
"                            < w c >.y.y.q.>.>.>.>.>.>.>.>.>.>.>.>.>.>.>.>.>.>.>.q.q.q.P j u r q q 9 5 3 = #                     ",
"                            < w >.B.c.y.q.>.>.>.>.>.>.>.>.>.>.>.>.>.>.>.>.>.>.q.y.y.>.x p e e q 9 5 5 3 ; =                     ",
"                            , w >.B.m.y.q.q.>.>.>.>.>.>.>.>.>.>.>.>.>.>.>.>.y.y.y.>.l p u r r q 9 5 5 4 3 : = @                 ",
"                            w g >.m.c.y.y.q.q.q.>.>.>.>.>.>.>.>.>.>.>.>.q.q.q.q.q.N p e r r r q 9 5 5 5 5 : * @                 ",
"                        , w c >.y.c.c.y.y.q.y.y.y.y.>.>.>.>.>.>.y.y.y.y.y.q.N z z j u e r r r q 9 5 5 5 5 : * @                 ",
"                        7 a >.B.c.y.c.c.y.q.y.y.y.y.>.>.>.>.>.>.y.y.y.y.q.P l j j g p u r r r q 9 5 5 5 5 : % +                 ",
"                    > 2 a l y.B.c.y.c.y.y.>.1.y.y.y.1.1.1.1.>.y.y.c.m.y.P l l j j j g p u e e q 9 5 5 5 5 : % +                 ",
"                    2 8 l W y.m.c.c.c.c.y.y.y.y.y.y.1.1.1.>.>.y.c.c.q.P l g g g g g j g u e e q 5 5 5 4 3 ; # +                 ",
"                - < y l q.m.c.c.c.c.c.c.c.c.c.c.y.y.1.1.q.>.>.y.B.b.x g g d d p p d j g u q 9 5 5 5 q 4 * #                     ",
"                - < d P m.C.c.y.c.c.c.c.c.c.c.c.y.y.y.y.q.y.y.y.y.P j u u u u u u u g g p e 5 5 5 4 4 ; # O                     ",
"                - < a P b.C.m.y.c.c.c.c.c.c.c.c.c.y.y.y.y.c.B.y.z g p p p u u u u u u p g p q 5 5 3 * #                         ",
"                - < a P b.C.m.y.y.c.c.c.c.c.c.c.c.y.y.c.c.c.b.P g u u d p p u u u u u u g p e 5 3 ; # O                         ",
"                - < a P b.C.m.y.y.c.c.c.c.c.c.c.c.y.y.c.B.y.z g p u p p p u u u u u u u p p u 6 = #                             ",
"                = < a N q.b.m.c.c.y.c.c.c.c.c.c.c.m.m.m.b.P g u u d d p u u u u u u u r 9 6 6 : # o                             ",
"                = < a z x W m.B.y.y.y.y.y.y.c.c.C.C.Z.b.z g u u u d d p u u u u u u u 9 - # # #                                 ",
"                = < a l l x q.m.m.m.m.m.m.m.m.B.C.C.m.P g q e u u d d p u u u r 9 6 6 : # o o o                                 ",
"                & , a l l l x W b.C.C.C.C.C.C.Z.Z.m.z g u q q u u p p p u p p q - # # #                                         ",
"                & , a l l l l x ~ y.b.b.b.b.b.B.Z.b.g q q r r u u p d u q 6 6 < # . X X                                         ",
"                & > a l l l l l l l l l l l l P C.b.j q q r u u p p d 8 - # # #                                                 ",
"                $ ; 8 d j l l k g i g g g i i l q.~ g e e u u u 8 6 6 < # . . X                                                 ",
"                    - < d z l k g g i i i i g g l k u e e u p 8 ; # # #                                                         ",
"                    @ - 7 d j k g g g i i i g g g u u q 6 6 6 < # . . X                                                         ",
"                        = < d l g g g g g g g g g i u 6 = # # #                                                                 ",
"                        O = 7 u 8 8 q 8 q q q q 8 6 6 ; @ . . X                                                                 ",
"                            = = & & & & % % % % % # # @                                                                         ",
"                            O O O O O O o o X X X X X o                                                                         ",
"                                                                                                                                ",
"                                                                                                                                ",
"                                                                                                                                ",
"                                                                                                                                ",
"                                                                                                                                ",
"                                                                                                                                ",
"                                                                                                                                ",
"                                                                                                                                ",
"                                                                                                                                ",
"                                                                                                                                ",
"                                                                                                                                ",
"                                                                                                                                "
};
