/* XPM */
static char *result[] = {
/* columns rows colors chars-per-pixel */
"32 32 156 2 ",
"   c #4E2812",
".  c #4F2912",
"X  c #4F2913",
"o  c #4E2A13",
"O  c #4F2A15",
"+  c #4F2B15",
"@  c #502B14",
"#  c #512B15",
"$  c #512D16",
"%  c #502C17",
"&  c #522E17",
"*  c #512D18",
"=  c #522E18",
"-  c #522F19",
";  c #54311A",
":  c #54311D",
">  c #56351F",
",  c #563620",
"<  c #593923",
"1  c #583824",
"2  c #593C28",
"3  c #5B3C28",
"4  c #5C3E2A",
"5  c #5D3F2B",
"6  c #5D3F2C",
"7  c #5C402C",
"8  c #5D402C",
"9  c #5D412D",
"0  c #5E412E",
"q  c #5E422F",
"w  c #5F432F",
"e  c #5F4331",
"r  c #614633",
"t  c #644833",
"y  c #654B36",
"u  c #654A37",
"i  c #654B37",
"p  c #654B38",
"a  c #664B38",
"s  c #644C38",
"d  c #654C38",
"f  c #674E39",
"g  c #664E3B",
"h  c #674E3B",
"j  c #674F3B",
"k  c #674F3C",
"l  c #694F3B",
"z  c #5E5448",
"x  c #5E5548",
"c  c #5F5548",
"v  c #61574A",
"b  c #61584A",
"n  c #64594C",
"m  c #675C4F",
"M  c #675D50",
"N  c #685D50",
"B  c #685E50",
"V  c #685E51",
"C  c #695E51",
"Z  c #695F51",
"A  c #695F52",
"S  c #6A5F52",
"D  c #6A6052",
"F  c #6A6053",
"G  c #6A6054",
"H  c #6B6154",
"J  c #6C6154",
"K  c #6C6255",
"L  c #6D6256",
"P  c #6D6356",
"I  c #6E6356",
"U  c #6E6357",
"Y  c #6E6456",
"T  c #6E6457",
"R  c #6F6457",
"E  c #6F6557",
"W  c #6F6558",
"Q  c #706558",
"!  c #706658",
"~  c #716759",
"^  c #706959",
"/  c #706A58",
"(  c #706A59",
")  c #716B59",
"_  c #706A5A",
"`  c #716B5A",
"'  c #726B5A",
"]  c #726C5B",
"[  c #756D60",
"{  c #766D61",
"}  c #766E61",
"|  c #776E62",
" . c #776F62",
".. c #787063",
"X. c #797265",
"o. c #7A7265",
"O. c #7A7365",
"+. c #7A7366",
"@. c #7B7466",
"#. c #7D7667",
"$. c #7E7767",
"%. c #7E7768",
"&. c #898272",
"*. c #898372",
"=. c #888373",
"-. c #898473",
";. c #8A8473",
":. c #898374",
">. c #8A8474",
",. c #8A8574",
"<. c #8A8575",
"1. c #8B8675",
"2. c #8A8576",
"3. c #8B8576",
"4. c #8B8676",
"5. c #8C8776",
"6. c #8C8777",
"7. c #8D8777",
"8. c #8E8777",
"9. c #8D8877",
"0. c #8C8678",
"q. c #8D8778",
"w. c #8E8878",
"e. c #8E8879",
"r. c #8E8979",
"t. c #8E897A",
"y. c #8F897A",
"u. c #8F897B",
"i. c #8F8A7A",
"p. c #8F8A7B",
"a. c #8F8A7C",
"s. c #8E8A7D",
"d. c #8E8A7E",
"f. c #8F8B7E",
"g. c #908A7B",
"h. c #908A7C",
"j. c #908B7C",
"k. c #918B7C",
"l. c #908A7D",
"z. c #918C7C",
"x. c #918C7D",
"c. c #928E83",
"v. c #939084",
"b. c #939085",
"n. c #949085",
"m. c #949086",
"M. c #95938A",
"N. c #95938B",
"B. c #96938B",
"V. c #96948B",
"C. c #97958C",
"Z. c #98968E",
"A. c #99968E",
"S. c #99978F",
"D. c #9A9890",
"F. c None",
/* pixels */
"F.F.F.F.F.F.F.F.F.F.F.F.F.F.F.F.F.F.F.F.F.F.F.F.F.F.F.F.F.F.F.F.",
"F.F.F.F.F.F.F.F.F.F.F.F.F.F.F.F.F.F.F.F.F.F.F.F.F.F.F.F.F.F.F.F.",
"F.F.F.F.F.F.F.F.F.F.F.F.F.F.F.F.F.F.F.F.F.F.F.F.F.F.F.F.F.F.F.F.",
"F.F.F.F.F.F.F.F.F.F.F.F.F.F.F.F.F.F.F.F.F.F.F.F.F.F.F.F.F.F.F.F.",
"F.F.F.F.F.F.F.F.F.F.F.F.F.F.F.F.F.F.F.F.F.F.F.F.F.F.F.F.F.F.F.F.",
"F.F.F.F.F.F.F.F.F.F.F.F.F.F.F.F.F.F.F.F.F.F.F.F.F.F.F.F.F.F.F.F.",
"F.F.F.F.F.F.F.F.F.F.F.F.F.F.F.F.F.F.F.F.F.F.F.F.F.F.F.F.F.F.F.F.",
"F.F.F.F.F.F.F.F.F.F.F.F.y d p j k g s r q 7 F.F.F.F.F.F.F.F.F.F.",
"F.F.F.F.F.F.F.F.F.F.F.i %.%.%.%.$.$.#.#.#.#.9 F.F.F.F.F.F.F.F.F.",
"F.F.F.F.F.F.F.F.F.F.u :.=.%.%.%.%.%.$.#.#.#.V 8 F.F.F.F.F.F.F.F.",
"F.F.F.F.F.F.F.F.F.i ,.,.,.-.*.&.%.%.%.$.#.#.#.V 5 F.F.F.F.F.F.F.",
"F.F.F.F.F.F.F.F.F.p <.<.<.3.>.;.f.d.%.%.$.#.#.V V 4 F.F.F.F.F.F.",
"F.F.F.F.F.F.F.F.a u.1.1.1.4.4.3.>.*.d.d.%.#.#.V V v 2 F.F.F.F.F.",
"F.F.F.F.F.F.F.h m.p.0.5.5.4.4.4.3.2.*.=.s.s.V V z c 1 F.F.F.F.F.",
"F.F.F.F.F.F.F.l n.a.q.q.6.6.6.5.4.<.<.d.d.Z C V z z z , F.F.F.F.",
"F.F.F.F.F.F.f b.t.j.q.w.e.8.6.5.p.u.f.| } Z Z V z x x : F.F.F.F.",
"F.F.F.F.F.t @.v.h.j.w.w.e.9.9.6.p.c. . .} { V V z x x - F.F.F.F.",
"F.F.F.F.e O.M.p.j.j.z.x.e.w.7.6.V.W T L K { V z z b = F.F.F.F.F.",
"F.F.F.F.w O.N.a.l.j.k.z.p.y.r.C.A Q W P K H [ z z * F.F.F.F.F.F.",
"F.F.F.F.0 O.M.a.a.j.j.k.g.i.C.D ~ ! T U H H H G % F.F.F.F.F.F.F.",
"F.F.F.F.6 O.+.B.a.a.j.g.D.D.S Z ! W I P H F + O F.F.F.F.F.F.F.F.",
"F.F.F.F.3 X.O.O.M.B.Z.S.A.Z B B W R P J o X F.F.F.F.F.F.F.F.F.F.",
"F.F.F.F.< ..o.O.^ ' ] ' S.B N E T Y     F.F.F.F.F.F.F.F.F.F.F.F.",
"F.F.F.F.F.> X.X.` ` ` ` ) M m E .   F.F.F.F.F.F.F.F.F.F.F.F.F.F.",
"F.F.F.F.F.F.; X._ ( ( ( / n X   F.F.F.F.F.F.F.F.F.F.F.F.F.F.F.F.",
"F.F.F.F.F.F.F.& $ # @ X X X F.F.F.F.F.F.F.F.F.F.F.F.F.F.F.F.F.F.",
"F.F.F.F.F.F.F.F.F.F.F.F.F.F.F.F.F.F.F.F.F.F.F.F.F.F.F.F.F.F.F.F.",
"F.F.F.F.F.F.F.F.F.F.F.F.F.F.F.F.F.F.F.F.F.F.F.F.F.F.F.F.F.F.F.F.",
"F.F.F.F.F.F.F.F.F.F.F.F.F.F.F.F.F.F.F.F.F.F.F.F.F.F.F.F.F.F.F.F.",
"F.F.F.F.F.F.F.F.F.F.F.F.F.F.F.F.F.F.F.F.F.F.F.F.F.F.F.F.F.F.F.F.",
"F.F.F.F.F.F.F.F.F.F.F.F.F.F.F.F.F.F.F.F.F.F.F.F.F.F.F.F.F.F.F.F.",
"F.F.F.F.F.F.F.F.F.F.F.F.F.F.F.F.F.F.F.F.F.F.F.F.F.F.F.F.F.F.F.F."
};
